ISO-10303-21;
HEADER;
/* Generated by software containing ST-Developer
 * from STEP Tools, Inc. (www.steptools.com) 
 */
/* OPTION: using custom renumber hook */

FILE_DESCRIPTION(
/* description */ ('STEP AP242',
'CAx-IF Rec.Pracs.---Representation and Presentation of Product Manufa
cturing Information (PMI)---4.0---2014-10-13',
'CAx-IF Rec.Pracs.---3D Tessellated Geometry---0.4---2014-09-14','2;1'),

/* implementation_level */ '2;1');

FILE_NAME(
/* name */ '686a059b96189f26e3968679',
/* time_stamp */ '2025-07-06T05:11:55Z',
/* author */ (''),
/* organization */ (''),
/* preprocessor_version */ 'ST-DEVELOPER v20',
/* originating_system */ 'ONSHAPE BY PTC INC, 1.200',
/* authorisation */ '  ');

FILE_SCHEMA (('AP242_MANAGED_MODEL_BASED_3D_ENGINEERING_MIM_LF { 1 0 10303 442 1 1 4 }'));
ENDSEC;

DATA;
#10=SHAPE_REPRESENTATION_RELATIONSHIP('','',#740,#11);
#11=ADVANCED_BREP_SHAPE_REPRESENTATION('',(#738),#1180);
#12=CIRCLE('',#766,0.001);
#13=CIRCLE('',#767,0.001);
#14=CIRCLE('',#769,0.001);
#15=CIRCLE('',#770,0.001);
#16=CIRCLE('',#772,0.001);
#17=CIRCLE('',#773,0.001);
#18=CIRCLE('',#775,0.001);
#19=CIRCLE('',#776,0.001);
#20=CIRCLE('',#778,0.001);
#21=CIRCLE('',#779,0.001);
#22=CIRCLE('',#781,0.001);
#23=CIRCLE('',#782,0.001);
#24=CIRCLE('',#784,0.001);
#25=CIRCLE('',#785,0.001);
#26=CIRCLE('',#787,0.006);
#27=CIRCLE('',#788,0.006);
#28=CIRCLE('',#792,0.001);
#29=CIRCLE('',#793,0.001);
#30=CYLINDRICAL_SURFACE('',#765,0.001);
#31=CYLINDRICAL_SURFACE('',#768,0.001);
#32=CYLINDRICAL_SURFACE('',#771,0.001);
#33=CYLINDRICAL_SURFACE('',#774,0.001);
#34=CYLINDRICAL_SURFACE('',#777,0.001);
#35=CYLINDRICAL_SURFACE('',#780,0.001);
#36=CYLINDRICAL_SURFACE('',#783,0.001);
#37=CYLINDRICAL_SURFACE('',#786,0.006);
#38=CYLINDRICAL_SURFACE('',#791,0.001);
#39=ORIENTED_EDGE('',*,*,#225,.F.);
#40=ORIENTED_EDGE('',*,*,#226,.F.);
#41=ORIENTED_EDGE('',*,*,#227,.T.);
#42=ORIENTED_EDGE('',*,*,#228,.T.);
#43=ORIENTED_EDGE('',*,*,#229,.T.);
#44=ORIENTED_EDGE('',*,*,#230,.F.);
#45=ORIENTED_EDGE('',*,*,#231,.F.);
#46=ORIENTED_EDGE('',*,*,#226,.T.);
#47=ORIENTED_EDGE('',*,*,#232,.T.);
#48=ORIENTED_EDGE('',*,*,#233,.F.);
#49=ORIENTED_EDGE('',*,*,#234,.F.);
#50=ORIENTED_EDGE('',*,*,#230,.T.);
#51=ORIENTED_EDGE('',*,*,#235,.T.);
#52=ORIENTED_EDGE('',*,*,#236,.F.);
#53=ORIENTED_EDGE('',*,*,#237,.F.);
#54=ORIENTED_EDGE('',*,*,#238,.T.);
#55=ORIENTED_EDGE('',*,*,#239,.T.);
#56=ORIENTED_EDGE('',*,*,#240,.F.);
#57=ORIENTED_EDGE('',*,*,#241,.F.);
#58=ORIENTED_EDGE('',*,*,#236,.T.);
#59=ORIENTED_EDGE('',*,*,#242,.T.);
#60=ORIENTED_EDGE('',*,*,#243,.F.);
#61=ORIENTED_EDGE('',*,*,#244,.F.);
#62=ORIENTED_EDGE('',*,*,#240,.T.);
#63=ORIENTED_EDGE('',*,*,#245,.F.);
#64=ORIENTED_EDGE('',*,*,#246,.F.);
#65=ORIENTED_EDGE('',*,*,#247,.T.);
#66=ORIENTED_EDGE('',*,*,#243,.T.);
#67=ORIENTED_EDGE('',*,*,#248,.F.);
#68=ORIENTED_EDGE('',*,*,#249,.F.);
#69=ORIENTED_EDGE('',*,*,#250,.T.);
#70=ORIENTED_EDGE('',*,*,#246,.T.);
#71=ORIENTED_EDGE('',*,*,#251,.F.);
#72=ORIENTED_EDGE('',*,*,#252,.F.);
#73=ORIENTED_EDGE('',*,*,#253,.T.);
#74=ORIENTED_EDGE('',*,*,#249,.T.);
#75=ORIENTED_EDGE('',*,*,#254,.F.);
#76=ORIENTED_EDGE('',*,*,#255,.F.);
#77=ORIENTED_EDGE('',*,*,#256,.T.);
#78=ORIENTED_EDGE('',*,*,#252,.T.);
#79=ORIENTED_EDGE('',*,*,#257,.T.);
#80=ORIENTED_EDGE('',*,*,#258,.F.);
#81=ORIENTED_EDGE('',*,*,#259,.F.);
#82=ORIENTED_EDGE('',*,*,#255,.T.);
#83=ORIENTED_EDGE('',*,*,#260,.F.);
#84=ORIENTED_EDGE('',*,*,#261,.F.);
#85=ORIENTED_EDGE('',*,*,#262,.T.);
#86=ORIENTED_EDGE('',*,*,#258,.T.);
#87=ORIENTED_EDGE('',*,*,#263,.F.);
#88=ORIENTED_EDGE('',*,*,#264,.F.);
#89=ORIENTED_EDGE('',*,*,#265,.T.);
#90=ORIENTED_EDGE('',*,*,#261,.T.);
#91=ORIENTED_EDGE('',*,*,#266,.T.);
#92=ORIENTED_EDGE('',*,*,#267,.F.);
#93=ORIENTED_EDGE('',*,*,#268,.F.);
#94=ORIENTED_EDGE('',*,*,#264,.T.);
#95=ORIENTED_EDGE('',*,*,#269,.T.);
#96=ORIENTED_EDGE('',*,*,#270,.F.);
#97=ORIENTED_EDGE('',*,*,#271,.F.);
#98=ORIENTED_EDGE('',*,*,#267,.T.);
#99=ORIENTED_EDGE('',*,*,#272,.T.);
#100=ORIENTED_EDGE('',*,*,#273,.F.);
#101=ORIENTED_EDGE('',*,*,#274,.F.);
#102=ORIENTED_EDGE('',*,*,#270,.T.);
#103=ORIENTED_EDGE('',*,*,#275,.T.);
#104=ORIENTED_EDGE('',*,*,#276,.F.);
#105=ORIENTED_EDGE('',*,*,#277,.F.);
#106=ORIENTED_EDGE('',*,*,#273,.T.);
#107=ORIENTED_EDGE('',*,*,#278,.F.);
#108=ORIENTED_EDGE('',*,*,#279,.F.);
#109=ORIENTED_EDGE('',*,*,#280,.T.);
#110=ORIENTED_EDGE('',*,*,#276,.T.);
#111=ORIENTED_EDGE('',*,*,#281,.F.);
#112=ORIENTED_EDGE('',*,*,#282,.F.);
#113=ORIENTED_EDGE('',*,*,#283,.T.);
#114=ORIENTED_EDGE('',*,*,#279,.T.);
#115=ORIENTED_EDGE('',*,*,#284,.T.);
#116=ORIENTED_EDGE('',*,*,#285,.F.);
#117=ORIENTED_EDGE('',*,*,#286,.F.);
#118=ORIENTED_EDGE('',*,*,#282,.T.);
#119=ORIENTED_EDGE('',*,*,#287,.T.);
#120=ORIENTED_EDGE('',*,*,#288,.F.);
#121=ORIENTED_EDGE('',*,*,#289,.F.);
#122=ORIENTED_EDGE('',*,*,#285,.T.);
#123=ORIENTED_EDGE('',*,*,#290,.F.);
#124=ORIENTED_EDGE('',*,*,#291,.F.);
#125=ORIENTED_EDGE('',*,*,#292,.T.);
#126=ORIENTED_EDGE('',*,*,#288,.T.);
#127=ORIENTED_EDGE('',*,*,#293,.F.);
#128=ORIENTED_EDGE('',*,*,#294,.F.);
#129=ORIENTED_EDGE('',*,*,#295,.T.);
#130=ORIENTED_EDGE('',*,*,#291,.T.);
#131=ORIENTED_EDGE('',*,*,#296,.T.);
#132=ORIENTED_EDGE('',*,*,#297,.F.);
#133=ORIENTED_EDGE('',*,*,#298,.T.);
#134=ORIENTED_EDGE('',*,*,#299,.F.);
#135=ORIENTED_EDGE('',*,*,#300,.T.);
#136=ORIENTED_EDGE('',*,*,#301,.F.);
#137=ORIENTED_EDGE('',*,*,#302,.T.);
#138=ORIENTED_EDGE('',*,*,#303,.F.);
#139=ORIENTED_EDGE('',*,*,#304,.T.);
#140=ORIENTED_EDGE('',*,*,#305,.F.);
#141=ORIENTED_EDGE('',*,*,#306,.T.);
#142=ORIENTED_EDGE('',*,*,#307,.F.);
#143=ORIENTED_EDGE('',*,*,#308,.T.);
#144=ORIENTED_EDGE('',*,*,#309,.F.);
#145=ORIENTED_EDGE('',*,*,#310,.T.);
#146=ORIENTED_EDGE('',*,*,#311,.F.);
#147=ORIENTED_EDGE('',*,*,#312,.F.);
#148=ORIENTED_EDGE('',*,*,#228,.F.);
#149=ORIENTED_EDGE('',*,*,#313,.T.);
#150=ORIENTED_EDGE('',*,*,#233,.T.);
#151=ORIENTED_EDGE('',*,*,#314,.F.);
#152=ORIENTED_EDGE('',*,*,#238,.F.);
#153=ORIENTED_EDGE('',*,*,#315,.T.);
#154=ORIENTED_EDGE('',*,*,#294,.T.);
#155=ORIENTED_EDGE('',*,*,#316,.T.);
#156=ORIENTED_EDGE('',*,*,#317,.F.);
#157=ORIENTED_EDGE('',*,*,#237,.T.);
#158=ORIENTED_EDGE('',*,*,#241,.T.);
#159=ORIENTED_EDGE('',*,*,#244,.T.);
#160=ORIENTED_EDGE('',*,*,#247,.F.);
#161=ORIENTED_EDGE('',*,*,#250,.F.);
#162=ORIENTED_EDGE('',*,*,#253,.F.);
#163=ORIENTED_EDGE('',*,*,#256,.F.);
#164=ORIENTED_EDGE('',*,*,#259,.T.);
#165=ORIENTED_EDGE('',*,*,#262,.F.);
#166=ORIENTED_EDGE('',*,*,#265,.F.);
#167=ORIENTED_EDGE('',*,*,#268,.T.);
#168=ORIENTED_EDGE('',*,*,#271,.T.);
#169=ORIENTED_EDGE('',*,*,#274,.T.);
#170=ORIENTED_EDGE('',*,*,#277,.T.);
#171=ORIENTED_EDGE('',*,*,#280,.F.);
#172=ORIENTED_EDGE('',*,*,#283,.F.);
#173=ORIENTED_EDGE('',*,*,#286,.T.);
#174=ORIENTED_EDGE('',*,*,#289,.T.);
#175=ORIENTED_EDGE('',*,*,#292,.F.);
#176=ORIENTED_EDGE('',*,*,#295,.F.);
#177=ORIENTED_EDGE('',*,*,#315,.F.);
#178=ORIENTED_EDGE('',*,*,#227,.F.);
#179=ORIENTED_EDGE('',*,*,#231,.T.);
#180=ORIENTED_EDGE('',*,*,#234,.T.);
#181=ORIENTED_EDGE('',*,*,#313,.F.);
#182=ORIENTED_EDGE('',*,*,#310,.F.);
#183=ORIENTED_EDGE('',*,*,#308,.F.);
#184=ORIENTED_EDGE('',*,*,#306,.F.);
#185=ORIENTED_EDGE('',*,*,#304,.F.);
#186=ORIENTED_EDGE('',*,*,#302,.F.);
#187=ORIENTED_EDGE('',*,*,#300,.F.);
#188=ORIENTED_EDGE('',*,*,#298,.F.);
#189=ORIENTED_EDGE('',*,*,#296,.F.);
#190=ORIENTED_EDGE('',*,*,#316,.F.);
#191=ORIENTED_EDGE('',*,*,#235,.F.);
#192=ORIENTED_EDGE('',*,*,#314,.T.);
#193=ORIENTED_EDGE('',*,*,#293,.T.);
#194=ORIENTED_EDGE('',*,*,#290,.T.);
#195=ORIENTED_EDGE('',*,*,#287,.F.);
#196=ORIENTED_EDGE('',*,*,#284,.F.);
#197=ORIENTED_EDGE('',*,*,#281,.T.);
#198=ORIENTED_EDGE('',*,*,#278,.T.);
#199=ORIENTED_EDGE('',*,*,#275,.F.);
#200=ORIENTED_EDGE('',*,*,#272,.F.);
#201=ORIENTED_EDGE('',*,*,#269,.F.);
#202=ORIENTED_EDGE('',*,*,#266,.F.);
#203=ORIENTED_EDGE('',*,*,#263,.T.);
#204=ORIENTED_EDGE('',*,*,#260,.T.);
#205=ORIENTED_EDGE('',*,*,#257,.F.);
#206=ORIENTED_EDGE('',*,*,#254,.T.);
#207=ORIENTED_EDGE('',*,*,#251,.T.);
#208=ORIENTED_EDGE('',*,*,#248,.T.);
#209=ORIENTED_EDGE('',*,*,#245,.T.);
#210=ORIENTED_EDGE('',*,*,#242,.F.);
#211=ORIENTED_EDGE('',*,*,#239,.F.);
#212=ORIENTED_EDGE('',*,*,#225,.T.);
#213=ORIENTED_EDGE('',*,*,#312,.T.);
#214=ORIENTED_EDGE('',*,*,#232,.F.);
#215=ORIENTED_EDGE('',*,*,#229,.F.);
#216=ORIENTED_EDGE('',*,*,#311,.T.);
#217=ORIENTED_EDGE('',*,*,#309,.T.);
#218=ORIENTED_EDGE('',*,*,#307,.T.);
#219=ORIENTED_EDGE('',*,*,#305,.T.);
#220=ORIENTED_EDGE('',*,*,#303,.T.);
#221=ORIENTED_EDGE('',*,*,#301,.T.);
#222=ORIENTED_EDGE('',*,*,#299,.T.);
#223=ORIENTED_EDGE('',*,*,#297,.T.);
#224=ORIENTED_EDGE('',*,*,#317,.T.);
#225=EDGE_CURVE('',#318,#319,#386,.T.);
#226=EDGE_CURVE('',#320,#318,#387,.T.);
#227=EDGE_CURVE('',#320,#321,#388,.T.);
#228=EDGE_CURVE('',#321,#319,#389,.T.);
#229=EDGE_CURVE('',#318,#322,#390,.T.);
#230=EDGE_CURVE('',#323,#322,#391,.T.);
#231=EDGE_CURVE('',#320,#323,#392,.T.);
#232=EDGE_CURVE('',#322,#324,#393,.T.);
#233=EDGE_CURVE('',#325,#324,#394,.T.);
#234=EDGE_CURVE('',#323,#325,#395,.T.);
#235=EDGE_CURVE('',#326,#327,#396,.T.);
#236=EDGE_CURVE('',#328,#327,#397,.T.);
#237=EDGE_CURVE('',#329,#328,#398,.T.);
#238=EDGE_CURVE('',#329,#326,#399,.T.);
#239=EDGE_CURVE('',#327,#330,#400,.T.);
#240=EDGE_CURVE('',#331,#330,#401,.T.);
#241=EDGE_CURVE('',#328,#331,#402,.T.);
#242=EDGE_CURVE('',#330,#332,#403,.T.);
#243=EDGE_CURVE('',#333,#332,#404,.T.);
#244=EDGE_CURVE('',#331,#333,#405,.T.);
#245=EDGE_CURVE('',#334,#332,#406,.T.);
#246=EDGE_CURVE('',#335,#334,#407,.T.);
#247=EDGE_CURVE('',#335,#333,#408,.T.);
#248=EDGE_CURVE('',#336,#334,#409,.T.);
#249=EDGE_CURVE('',#337,#336,#410,.T.);
#250=EDGE_CURVE('',#337,#335,#411,.T.);
#251=EDGE_CURVE('',#338,#336,#412,.T.);
#252=EDGE_CURVE('',#339,#338,#413,.T.);
#253=EDGE_CURVE('',#339,#337,#414,.T.);
#254=EDGE_CURVE('',#340,#338,#415,.T.);
#255=EDGE_CURVE('',#341,#340,#416,.T.);
#256=EDGE_CURVE('',#341,#339,#417,.T.);
#257=EDGE_CURVE('',#340,#342,#418,.T.);
#258=EDGE_CURVE('',#343,#342,#419,.T.);
#259=EDGE_CURVE('',#341,#343,#420,.T.);
#260=EDGE_CURVE('',#344,#342,#421,.T.);
#261=EDGE_CURVE('',#345,#344,#422,.T.);
#262=EDGE_CURVE('',#345,#343,#423,.T.);
#263=EDGE_CURVE('',#346,#344,#424,.T.);
#264=EDGE_CURVE('',#347,#346,#425,.T.);
#265=EDGE_CURVE('',#347,#345,#426,.T.);
#266=EDGE_CURVE('',#346,#348,#427,.T.);
#267=EDGE_CURVE('',#349,#348,#428,.T.);
#268=EDGE_CURVE('',#347,#349,#429,.T.);
#269=EDGE_CURVE('',#348,#350,#430,.T.);
#270=EDGE_CURVE('',#351,#350,#431,.T.);
#271=EDGE_CURVE('',#349,#351,#432,.T.);
#272=EDGE_CURVE('',#350,#352,#433,.T.);
#273=EDGE_CURVE('',#353,#352,#434,.T.);
#274=EDGE_CURVE('',#351,#353,#435,.T.);
#275=EDGE_CURVE('',#352,#354,#436,.T.);
#276=EDGE_CURVE('',#355,#354,#437,.T.);
#277=EDGE_CURVE('',#353,#355,#438,.T.);
#278=EDGE_CURVE('',#356,#354,#439,.T.);
#279=EDGE_CURVE('',#357,#356,#440,.T.);
#280=EDGE_CURVE('',#357,#355,#441,.T.);
#281=EDGE_CURVE('',#358,#356,#442,.T.);
#282=EDGE_CURVE('',#359,#358,#443,.T.);
#283=EDGE_CURVE('',#359,#357,#444,.T.);
#284=EDGE_CURVE('',#358,#360,#445,.T.);
#285=EDGE_CURVE('',#361,#360,#446,.T.);
#286=EDGE_CURVE('',#359,#361,#447,.T.);
#287=EDGE_CURVE('',#360,#362,#448,.T.);
#288=EDGE_CURVE('',#363,#362,#449,.T.);
#289=EDGE_CURVE('',#361,#363,#450,.T.);
#290=EDGE_CURVE('',#364,#362,#451,.T.);
#291=EDGE_CURVE('',#365,#364,#452,.T.);
#292=EDGE_CURVE('',#365,#363,#453,.T.);
#293=EDGE_CURVE('',#366,#364,#454,.T.);
#294=EDGE_CURVE('',#367,#366,#455,.T.);
#295=EDGE_CURVE('',#367,#365,#456,.T.);
#296=EDGE_CURVE('',#368,#368,#12,.T.);
#297=EDGE_CURVE('',#369,#369,#13,.T.);
#298=EDGE_CURVE('',#370,#370,#14,.T.);
#299=EDGE_CURVE('',#371,#371,#15,.T.);
#300=EDGE_CURVE('',#372,#372,#16,.T.);
#301=EDGE_CURVE('',#373,#373,#17,.T.);
#302=EDGE_CURVE('',#374,#374,#18,.T.);
#303=EDGE_CURVE('',#375,#375,#19,.T.);
#304=EDGE_CURVE('',#376,#376,#20,.T.);
#305=EDGE_CURVE('',#377,#377,#21,.T.);
#306=EDGE_CURVE('',#378,#378,#22,.T.);
#307=EDGE_CURVE('',#379,#379,#23,.T.);
#308=EDGE_CURVE('',#380,#380,#24,.T.);
#309=EDGE_CURVE('',#381,#381,#25,.T.);
#310=EDGE_CURVE('',#382,#382,#26,.T.);
#311=EDGE_CURVE('',#383,#383,#27,.T.);
#312=EDGE_CURVE('',#319,#324,#457,.T.);
#313=EDGE_CURVE('',#321,#325,#458,.T.);
#314=EDGE_CURVE('',#326,#366,#459,.T.);
#315=EDGE_CURVE('',#329,#367,#460,.T.);
#316=EDGE_CURVE('',#384,#384,#28,.T.);
#317=EDGE_CURVE('',#385,#385,#29,.T.);
#318=VERTEX_POINT('',#984);
#319=VERTEX_POINT('',#985);
#320=VERTEX_POINT('',#987);
#321=VERTEX_POINT('',#989);
#322=VERTEX_POINT('',#993);
#323=VERTEX_POINT('',#995);
#324=VERTEX_POINT('',#999);
#325=VERTEX_POINT('',#1001);
#326=VERTEX_POINT('',#1005);
#327=VERTEX_POINT('',#1006);
#328=VERTEX_POINT('',#1008);
#329=VERTEX_POINT('',#1010);
#330=VERTEX_POINT('',#1014);
#331=VERTEX_POINT('',#1016);
#332=VERTEX_POINT('',#1020);
#333=VERTEX_POINT('',#1022);
#334=VERTEX_POINT('',#1026);
#335=VERTEX_POINT('',#1028);
#336=VERTEX_POINT('',#1032);
#337=VERTEX_POINT('',#1034);
#338=VERTEX_POINT('',#1038);
#339=VERTEX_POINT('',#1040);
#340=VERTEX_POINT('',#1044);
#341=VERTEX_POINT('',#1046);
#342=VERTEX_POINT('',#1050);
#343=VERTEX_POINT('',#1052);
#344=VERTEX_POINT('',#1056);
#345=VERTEX_POINT('',#1058);
#346=VERTEX_POINT('',#1062);
#347=VERTEX_POINT('',#1064);
#348=VERTEX_POINT('',#1068);
#349=VERTEX_POINT('',#1070);
#350=VERTEX_POINT('',#1074);
#351=VERTEX_POINT('',#1076);
#352=VERTEX_POINT('',#1080);
#353=VERTEX_POINT('',#1082);
#354=VERTEX_POINT('',#1086);
#355=VERTEX_POINT('',#1088);
#356=VERTEX_POINT('',#1092);
#357=VERTEX_POINT('',#1094);
#358=VERTEX_POINT('',#1098);
#359=VERTEX_POINT('',#1100);
#360=VERTEX_POINT('',#1104);
#361=VERTEX_POINT('',#1106);
#362=VERTEX_POINT('',#1110);
#363=VERTEX_POINT('',#1112);
#364=VERTEX_POINT('',#1116);
#365=VERTEX_POINT('',#1118);
#366=VERTEX_POINT('',#1122);
#367=VERTEX_POINT('',#1124);
#368=VERTEX_POINT('',#1128);
#369=VERTEX_POINT('',#1130);
#370=VERTEX_POINT('',#1133);
#371=VERTEX_POINT('',#1135);
#372=VERTEX_POINT('',#1138);
#373=VERTEX_POINT('',#1140);
#374=VERTEX_POINT('',#1143);
#375=VERTEX_POINT('',#1145);
#376=VERTEX_POINT('',#1148);
#377=VERTEX_POINT('',#1150);
#378=VERTEX_POINT('',#1153);
#379=VERTEX_POINT('',#1155);
#380=VERTEX_POINT('',#1158);
#381=VERTEX_POINT('',#1160);
#382=VERTEX_POINT('',#1163);
#383=VERTEX_POINT('',#1165);
#384=VERTEX_POINT('',#1174);
#385=VERTEX_POINT('',#1176);
#386=LINE('',#983,#461);
#387=LINE('',#986,#462);
#388=LINE('',#988,#463);
#389=LINE('',#990,#464);
#390=LINE('',#992,#465);
#391=LINE('',#994,#466);
#392=LINE('',#996,#467);
#393=LINE('',#998,#468);
#394=LINE('',#1000,#469);
#395=LINE('',#1002,#470);
#396=LINE('',#1004,#471);
#397=LINE('',#1007,#472);
#398=LINE('',#1009,#473);
#399=LINE('',#1011,#474);
#400=LINE('',#1013,#475);
#401=LINE('',#1015,#476);
#402=LINE('',#1017,#477);
#403=LINE('',#1019,#478);
#404=LINE('',#1021,#479);
#405=LINE('',#1023,#480);
#406=LINE('',#1025,#481);
#407=LINE('',#1027,#482);
#408=LINE('',#1029,#483);
#409=LINE('',#1031,#484);
#410=LINE('',#1033,#485);
#411=LINE('',#1035,#486);
#412=LINE('',#1037,#487);
#413=LINE('',#1039,#488);
#414=LINE('',#1041,#489);
#415=LINE('',#1043,#490);
#416=LINE('',#1045,#491);
#417=LINE('',#1047,#492);
#418=LINE('',#1049,#493);
#419=LINE('',#1051,#494);
#420=LINE('',#1053,#495);
#421=LINE('',#1055,#496);
#422=LINE('',#1057,#497);
#423=LINE('',#1059,#498);
#424=LINE('',#1061,#499);
#425=LINE('',#1063,#500);
#426=LINE('',#1065,#501);
#427=LINE('',#1067,#502);
#428=LINE('',#1069,#503);
#429=LINE('',#1071,#504);
#430=LINE('',#1073,#505);
#431=LINE('',#1075,#506);
#432=LINE('',#1077,#507);
#433=LINE('',#1079,#508);
#434=LINE('',#1081,#509);
#435=LINE('',#1083,#510);
#436=LINE('',#1085,#511);
#437=LINE('',#1087,#512);
#438=LINE('',#1089,#513);
#439=LINE('',#1091,#514);
#440=LINE('',#1093,#515);
#441=LINE('',#1095,#516);
#442=LINE('',#1097,#517);
#443=LINE('',#1099,#518);
#444=LINE('',#1101,#519);
#445=LINE('',#1103,#520);
#446=LINE('',#1105,#521);
#447=LINE('',#1107,#522);
#448=LINE('',#1109,#523);
#449=LINE('',#1111,#524);
#450=LINE('',#1113,#525);
#451=LINE('',#1115,#526);
#452=LINE('',#1117,#527);
#453=LINE('',#1119,#528);
#454=LINE('',#1121,#529);
#455=LINE('',#1123,#530);
#456=LINE('',#1125,#531);
#457=LINE('',#1167,#532);
#458=LINE('',#1168,#533);
#459=LINE('',#1170,#534);
#460=LINE('',#1171,#535);
#461=VECTOR('',#800,1.);
#462=VECTOR('',#801,1.);
#463=VECTOR('',#802,1.);
#464=VECTOR('',#803,1.);
#465=VECTOR('',#806,1.);
#466=VECTOR('',#807,1.);
#467=VECTOR('',#808,1.);
#468=VECTOR('',#811,1.);
#469=VECTOR('',#812,1.);
#470=VECTOR('',#813,1.);
#471=VECTOR('',#816,1.);
#472=VECTOR('',#817,1.);
#473=VECTOR('',#818,1.);
#474=VECTOR('',#819,1.);
#475=VECTOR('',#822,1.);
#476=VECTOR('',#823,1.);
#477=VECTOR('',#824,1.);
#478=VECTOR('',#827,1.);
#479=VECTOR('',#828,1.);
#480=VECTOR('',#829,1.);
#481=VECTOR('',#832,1.);
#482=VECTOR('',#833,1.);
#483=VECTOR('',#834,1.);
#484=VECTOR('',#837,1.);
#485=VECTOR('',#838,1.);
#486=VECTOR('',#839,1.);
#487=VECTOR('',#842,1.);
#488=VECTOR('',#843,1.);
#489=VECTOR('',#844,1.);
#490=VECTOR('',#847,1.);
#491=VECTOR('',#848,1.);
#492=VECTOR('',#849,1.);
#493=VECTOR('',#852,1.);
#494=VECTOR('',#853,1.);
#495=VECTOR('',#854,1.);
#496=VECTOR('',#857,1.);
#497=VECTOR('',#858,1.);
#498=VECTOR('',#859,1.);
#499=VECTOR('',#862,1.);
#500=VECTOR('',#863,1.);
#501=VECTOR('',#864,1.);
#502=VECTOR('',#867,1.);
#503=VECTOR('',#868,1.);
#504=VECTOR('',#869,1.);
#505=VECTOR('',#872,1.);
#506=VECTOR('',#873,1.);
#507=VECTOR('',#874,1.);
#508=VECTOR('',#877,1.);
#509=VECTOR('',#878,1.);
#510=VECTOR('',#879,1.);
#511=VECTOR('',#882,1.);
#512=VECTOR('',#883,1.);
#513=VECTOR('',#884,1.);
#514=VECTOR('',#887,1.);
#515=VECTOR('',#888,1.);
#516=VECTOR('',#889,1.);
#517=VECTOR('',#892,1.);
#518=VECTOR('',#893,1.);
#519=VECTOR('',#894,1.);
#520=VECTOR('',#897,1.);
#521=VECTOR('',#898,1.);
#522=VECTOR('',#899,1.);
#523=VECTOR('',#902,1.);
#524=VECTOR('',#903,1.);
#525=VECTOR('',#904,1.);
#526=VECTOR('',#907,1.);
#527=VECTOR('',#908,1.);
#528=VECTOR('',#909,1.);
#529=VECTOR('',#912,1.);
#530=VECTOR('',#913,1.);
#531=VECTOR('',#914,1.);
#532=VECTOR('',#965,1.);
#533=VECTOR('',#966,1.);
#534=VECTOR('',#969,1.);
#535=VECTOR('',#970,1.);
#536=EDGE_LOOP('',(#39,#40,#41,#42));
#537=EDGE_LOOP('',(#43,#44,#45,#46));
#538=EDGE_LOOP('',(#47,#48,#49,#50));
#539=EDGE_LOOP('',(#51,#52,#53,#54));
#540=EDGE_LOOP('',(#55,#56,#57,#58));
#541=EDGE_LOOP('',(#59,#60,#61,#62));
#542=EDGE_LOOP('',(#63,#64,#65,#66));
#543=EDGE_LOOP('',(#67,#68,#69,#70));
#544=EDGE_LOOP('',(#71,#72,#73,#74));
#545=EDGE_LOOP('',(#75,#76,#77,#78));
#546=EDGE_LOOP('',(#79,#80,#81,#82));
#547=EDGE_LOOP('',(#83,#84,#85,#86));
#548=EDGE_LOOP('',(#87,#88,#89,#90));
#549=EDGE_LOOP('',(#91,#92,#93,#94));
#550=EDGE_LOOP('',(#95,#96,#97,#98));
#551=EDGE_LOOP('',(#99,#100,#101,#102));
#552=EDGE_LOOP('',(#103,#104,#105,#106));
#553=EDGE_LOOP('',(#107,#108,#109,#110));
#554=EDGE_LOOP('',(#111,#112,#113,#114));
#555=EDGE_LOOP('',(#115,#116,#117,#118));
#556=EDGE_LOOP('',(#119,#120,#121,#122));
#557=EDGE_LOOP('',(#123,#124,#125,#126));
#558=EDGE_LOOP('',(#127,#128,#129,#130));
#559=EDGE_LOOP('',(#131));
#560=EDGE_LOOP('',(#132));
#561=EDGE_LOOP('',(#133));
#562=EDGE_LOOP('',(#134));
#563=EDGE_LOOP('',(#135));
#564=EDGE_LOOP('',(#136));
#565=EDGE_LOOP('',(#137));
#566=EDGE_LOOP('',(#138));
#567=EDGE_LOOP('',(#139));
#568=EDGE_LOOP('',(#140));
#569=EDGE_LOOP('',(#141));
#570=EDGE_LOOP('',(#142));
#571=EDGE_LOOP('',(#143));
#572=EDGE_LOOP('',(#144));
#573=EDGE_LOOP('',(#145));
#574=EDGE_LOOP('',(#146));
#575=EDGE_LOOP('',(#147,#148,#149,#150));
#576=EDGE_LOOP('',(#151,#152,#153,#154));
#577=EDGE_LOOP('',(#155));
#578=EDGE_LOOP('',(#156));
#579=EDGE_LOOP('',(#157,#158,#159,#160,#161,#162,#163,#164,#165,#166,#167,
#168,#169,#170,#171,#172,#173,#174,#175,#176,#177));
#580=EDGE_LOOP('',(#178,#179,#180,#181));
#581=EDGE_LOOP('',(#182));
#582=EDGE_LOOP('',(#183));
#583=EDGE_LOOP('',(#184));
#584=EDGE_LOOP('',(#185));
#585=EDGE_LOOP('',(#186));
#586=EDGE_LOOP('',(#187));
#587=EDGE_LOOP('',(#188));
#588=EDGE_LOOP('',(#189));
#589=EDGE_LOOP('',(#190));
#590=EDGE_LOOP('',(#191,#192,#193,#194,#195,#196,#197,#198,#199,#200,#201,
#202,#203,#204,#205,#206,#207,#208,#209,#210,#211));
#591=EDGE_LOOP('',(#212,#213,#214,#215));
#592=EDGE_LOOP('',(#216));
#593=EDGE_LOOP('',(#217));
#594=EDGE_LOOP('',(#218));
#595=EDGE_LOOP('',(#219));
#596=EDGE_LOOP('',(#220));
#597=EDGE_LOOP('',(#221));
#598=EDGE_LOOP('',(#222));
#599=EDGE_LOOP('',(#223));
#600=EDGE_LOOP('',(#224));
#601=FACE_BOUND('',#536,.T.);
#602=FACE_BOUND('',#537,.T.);
#603=FACE_BOUND('',#538,.T.);
#604=FACE_BOUND('',#539,.T.);
#605=FACE_BOUND('',#540,.T.);
#606=FACE_BOUND('',#541,.T.);
#607=FACE_BOUND('',#542,.T.);
#608=FACE_BOUND('',#543,.T.);
#609=FACE_BOUND('',#544,.T.);
#610=FACE_BOUND('',#545,.T.);
#611=FACE_BOUND('',#546,.T.);
#612=FACE_BOUND('',#547,.T.);
#613=FACE_BOUND('',#548,.T.);
#614=FACE_BOUND('',#549,.T.);
#615=FACE_BOUND('',#550,.T.);
#616=FACE_BOUND('',#551,.T.);
#617=FACE_BOUND('',#552,.T.);
#618=FACE_BOUND('',#553,.T.);
#619=FACE_BOUND('',#554,.T.);
#620=FACE_BOUND('',#555,.T.);
#621=FACE_BOUND('',#556,.T.);
#622=FACE_BOUND('',#557,.T.);
#623=FACE_BOUND('',#558,.T.);
#624=FACE_BOUND('',#559,.T.);
#625=FACE_BOUND('',#560,.T.);
#626=FACE_BOUND('',#561,.T.);
#627=FACE_BOUND('',#562,.T.);
#628=FACE_BOUND('',#563,.T.);
#629=FACE_BOUND('',#564,.T.);
#630=FACE_BOUND('',#565,.T.);
#631=FACE_BOUND('',#566,.T.);
#632=FACE_BOUND('',#567,.T.);
#633=FACE_BOUND('',#568,.T.);
#634=FACE_BOUND('',#569,.T.);
#635=FACE_BOUND('',#570,.T.);
#636=FACE_BOUND('',#571,.T.);
#637=FACE_BOUND('',#572,.T.);
#638=FACE_BOUND('',#573,.T.);
#639=FACE_BOUND('',#574,.T.);
#640=FACE_BOUND('',#575,.T.);
#641=FACE_BOUND('',#576,.T.);
#642=FACE_BOUND('',#577,.T.);
#643=FACE_BOUND('',#578,.T.);
#644=FACE_BOUND('',#579,.T.);
#645=FACE_BOUND('',#580,.T.);
#646=FACE_BOUND('',#581,.T.);
#647=FACE_BOUND('',#582,.T.);
#648=FACE_BOUND('',#583,.T.);
#649=FACE_BOUND('',#584,.T.);
#650=FACE_BOUND('',#585,.T.);
#651=FACE_BOUND('',#586,.T.);
#652=FACE_BOUND('',#587,.T.);
#653=FACE_BOUND('',#588,.T.);
#654=FACE_BOUND('',#589,.T.);
#655=FACE_BOUND('',#590,.T.);
#656=FACE_BOUND('',#591,.T.);
#657=FACE_BOUND('',#592,.T.);
#658=FACE_BOUND('',#593,.T.);
#659=FACE_BOUND('',#594,.T.);
#660=FACE_BOUND('',#595,.T.);
#661=FACE_BOUND('',#596,.T.);
#662=FACE_BOUND('',#597,.T.);
#663=FACE_BOUND('',#598,.T.);
#664=FACE_BOUND('',#599,.T.);
#665=FACE_BOUND('',#600,.T.);
#666=PLANE('',#742);
#667=PLANE('',#743);
#668=PLANE('',#744);
#669=PLANE('',#745);
#670=PLANE('',#746);
#671=PLANE('',#747);
#672=PLANE('',#748);
#673=PLANE('',#749);
#674=PLANE('',#750);
#675=PLANE('',#751);
#676=PLANE('',#752);
#677=PLANE('',#753);
#678=PLANE('',#754);
#679=PLANE('',#755);
#680=PLANE('',#756);
#681=PLANE('',#757);
#682=PLANE('',#758);
#683=PLANE('',#759);
#684=PLANE('',#760);
#685=PLANE('',#761);
#686=PLANE('',#762);
#687=PLANE('',#763);
#688=PLANE('',#764);
#689=PLANE('',#789);
#690=PLANE('',#790);
#691=PLANE('',#794);
#692=PLANE('',#795);
#693=ADVANCED_FACE('',(#601),#666,.T.);
#694=ADVANCED_FACE('',(#602),#667,.F.);
#695=ADVANCED_FACE('',(#603),#668,.F.);
#696=ADVANCED_FACE('',(#604),#669,.F.);
#697=ADVANCED_FACE('',(#605),#670,.F.);
#698=ADVANCED_FACE('',(#606),#671,.F.);
#699=ADVANCED_FACE('',(#607),#672,.T.);
#700=ADVANCED_FACE('',(#608),#673,.T.);
#701=ADVANCED_FACE('',(#609),#674,.T.);
#702=ADVANCED_FACE('',(#610),#675,.T.);
#703=ADVANCED_FACE('',(#611),#676,.F.);
#704=ADVANCED_FACE('',(#612),#677,.T.);
#705=ADVANCED_FACE('',(#613),#678,.T.);
#706=ADVANCED_FACE('',(#614),#679,.F.);
#707=ADVANCED_FACE('',(#615),#680,.F.);
#708=ADVANCED_FACE('',(#616),#681,.F.);
#709=ADVANCED_FACE('',(#617),#682,.F.);
#710=ADVANCED_FACE('',(#618),#683,.T.);
#711=ADVANCED_FACE('',(#619),#684,.T.);
#712=ADVANCED_FACE('',(#620),#685,.F.);
#713=ADVANCED_FACE('',(#621),#686,.F.);
#714=ADVANCED_FACE('',(#622),#687,.T.);
#715=ADVANCED_FACE('',(#623),#688,.T.);
#716=ADVANCED_FACE('',(#624,#625),#30,.F.);
#717=ADVANCED_FACE('',(#626,#627),#31,.F.);
#718=ADVANCED_FACE('',(#628,#629),#32,.F.);
#719=ADVANCED_FACE('',(#630,#631),#33,.F.);
#720=ADVANCED_FACE('',(#632,#633),#34,.F.);
#721=ADVANCED_FACE('',(#634,#635),#35,.F.);
#722=ADVANCED_FACE('',(#636,#637),#36,.F.);
#723=ADVANCED_FACE('',(#638,#639),#37,.F.);
#724=ADVANCED_FACE('',(#640),#689,.T.);
#725=ADVANCED_FACE('',(#641),#690,.T.);
#726=ADVANCED_FACE('',(#642,#643),#38,.F.);
#727=ADVANCED_FACE('',(#644,#645,#646,#647,#648,#649,#650,#651,#652,#653,
#654),#691,.T.);
#728=ADVANCED_FACE('',(#655,#656,#657,#658,#659,#660,#661,#662,#663,#664,
#665),#692,.F.);
#729=CLOSED_SHELL('',(#693,#694,#695,#696,#697,#698,#699,#700,#701,#702,
#703,#704,#705,#706,#707,#708,#709,#710,#711,#712,#713,#714,#715,#716,#717,
#718,#719,#720,#721,#722,#723,#724,#725,#726,#727,#728));
#730=STYLED_ITEM('',(#731),#738);
#731=PRESENTATION_STYLE_ASSIGNMENT((#732));
#732=SURFACE_STYLE_USAGE(.BOTH.,#733);
#733=SURFACE_SIDE_STYLE('',(#734));
#734=SURFACE_STYLE_FILL_AREA(#735);
#735=FILL_AREA_STYLE('',(#736));
#736=FILL_AREA_STYLE_COLOUR('',#737);
#737=DRAUGHTING_PRE_DEFINED_COLOUR('black');
#738=MANIFOLD_SOLID_BREP('Part 1',#729);
#739=SHAPE_DEFINITION_REPRESENTATION(#1185,#740);
#740=SHAPE_REPRESENTATION('Part 1',(#741),#1180);
#741=AXIS2_PLACEMENT_3D('',#981,#796,#797);
#742=AXIS2_PLACEMENT_3D('',#982,#798,#799);
#743=AXIS2_PLACEMENT_3D('',#991,#804,#805);
#744=AXIS2_PLACEMENT_3D('',#997,#809,#810);
#745=AXIS2_PLACEMENT_3D('',#1003,#814,#815);
#746=AXIS2_PLACEMENT_3D('',#1012,#820,#821);
#747=AXIS2_PLACEMENT_3D('',#1018,#825,#826);
#748=AXIS2_PLACEMENT_3D('',#1024,#830,#831);
#749=AXIS2_PLACEMENT_3D('',#1030,#835,#836);
#750=AXIS2_PLACEMENT_3D('',#1036,#840,#841);
#751=AXIS2_PLACEMENT_3D('',#1042,#845,#846);
#752=AXIS2_PLACEMENT_3D('',#1048,#850,#851);
#753=AXIS2_PLACEMENT_3D('',#1054,#855,#856);
#754=AXIS2_PLACEMENT_3D('',#1060,#860,#861);
#755=AXIS2_PLACEMENT_3D('',#1066,#865,#866);
#756=AXIS2_PLACEMENT_3D('',#1072,#870,#871);
#757=AXIS2_PLACEMENT_3D('',#1078,#875,#876);
#758=AXIS2_PLACEMENT_3D('',#1084,#880,#881);
#759=AXIS2_PLACEMENT_3D('',#1090,#885,#886);
#760=AXIS2_PLACEMENT_3D('',#1096,#890,#891);
#761=AXIS2_PLACEMENT_3D('',#1102,#895,#896);
#762=AXIS2_PLACEMENT_3D('',#1108,#900,#901);
#763=AXIS2_PLACEMENT_3D('',#1114,#905,#906);
#764=AXIS2_PLACEMENT_3D('',#1120,#910,#911);
#765=AXIS2_PLACEMENT_3D('',#1126,#915,#916);
#766=AXIS2_PLACEMENT_3D('',#1127,#917,#918);
#767=AXIS2_PLACEMENT_3D('',#1129,#919,#920);
#768=AXIS2_PLACEMENT_3D('',#1131,#921,#922);
#769=AXIS2_PLACEMENT_3D('',#1132,#923,#924);
#770=AXIS2_PLACEMENT_3D('',#1134,#925,#926);
#771=AXIS2_PLACEMENT_3D('',#1136,#927,#928);
#772=AXIS2_PLACEMENT_3D('',#1137,#929,#930);
#773=AXIS2_PLACEMENT_3D('',#1139,#931,#932);
#774=AXIS2_PLACEMENT_3D('',#1141,#933,#934);
#775=AXIS2_PLACEMENT_3D('',#1142,#935,#936);
#776=AXIS2_PLACEMENT_3D('',#1144,#937,#938);
#777=AXIS2_PLACEMENT_3D('',#1146,#939,#940);
#778=AXIS2_PLACEMENT_3D('',#1147,#941,#942);
#779=AXIS2_PLACEMENT_3D('',#1149,#943,#944);
#780=AXIS2_PLACEMENT_3D('',#1151,#945,#946);
#781=AXIS2_PLACEMENT_3D('',#1152,#947,#948);
#782=AXIS2_PLACEMENT_3D('',#1154,#949,#950);
#783=AXIS2_PLACEMENT_3D('',#1156,#951,#952);
#784=AXIS2_PLACEMENT_3D('',#1157,#953,#954);
#785=AXIS2_PLACEMENT_3D('',#1159,#955,#956);
#786=AXIS2_PLACEMENT_3D('',#1161,#957,#958);
#787=AXIS2_PLACEMENT_3D('',#1162,#959,#960);
#788=AXIS2_PLACEMENT_3D('',#1164,#961,#962);
#789=AXIS2_PLACEMENT_3D('',#1166,#963,#964);
#790=AXIS2_PLACEMENT_3D('',#1169,#967,#968);
#791=AXIS2_PLACEMENT_3D('',#1172,#971,#972);
#792=AXIS2_PLACEMENT_3D('',#1173,#973,#974);
#793=AXIS2_PLACEMENT_3D('',#1175,#975,#976);
#794=AXIS2_PLACEMENT_3D('',#1177,#977,#978);
#795=AXIS2_PLACEMENT_3D('',#1178,#979,#980);
#796=DIRECTION('',(0.,0.,1.));
#797=DIRECTION('',(1.,0.,0.));
#798=DIRECTION('',(0.,1.,0.));
#799=DIRECTION('',(0.,0.,1.));
#800=DIRECTION('',(1.,0.,0.));
#801=DIRECTION('',(0.,0.,-1.));
#802=DIRECTION('',(1.,0.,0.));
#803=DIRECTION('',(0.,0.,-1.));
#804=DIRECTION('',(1.,1.7347234759768E-16,0.));
#805=DIRECTION('',(-1.7347234759768E-16,1.,0.));
#806=DIRECTION('',(1.7347234759768E-16,-1.,0.));
#807=DIRECTION('',(0.,0.,-1.));
#808=DIRECTION('',(1.7347234759768E-16,-1.,0.));
#809=DIRECTION('',(-2.77555756156289E-16,1.,0.));
#810=DIRECTION('',(-1.,-2.77555756156289E-16,0.));
#811=DIRECTION('',(1.,2.77555756156289E-16,0.));
#812=DIRECTION('',(0.,0.,-1.));
#813=DIRECTION('',(1.,2.77555756156289E-16,0.));
#814=DIRECTION('',(-0.707106781186548,0.707106781186547,0.));
#815=DIRECTION('',(-0.707106781186547,-0.707106781186548,0.));
#816=DIRECTION('',(0.707106781186547,0.707106781186548,0.));
#817=DIRECTION('',(0.,0.,-1.));
#818=DIRECTION('',(0.707106781186547,0.707106781186548,0.));
#819=DIRECTION('',(0.,0.,-1.));
#820=DIRECTION('',(-3.08395284618098E-16,1.,0.));
#821=DIRECTION('',(-1.,-3.08395284618098E-16,0.));
#822=DIRECTION('',(1.,3.08395284618098E-16,0.));
#823=DIRECTION('',(0.,0.,-1.));
#824=DIRECTION('',(1.,3.08395284618098E-16,0.));
#825=DIRECTION('',(1.,4.80857627945333E-16,0.));
#826=DIRECTION('',(-4.80857627945333E-16,1.,0.));
#827=DIRECTION('',(4.80857627945333E-16,-1.,0.));
#828=DIRECTION('',(0.,0.,-1.));
#829=DIRECTION('',(4.80857627945333E-16,-1.,0.));
#830=DIRECTION('',(0.,1.,0.));
#831=DIRECTION('',(0.,0.,1.));
#832=DIRECTION('',(1.,0.,0.));
#833=DIRECTION('',(0.,0.,-1.));
#834=DIRECTION('',(1.,0.,0.));
#835=DIRECTION('',(-0.707106781186548,0.707106781186548,0.));
#836=DIRECTION('',(-0.707106781186548,-0.707106781186548,0.));
#837=DIRECTION('',(0.707106781186548,0.707106781186548,0.));
#838=DIRECTION('',(0.,0.,-1.));
#839=DIRECTION('',(0.707106781186548,0.707106781186548,0.));
#840=DIRECTION('',(0.,1.,0.));
#841=DIRECTION('',(0.,0.,1.));
#842=DIRECTION('',(1.,0.,0.));
#843=DIRECTION('',(0.,0.,-1.));
#844=DIRECTION('',(1.,0.,0.));
#845=DIRECTION('',(-0.707106781186548,0.707106781186547,0.));
#846=DIRECTION('',(-0.707106781186547,-0.707106781186548,0.));
#847=DIRECTION('',(0.707106781186547,0.707106781186548,0.));
#848=DIRECTION('',(0.,0.,-1.));
#849=DIRECTION('',(0.707106781186547,0.707106781186548,0.));
#850=DIRECTION('',(0.,1.,0.));
#851=DIRECTION('',(0.,0.,1.));
#852=DIRECTION('',(1.,0.,0.));
#853=DIRECTION('',(0.,0.,-1.));
#854=DIRECTION('',(1.,0.,0.));
#855=DIRECTION('',(-1.,0.,0.));
#856=DIRECTION('',(0.,0.,1.));
#857=DIRECTION('',(0.,1.,0.));
#858=DIRECTION('',(0.,0.,-1.));
#859=DIRECTION('',(0.,1.,0.));
#860=DIRECTION('',(0.,1.,0.));
#861=DIRECTION('',(0.,0.,1.));
#862=DIRECTION('',(1.,0.,0.));
#863=DIRECTION('',(0.,0.,-1.));
#864=DIRECTION('',(1.,0.,0.));
#865=DIRECTION('',(-1.,0.,0.));
#866=DIRECTION('',(0.,0.,1.));
#867=DIRECTION('',(0.,1.,0.));
#868=DIRECTION('',(0.,0.,-1.));
#869=DIRECTION('',(0.,1.,0.));
#870=DIRECTION('',(0.707106781186548,-0.707106781186548,0.));
#871=DIRECTION('',(0.707106781186548,0.707106781186548,0.));
#872=DIRECTION('',(-0.707106781186548,-0.707106781186548,0.));
#873=DIRECTION('',(0.,0.,-1.));
#874=DIRECTION('',(-0.707106781186548,-0.707106781186548,0.));
#875=DIRECTION('',(1.,0.,0.));
#876=DIRECTION('',(0.,0.,-1.));
#877=DIRECTION('',(0.,-1.,0.));
#878=DIRECTION('',(0.,0.,-1.));
#879=DIRECTION('',(0.,-1.,0.));
#880=DIRECTION('',(0.707106781186548,-0.707106781186547,0.));
#881=DIRECTION('',(0.707106781186547,0.707106781186548,0.));
#882=DIRECTION('',(-0.707106781186547,-0.707106781186548,0.));
#883=DIRECTION('',(0.,0.,-1.));
#884=DIRECTION('',(-0.707106781186547,-0.707106781186548,0.));
#885=DIRECTION('',(0.,1.,0.));
#886=DIRECTION('',(0.,0.,1.));
#887=DIRECTION('',(1.,0.,0.));
#888=DIRECTION('',(0.,0.,-1.));
#889=DIRECTION('',(1.,0.,0.));
#890=DIRECTION('',(1.,3.96508223080412E-16,0.));
#891=DIRECTION('',(-3.96508223080412E-16,1.,0.));
#892=DIRECTION('',(3.96508223080412E-16,-1.,0.));
#893=DIRECTION('',(0.,0.,-1.));
#894=DIRECTION('',(3.96508223080412E-16,-1.,0.));
#895=DIRECTION('',(0.,1.,0.));
#896=DIRECTION('',(0.,0.,1.));
#897=DIRECTION('',(1.,0.,0.));
#898=DIRECTION('',(0.,0.,-1.));
#899=DIRECTION('',(1.,0.,0.));
#900=DIRECTION('',(-0.707106781186548,0.707106781186547,0.));
#901=DIRECTION('',(-0.707106781186547,-0.707106781186548,0.));
#902=DIRECTION('',(0.707106781186547,0.707106781186548,0.));
#903=DIRECTION('',(0.,0.,-1.));
#904=DIRECTION('',(0.707106781186547,0.707106781186548,0.));
#905=DIRECTION('',(0.,1.,0.));
#906=DIRECTION('',(0.,0.,1.));
#907=DIRECTION('',(1.,0.,0.));
#908=DIRECTION('',(0.,0.,-1.));
#909=DIRECTION('',(1.,0.,0.));
#910=DIRECTION('',(0.707106781186548,-0.707106781186548,0.));
#911=DIRECTION('',(0.707106781186548,0.707106781186548,0.));
#912=DIRECTION('',(-0.707106781186548,-0.707106781186548,0.));
#913=DIRECTION('',(0.,0.,-1.));
#914=DIRECTION('',(-0.707106781186548,-0.707106781186548,0.));
#915=DIRECTION('',(0.,0.,-1.));
#916=DIRECTION('',(-1.,0.,0.));
#917=DIRECTION('',(0.,0.,1.));
#918=DIRECTION('',(1.,0.,0.));
#919=DIRECTION('',(0.,0.,1.));
#920=DIRECTION('',(1.,0.,0.));
#921=DIRECTION('',(0.,0.,-1.));
#922=DIRECTION('',(-1.,0.,0.));
#923=DIRECTION('',(0.,0.,1.));
#924=DIRECTION('',(1.,0.,0.));
#925=DIRECTION('',(0.,0.,1.));
#926=DIRECTION('',(1.,0.,0.));
#927=DIRECTION('',(0.,0.,-1.));
#928=DIRECTION('',(-1.,0.,0.));
#929=DIRECTION('',(0.,0.,1.));
#930=DIRECTION('',(1.,0.,0.));
#931=DIRECTION('',(0.,0.,1.));
#932=DIRECTION('',(1.,0.,0.));
#933=DIRECTION('',(0.,0.,-1.));
#934=DIRECTION('',(-1.,0.,0.));
#935=DIRECTION('',(0.,0.,1.));
#936=DIRECTION('',(1.,0.,0.));
#937=DIRECTION('',(0.,0.,1.));
#938=DIRECTION('',(1.,0.,0.));
#939=DIRECTION('',(0.,0.,-1.));
#940=DIRECTION('',(-1.,0.,0.));
#941=DIRECTION('',(0.,0.,1.));
#942=DIRECTION('',(1.,0.,0.));
#943=DIRECTION('',(0.,0.,1.));
#944=DIRECTION('',(1.,0.,0.));
#945=DIRECTION('',(0.,0.,-1.));
#946=DIRECTION('',(-1.,0.,0.));
#947=DIRECTION('',(0.,0.,1.));
#948=DIRECTION('',(1.,0.,0.));
#949=DIRECTION('',(0.,0.,1.));
#950=DIRECTION('',(1.,0.,0.));
#951=DIRECTION('',(0.,0.,-1.));
#952=DIRECTION('',(-1.,0.,0.));
#953=DIRECTION('',(0.,0.,1.));
#954=DIRECTION('',(1.,0.,0.));
#955=DIRECTION('',(0.,0.,1.));
#956=DIRECTION('',(1.,0.,0.));
#957=DIRECTION('',(0.,0.,-1.));
#958=DIRECTION('',(-1.,0.,0.));
#959=DIRECTION('',(0.,0.,1.));
#960=DIRECTION('',(1.,0.,0.));
#961=DIRECTION('',(0.,0.,1.));
#962=DIRECTION('',(1.,0.,0.));
#963=DIRECTION('',(1.,1.7347234759768E-16,0.));
#964=DIRECTION('',(-1.7347234759768E-16,1.,0.));
#965=DIRECTION('',(1.7347234759768E-16,-1.,0.));
#966=DIRECTION('',(1.7347234759768E-16,-1.,0.));
#967=DIRECTION('',(0.,-1.,0.));
#968=DIRECTION('',(0.,0.,-1.));
#969=DIRECTION('',(-1.,0.,0.));
#970=DIRECTION('',(-1.,0.,0.));
#971=DIRECTION('',(0.,0.,-1.));
#972=DIRECTION('',(-1.,0.,0.));
#973=DIRECTION('',(0.,0.,1.));
#974=DIRECTION('',(1.,0.,0.));
#975=DIRECTION('',(0.,0.,1.));
#976=DIRECTION('',(1.,0.,0.));
#977=DIRECTION('',(0.,0.,1.));
#978=DIRECTION('',(1.,0.,0.));
#979=DIRECTION('',(0.,0.,1.));
#980=DIRECTION('',(1.,0.,0.));
#981=CARTESIAN_POINT('',(0.,0.,0.));
#982=CARTESIAN_POINT('',(-6.93889390390723E-18,0.04,0.002));
#983=CARTESIAN_POINT('',(-6.93889390390723E-18,0.04,0.));
#984=CARTESIAN_POINT('',(-0.05,0.04,0.));
#985=CARTESIAN_POINT('',(0.05,0.04,0.));
#986=CARTESIAN_POINT('',(-0.05,0.04,0.002));
#987=CARTESIAN_POINT('',(-0.05,0.04,0.002));
#988=CARTESIAN_POINT('',(-6.93889390390723E-18,0.04,0.002));
#989=CARTESIAN_POINT('',(0.05,0.04,0.002));
#990=CARTESIAN_POINT('',(0.05,0.04,0.002));
#991=CARTESIAN_POINT('',(-0.05,6.93889390390723E-18,0.002));
#992=CARTESIAN_POINT('',(-0.05,6.93889390390723E-18,0.));
#993=CARTESIAN_POINT('',(-0.05,-0.04,0.));
#994=CARTESIAN_POINT('',(-0.05,-0.04,0.002));
#995=CARTESIAN_POINT('',(-0.05,-0.04,0.002));
#996=CARTESIAN_POINT('',(-0.05,6.93889390390723E-18,0.002));
#997=CARTESIAN_POINT('',(6.93889390390723E-18,-0.04,0.002));
#998=CARTESIAN_POINT('',(6.93889390390723E-18,-0.04,0.));
#999=CARTESIAN_POINT('',(0.05,-0.04,0.));
#1000=CARTESIAN_POINT('',(0.05,-0.04,0.002));
#1001=CARTESIAN_POINT('',(0.05,-0.04,0.002));
#1002=CARTESIAN_POINT('',(6.93889390390723E-18,-0.04,0.002));
#1003=CARTESIAN_POINT('',(0.0149166687450537,0.0274166687450537,0.002));
#1004=CARTESIAN_POINT('',(0.0149166687450537,0.0274166687450537,0.));
#1005=CARTESIAN_POINT('',(0.00683333749010743,0.0193333374901075,0.));
#1006=CARTESIAN_POINT('',(0.025,0.0375,0.));
#1007=CARTESIAN_POINT('',(0.025,0.0375,0.002));
#1008=CARTESIAN_POINT('',(0.025,0.0375,0.002));
#1009=CARTESIAN_POINT('',(0.0149166687450537,0.0274166687450537,0.002));
#1010=CARTESIAN_POINT('',(0.00683333749010743,0.0193333374901075,0.002));
#1011=CARTESIAN_POINT('',(0.00683333749010743,0.0193333374901075,0.002));
#1012=CARTESIAN_POINT('',(0.03625,0.0375,0.002));
#1013=CARTESIAN_POINT('',(0.03625,0.0375,0.));
#1014=CARTESIAN_POINT('',(0.0475,0.0375,0.));
#1015=CARTESIAN_POINT('',(0.0475,0.0375,0.002));
#1016=CARTESIAN_POINT('',(0.0475,0.0375,0.002));
#1017=CARTESIAN_POINT('',(0.03625,0.0375,0.002));
#1018=CARTESIAN_POINT('',(0.0475,0.0302848769566612,0.002));
#1019=CARTESIAN_POINT('',(0.0475,0.0302848769566612,0.));
#1020=CARTESIAN_POINT('',(0.0475,0.0230697539133224,0.));
#1021=CARTESIAN_POINT('',(0.0475,0.0230697539133224,0.002));
#1022=CARTESIAN_POINT('',(0.0475,0.0230697539133224,0.002));
#1023=CARTESIAN_POINT('',(0.0475,0.0302848769566612,0.002));
#1024=CARTESIAN_POINT('',(0.0382104151526289,0.0230697539133224,0.002));
#1025=CARTESIAN_POINT('',(0.0382104151526289,0.0230697539133224,0.));
#1026=CARTESIAN_POINT('',(0.0309208303052577,0.0230697539133224,0.));
#1027=CARTESIAN_POINT('',(0.0309208303052577,0.0230697539133224,0.002));
#1028=CARTESIAN_POINT('',(0.0309208303052577,0.0230697539133224,0.002));
#1029=CARTESIAN_POINT('',(0.0382104151526289,0.0230697539133224,0.002));
#1030=CARTESIAN_POINT('',(0.0256854151526289,0.0178343387606935,0.002));
#1031=CARTESIAN_POINT('',(0.0256854151526289,0.0178343387606935,0.));
#1032=CARTESIAN_POINT('',(0.02045,0.0125989236080646,0.));
#1033=CARTESIAN_POINT('',(0.02045,0.0125989236080646,0.002));
#1034=CARTESIAN_POINT('',(0.02045,0.0125989236080646,0.002));
#1035=CARTESIAN_POINT('',(0.0256854151526289,0.0178343387606935,0.002));
#1036=CARTESIAN_POINT('',(0.0197428932188135,0.0125989236080646,0.002));
#1037=CARTESIAN_POINT('',(0.0197428932188135,0.0125989236080646,0.));
#1038=CARTESIAN_POINT('',(0.0190357864376269,0.0125989236080646,0.));
#1039=CARTESIAN_POINT('',(0.0190357864376269,0.0125989236080646,0.002));
#1040=CARTESIAN_POINT('',(0.0190357864376269,0.0125989236080646,0.002));
#1041=CARTESIAN_POINT('',(0.0197428932188135,0.0125989236080646,0.002));
#1042=CARTESIAN_POINT('',(0.0180357864376269,0.0115989236080646,0.002));
#1043=CARTESIAN_POINT('',(0.0180357864376269,0.0115989236080646,0.));
#1044=CARTESIAN_POINT('',(0.0170357864376269,0.0105989236080646,0.));
#1045=CARTESIAN_POINT('',(0.0170357864376269,0.0105989236080646,0.002));
#1046=CARTESIAN_POINT('',(0.0170357864376269,0.0105989236080646,0.002));
#1047=CARTESIAN_POINT('',(0.0180357864376269,0.0115989236080646,0.002));
#1048=CARTESIAN_POINT('',(0.0310699149814248,0.0105989236080646,0.002));
#1049=CARTESIAN_POINT('',(0.0310699149814248,0.0105989236080646,0.));
#1050=CARTESIAN_POINT('',(0.0375,0.0105989236080646,0.));
#1051=CARTESIAN_POINT('',(0.0375,0.0105989236080646,0.002));
#1052=CARTESIAN_POINT('',(0.0375,0.0105989236080646,0.002));
#1053=CARTESIAN_POINT('',(0.0310699149814248,0.0105989236080646,0.002));
#1054=CARTESIAN_POINT('',(0.0375,0.00107392360806465,0.002));
#1055=CARTESIAN_POINT('',(0.0375,0.00107392360806465,0.));
#1056=CARTESIAN_POINT('',(0.0375,-0.0275010763919354,0.));
#1057=CARTESIAN_POINT('',(0.0375,-0.0275010763919354,0.002));
#1058=CARTESIAN_POINT('',(0.0375,-0.0275010763919354,0.002));
#1059=CARTESIAN_POINT('',(0.0375,0.00107392360806465,0.002));
#1060=CARTESIAN_POINT('',(0.027975,-0.0275010763919354,0.002));
#1061=CARTESIAN_POINT('',(0.027975,-0.0275010763919354,0.));
#1062=CARTESIAN_POINT('',(-0.000600000000000009,-0.0275010763919354,0.));
#1063=CARTESIAN_POINT('',(-0.000600000000000009,-0.0275010763919354,0.002));
#1064=CARTESIAN_POINT('',(-0.000600000000000009,-0.0275010763919354,0.002));
#1065=CARTESIAN_POINT('',(0.027975,-0.0275010763919354,0.002));
#1066=CARTESIAN_POINT('',(-0.000600000000000009,-0.0210709913733601,0.002));
#1067=CARTESIAN_POINT('',(-0.000600000000000009,-0.0210709913733601,0.));
#1068=CARTESIAN_POINT('',(-0.000600000000000009,-0.00703686282956226,0.));
#1069=CARTESIAN_POINT('',(-0.000600000000000009,-0.00703686282956226,0.002));
#1070=CARTESIAN_POINT('',(-0.000600000000000009,-0.00703686282956226,0.002));
#1071=CARTESIAN_POINT('',(-0.000600000000000009,-0.0210709913733601,0.002));
#1072=CARTESIAN_POINT('',(-0.0016,-0.00803686282956226,0.002));
#1073=CARTESIAN_POINT('',(-0.0016,-0.00803686282956226,0.));
#1074=CARTESIAN_POINT('',(-0.0026,-0.00903686282956226,0.));
#1075=CARTESIAN_POINT('',(-0.0026,-0.00903686282956226,0.002));
#1076=CARTESIAN_POINT('',(-0.0026,-0.00903686282956226,0.002));
#1077=CARTESIAN_POINT('',(-0.0016,-0.00803686282956226,0.002));
#1078=CARTESIAN_POINT('',(-0.0026,-0.00974396961074881,0.002));
#1079=CARTESIAN_POINT('',(-0.0026,-0.00974396961074881,0.));
#1080=CARTESIAN_POINT('',(-0.0026,-0.0104510763919353,0.));
#1081=CARTESIAN_POINT('',(-0.0026,-0.0104510763919353,0.002));
#1082=CARTESIAN_POINT('',(-0.0026,-0.0104510763919353,0.002));
#1083=CARTESIAN_POINT('',(-0.0026,-0.00974396961074881,0.002));
#1084=CARTESIAN_POINT('',(-0.0151244618040323,-0.0229755381959677,0.002));
#1085=CARTESIAN_POINT('',(-0.0151244618040323,-0.0229755381959677,0.));
#1086=CARTESIAN_POINT('',(-0.0296489236080647,-0.0375,0.));
#1087=CARTESIAN_POINT('',(-0.0296489236080647,-0.0375,0.002));
#1088=CARTESIAN_POINT('',(-0.0296489236080647,-0.0375,0.002));
#1089=CARTESIAN_POINT('',(-0.0151244618040323,-0.0229755381959677,0.002));
#1090=CARTESIAN_POINT('',(-0.0385744618040323,-0.0375,0.002));
#1091=CARTESIAN_POINT('',(-0.0385744618040323,-0.0375,0.));
#1092=CARTESIAN_POINT('',(-0.0475,-0.0375,0.));
#1093=CARTESIAN_POINT('',(-0.0475,-0.0375,0.002));
#1094=CARTESIAN_POINT('',(-0.0475,-0.0375,0.002));
#1095=CARTESIAN_POINT('',(-0.0385744618040323,-0.0375,0.002));
#1096=CARTESIAN_POINT('',(-0.0475,-0.02875,0.002));
#1097=CARTESIAN_POINT('',(-0.0475,-0.02875,0.));
#1098=CARTESIAN_POINT('',(-0.0475,-0.02,0.));
#1099=CARTESIAN_POINT('',(-0.0475,-0.02,0.002));
#1100=CARTESIAN_POINT('',(-0.0475,-0.02,0.002));
#1101=CARTESIAN_POINT('',(-0.0475,-0.02875,0.002));
#1102=CARTESIAN_POINT('',(-0.0465,-0.02,0.002));
#1103=CARTESIAN_POINT('',(-0.0465,-0.02,0.));
#1104=CARTESIAN_POINT('',(-0.0325,-0.02,0.));
#1105=CARTESIAN_POINT('',(-0.0325,-0.02,0.002));
#1106=CARTESIAN_POINT('',(-0.0325,-0.02,0.002));
#1107=CARTESIAN_POINT('',(-0.0465,-0.02,0.002));
#1108=CARTESIAN_POINT('',(-0.0245747692873757,-0.0120747692873757,0.002));
#1109=CARTESIAN_POINT('',(-0.0245747692873757,-0.0120747692873757,0.));
#1110=CARTESIAN_POINT('',(-0.0166495385747514,-0.00414953857475142,0.));
#1111=CARTESIAN_POINT('',(-0.0166495385747514,-0.00414953857475142,0.002));
#1112=CARTESIAN_POINT('',(-0.0166495385747514,-0.00414953857475142,0.002));
#1113=CARTESIAN_POINT('',(-0.0245747692873757,-0.0120747692873757,0.002));
#1114=CARTESIAN_POINT('',(-0.0216495385747515,-0.00414953857475143,0.002));
#1115=CARTESIAN_POINT('',(-0.0216495385747515,-0.00414953857475143,0.));
#1116=CARTESIAN_POINT('',(-0.0266495385747515,-0.00414953857475143,0.));
#1117=CARTESIAN_POINT('',(-0.0266495385747515,-0.00414953857475143,0.002));
#1118=CARTESIAN_POINT('',(-0.0266495385747515,-0.00414953857475143,0.002));
#1119=CARTESIAN_POINT('',(-0.0216495385747515,-0.00414953857475143,0.002));
#1120=CARTESIAN_POINT('',(-0.014908100542322,0.00759189945767801,0.002));
#1121=CARTESIAN_POINT('',(-0.014908100542322,0.00759189945767801,0.));
#1122=CARTESIAN_POINT('',(-0.00316666250989257,0.0193333374901075,0.));
#1123=CARTESIAN_POINT('',(-0.00316666250989257,0.0193333374901075,0.002));
#1124=CARTESIAN_POINT('',(-0.00316666250989257,0.0193333374901075,0.002));
#1125=CARTESIAN_POINT('',(-0.014908100542322,0.00759189945767801,0.002));
#1126=CARTESIAN_POINT('',(0.0455,0.0210697539133224,0.002));
#1127=CARTESIAN_POINT('',(0.0455,0.0210697539133224,0.002));
#1128=CARTESIAN_POINT('',(0.0465,0.0210697539133224,0.002));
#1129=CARTESIAN_POINT('',(0.0455,0.0210697539133224,0.));
#1130=CARTESIAN_POINT('',(0.0465,0.0210697539133224,0.));
#1131=CARTESIAN_POINT('',(-0.0248204964833184,-0.0355,0.002));
#1132=CARTESIAN_POINT('',(-0.0248204964833184,-0.0355,0.002));
#1133=CARTESIAN_POINT('',(-0.0238204964833184,-0.0355,0.002));
#1134=CARTESIAN_POINT('',(-0.0248204964833184,-0.0355,0.));
#1135=CARTESIAN_POINT('',(-0.0238204964833184,-0.0355,0.));
#1136=CARTESIAN_POINT('',(-0.0026,-0.0132795035166815,0.002));
#1137=CARTESIAN_POINT('',(-0.0026,-0.0132795035166815,0.002));
#1138=CARTESIAN_POINT('',(-0.0016,-0.0132795035166815,0.002));
#1139=CARTESIAN_POINT('',(-0.0026,-0.0132795035166815,0.));
#1140=CARTESIAN_POINT('',(-0.0016,-0.0132795035166815,0.));
#1141=CARTESIAN_POINT('',(-0.0455,-0.018,0.002));
#1142=CARTESIAN_POINT('',(-0.0455,-0.018,0.002));
#1143=CARTESIAN_POINT('',(-0.0445,-0.018,0.002));
#1144=CARTESIAN_POINT('',(-0.0455,-0.018,0.));
#1145=CARTESIAN_POINT('',(-0.0445,-0.018,0.));
#1146=CARTESIAN_POINT('',(-0.0214779656994976,-0.00614953857475143,0.002));
#1147=CARTESIAN_POINT('',(-0.0214779656994976,-0.00614953857475143,0.002));
#1148=CARTESIAN_POINT('',(-0.0204779656994976,-0.00614953857475143,0.002));
#1149=CARTESIAN_POINT('',(-0.0214779656994976,-0.00614953857475143,0.));
#1150=CARTESIAN_POINT('',(-0.0204779656994976,-0.00614953857475143,0.));
#1151=CARTESIAN_POINT('',(0.00600491036536125,0.0213333374901074,0.002));
#1152=CARTESIAN_POINT('',(0.00600491036536125,0.0213333374901074,0.002));
#1153=CARTESIAN_POINT('',(0.00700491036536125,0.0213333374901074,0.002));
#1154=CARTESIAN_POINT('',(0.00600491036536125,0.0213333374901074,0.));
#1155=CARTESIAN_POINT('',(0.00700491036536125,0.0213333374901074,0.));
#1156=CARTESIAN_POINT('',(0.0201715728752538,0.0355,0.002));
#1157=CARTESIAN_POINT('',(0.0201715728752538,0.0355,0.002));
#1158=CARTESIAN_POINT('',(0.0211715728752538,0.0355,0.002));
#1159=CARTESIAN_POINT('',(0.0201715728752538,0.0355,0.));
#1160=CARTESIAN_POINT('',(0.0211715728752538,0.0355,0.));
#1161=CARTESIAN_POINT('',(-0.02875,0.02025,0.002));
#1162=CARTESIAN_POINT('',(-0.02875,0.02025,0.002));
#1163=CARTESIAN_POINT('',(-0.02275,0.02025,0.002));
#1164=CARTESIAN_POINT('',(-0.02875,0.02025,0.));
#1165=CARTESIAN_POINT('',(-0.02275,0.02025,0.));
#1166=CARTESIAN_POINT('',(0.05,3.46944695195361E-17,0.002));
#1167=CARTESIAN_POINT('',(0.05,3.46944695195361E-17,0.));
#1168=CARTESIAN_POINT('',(0.05,3.46944695195361E-17,0.002));
#1169=CARTESIAN_POINT('',(0.00183333749010743,0.0193333374901075,0.002));
#1170=CARTESIAN_POINT('',(0.00183333749010743,0.0193333374901075,0.));
#1171=CARTESIAN_POINT('',(0.00183333749010743,0.0193333374901075,0.002));
#1172=CARTESIAN_POINT('',(0.0232784271247462,0.0125989236080647,0.002));
#1173=CARTESIAN_POINT('',(0.0232784271247462,0.0125989236080647,0.002));
#1174=CARTESIAN_POINT('',(0.0242784271247462,0.0125989236080647,0.002));
#1175=CARTESIAN_POINT('',(0.0232784271247462,0.0125989236080647,0.));
#1176=CARTESIAN_POINT('',(0.0242784271247462,0.0125989236080647,0.));
#1177=CARTESIAN_POINT('',(0.,2.08166817117217E-17,0.002));
#1178=CARTESIAN_POINT('',(0.,2.08166817117217E-17,0.));
#1179=MECHANICAL_DESIGN_GEOMETRIC_PRESENTATION_REPRESENTATION('',(#730),
#1180);
#1180=(
GEOMETRIC_REPRESENTATION_CONTEXT(3)
GLOBAL_UNCERTAINTY_ASSIGNED_CONTEXT((#1181))
GLOBAL_UNIT_ASSIGNED_CONTEXT((#1184,#1183,#1182))
REPRESENTATION_CONTEXT('Part 1','TOP_LEVEL_ASSEMBLY_PART')
);
#1181=UNCERTAINTY_MEASURE_WITH_UNIT(LENGTH_MEASURE(1.E-8),#1184,
'DISTANCE_ACCURACY_VALUE','Maximum Tolerance applied to model');
#1182=(
NAMED_UNIT(*)
SI_UNIT($,.STERADIAN.)
SOLID_ANGLE_UNIT()
);
#1183=(
NAMED_UNIT(*)
PLANE_ANGLE_UNIT()
SI_UNIT($,.RADIAN.)
);
#1184=(
LENGTH_UNIT()
NAMED_UNIT(*)
SI_UNIT($,.METRE.)
);
#1185=PRODUCT_DEFINITION_SHAPE('','',#1186);
#1186=PRODUCT_DEFINITION('','',#1188,#1187);
#1187=PRODUCT_DEFINITION_CONTEXT('',#1194,'design');
#1188=PRODUCT_DEFINITION_FORMATION_WITH_SPECIFIED_SOURCE('','',#1190,
 .NOT_KNOWN.);
#1189=PRODUCT_RELATED_PRODUCT_CATEGORY('','',(#1190));
#1190=PRODUCT('Part 1','Part 1','Part 1',(#1192));
#1191=PRODUCT_CATEGORY('','');
#1192=PRODUCT_CONTEXT('',#1194,'mechanical');
#1193=APPLICATION_PROTOCOL_DEFINITION('international standard',
'ap242_managed_model_based_3d_engineering',2011,#1194);
#1194=APPLICATION_CONTEXT('managed model based 3d engineering');
ENDSEC;
END-ISO-10303-21;
