ISO-10303-21;
HEADER;
/* Generated by software containing ST-Developer
 * from STEP Tools, Inc. (www.steptools.com) 
 */
/* OPTION: using custom renumber hook */

FILE_DESCRIPTION(
/* description */ ('STEP AP242',
'CAx-IF Rec.Pracs.---Representation and Presentation of Product Manufa
cturing Information (PMI)---4.0---2014-10-13',
'CAx-IF Rec.Pracs.---3D Tessellated Geometry---0.4---2014-09-14','2;1'),

/* implementation_level */ '2;1');

FILE_NAME(
/* name */ '686a04f896189f26e3968436',
/* time_stamp */ '2025-07-06T05:09:13Z',
/* author */ (''),
/* organization */ (''),
/* preprocessor_version */ 'ST-DEVELOPER v20',
/* originating_system */ 'ONSHAPE BY PTC INC, 1.200',
/* authorisation */ '  ');

FILE_SCHEMA (('AP242_MANAGED_MODEL_BASED_3D_ENGINEERING_MIM_LF { 1 0 10303 442 1 1 4 }'));
ENDSEC;

DATA;
#10=SHAPE_REPRESENTATION_RELATIONSHIP('','',#367,#11);
#11=ADVANCED_BREP_SHAPE_REPRESENTATION('',(#365),#589);
#12=CYLINDRICAL_SURFACE('',#391,0.001);
#13=CYLINDRICAL_SURFACE('',#392,0.001);
#14=CYLINDRICAL_SURFACE('',#393,0.001);
#15=CYLINDRICAL_SURFACE('',#394,0.001);
#16=CIRCLE('',#370,0.001);
#17=CIRCLE('',#371,0.001);
#18=CIRCLE('',#372,0.001);
#19=CIRCLE('',#373,0.001);
#20=CIRCLE('',#375,0.001);
#21=CIRCLE('',#376,0.001);
#22=CIRCLE('',#377,0.001);
#23=CIRCLE('',#378,0.001);
#24=ORIENTED_EDGE('',*,*,#120,.T.);
#25=ORIENTED_EDGE('',*,*,#121,.F.);
#26=ORIENTED_EDGE('',*,*,#122,.F.);
#27=ORIENTED_EDGE('',*,*,#123,.T.);
#28=ORIENTED_EDGE('',*,*,#124,.T.);
#29=ORIENTED_EDGE('',*,*,#125,.T.);
#30=ORIENTED_EDGE('',*,*,#126,.T.);
#31=ORIENTED_EDGE('',*,*,#127,.T.);
#32=ORIENTED_EDGE('',*,*,#128,.F.);
#33=ORIENTED_EDGE('',*,*,#129,.T.);
#34=ORIENTED_EDGE('',*,*,#130,.F.);
#35=ORIENTED_EDGE('',*,*,#131,.T.);
#36=ORIENTED_EDGE('',*,*,#132,.F.);
#37=ORIENTED_EDGE('',*,*,#133,.F.);
#38=ORIENTED_EDGE('',*,*,#134,.T.);
#39=ORIENTED_EDGE('',*,*,#135,.T.);
#40=ORIENTED_EDGE('',*,*,#136,.F.);
#41=ORIENTED_EDGE('',*,*,#137,.T.);
#42=ORIENTED_EDGE('',*,*,#138,.T.);
#43=ORIENTED_EDGE('',*,*,#139,.T.);
#44=ORIENTED_EDGE('',*,*,#140,.T.);
#45=ORIENTED_EDGE('',*,*,#141,.T.);
#46=ORIENTED_EDGE('',*,*,#142,.F.);
#47=ORIENTED_EDGE('',*,*,#143,.T.);
#48=ORIENTED_EDGE('',*,*,#144,.F.);
#49=ORIENTED_EDGE('',*,*,#145,.F.);
#50=ORIENTED_EDGE('',*,*,#146,.T.);
#51=ORIENTED_EDGE('',*,*,#147,.T.);
#52=ORIENTED_EDGE('',*,*,#148,.T.);
#53=ORIENTED_EDGE('',*,*,#147,.F.);
#54=ORIENTED_EDGE('',*,*,#149,.F.);
#55=ORIENTED_EDGE('',*,*,#121,.T.);
#56=ORIENTED_EDGE('',*,*,#150,.F.);
#57=ORIENTED_EDGE('',*,*,#135,.F.);
#58=ORIENTED_EDGE('',*,*,#151,.T.);
#59=ORIENTED_EDGE('',*,*,#152,.T.);
#60=ORIENTED_EDGE('',*,*,#153,.T.);
#61=ORIENTED_EDGE('',*,*,#152,.F.);
#62=ORIENTED_EDGE('',*,*,#154,.F.);
#63=ORIENTED_EDGE('',*,*,#155,.T.);
#64=ORIENTED_EDGE('',*,*,#156,.T.);
#65=ORIENTED_EDGE('',*,*,#155,.F.);
#66=ORIENTED_EDGE('',*,*,#157,.F.);
#67=ORIENTED_EDGE('',*,*,#133,.T.);
#68=ORIENTED_EDGE('',*,*,#158,.F.);
#69=ORIENTED_EDGE('',*,*,#123,.F.);
#70=ORIENTED_EDGE('',*,*,#159,.T.);
#71=ORIENTED_EDGE('',*,*,#145,.T.);
#72=ORIENTED_EDGE('',*,*,#151,.F.);
#73=ORIENTED_EDGE('',*,*,#134,.F.);
#74=ORIENTED_EDGE('',*,*,#157,.T.);
#75=ORIENTED_EDGE('',*,*,#154,.T.);
#76=ORIENTED_EDGE('',*,*,#146,.F.);
#77=ORIENTED_EDGE('',*,*,#159,.F.);
#78=ORIENTED_EDGE('',*,*,#122,.T.);
#79=ORIENTED_EDGE('',*,*,#149,.T.);
#80=ORIENTED_EDGE('',*,*,#150,.T.);
#81=ORIENTED_EDGE('',*,*,#153,.F.);
#82=ORIENTED_EDGE('',*,*,#156,.F.);
#83=ORIENTED_EDGE('',*,*,#132,.T.);
#84=ORIENTED_EDGE('',*,*,#144,.T.);
#85=ORIENTED_EDGE('',*,*,#148,.F.);
#86=ORIENTED_EDGE('',*,*,#120,.F.);
#87=ORIENTED_EDGE('',*,*,#158,.T.);
#88=ORIENTED_EDGE('',*,*,#138,.F.);
#89=ORIENTED_EDGE('',*,*,#160,.T.);
#90=ORIENTED_EDGE('',*,*,#126,.F.);
#91=ORIENTED_EDGE('',*,*,#161,.T.);
#92=ORIENTED_EDGE('',*,*,#140,.F.);
#93=ORIENTED_EDGE('',*,*,#162,.T.);
#94=ORIENTED_EDGE('',*,*,#124,.F.);
#95=ORIENTED_EDGE('',*,*,#163,.T.);
#96=ORIENTED_EDGE('',*,*,#142,.T.);
#97=ORIENTED_EDGE('',*,*,#164,.T.);
#98=ORIENTED_EDGE('',*,*,#130,.T.);
#99=ORIENTED_EDGE('',*,*,#165,.T.);
#100=ORIENTED_EDGE('',*,*,#128,.T.);
#101=ORIENTED_EDGE('',*,*,#166,.T.);
#102=ORIENTED_EDGE('',*,*,#136,.T.);
#103=ORIENTED_EDGE('',*,*,#167,.T.);
#104=ORIENTED_EDGE('',*,*,#137,.F.);
#105=ORIENTED_EDGE('',*,*,#166,.F.);
#106=ORIENTED_EDGE('',*,*,#127,.F.);
#107=ORIENTED_EDGE('',*,*,#160,.F.);
#108=ORIENTED_EDGE('',*,*,#139,.F.);
#109=ORIENTED_EDGE('',*,*,#161,.F.);
#110=ORIENTED_EDGE('',*,*,#125,.F.);
#111=ORIENTED_EDGE('',*,*,#162,.F.);
#112=ORIENTED_EDGE('',*,*,#141,.F.);
#113=ORIENTED_EDGE('',*,*,#163,.F.);
#114=ORIENTED_EDGE('',*,*,#131,.F.);
#115=ORIENTED_EDGE('',*,*,#164,.F.);
#116=ORIENTED_EDGE('',*,*,#143,.F.);
#117=ORIENTED_EDGE('',*,*,#165,.F.);
#118=ORIENTED_EDGE('',*,*,#129,.F.);
#119=ORIENTED_EDGE('',*,*,#167,.F.);
#120=EDGE_CURVE('',#168,#169,#200,.T.);
#121=EDGE_CURVE('',#170,#169,#201,.T.);
#122=EDGE_CURVE('',#171,#170,#202,.T.);
#123=EDGE_CURVE('',#171,#168,#203,.T.);
#124=EDGE_CURVE('',#172,#173,#204,.T.);
#125=EDGE_CURVE('',#173,#174,#16,.T.);
#126=EDGE_CURVE('',#174,#175,#205,.T.);
#127=EDGE_CURVE('',#175,#176,#17,.T.);
#128=EDGE_CURVE('',#177,#176,#206,.T.);
#129=EDGE_CURVE('',#177,#178,#18,.T.);
#130=EDGE_CURVE('',#179,#178,#207,.T.);
#131=EDGE_CURVE('',#179,#172,#19,.T.);
#132=EDGE_CURVE('',#180,#181,#208,.T.);
#133=EDGE_CURVE('',#182,#180,#209,.T.);
#134=EDGE_CURVE('',#182,#183,#210,.T.);
#135=EDGE_CURVE('',#183,#181,#211,.T.);
#136=EDGE_CURVE('',#184,#185,#212,.T.);
#137=EDGE_CURVE('',#184,#186,#20,.F.);
#138=EDGE_CURVE('',#186,#187,#213,.T.);
#139=EDGE_CURVE('',#187,#188,#21,.F.);
#140=EDGE_CURVE('',#188,#189,#214,.T.);
#141=EDGE_CURVE('',#189,#190,#22,.F.);
#142=EDGE_CURVE('',#191,#190,#215,.T.);
#143=EDGE_CURVE('',#191,#185,#23,.F.);
#144=EDGE_CURVE('',#192,#193,#216,.T.);
#145=EDGE_CURVE('',#194,#192,#217,.T.);
#146=EDGE_CURVE('',#194,#195,#218,.T.);
#147=EDGE_CURVE('',#195,#193,#219,.T.);
#148=EDGE_CURVE('',#169,#193,#220,.T.);
#149=EDGE_CURVE('',#170,#195,#221,.T.);
#150=EDGE_CURVE('',#181,#196,#222,.T.);
#151=EDGE_CURVE('',#183,#197,#223,.T.);
#152=EDGE_CURVE('',#197,#196,#224,.T.);
#153=EDGE_CURVE('',#198,#196,#225,.T.);
#154=EDGE_CURVE('',#199,#197,#226,.T.);
#155=EDGE_CURVE('',#199,#198,#227,.T.);
#156=EDGE_CURVE('',#180,#198,#228,.T.);
#157=EDGE_CURVE('',#182,#199,#229,.T.);
#158=EDGE_CURVE('',#168,#192,#230,.T.);
#159=EDGE_CURVE('',#171,#194,#231,.T.);
#160=EDGE_CURVE('',#186,#175,#232,.T.);
#161=EDGE_CURVE('',#174,#187,#233,.F.);
#162=EDGE_CURVE('',#188,#173,#234,.T.);
#163=EDGE_CURVE('',#172,#189,#235,.F.);
#164=EDGE_CURVE('',#190,#179,#236,.T.);
#165=EDGE_CURVE('',#178,#191,#237,.F.);
#166=EDGE_CURVE('',#176,#184,#238,.F.);
#167=EDGE_CURVE('',#185,#177,#239,.T.);
#168=VERTEX_POINT('',#492);
#169=VERTEX_POINT('',#493);
#170=VERTEX_POINT('',#495);
#171=VERTEX_POINT('',#497);
#172=VERTEX_POINT('',#500);
#173=VERTEX_POINT('',#501);
#174=VERTEX_POINT('',#503);
#175=VERTEX_POINT('',#505);
#176=VERTEX_POINT('',#507);
#177=VERTEX_POINT('',#509);
#178=VERTEX_POINT('',#511);
#179=VERTEX_POINT('',#513);
#180=VERTEX_POINT('',#517);
#181=VERTEX_POINT('',#518);
#182=VERTEX_POINT('',#520);
#183=VERTEX_POINT('',#522);
#184=VERTEX_POINT('',#525);
#185=VERTEX_POINT('',#526);
#186=VERTEX_POINT('',#528);
#187=VERTEX_POINT('',#530);
#188=VERTEX_POINT('',#532);
#189=VERTEX_POINT('',#534);
#190=VERTEX_POINT('',#536);
#191=VERTEX_POINT('',#538);
#192=VERTEX_POINT('',#542);
#193=VERTEX_POINT('',#543);
#194=VERTEX_POINT('',#545);
#195=VERTEX_POINT('',#547);
#196=VERTEX_POINT('',#554);
#197=VERTEX_POINT('',#556);
#198=VERTEX_POINT('',#560);
#199=VERTEX_POINT('',#562);
#200=LINE('',#491,#240);
#201=LINE('',#494,#241);
#202=LINE('',#496,#242);
#203=LINE('',#498,#243);
#204=LINE('',#499,#244);
#205=LINE('',#504,#245);
#206=LINE('',#508,#246);
#207=LINE('',#512,#247);
#208=LINE('',#516,#248);
#209=LINE('',#519,#249);
#210=LINE('',#521,#250);
#211=LINE('',#523,#251);
#212=LINE('',#524,#252);
#213=LINE('',#529,#253);
#214=LINE('',#533,#254);
#215=LINE('',#537,#255);
#216=LINE('',#541,#256);
#217=LINE('',#544,#257);
#218=LINE('',#546,#258);
#219=LINE('',#548,#259);
#220=LINE('',#550,#260);
#221=LINE('',#551,#261);
#222=LINE('',#553,#262);
#223=LINE('',#555,#263);
#224=LINE('',#557,#264);
#225=LINE('',#559,#265);
#226=LINE('',#561,#266);
#227=LINE('',#563,#267);
#228=LINE('',#565,#268);
#229=LINE('',#566,#269);
#230=LINE('',#568,#270);
#231=LINE('',#569,#271);
#232=LINE('',#573,#272);
#233=LINE('',#574,#273);
#234=LINE('',#576,#274);
#235=LINE('',#577,#275);
#236=LINE('',#579,#276);
#237=LINE('',#580,#277);
#238=LINE('',#582,#278);
#239=LINE('',#583,#279);
#240=VECTOR('',#399,1.);
#241=VECTOR('',#400,1.);
#242=VECTOR('',#401,1.);
#243=VECTOR('',#402,1.);
#244=VECTOR('',#403,1.);
#245=VECTOR('',#406,1.);
#246=VECTOR('',#409,1.);
#247=VECTOR('',#412,1.);
#248=VECTOR('',#417,1.);
#249=VECTOR('',#418,1.);
#250=VECTOR('',#419,1.);
#251=VECTOR('',#420,1.);
#252=VECTOR('',#421,1.);
#253=VECTOR('',#424,1.);
#254=VECTOR('',#427,1.);
#255=VECTOR('',#430,1.);
#256=VECTOR('',#435,1.);
#257=VECTOR('',#436,1.);
#258=VECTOR('',#437,1.);
#259=VECTOR('',#438,1.);
#260=VECTOR('',#441,1.);
#261=VECTOR('',#442,1.);
#262=VECTOR('',#445,1.);
#263=VECTOR('',#446,1.);
#264=VECTOR('',#447,1.);
#265=VECTOR('',#450,1.);
#266=VECTOR('',#451,1.);
#267=VECTOR('',#452,1.);
#268=VECTOR('',#455,1.);
#269=VECTOR('',#456,1.);
#270=VECTOR('',#459,1.);
#271=VECTOR('',#460,1.);
#272=VECTOR('',#467,1.);
#273=VECTOR('',#468,1.);
#274=VECTOR('',#471,1.);
#275=VECTOR('',#472,1.);
#276=VECTOR('',#475,1.);
#277=VECTOR('',#476,1.);
#278=VECTOR('',#479,1.);
#279=VECTOR('',#480,1.);
#280=EDGE_LOOP('',(#24,#25,#26,#27));
#281=EDGE_LOOP('',(#28,#29,#30,#31,#32,#33,#34,#35));
#282=EDGE_LOOP('',(#36,#37,#38,#39));
#283=EDGE_LOOP('',(#40,#41,#42,#43,#44,#45,#46,#47));
#284=EDGE_LOOP('',(#48,#49,#50,#51));
#285=EDGE_LOOP('',(#52,#53,#54,#55));
#286=EDGE_LOOP('',(#56,#57,#58,#59));
#287=EDGE_LOOP('',(#60,#61,#62,#63));
#288=EDGE_LOOP('',(#64,#65,#66,#67));
#289=EDGE_LOOP('',(#68,#69,#70,#71));
#290=EDGE_LOOP('',(#72,#73,#74,#75));
#291=EDGE_LOOP('',(#76,#77,#78,#79));
#292=EDGE_LOOP('',(#80,#81,#82,#83));
#293=EDGE_LOOP('',(#84,#85,#86,#87));
#294=EDGE_LOOP('',(#88,#89,#90,#91));
#295=EDGE_LOOP('',(#92,#93,#94,#95));
#296=EDGE_LOOP('',(#96,#97,#98,#99));
#297=EDGE_LOOP('',(#100,#101,#102,#103));
#298=EDGE_LOOP('',(#104,#105,#106,#107));
#299=EDGE_LOOP('',(#108,#109,#110,#111));
#300=EDGE_LOOP('',(#112,#113,#114,#115));
#301=EDGE_LOOP('',(#116,#117,#118,#119));
#302=FACE_BOUND('',#280,.T.);
#303=FACE_BOUND('',#281,.T.);
#304=FACE_BOUND('',#282,.T.);
#305=FACE_BOUND('',#283,.T.);
#306=FACE_BOUND('',#284,.T.);
#307=FACE_BOUND('',#285,.T.);
#308=FACE_BOUND('',#286,.T.);
#309=FACE_BOUND('',#287,.T.);
#310=FACE_BOUND('',#288,.T.);
#311=FACE_BOUND('',#289,.T.);
#312=FACE_BOUND('',#290,.T.);
#313=FACE_BOUND('',#291,.T.);
#314=FACE_BOUND('',#292,.T.);
#315=FACE_BOUND('',#293,.T.);
#316=FACE_BOUND('',#294,.T.);
#317=FACE_BOUND('',#295,.T.);
#318=FACE_BOUND('',#296,.T.);
#319=FACE_BOUND('',#297,.T.);
#320=FACE_BOUND('',#298,.T.);
#321=FACE_BOUND('',#299,.T.);
#322=FACE_BOUND('',#300,.T.);
#323=FACE_BOUND('',#301,.T.);
#324=PLANE('',#369);
#325=PLANE('',#374);
#326=PLANE('',#379);
#327=PLANE('',#380);
#328=PLANE('',#381);
#329=PLANE('',#382);
#330=PLANE('',#383);
#331=PLANE('',#384);
#332=PLANE('',#385);
#333=PLANE('',#386);
#334=PLANE('',#387);
#335=PLANE('',#388);
#336=PLANE('',#389);
#337=PLANE('',#390);
#338=ADVANCED_FACE('',(#302,#303),#324,.F.);
#339=ADVANCED_FACE('',(#304,#305),#325,.T.);
#340=ADVANCED_FACE('',(#306),#326,.T.);
#341=ADVANCED_FACE('',(#307),#327,.F.);
#342=ADVANCED_FACE('',(#308),#328,.T.);
#343=ADVANCED_FACE('',(#309),#329,.F.);
#344=ADVANCED_FACE('',(#310),#330,.F.);
#345=ADVANCED_FACE('',(#311),#331,.T.);
#346=ADVANCED_FACE('',(#312,#313),#332,.F.);
#347=ADVANCED_FACE('',(#314,#315),#333,.T.);
#348=ADVANCED_FACE('',(#316),#334,.T.);
#349=ADVANCED_FACE('',(#317),#335,.T.);
#350=ADVANCED_FACE('',(#318),#336,.F.);
#351=ADVANCED_FACE('',(#319),#337,.F.);
#352=ADVANCED_FACE('',(#320),#12,.F.);
#353=ADVANCED_FACE('',(#321),#13,.F.);
#354=ADVANCED_FACE('',(#322),#14,.F.);
#355=ADVANCED_FACE('',(#323),#15,.F.);
#356=CLOSED_SHELL('',(#338,#339,#340,#341,#342,#343,#344,#345,#346,#347,
#348,#349,#350,#351,#352,#353,#354,#355));
#357=STYLED_ITEM('',(#358),#365);
#358=PRESENTATION_STYLE_ASSIGNMENT((#359));
#359=SURFACE_STYLE_USAGE(.BOTH.,#360);
#360=SURFACE_SIDE_STYLE('',(#361));
#361=SURFACE_STYLE_FILL_AREA(#362);
#362=FILL_AREA_STYLE('',(#363));
#363=FILL_AREA_STYLE_COLOUR('',#364);
#364=DRAUGHTING_PRE_DEFINED_COLOUR('black');
#365=MANIFOLD_SOLID_BREP('Part 37',#356);
#366=SHAPE_DEFINITION_REPRESENTATION(#594,#367);
#367=SHAPE_REPRESENTATION('Part 37',(#368),#589);
#368=AXIS2_PLACEMENT_3D('',#489,#395,#396);
#369=AXIS2_PLACEMENT_3D('',#490,#397,#398);
#370=AXIS2_PLACEMENT_3D('',#502,#404,#405);
#371=AXIS2_PLACEMENT_3D('',#506,#407,#408);
#372=AXIS2_PLACEMENT_3D('',#510,#410,#411);
#373=AXIS2_PLACEMENT_3D('',#514,#413,#414);
#374=AXIS2_PLACEMENT_3D('',#515,#415,#416);
#375=AXIS2_PLACEMENT_3D('',#527,#422,#423);
#376=AXIS2_PLACEMENT_3D('',#531,#425,#426);
#377=AXIS2_PLACEMENT_3D('',#535,#428,#429);
#378=AXIS2_PLACEMENT_3D('',#539,#431,#432);
#379=AXIS2_PLACEMENT_3D('',#540,#433,#434);
#380=AXIS2_PLACEMENT_3D('',#549,#439,#440);
#381=AXIS2_PLACEMENT_3D('',#552,#443,#444);
#382=AXIS2_PLACEMENT_3D('',#558,#448,#449);
#383=AXIS2_PLACEMENT_3D('',#564,#453,#454);
#384=AXIS2_PLACEMENT_3D('',#567,#457,#458);
#385=AXIS2_PLACEMENT_3D('',#570,#461,#462);
#386=AXIS2_PLACEMENT_3D('',#571,#463,#464);
#387=AXIS2_PLACEMENT_3D('',#572,#465,#466);
#388=AXIS2_PLACEMENT_3D('',#575,#469,#470);
#389=AXIS2_PLACEMENT_3D('',#578,#473,#474);
#390=AXIS2_PLACEMENT_3D('',#581,#477,#478);
#391=AXIS2_PLACEMENT_3D('',#584,#481,#482);
#392=AXIS2_PLACEMENT_3D('',#585,#483,#484);
#393=AXIS2_PLACEMENT_3D('',#586,#485,#486);
#394=AXIS2_PLACEMENT_3D('',#587,#487,#488);
#395=DIRECTION('',(0.,0.,1.));
#396=DIRECTION('',(1.,0.,0.));
#397=DIRECTION('',(0.,-1.,0.));
#398=DIRECTION('',(0.,0.,-1.));
#399=DIRECTION('',(1.,0.,0.));
#400=DIRECTION('',(0.,0.,1.));
#401=DIRECTION('',(1.,0.,0.));
#402=DIRECTION('',(0.,0.,1.));
#403=DIRECTION('',(-1.,0.,0.));
#404=DIRECTION('',(0.,-1.,0.));
#405=DIRECTION('',(0.,0.,-1.));
#406=DIRECTION('',(0.,0.,-1.));
#407=DIRECTION('',(0.,-1.,0.));
#408=DIRECTION('',(0.,0.,-1.));
#409=DIRECTION('',(-1.,0.,0.));
#410=DIRECTION('',(0.,-1.,0.));
#411=DIRECTION('',(0.,0.,-1.));
#412=DIRECTION('',(0.,0.,-1.));
#413=DIRECTION('',(0.,-1.,0.));
#414=DIRECTION('',(0.,0.,-1.));
#415=DIRECTION('',(0.,-1.,0.));
#416=DIRECTION('',(0.,0.,-1.));
#417=DIRECTION('',(1.,0.,0.));
#418=DIRECTION('',(0.,0.,1.));
#419=DIRECTION('',(1.,0.,0.));
#420=DIRECTION('',(0.,0.,1.));
#421=DIRECTION('',(1.,0.,0.));
#422=DIRECTION('',(0.,-1.,0.));
#423=DIRECTION('',(0.,0.,-1.));
#424=DIRECTION('',(0.,0.,1.));
#425=DIRECTION('',(0.,-1.,0.));
#426=DIRECTION('',(0.,0.,-1.));
#427=DIRECTION('',(1.,0.,0.));
#428=DIRECTION('',(0.,-1.,0.));
#429=DIRECTION('',(0.,0.,-1.));
#430=DIRECTION('',(0.,0.,1.));
#431=DIRECTION('',(0.,-1.,0.));
#432=DIRECTION('',(0.,0.,-1.));
#433=DIRECTION('',(0.,-1.,0.));
#434=DIRECTION('',(0.,0.,-1.));
#435=DIRECTION('',(1.,0.,0.));
#436=DIRECTION('',(0.,0.,1.));
#437=DIRECTION('',(1.,0.,0.));
#438=DIRECTION('',(0.,0.,1.));
#439=DIRECTION('',(-1.,0.,0.));
#440=DIRECTION('',(0.,0.,1.));
#441=DIRECTION('',(0.,-1.,0.));
#442=DIRECTION('',(0.,-1.,0.));
#443=DIRECTION('',(-1.,0.,0.));
#444=DIRECTION('',(0.,0.,1.));
#445=DIRECTION('',(0.,-1.,0.));
#446=DIRECTION('',(0.,-1.,0.));
#447=DIRECTION('',(0.,0.,1.));
#448=DIRECTION('',(0.,-1.,0.));
#449=DIRECTION('',(0.,0.,-1.));
#450=DIRECTION('',(1.,0.,0.));
#451=DIRECTION('',(1.,0.,0.));
#452=DIRECTION('',(0.,0.,1.));
#453=DIRECTION('',(-1.,0.,0.));
#454=DIRECTION('',(0.,0.,1.));
#455=DIRECTION('',(0.,-1.,0.));
#456=DIRECTION('',(0.,-1.,0.));
#457=DIRECTION('',(-1.,0.,0.));
#458=DIRECTION('',(0.,0.,1.));
#459=DIRECTION('',(0.,-1.,0.));
#460=DIRECTION('',(0.,-1.,0.));
#461=DIRECTION('',(0.,0.,1.));
#462=DIRECTION('',(1.,0.,0.));
#463=DIRECTION('',(0.,0.,1.));
#464=DIRECTION('',(1.,0.,0.));
#465=DIRECTION('',(1.,0.,0.));
#466=DIRECTION('',(0.,0.,-1.));
#467=DIRECTION('',(0.,1.,0.));
#468=DIRECTION('',(0.,1.,0.));
#469=DIRECTION('',(0.,0.,-1.));
#470=DIRECTION('',(-1.,0.,0.));
#471=DIRECTION('',(0.,1.,0.));
#472=DIRECTION('',(0.,1.,0.));
#473=DIRECTION('',(1.,0.,0.));
#474=DIRECTION('',(0.,0.,-1.));
#475=DIRECTION('',(0.,1.,0.));
#476=DIRECTION('',(0.,1.,0.));
#477=DIRECTION('',(0.,0.,-1.));
#478=DIRECTION('',(-1.,0.,0.));
#479=DIRECTION('',(0.,1.,0.));
#480=DIRECTION('',(0.,1.,0.));
#481=DIRECTION('',(0.,1.,0.));
#482=DIRECTION('',(0.,0.,1.));
#483=DIRECTION('',(0.,-1.,0.));
#484=DIRECTION('',(0.,0.,-1.));
#485=DIRECTION('',(0.,1.,0.));
#486=DIRECTION('',(0.,0.,1.));
#487=DIRECTION('',(0.,-1.,0.));
#488=DIRECTION('',(0.,0.,-1.));
#489=CARTESIAN_POINT('',(0.,0.,0.));
#490=CARTESIAN_POINT('',(0.0460028179408938,0.04,-0.013));
#491=CARTESIAN_POINT('',(0.0460028179408938,0.04,0.));
#492=CARTESIAN_POINT('',(-0.05,0.04,0.));
#493=CARTESIAN_POINT('',(0.05,0.04,0.));
#494=CARTESIAN_POINT('',(0.05,0.04,-0.013));
#495=CARTESIAN_POINT('',(0.05,0.04,-0.013));
#496=CARTESIAN_POINT('',(0.0460028179408938,0.04,-0.013));
#497=CARTESIAN_POINT('',(-0.05,0.04,-0.013));
#498=CARTESIAN_POINT('',(-0.05,0.04,-0.013));
#499=CARTESIAN_POINT('',(-0.0279,0.04,-0.0031));
#500=CARTESIAN_POINT('',(-0.0219,0.04,-0.0031));
#501=CARTESIAN_POINT('',(-0.0339,0.04,-0.0031));
#502=CARTESIAN_POINT('',(-0.0339,0.04,-0.0041));
#503=CARTESIAN_POINT('',(-0.0349,0.04,-0.0041));
#504=CARTESIAN_POINT('',(-0.0349,0.04,-0.00685));
#505=CARTESIAN_POINT('',(-0.0349,0.04,-0.0081));
#506=CARTESIAN_POINT('',(-0.0339,0.04,-0.0081));
#507=CARTESIAN_POINT('',(-0.0339,0.04,-0.0091));
#508=CARTESIAN_POINT('',(-0.0279,0.04,-0.0091));
#509=CARTESIAN_POINT('',(-0.0219,0.04,-0.0091));
#510=CARTESIAN_POINT('',(-0.0219,0.04,-0.0081));
#511=CARTESIAN_POINT('',(-0.0209,0.04,-0.0081));
#512=CARTESIAN_POINT('',(-0.0209,0.04,-0.00685));
#513=CARTESIAN_POINT('',(-0.0209,0.04,-0.0041));
#514=CARTESIAN_POINT('',(-0.0219,0.04,-0.0041));
#515=CARTESIAN_POINT('',(0.0317704236381681,0.0385,-0.013));
#516=CARTESIAN_POINT('',(0.0317704236381681,0.0385,0.));
#517=CARTESIAN_POINT('',(-0.0485,0.0385,0.));
#518=CARTESIAN_POINT('',(0.0485,0.0385,0.));
#519=CARTESIAN_POINT('',(-0.0485,0.0385,-0.013));
#520=CARTESIAN_POINT('',(-0.0485,0.0385,-0.013));
#521=CARTESIAN_POINT('',(0.0317704236381681,0.0385,-0.013));
#522=CARTESIAN_POINT('',(0.0485,0.0385,-0.013));
#523=CARTESIAN_POINT('',(0.0485,0.0385,-0.013));
#524=CARTESIAN_POINT('',(0.0317704236381681,0.0385,-0.0091));
#525=CARTESIAN_POINT('',(-0.0339,0.0385,-0.0091));
#526=CARTESIAN_POINT('',(-0.0219,0.0385,-0.0091));
#527=CARTESIAN_POINT('',(-0.0339,0.0385,-0.0081));
#528=CARTESIAN_POINT('',(-0.0349,0.0385,-0.0081));
#529=CARTESIAN_POINT('',(-0.0349,0.0385,-0.013));
#530=CARTESIAN_POINT('',(-0.0349,0.0385,-0.0041));
#531=CARTESIAN_POINT('',(-0.0339,0.0385,-0.0041));
#532=CARTESIAN_POINT('',(-0.0339,0.0385,-0.0031));
#533=CARTESIAN_POINT('',(0.0317704236381681,0.0385,-0.0031));
#534=CARTESIAN_POINT('',(-0.0219,0.0385,-0.0031));
#535=CARTESIAN_POINT('',(-0.0219,0.0385,-0.0041));
#536=CARTESIAN_POINT('',(-0.0209,0.0385,-0.0041));
#537=CARTESIAN_POINT('',(-0.0209,0.0385,-0.013));
#538=CARTESIAN_POINT('',(-0.0209,0.0385,-0.0081));
#539=CARTESIAN_POINT('',(-0.0219,0.0385,-0.0081));
#540=CARTESIAN_POINT('',(-0.0455649110376835,-0.04,-0.013));
#541=CARTESIAN_POINT('',(-0.0455649110376835,-0.04,0.));
#542=CARTESIAN_POINT('',(-0.05,-0.04,0.));
#543=CARTESIAN_POINT('',(0.05,-0.04,0.));
#544=CARTESIAN_POINT('',(-0.05,-0.04,-0.013));
#545=CARTESIAN_POINT('',(-0.05,-0.04,-0.013));
#546=CARTESIAN_POINT('',(-0.0455649110376835,-0.04,-0.013));
#547=CARTESIAN_POINT('',(0.05,-0.04,-0.013));
#548=CARTESIAN_POINT('',(0.05,-0.04,-0.013));
#549=CARTESIAN_POINT('',(0.05,-0.0390733016468584,-0.013));
#550=CARTESIAN_POINT('',(0.05,-0.0390733016468584,0.));
#551=CARTESIAN_POINT('',(0.05,-0.0390733016468584,-0.013));
#552=CARTESIAN_POINT('',(0.0485,-0.0222663351442418,-0.013));
#553=CARTESIAN_POINT('',(0.0485,-0.0222663351442418,0.));
#554=CARTESIAN_POINT('',(0.0485,-0.0385,0.));
#555=CARTESIAN_POINT('',(0.0485,-0.0222663351442418,-0.013));
#556=CARTESIAN_POINT('',(0.0485,-0.0385,-0.013));
#557=CARTESIAN_POINT('',(0.0485,-0.0385,-0.013));
#558=CARTESIAN_POINT('',(-0.0423392046838999,-0.0385,-0.013));
#559=CARTESIAN_POINT('',(-0.0423392046838999,-0.0385,0.));
#560=CARTESIAN_POINT('',(-0.0485,-0.0385,0.));
#561=CARTESIAN_POINT('',(-0.0423392046838999,-0.0385,-0.013));
#562=CARTESIAN_POINT('',(-0.0485,-0.0385,-0.013));
#563=CARTESIAN_POINT('',(-0.0485,-0.0385,-0.013));
#564=CARTESIAN_POINT('',(-0.0485,-0.0220456250118394,-0.013));
#565=CARTESIAN_POINT('',(-0.0485,-0.0220456250118394,0.));
#566=CARTESIAN_POINT('',(-0.0485,-0.0220456250118394,-0.013));
#567=CARTESIAN_POINT('',(-0.05,-0.00761410128272366,-0.013));
#568=CARTESIAN_POINT('',(-0.05,-0.00761410128272366,0.));
#569=CARTESIAN_POINT('',(-0.05,-0.00761410128272366,-0.013));
#570=CARTESIAN_POINT('',(6.93889390390723E-18,0.00075,-0.013));
#571=CARTESIAN_POINT('',(6.93889390390723E-18,0.00075,0.));
#572=CARTESIAN_POINT('',(-0.0349,0.015,-0.00685));
#573=CARTESIAN_POINT('',(-0.0349,0.015,-0.0081));
#574=CARTESIAN_POINT('',(-0.0349,0.0385,-0.0041));
#575=CARTESIAN_POINT('',(-0.0279,0.015,-0.0031));
#576=CARTESIAN_POINT('',(-0.0339,0.04,-0.0031));
#577=CARTESIAN_POINT('',(-0.0219,0.015,-0.0031));
#578=CARTESIAN_POINT('',(-0.0209,0.015,-0.00685));
#579=CARTESIAN_POINT('',(-0.0209,0.015,-0.0041));
#580=CARTESIAN_POINT('',(-0.0209,0.0385,-0.0081));
#581=CARTESIAN_POINT('',(-0.0279,0.015,-0.0091));
#582=CARTESIAN_POINT('',(-0.0339,0.015,-0.0091));
#583=CARTESIAN_POINT('',(-0.0219,0.04,-0.0091));
#584=CARTESIAN_POINT('',(-0.0339,0.015,-0.0081));
#585=CARTESIAN_POINT('',(-0.0339,0.015,-0.0041));
#586=CARTESIAN_POINT('',(-0.0219,0.015,-0.0041));
#587=CARTESIAN_POINT('',(-0.0219,0.015,-0.0081));
#588=MECHANICAL_DESIGN_GEOMETRIC_PRESENTATION_REPRESENTATION('',(#357),
#589);
#589=(
GEOMETRIC_REPRESENTATION_CONTEXT(3)
GLOBAL_UNCERTAINTY_ASSIGNED_CONTEXT((#590))
GLOBAL_UNIT_ASSIGNED_CONTEXT((#593,#592,#591))
REPRESENTATION_CONTEXT('Part 37','TOP_LEVEL_ASSEMBLY_PART')
);
#590=UNCERTAINTY_MEASURE_WITH_UNIT(LENGTH_MEASURE(1.E-8),#593,
'DISTANCE_ACCURACY_VALUE','Maximum Tolerance applied to model');
#591=(
NAMED_UNIT(*)
SI_UNIT($,.STERADIAN.)
SOLID_ANGLE_UNIT()
);
#592=(
NAMED_UNIT(*)
PLANE_ANGLE_UNIT()
SI_UNIT($,.RADIAN.)
);
#593=(
LENGTH_UNIT()
NAMED_UNIT(*)
SI_UNIT($,.METRE.)
);
#594=PRODUCT_DEFINITION_SHAPE('','',#595);
#595=PRODUCT_DEFINITION('','',#597,#596);
#596=PRODUCT_DEFINITION_CONTEXT('',#603,'design');
#597=PRODUCT_DEFINITION_FORMATION_WITH_SPECIFIED_SOURCE('','',#599,
 .NOT_KNOWN.);
#598=PRODUCT_RELATED_PRODUCT_CATEGORY('','',(#599));
#599=PRODUCT('Part 37','Part 37','Part 37',(#601));
#600=PRODUCT_CATEGORY('','');
#601=PRODUCT_CONTEXT('',#603,'mechanical');
#602=APPLICATION_PROTOCOL_DEFINITION('international standard',
'ap242_managed_model_based_3d_engineering',2011,#603);
#603=APPLICATION_CONTEXT('managed model based 3d engineering');
ENDSEC;
END-ISO-10303-21;
