ISO-10303-21;
HEADER;
/* Generated by software containing ST-Developer
 * from STEP Tools, Inc. (www.steptools.com) 
 */
/* OPTION: using custom renumber hook */

FILE_DESCRIPTION(
/* description */ ('STEP AP242',
'CAx-IF Rec.Pracs.---Representation and Presentation of Product Manufa
cturing Information (PMI)---4.0---2014-10-13',
'CAx-IF Rec.Pracs.---3D Tessellated Geometry---0.4---2014-09-14','2;1'),

/* implementation_level */ '2;1');

FILE_NAME(
/* name */ '686a060196189f26e396870d',
/* time_stamp */ '2025-07-06T05:13:38Z',
/* author */ (''),
/* organization */ (''),
/* preprocessor_version */ 'ST-DEVELOPER v20',
/* originating_system */ 'ONSHAPE BY PTC INC, 1.200',
/* authorisation */ '  ');

FILE_SCHEMA (('AP242_MANAGED_MODEL_BASED_3D_ENGINEERING_MIM_LF { 1 0 10303 442 1 1 4 }'));
ENDSEC;

DATA;
#10=SHAPE_REPRESENTATION_RELATIONSHIP('','',#795,#11);
#11=ADVANCED_BREP_SHAPE_REPRESENTATION('',(#793),#1337);
#12=CIRCLE('',#813,0.001);
#13=CIRCLE('',#814,0.001);
#14=CIRCLE('',#816,0.001);
#15=CIRCLE('',#817,0.001);
#16=CIRCLE('',#819,0.001);
#17=CIRCLE('',#820,0.001);
#18=CIRCLE('',#822,0.001);
#19=CIRCLE('',#823,0.001);
#20=CIRCLE('',#825,0.001);
#21=CIRCLE('',#826,0.001);
#22=CIRCLE('',#828,0.001);
#23=CIRCLE('',#829,0.001);
#24=CIRCLE('',#831,0.001);
#25=CIRCLE('',#832,0.001);
#26=CIRCLE('',#835,0.001);
#27=CIRCLE('',#836,0.001);
#28=CIRCLE('',#838,0.001);
#29=CIRCLE('',#839,0.001);
#30=CIRCLE('',#840,0.001);
#31=CIRCLE('',#841,0.001);
#32=CIRCLE('',#842,0.001);
#33=CIRCLE('',#843,0.001);
#34=CIRCLE('',#844,0.001);
#35=CIRCLE('',#845,0.001);
#36=CIRCLE('',#846,0.001);
#37=CIRCLE('',#847,0.001);
#38=CIRCLE('',#848,0.001);
#39=CIRCLE('',#849,0.001);
#40=CIRCLE('',#850,0.001);
#41=CIRCLE('',#851,0.001);
#42=CIRCLE('',#853,0.001);
#43=CIRCLE('',#854,0.001);
#44=CIRCLE('',#855,0.001);
#45=CIRCLE('',#856,0.001);
#46=CIRCLE('',#857,0.001);
#47=CIRCLE('',#858,0.001);
#48=CIRCLE('',#859,0.001);
#49=CIRCLE('',#860,0.001);
#50=CIRCLE('',#861,0.001);
#51=CIRCLE('',#862,0.001);
#52=CIRCLE('',#863,0.001);
#53=CIRCLE('',#864,0.001);
#54=CIRCLE('',#865,0.001);
#55=CIRCLE('',#866,0.001);
#56=CYLINDRICAL_SURFACE('',#812,0.001);
#57=CYLINDRICAL_SURFACE('',#815,0.001);
#58=CYLINDRICAL_SURFACE('',#818,0.001);
#59=CYLINDRICAL_SURFACE('',#821,0.001);
#60=CYLINDRICAL_SURFACE('',#824,0.001);
#61=CYLINDRICAL_SURFACE('',#827,0.001);
#62=CYLINDRICAL_SURFACE('',#830,0.001);
#63=CYLINDRICAL_SURFACE('',#834,0.001);
#64=CYLINDRICAL_SURFACE('',#867,0.001);
#65=CYLINDRICAL_SURFACE('',#868,0.001);
#66=CYLINDRICAL_SURFACE('',#869,0.001);
#67=CYLINDRICAL_SURFACE('',#870,0.001);
#68=CYLINDRICAL_SURFACE('',#871,0.001);
#69=CYLINDRICAL_SURFACE('',#872,0.001);
#70=CYLINDRICAL_SURFACE('',#873,0.001);
#71=CYLINDRICAL_SURFACE('',#874,0.001);
#72=CYLINDRICAL_SURFACE('',#875,0.001);
#73=CYLINDRICAL_SURFACE('',#876,0.001);
#74=CYLINDRICAL_SURFACE('',#877,0.001);
#75=CYLINDRICAL_SURFACE('',#878,0.001);
#76=CYLINDRICAL_SURFACE('',#879,0.001);
#77=CYLINDRICAL_SURFACE('',#880,0.001);
#78=ORIENTED_EDGE('',*,*,#290,.F.);
#79=ORIENTED_EDGE('',*,*,#291,.T.);
#80=ORIENTED_EDGE('',*,*,#292,.T.);
#81=ORIENTED_EDGE('',*,*,#293,.T.);
#82=ORIENTED_EDGE('',*,*,#294,.T.);
#83=ORIENTED_EDGE('',*,*,#295,.T.);
#84=ORIENTED_EDGE('',*,*,#296,.F.);
#85=ORIENTED_EDGE('',*,*,#297,.T.);
#86=ORIENTED_EDGE('',*,*,#298,.T.);
#87=ORIENTED_EDGE('',*,*,#299,.T.);
#88=ORIENTED_EDGE('',*,*,#300,.F.);
#89=ORIENTED_EDGE('',*,*,#301,.T.);
#90=ORIENTED_EDGE('',*,*,#302,.T.);
#91=ORIENTED_EDGE('',*,*,#303,.T.);
#92=ORIENTED_EDGE('',*,*,#304,.F.);
#93=ORIENTED_EDGE('',*,*,#305,.T.);
#94=ORIENTED_EDGE('',*,*,#306,.T.);
#95=ORIENTED_EDGE('',*,*,#307,.T.);
#96=ORIENTED_EDGE('',*,*,#308,.F.);
#97=ORIENTED_EDGE('',*,*,#309,.T.);
#98=ORIENTED_EDGE('',*,*,#310,.T.);
#99=ORIENTED_EDGE('',*,*,#311,.T.);
#100=ORIENTED_EDGE('',*,*,#312,.F.);
#101=ORIENTED_EDGE('',*,*,#313,.T.);
#102=ORIENTED_EDGE('',*,*,#314,.T.);
#103=ORIENTED_EDGE('',*,*,#315,.T.);
#104=ORIENTED_EDGE('',*,*,#316,.F.);
#105=ORIENTED_EDGE('',*,*,#317,.F.);
#106=ORIENTED_EDGE('',*,*,#318,.F.);
#107=ORIENTED_EDGE('',*,*,#319,.T.);
#108=ORIENTED_EDGE('',*,*,#320,.T.);
#109=ORIENTED_EDGE('',*,*,#317,.T.);
#110=ORIENTED_EDGE('',*,*,#321,.F.);
#111=ORIENTED_EDGE('',*,*,#322,.T.);
#112=ORIENTED_EDGE('',*,*,#323,.T.);
#113=ORIENTED_EDGE('',*,*,#324,.T.);
#114=ORIENTED_EDGE('',*,*,#325,.F.);
#115=ORIENTED_EDGE('',*,*,#326,.T.);
#116=ORIENTED_EDGE('',*,*,#327,.T.);
#117=ORIENTED_EDGE('',*,*,#328,.F.);
#118=ORIENTED_EDGE('',*,*,#329,.T.);
#119=ORIENTED_EDGE('',*,*,#330,.T.);
#120=ORIENTED_EDGE('',*,*,#331,.F.);
#121=ORIENTED_EDGE('',*,*,#328,.T.);
#122=ORIENTED_EDGE('',*,*,#332,.F.);
#123=ORIENTED_EDGE('',*,*,#333,.T.);
#124=ORIENTED_EDGE('',*,*,#334,.T.);
#125=ORIENTED_EDGE('',*,*,#335,.T.);
#126=ORIENTED_EDGE('',*,*,#336,.F.);
#127=ORIENTED_EDGE('',*,*,#337,.T.);
#128=ORIENTED_EDGE('',*,*,#338,.T.);
#129=ORIENTED_EDGE('',*,*,#339,.T.);
#130=ORIENTED_EDGE('',*,*,#340,.T.);
#131=ORIENTED_EDGE('',*,*,#341,.T.);
#132=ORIENTED_EDGE('',*,*,#342,.F.);
#133=ORIENTED_EDGE('',*,*,#343,.T.);
#134=ORIENTED_EDGE('',*,*,#344,.F.);
#135=ORIENTED_EDGE('',*,*,#345,.T.);
#136=ORIENTED_EDGE('',*,*,#346,.T.);
#137=ORIENTED_EDGE('',*,*,#347,.T.);
#138=ORIENTED_EDGE('',*,*,#348,.T.);
#139=ORIENTED_EDGE('',*,*,#349,.F.);
#140=ORIENTED_EDGE('',*,*,#350,.T.);
#141=ORIENTED_EDGE('',*,*,#351,.F.);
#142=ORIENTED_EDGE('',*,*,#352,.T.);
#143=ORIENTED_EDGE('',*,*,#353,.F.);
#144=ORIENTED_EDGE('',*,*,#354,.T.);
#145=ORIENTED_EDGE('',*,*,#355,.F.);
#146=ORIENTED_EDGE('',*,*,#356,.T.);
#147=ORIENTED_EDGE('',*,*,#357,.F.);
#148=ORIENTED_EDGE('',*,*,#358,.T.);
#149=ORIENTED_EDGE('',*,*,#359,.F.);
#150=ORIENTED_EDGE('',*,*,#360,.T.);
#151=ORIENTED_EDGE('',*,*,#361,.F.);
#152=ORIENTED_EDGE('',*,*,#362,.F.);
#153=ORIENTED_EDGE('',*,*,#363,.T.);
#154=ORIENTED_EDGE('',*,*,#364,.T.);
#155=ORIENTED_EDGE('',*,*,#365,.T.);
#156=ORIENTED_EDGE('',*,*,#366,.T.);
#157=ORIENTED_EDGE('',*,*,#367,.F.);
#158=ORIENTED_EDGE('',*,*,#331,.T.);
#159=ORIENTED_EDGE('',*,*,#368,.T.);
#160=ORIENTED_EDGE('',*,*,#332,.T.);
#161=ORIENTED_EDGE('',*,*,#369,.T.);
#162=ORIENTED_EDGE('',*,*,#336,.T.);
#163=ORIENTED_EDGE('',*,*,#370,.T.);
#164=ORIENTED_EDGE('',*,*,#340,.F.);
#165=ORIENTED_EDGE('',*,*,#371,.T.);
#166=ORIENTED_EDGE('',*,*,#344,.T.);
#167=ORIENTED_EDGE('',*,*,#372,.T.);
#168=ORIENTED_EDGE('',*,*,#362,.T.);
#169=ORIENTED_EDGE('',*,*,#373,.T.);
#170=ORIENTED_EDGE('',*,*,#290,.T.);
#171=ORIENTED_EDGE('',*,*,#374,.T.);
#172=ORIENTED_EDGE('',*,*,#294,.F.);
#173=ORIENTED_EDGE('',*,*,#375,.T.);
#174=ORIENTED_EDGE('',*,*,#298,.F.);
#175=ORIENTED_EDGE('',*,*,#376,.T.);
#176=ORIENTED_EDGE('',*,*,#302,.F.);
#177=ORIENTED_EDGE('',*,*,#377,.T.);
#178=ORIENTED_EDGE('',*,*,#306,.F.);
#179=ORIENTED_EDGE('',*,*,#378,.T.);
#180=ORIENTED_EDGE('',*,*,#310,.F.);
#181=ORIENTED_EDGE('',*,*,#379,.T.);
#182=ORIENTED_EDGE('',*,*,#314,.F.);
#183=ORIENTED_EDGE('',*,*,#320,.F.);
#184=ORIENTED_EDGE('',*,*,#380,.T.);
#185=ORIENTED_EDGE('',*,*,#323,.F.);
#186=ORIENTED_EDGE('',*,*,#381,.T.);
#187=ORIENTED_EDGE('',*,*,#325,.T.);
#188=ORIENTED_EDGE('',*,*,#360,.F.);
#189=ORIENTED_EDGE('',*,*,#358,.F.);
#190=ORIENTED_EDGE('',*,*,#356,.F.);
#191=ORIENTED_EDGE('',*,*,#354,.F.);
#192=ORIENTED_EDGE('',*,*,#352,.F.);
#193=ORIENTED_EDGE('',*,*,#350,.F.);
#194=ORIENTED_EDGE('',*,*,#348,.F.);
#195=ORIENTED_EDGE('',*,*,#366,.F.);
#196=ORIENTED_EDGE('',*,*,#334,.F.);
#197=ORIENTED_EDGE('',*,*,#382,.T.);
#198=ORIENTED_EDGE('',*,*,#329,.F.);
#199=ORIENTED_EDGE('',*,*,#327,.F.);
#200=ORIENTED_EDGE('',*,*,#383,.T.);
#201=ORIENTED_EDGE('',*,*,#321,.T.);
#202=ORIENTED_EDGE('',*,*,#384,.T.);
#203=ORIENTED_EDGE('',*,*,#318,.T.);
#204=ORIENTED_EDGE('',*,*,#316,.T.);
#205=ORIENTED_EDGE('',*,*,#385,.T.);
#206=ORIENTED_EDGE('',*,*,#312,.T.);
#207=ORIENTED_EDGE('',*,*,#386,.T.);
#208=ORIENTED_EDGE('',*,*,#308,.T.);
#209=ORIENTED_EDGE('',*,*,#387,.T.);
#210=ORIENTED_EDGE('',*,*,#304,.T.);
#211=ORIENTED_EDGE('',*,*,#388,.T.);
#212=ORIENTED_EDGE('',*,*,#300,.T.);
#213=ORIENTED_EDGE('',*,*,#389,.T.);
#214=ORIENTED_EDGE('',*,*,#296,.T.);
#215=ORIENTED_EDGE('',*,*,#390,.T.);
#216=ORIENTED_EDGE('',*,*,#292,.F.);
#217=ORIENTED_EDGE('',*,*,#391,.T.);
#218=ORIENTED_EDGE('',*,*,#364,.F.);
#219=ORIENTED_EDGE('',*,*,#392,.T.);
#220=ORIENTED_EDGE('',*,*,#346,.F.);
#221=ORIENTED_EDGE('',*,*,#393,.T.);
#222=ORIENTED_EDGE('',*,*,#342,.T.);
#223=ORIENTED_EDGE('',*,*,#394,.T.);
#224=ORIENTED_EDGE('',*,*,#338,.F.);
#225=ORIENTED_EDGE('',*,*,#395,.T.);
#226=ORIENTED_EDGE('',*,*,#361,.T.);
#227=ORIENTED_EDGE('',*,*,#359,.T.);
#228=ORIENTED_EDGE('',*,*,#357,.T.);
#229=ORIENTED_EDGE('',*,*,#355,.T.);
#230=ORIENTED_EDGE('',*,*,#353,.T.);
#231=ORIENTED_EDGE('',*,*,#351,.T.);
#232=ORIENTED_EDGE('',*,*,#349,.T.);
#233=ORIENTED_EDGE('',*,*,#367,.T.);
#234=ORIENTED_EDGE('',*,*,#368,.F.);
#235=ORIENTED_EDGE('',*,*,#330,.F.);
#236=ORIENTED_EDGE('',*,*,#382,.F.);
#237=ORIENTED_EDGE('',*,*,#333,.F.);
#238=ORIENTED_EDGE('',*,*,#369,.F.);
#239=ORIENTED_EDGE('',*,*,#335,.F.);
#240=ORIENTED_EDGE('',*,*,#395,.F.);
#241=ORIENTED_EDGE('',*,*,#337,.F.);
#242=ORIENTED_EDGE('',*,*,#370,.F.);
#243=ORIENTED_EDGE('',*,*,#339,.F.);
#244=ORIENTED_EDGE('',*,*,#394,.F.);
#245=ORIENTED_EDGE('',*,*,#341,.F.);
#246=ORIENTED_EDGE('',*,*,#371,.F.);
#247=ORIENTED_EDGE('',*,*,#343,.F.);
#248=ORIENTED_EDGE('',*,*,#393,.F.);
#249=ORIENTED_EDGE('',*,*,#345,.F.);
#250=ORIENTED_EDGE('',*,*,#372,.F.);
#251=ORIENTED_EDGE('',*,*,#347,.F.);
#252=ORIENTED_EDGE('',*,*,#392,.F.);
#253=ORIENTED_EDGE('',*,*,#363,.F.);
#254=ORIENTED_EDGE('',*,*,#373,.F.);
#255=ORIENTED_EDGE('',*,*,#365,.F.);
#256=ORIENTED_EDGE('',*,*,#391,.F.);
#257=ORIENTED_EDGE('',*,*,#291,.F.);
#258=ORIENTED_EDGE('',*,*,#374,.F.);
#259=ORIENTED_EDGE('',*,*,#293,.F.);
#260=ORIENTED_EDGE('',*,*,#390,.F.);
#261=ORIENTED_EDGE('',*,*,#295,.F.);
#262=ORIENTED_EDGE('',*,*,#375,.F.);
#263=ORIENTED_EDGE('',*,*,#297,.F.);
#264=ORIENTED_EDGE('',*,*,#389,.F.);
#265=ORIENTED_EDGE('',*,*,#299,.F.);
#266=ORIENTED_EDGE('',*,*,#376,.F.);
#267=ORIENTED_EDGE('',*,*,#301,.F.);
#268=ORIENTED_EDGE('',*,*,#388,.F.);
#269=ORIENTED_EDGE('',*,*,#303,.F.);
#270=ORIENTED_EDGE('',*,*,#377,.F.);
#271=ORIENTED_EDGE('',*,*,#305,.F.);
#272=ORIENTED_EDGE('',*,*,#387,.F.);
#273=ORIENTED_EDGE('',*,*,#307,.F.);
#274=ORIENTED_EDGE('',*,*,#378,.F.);
#275=ORIENTED_EDGE('',*,*,#309,.F.);
#276=ORIENTED_EDGE('',*,*,#386,.F.);
#277=ORIENTED_EDGE('',*,*,#311,.F.);
#278=ORIENTED_EDGE('',*,*,#381,.F.);
#279=ORIENTED_EDGE('',*,*,#322,.F.);
#280=ORIENTED_EDGE('',*,*,#383,.F.);
#281=ORIENTED_EDGE('',*,*,#326,.F.);
#282=ORIENTED_EDGE('',*,*,#380,.F.);
#283=ORIENTED_EDGE('',*,*,#319,.F.);
#284=ORIENTED_EDGE('',*,*,#384,.F.);
#285=ORIENTED_EDGE('',*,*,#324,.F.);
#286=ORIENTED_EDGE('',*,*,#379,.F.);
#287=ORIENTED_EDGE('',*,*,#313,.F.);
#288=ORIENTED_EDGE('',*,*,#385,.F.);
#289=ORIENTED_EDGE('',*,*,#315,.F.);
#290=EDGE_CURVE('',#396,#397,#472,.T.);
#291=EDGE_CURVE('',#396,#398,#473,.T.);
#292=EDGE_CURVE('',#398,#399,#474,.T.);
#293=EDGE_CURVE('',#399,#397,#475,.F.);
#294=EDGE_CURVE('',#400,#401,#476,.T.);
#295=EDGE_CURVE('',#401,#402,#477,.T.);
#296=EDGE_CURVE('',#403,#402,#478,.T.);
#297=EDGE_CURVE('',#403,#400,#479,.F.);
#298=EDGE_CURVE('',#404,#405,#480,.T.);
#299=EDGE_CURVE('',#405,#406,#481,.T.);
#300=EDGE_CURVE('',#407,#406,#482,.T.);
#301=EDGE_CURVE('',#407,#404,#483,.F.);
#302=EDGE_CURVE('',#408,#409,#484,.T.);
#303=EDGE_CURVE('',#409,#410,#485,.T.);
#304=EDGE_CURVE('',#411,#410,#486,.T.);
#305=EDGE_CURVE('',#411,#408,#487,.F.);
#306=EDGE_CURVE('',#412,#413,#488,.T.);
#307=EDGE_CURVE('',#413,#414,#489,.T.);
#308=EDGE_CURVE('',#415,#414,#490,.T.);
#309=EDGE_CURVE('',#415,#412,#491,.F.);
#310=EDGE_CURVE('',#416,#417,#492,.T.);
#311=EDGE_CURVE('',#417,#418,#493,.T.);
#312=EDGE_CURVE('',#419,#418,#494,.T.);
#313=EDGE_CURVE('',#419,#416,#495,.F.);
#314=EDGE_CURVE('',#420,#421,#496,.T.);
#315=EDGE_CURVE('',#421,#422,#497,.T.);
#316=EDGE_CURVE('',#423,#422,#498,.T.);
#317=EDGE_CURVE('',#420,#423,#499,.T.);
#318=EDGE_CURVE('',#424,#423,#500,.T.);
#319=EDGE_CURVE('',#424,#425,#501,.F.);
#320=EDGE_CURVE('',#425,#420,#502,.T.);
#321=EDGE_CURVE('',#426,#427,#503,.T.);
#322=EDGE_CURVE('',#426,#428,#504,.F.);
#323=EDGE_CURVE('',#428,#429,#505,.T.);
#324=EDGE_CURVE('',#429,#427,#506,.T.);
#325=EDGE_CURVE('',#430,#431,#507,.T.);
#326=EDGE_CURVE('',#430,#432,#508,.T.);
#327=EDGE_CURVE('',#432,#433,#509,.T.);
#328=EDGE_CURVE('',#431,#433,#510,.T.);
#329=EDGE_CURVE('',#433,#434,#511,.T.);
#330=EDGE_CURVE('',#434,#435,#512,.F.);
#331=EDGE_CURVE('',#431,#435,#513,.T.);
#332=EDGE_CURVE('',#436,#437,#514,.T.);
#333=EDGE_CURVE('',#436,#438,#515,.T.);
#334=EDGE_CURVE('',#438,#439,#516,.T.);
#335=EDGE_CURVE('',#439,#437,#517,.F.);
#336=EDGE_CURVE('',#440,#441,#518,.T.);
#337=EDGE_CURVE('',#440,#442,#519,.T.);
#338=EDGE_CURVE('',#442,#443,#520,.T.);
#339=EDGE_CURVE('',#443,#441,#521,.F.);
#340=EDGE_CURVE('',#444,#445,#522,.T.);
#341=EDGE_CURVE('',#445,#446,#523,.T.);
#342=EDGE_CURVE('',#447,#446,#524,.T.);
#343=EDGE_CURVE('',#447,#444,#525,.F.);
#344=EDGE_CURVE('',#448,#449,#526,.T.);
#345=EDGE_CURVE('',#448,#450,#527,.T.);
#346=EDGE_CURVE('',#450,#451,#528,.T.);
#347=EDGE_CURVE('',#451,#449,#529,.F.);
#348=EDGE_CURVE('',#452,#452,#12,.T.);
#349=EDGE_CURVE('',#453,#453,#13,.T.);
#350=EDGE_CURVE('',#454,#454,#14,.T.);
#351=EDGE_CURVE('',#455,#455,#15,.T.);
#352=EDGE_CURVE('',#456,#456,#16,.T.);
#353=EDGE_CURVE('',#457,#457,#17,.T.);
#354=EDGE_CURVE('',#458,#458,#18,.T.);
#355=EDGE_CURVE('',#459,#459,#19,.T.);
#356=EDGE_CURVE('',#460,#460,#20,.T.);
#357=EDGE_CURVE('',#461,#461,#21,.T.);
#358=EDGE_CURVE('',#462,#462,#22,.T.);
#359=EDGE_CURVE('',#463,#463,#23,.T.);
#360=EDGE_CURVE('',#464,#464,#24,.T.);
#361=EDGE_CURVE('',#465,#465,#25,.T.);
#362=EDGE_CURVE('',#466,#467,#530,.T.);
#363=EDGE_CURVE('',#466,#468,#531,.T.);
#364=EDGE_CURVE('',#468,#469,#532,.T.);
#365=EDGE_CURVE('',#469,#467,#533,.F.);
#366=EDGE_CURVE('',#470,#470,#26,.T.);
#367=EDGE_CURVE('',#471,#471,#27,.T.);
#368=EDGE_CURVE('',#435,#436,#28,.T.);
#369=EDGE_CURVE('',#437,#440,#29,.T.);
#370=EDGE_CURVE('',#441,#445,#30,.F.);
#371=EDGE_CURVE('',#444,#448,#31,.F.);
#372=EDGE_CURVE('',#449,#466,#32,.T.);
#373=EDGE_CURVE('',#467,#396,#33,.F.);
#374=EDGE_CURVE('',#397,#401,#34,.T.);
#375=EDGE_CURVE('',#400,#405,#35,.T.);
#376=EDGE_CURVE('',#404,#409,#36,.T.);
#377=EDGE_CURVE('',#408,#413,#37,.F.);
#378=EDGE_CURVE('',#412,#417,#38,.T.);
#379=EDGE_CURVE('',#416,#421,#39,.T.);
#380=EDGE_CURVE('',#425,#429,#40,.F.);
#381=EDGE_CURVE('',#428,#430,#41,.T.);
#382=EDGE_CURVE('',#438,#434,#42,.F.);
#383=EDGE_CURVE('',#432,#426,#43,.F.);
#384=EDGE_CURVE('',#427,#424,#44,.T.);
#385=EDGE_CURVE('',#422,#419,#45,.F.);
#386=EDGE_CURVE('',#418,#415,#46,.F.);
#387=EDGE_CURVE('',#414,#411,#47,.T.);
#388=EDGE_CURVE('',#410,#407,#48,.F.);
#389=EDGE_CURVE('',#406,#403,#49,.F.);
#390=EDGE_CURVE('',#402,#399,#50,.F.);
#391=EDGE_CURVE('',#398,#469,#51,.T.);
#392=EDGE_CURVE('',#468,#451,#52,.F.);
#393=EDGE_CURVE('',#450,#447,#53,.T.);
#394=EDGE_CURVE('',#446,#443,#54,.T.);
#395=EDGE_CURVE('',#442,#439,#55,.F.);
#396=VERTEX_POINT('',#1116);
#397=VERTEX_POINT('',#1117);
#398=VERTEX_POINT('',#1119);
#399=VERTEX_POINT('',#1121);
#400=VERTEX_POINT('',#1125);
#401=VERTEX_POINT('',#1126);
#402=VERTEX_POINT('',#1128);
#403=VERTEX_POINT('',#1130);
#404=VERTEX_POINT('',#1134);
#405=VERTEX_POINT('',#1135);
#406=VERTEX_POINT('',#1137);
#407=VERTEX_POINT('',#1139);
#408=VERTEX_POINT('',#1143);
#409=VERTEX_POINT('',#1144);
#410=VERTEX_POINT('',#1146);
#411=VERTEX_POINT('',#1148);
#412=VERTEX_POINT('',#1152);
#413=VERTEX_POINT('',#1153);
#414=VERTEX_POINT('',#1155);
#415=VERTEX_POINT('',#1157);
#416=VERTEX_POINT('',#1161);
#417=VERTEX_POINT('',#1162);
#418=VERTEX_POINT('',#1164);
#419=VERTEX_POINT('',#1166);
#420=VERTEX_POINT('',#1170);
#421=VERTEX_POINT('',#1171);
#422=VERTEX_POINT('',#1173);
#423=VERTEX_POINT('',#1175);
#424=VERTEX_POINT('',#1179);
#425=VERTEX_POINT('',#1181);
#426=VERTEX_POINT('',#1185);
#427=VERTEX_POINT('',#1186);
#428=VERTEX_POINT('',#1188);
#429=VERTEX_POINT('',#1190);
#430=VERTEX_POINT('',#1194);
#431=VERTEX_POINT('',#1195);
#432=VERTEX_POINT('',#1197);
#433=VERTEX_POINT('',#1199);
#434=VERTEX_POINT('',#1203);
#435=VERTEX_POINT('',#1205);
#436=VERTEX_POINT('',#1209);
#437=VERTEX_POINT('',#1210);
#438=VERTEX_POINT('',#1212);
#439=VERTEX_POINT('',#1214);
#440=VERTEX_POINT('',#1218);
#441=VERTEX_POINT('',#1219);
#442=VERTEX_POINT('',#1221);
#443=VERTEX_POINT('',#1223);
#444=VERTEX_POINT('',#1227);
#445=VERTEX_POINT('',#1228);
#446=VERTEX_POINT('',#1230);
#447=VERTEX_POINT('',#1232);
#448=VERTEX_POINT('',#1236);
#449=VERTEX_POINT('',#1237);
#450=VERTEX_POINT('',#1239);
#451=VERTEX_POINT('',#1241);
#452=VERTEX_POINT('',#1245);
#453=VERTEX_POINT('',#1247);
#454=VERTEX_POINT('',#1250);
#455=VERTEX_POINT('',#1252);
#456=VERTEX_POINT('',#1255);
#457=VERTEX_POINT('',#1257);
#458=VERTEX_POINT('',#1260);
#459=VERTEX_POINT('',#1262);
#460=VERTEX_POINT('',#1265);
#461=VERTEX_POINT('',#1267);
#462=VERTEX_POINT('',#1270);
#463=VERTEX_POINT('',#1272);
#464=VERTEX_POINT('',#1275);
#465=VERTEX_POINT('',#1277);
#466=VERTEX_POINT('',#1280);
#467=VERTEX_POINT('',#1281);
#468=VERTEX_POINT('',#1283);
#469=VERTEX_POINT('',#1285);
#470=VERTEX_POINT('',#1289);
#471=VERTEX_POINT('',#1291);
#472=LINE('',#1115,#534);
#473=LINE('',#1118,#535);
#474=LINE('',#1120,#536);
#475=LINE('',#1122,#537);
#476=LINE('',#1124,#538);
#477=LINE('',#1127,#539);
#478=LINE('',#1129,#540);
#479=LINE('',#1131,#541);
#480=LINE('',#1133,#542);
#481=LINE('',#1136,#543);
#482=LINE('',#1138,#544);
#483=LINE('',#1140,#545);
#484=LINE('',#1142,#546);
#485=LINE('',#1145,#547);
#486=LINE('',#1147,#548);
#487=LINE('',#1149,#549);
#488=LINE('',#1151,#550);
#489=LINE('',#1154,#551);
#490=LINE('',#1156,#552);
#491=LINE('',#1158,#553);
#492=LINE('',#1160,#554);
#493=LINE('',#1163,#555);
#494=LINE('',#1165,#556);
#495=LINE('',#1167,#557);
#496=LINE('',#1169,#558);
#497=LINE('',#1172,#559);
#498=LINE('',#1174,#560);
#499=LINE('',#1176,#561);
#500=LINE('',#1178,#562);
#501=LINE('',#1180,#563);
#502=LINE('',#1182,#564);
#503=LINE('',#1184,#565);
#504=LINE('',#1187,#566);
#505=LINE('',#1189,#567);
#506=LINE('',#1191,#568);
#507=LINE('',#1193,#569);
#508=LINE('',#1196,#570);
#509=LINE('',#1198,#571);
#510=LINE('',#1200,#572);
#511=LINE('',#1202,#573);
#512=LINE('',#1204,#574);
#513=LINE('',#1206,#575);
#514=LINE('',#1208,#576);
#515=LINE('',#1211,#577);
#516=LINE('',#1213,#578);
#517=LINE('',#1215,#579);
#518=LINE('',#1217,#580);
#519=LINE('',#1220,#581);
#520=LINE('',#1222,#582);
#521=LINE('',#1224,#583);
#522=LINE('',#1226,#584);
#523=LINE('',#1229,#585);
#524=LINE('',#1231,#586);
#525=LINE('',#1233,#587);
#526=LINE('',#1235,#588);
#527=LINE('',#1238,#589);
#528=LINE('',#1240,#590);
#529=LINE('',#1242,#591);
#530=LINE('',#1279,#592);
#531=LINE('',#1282,#593);
#532=LINE('',#1284,#594);
#533=LINE('',#1286,#595);
#534=VECTOR('',#885,1.);
#535=VECTOR('',#886,1.);
#536=VECTOR('',#887,1.);
#537=VECTOR('',#888,1.);
#538=VECTOR('',#891,1.);
#539=VECTOR('',#892,1.);
#540=VECTOR('',#893,1.);
#541=VECTOR('',#894,1.);
#542=VECTOR('',#897,1.);
#543=VECTOR('',#898,1.);
#544=VECTOR('',#899,1.);
#545=VECTOR('',#900,1.);
#546=VECTOR('',#903,1.);
#547=VECTOR('',#904,1.);
#548=VECTOR('',#905,1.);
#549=VECTOR('',#906,1.);
#550=VECTOR('',#909,1.);
#551=VECTOR('',#910,1.);
#552=VECTOR('',#911,1.);
#553=VECTOR('',#912,1.);
#554=VECTOR('',#915,1.);
#555=VECTOR('',#916,1.);
#556=VECTOR('',#917,1.);
#557=VECTOR('',#918,1.);
#558=VECTOR('',#921,1.);
#559=VECTOR('',#922,1.);
#560=VECTOR('',#923,1.);
#561=VECTOR('',#924,1.);
#562=VECTOR('',#927,1.);
#563=VECTOR('',#928,1.);
#564=VECTOR('',#929,1.);
#565=VECTOR('',#932,1.);
#566=VECTOR('',#933,1.);
#567=VECTOR('',#934,1.);
#568=VECTOR('',#935,1.);
#569=VECTOR('',#938,1.);
#570=VECTOR('',#939,1.);
#571=VECTOR('',#940,1.);
#572=VECTOR('',#941,1.);
#573=VECTOR('',#944,1.);
#574=VECTOR('',#945,1.);
#575=VECTOR('',#946,1.);
#576=VECTOR('',#949,1.);
#577=VECTOR('',#950,1.);
#578=VECTOR('',#951,1.);
#579=VECTOR('',#952,1.);
#580=VECTOR('',#955,1.);
#581=VECTOR('',#956,1.);
#582=VECTOR('',#957,1.);
#583=VECTOR('',#958,1.);
#584=VECTOR('',#961,1.);
#585=VECTOR('',#962,1.);
#586=VECTOR('',#963,1.);
#587=VECTOR('',#964,1.);
#588=VECTOR('',#967,1.);
#589=VECTOR('',#968,1.);
#590=VECTOR('',#969,1.);
#591=VECTOR('',#970,1.);
#592=VECTOR('',#1015,1.);
#593=VECTOR('',#1016,1.);
#594=VECTOR('',#1017,1.);
#595=VECTOR('',#1018,1.);
#596=EDGE_LOOP('',(#78,#79,#80,#81));
#597=EDGE_LOOP('',(#82,#83,#84,#85));
#598=EDGE_LOOP('',(#86,#87,#88,#89));
#599=EDGE_LOOP('',(#90,#91,#92,#93));
#600=EDGE_LOOP('',(#94,#95,#96,#97));
#601=EDGE_LOOP('',(#98,#99,#100,#101));
#602=EDGE_LOOP('',(#102,#103,#104,#105));
#603=EDGE_LOOP('',(#106,#107,#108,#109));
#604=EDGE_LOOP('',(#110,#111,#112,#113));
#605=EDGE_LOOP('',(#114,#115,#116,#117));
#606=EDGE_LOOP('',(#118,#119,#120,#121));
#607=EDGE_LOOP('',(#122,#123,#124,#125));
#608=EDGE_LOOP('',(#126,#127,#128,#129));
#609=EDGE_LOOP('',(#130,#131,#132,#133));
#610=EDGE_LOOP('',(#134,#135,#136,#137));
#611=EDGE_LOOP('',(#138));
#612=EDGE_LOOP('',(#139));
#613=EDGE_LOOP('',(#140));
#614=EDGE_LOOP('',(#141));
#615=EDGE_LOOP('',(#142));
#616=EDGE_LOOP('',(#143));
#617=EDGE_LOOP('',(#144));
#618=EDGE_LOOP('',(#145));
#619=EDGE_LOOP('',(#146));
#620=EDGE_LOOP('',(#147));
#621=EDGE_LOOP('',(#148));
#622=EDGE_LOOP('',(#149));
#623=EDGE_LOOP('',(#150));
#624=EDGE_LOOP('',(#151));
#625=EDGE_LOOP('',(#152,#153,#154,#155));
#626=EDGE_LOOP('',(#156));
#627=EDGE_LOOP('',(#157));
#628=EDGE_LOOP('',(#158,#159,#160,#161,#162,#163,#164,#165,#166,#167,#168,
#169,#170,#171,#172,#173,#174,#175,#176,#177,#178,#179,#180,#181,#182,#183,
#184,#185,#186,#187));
#629=EDGE_LOOP('',(#188));
#630=EDGE_LOOP('',(#189));
#631=EDGE_LOOP('',(#190));
#632=EDGE_LOOP('',(#191));
#633=EDGE_LOOP('',(#192));
#634=EDGE_LOOP('',(#193));
#635=EDGE_LOOP('',(#194));
#636=EDGE_LOOP('',(#195));
#637=EDGE_LOOP('',(#196,#197,#198,#199,#200,#201,#202,#203,#204,#205,#206,
#207,#208,#209,#210,#211,#212,#213,#214,#215,#216,#217,#218,#219,#220,#221,
#222,#223,#224,#225));
#638=EDGE_LOOP('',(#226));
#639=EDGE_LOOP('',(#227));
#640=EDGE_LOOP('',(#228));
#641=EDGE_LOOP('',(#229));
#642=EDGE_LOOP('',(#230));
#643=EDGE_LOOP('',(#231));
#644=EDGE_LOOP('',(#232));
#645=EDGE_LOOP('',(#233));
#646=EDGE_LOOP('',(#234,#235,#236,#237));
#647=EDGE_LOOP('',(#238,#239,#240,#241));
#648=EDGE_LOOP('',(#242,#243,#244,#245));
#649=EDGE_LOOP('',(#246,#247,#248,#249));
#650=EDGE_LOOP('',(#250,#251,#252,#253));
#651=EDGE_LOOP('',(#254,#255,#256,#257));
#652=EDGE_LOOP('',(#258,#259,#260,#261));
#653=EDGE_LOOP('',(#262,#263,#264,#265));
#654=EDGE_LOOP('',(#266,#267,#268,#269));
#655=EDGE_LOOP('',(#270,#271,#272,#273));
#656=EDGE_LOOP('',(#274,#275,#276,#277));
#657=EDGE_LOOP('',(#278,#279,#280,#281));
#658=EDGE_LOOP('',(#282,#283,#284,#285));
#659=EDGE_LOOP('',(#286,#287,#288,#289));
#660=FACE_BOUND('',#596,.T.);
#661=FACE_BOUND('',#597,.T.);
#662=FACE_BOUND('',#598,.T.);
#663=FACE_BOUND('',#599,.T.);
#664=FACE_BOUND('',#600,.T.);
#665=FACE_BOUND('',#601,.T.);
#666=FACE_BOUND('',#602,.T.);
#667=FACE_BOUND('',#603,.T.);
#668=FACE_BOUND('',#604,.T.);
#669=FACE_BOUND('',#605,.T.);
#670=FACE_BOUND('',#606,.T.);
#671=FACE_BOUND('',#607,.T.);
#672=FACE_BOUND('',#608,.T.);
#673=FACE_BOUND('',#609,.T.);
#674=FACE_BOUND('',#610,.T.);
#675=FACE_BOUND('',#611,.T.);
#676=FACE_BOUND('',#612,.T.);
#677=FACE_BOUND('',#613,.T.);
#678=FACE_BOUND('',#614,.T.);
#679=FACE_BOUND('',#615,.T.);
#680=FACE_BOUND('',#616,.T.);
#681=FACE_BOUND('',#617,.T.);
#682=FACE_BOUND('',#618,.T.);
#683=FACE_BOUND('',#619,.T.);
#684=FACE_BOUND('',#620,.T.);
#685=FACE_BOUND('',#621,.T.);
#686=FACE_BOUND('',#622,.T.);
#687=FACE_BOUND('',#623,.T.);
#688=FACE_BOUND('',#624,.T.);
#689=FACE_BOUND('',#625,.T.);
#690=FACE_BOUND('',#626,.T.);
#691=FACE_BOUND('',#627,.T.);
#692=FACE_BOUND('',#628,.T.);
#693=FACE_BOUND('',#629,.T.);
#694=FACE_BOUND('',#630,.T.);
#695=FACE_BOUND('',#631,.T.);
#696=FACE_BOUND('',#632,.T.);
#697=FACE_BOUND('',#633,.T.);
#698=FACE_BOUND('',#634,.T.);
#699=FACE_BOUND('',#635,.T.);
#700=FACE_BOUND('',#636,.T.);
#701=FACE_BOUND('',#637,.T.);
#702=FACE_BOUND('',#638,.T.);
#703=FACE_BOUND('',#639,.T.);
#704=FACE_BOUND('',#640,.T.);
#705=FACE_BOUND('',#641,.T.);
#706=FACE_BOUND('',#642,.T.);
#707=FACE_BOUND('',#643,.T.);
#708=FACE_BOUND('',#644,.T.);
#709=FACE_BOUND('',#645,.T.);
#710=FACE_BOUND('',#646,.T.);
#711=FACE_BOUND('',#647,.T.);
#712=FACE_BOUND('',#648,.T.);
#713=FACE_BOUND('',#649,.T.);
#714=FACE_BOUND('',#650,.T.);
#715=FACE_BOUND('',#651,.T.);
#716=FACE_BOUND('',#652,.T.);
#717=FACE_BOUND('',#653,.T.);
#718=FACE_BOUND('',#654,.T.);
#719=FACE_BOUND('',#655,.T.);
#720=FACE_BOUND('',#656,.T.);
#721=FACE_BOUND('',#657,.T.);
#722=FACE_BOUND('',#658,.T.);
#723=FACE_BOUND('',#659,.T.);
#724=PLANE('',#797);
#725=PLANE('',#798);
#726=PLANE('',#799);
#727=PLANE('',#800);
#728=PLANE('',#801);
#729=PLANE('',#802);
#730=PLANE('',#803);
#731=PLANE('',#804);
#732=PLANE('',#805);
#733=PLANE('',#806);
#734=PLANE('',#807);
#735=PLANE('',#808);
#736=PLANE('',#809);
#737=PLANE('',#810);
#738=PLANE('',#811);
#739=PLANE('',#833);
#740=PLANE('',#837);
#741=PLANE('',#852);
#742=ADVANCED_FACE('',(#660),#724,.F.);
#743=ADVANCED_FACE('',(#661),#725,.T.);
#744=ADVANCED_FACE('',(#662),#726,.T.);
#745=ADVANCED_FACE('',(#663),#727,.T.);
#746=ADVANCED_FACE('',(#664),#728,.T.);
#747=ADVANCED_FACE('',(#665),#729,.T.);
#748=ADVANCED_FACE('',(#666),#730,.T.);
#749=ADVANCED_FACE('',(#667),#731,.T.);
#750=ADVANCED_FACE('',(#668),#732,.T.);
#751=ADVANCED_FACE('',(#669),#733,.F.);
#752=ADVANCED_FACE('',(#670),#734,.F.);
#753=ADVANCED_FACE('',(#671),#735,.F.);
#754=ADVANCED_FACE('',(#672),#736,.F.);
#755=ADVANCED_FACE('',(#673),#737,.T.);
#756=ADVANCED_FACE('',(#674),#738,.F.);
#757=ADVANCED_FACE('',(#675,#676),#56,.F.);
#758=ADVANCED_FACE('',(#677,#678),#57,.F.);
#759=ADVANCED_FACE('',(#679,#680),#58,.F.);
#760=ADVANCED_FACE('',(#681,#682),#59,.F.);
#761=ADVANCED_FACE('',(#683,#684),#60,.F.);
#762=ADVANCED_FACE('',(#685,#686),#61,.F.);
#763=ADVANCED_FACE('',(#687,#688),#62,.F.);
#764=ADVANCED_FACE('',(#689),#739,.F.);
#765=ADVANCED_FACE('',(#690,#691),#63,.F.);
#766=ADVANCED_FACE('',(#692,#693,#694,#695,#696,#697,#698,#699,#700),#740,
 .T.);
#767=ADVANCED_FACE('',(#701,#702,#703,#704,#705,#706,#707,#708,#709),#741,
 .F.);
#768=ADVANCED_FACE('',(#710),#64,.T.);
#769=ADVANCED_FACE('',(#711),#65,.T.);
#770=ADVANCED_FACE('',(#712),#66,.F.);
#771=ADVANCED_FACE('',(#713),#67,.F.);
#772=ADVANCED_FACE('',(#714),#68,.T.);
#773=ADVANCED_FACE('',(#715),#69,.F.);
#774=ADVANCED_FACE('',(#716),#70,.T.);
#775=ADVANCED_FACE('',(#717),#71,.T.);
#776=ADVANCED_FACE('',(#718),#72,.T.);
#777=ADVANCED_FACE('',(#719),#73,.F.);
#778=ADVANCED_FACE('',(#720),#74,.T.);
#779=ADVANCED_FACE('',(#721),#75,.T.);
#780=ADVANCED_FACE('',(#722),#76,.F.);
#781=ADVANCED_FACE('',(#723),#77,.T.);
#782=CLOSED_SHELL('',(#742,#743,#744,#745,#746,#747,#748,#749,#750,#751,
#752,#753,#754,#755,#756,#757,#758,#759,#760,#761,#762,#763,#764,#765,#766,
#767,#768,#769,#770,#771,#772,#773,#774,#775,#776,#777,#778,#779,#780,#781));
#783=STYLED_ITEM('',(#784),#793);
#784=PRESENTATION_STYLE_ASSIGNMENT((#785));
#785=SURFACE_STYLE_USAGE(.BOTH.,#786);
#786=SURFACE_SIDE_STYLE('',(#789,#787));
#787=SURFACE_STYLE_RENDERING_WITH_PROPERTIES(.CONSTANT_SHADING.,#792,(#788));
#788=SURFACE_STYLE_TRANSPARENT(0.76078431372549);
#789=SURFACE_STYLE_FILL_AREA(#790);
#790=FILL_AREA_STYLE('',(#791));
#791=FILL_AREA_STYLE_COLOUR('',#792);
#792=COLOUR_RGB('',0.768627450980392,0.886274509803922,0.952941176470588);
#793=MANIFOLD_SOLID_BREP('Part 3',#782);
#794=SHAPE_DEFINITION_REPRESENTATION(#1342,#795);
#795=SHAPE_REPRESENTATION('Part 3',(#796),#1337);
#796=AXIS2_PLACEMENT_3D('',#1113,#881,#882);
#797=AXIS2_PLACEMENT_3D('',#1114,#883,#884);
#798=AXIS2_PLACEMENT_3D('',#1123,#889,#890);
#799=AXIS2_PLACEMENT_3D('',#1132,#895,#896);
#800=AXIS2_PLACEMENT_3D('',#1141,#901,#902);
#801=AXIS2_PLACEMENT_3D('',#1150,#907,#908);
#802=AXIS2_PLACEMENT_3D('',#1159,#913,#914);
#803=AXIS2_PLACEMENT_3D('',#1168,#919,#920);
#804=AXIS2_PLACEMENT_3D('',#1177,#925,#926);
#805=AXIS2_PLACEMENT_3D('',#1183,#930,#931);
#806=AXIS2_PLACEMENT_3D('',#1192,#936,#937);
#807=AXIS2_PLACEMENT_3D('',#1201,#942,#943);
#808=AXIS2_PLACEMENT_3D('',#1207,#947,#948);
#809=AXIS2_PLACEMENT_3D('',#1216,#953,#954);
#810=AXIS2_PLACEMENT_3D('',#1225,#959,#960);
#811=AXIS2_PLACEMENT_3D('',#1234,#965,#966);
#812=AXIS2_PLACEMENT_3D('',#1243,#971,#972);
#813=AXIS2_PLACEMENT_3D('',#1244,#973,#974);
#814=AXIS2_PLACEMENT_3D('',#1246,#975,#976);
#815=AXIS2_PLACEMENT_3D('',#1248,#977,#978);
#816=AXIS2_PLACEMENT_3D('',#1249,#979,#980);
#817=AXIS2_PLACEMENT_3D('',#1251,#981,#982);
#818=AXIS2_PLACEMENT_3D('',#1253,#983,#984);
#819=AXIS2_PLACEMENT_3D('',#1254,#985,#986);
#820=AXIS2_PLACEMENT_3D('',#1256,#987,#988);
#821=AXIS2_PLACEMENT_3D('',#1258,#989,#990);
#822=AXIS2_PLACEMENT_3D('',#1259,#991,#992);
#823=AXIS2_PLACEMENT_3D('',#1261,#993,#994);
#824=AXIS2_PLACEMENT_3D('',#1263,#995,#996);
#825=AXIS2_PLACEMENT_3D('',#1264,#997,#998);
#826=AXIS2_PLACEMENT_3D('',#1266,#999,#1000);
#827=AXIS2_PLACEMENT_3D('',#1268,#1001,#1002);
#828=AXIS2_PLACEMENT_3D('',#1269,#1003,#1004);
#829=AXIS2_PLACEMENT_3D('',#1271,#1005,#1006);
#830=AXIS2_PLACEMENT_3D('',#1273,#1007,#1008);
#831=AXIS2_PLACEMENT_3D('',#1274,#1009,#1010);
#832=AXIS2_PLACEMENT_3D('',#1276,#1011,#1012);
#833=AXIS2_PLACEMENT_3D('',#1278,#1013,#1014);
#834=AXIS2_PLACEMENT_3D('',#1287,#1019,#1020);
#835=AXIS2_PLACEMENT_3D('',#1288,#1021,#1022);
#836=AXIS2_PLACEMENT_3D('',#1290,#1023,#1024);
#837=AXIS2_PLACEMENT_3D('',#1292,#1025,#1026);
#838=AXIS2_PLACEMENT_3D('',#1293,#1027,#1028);
#839=AXIS2_PLACEMENT_3D('',#1294,#1029,#1030);
#840=AXIS2_PLACEMENT_3D('',#1295,#1031,#1032);
#841=AXIS2_PLACEMENT_3D('',#1296,#1033,#1034);
#842=AXIS2_PLACEMENT_3D('',#1297,#1035,#1036);
#843=AXIS2_PLACEMENT_3D('',#1298,#1037,#1038);
#844=AXIS2_PLACEMENT_3D('',#1299,#1039,#1040);
#845=AXIS2_PLACEMENT_3D('',#1300,#1041,#1042);
#846=AXIS2_PLACEMENT_3D('',#1301,#1043,#1044);
#847=AXIS2_PLACEMENT_3D('',#1302,#1045,#1046);
#848=AXIS2_PLACEMENT_3D('',#1303,#1047,#1048);
#849=AXIS2_PLACEMENT_3D('',#1304,#1049,#1050);
#850=AXIS2_PLACEMENT_3D('',#1305,#1051,#1052);
#851=AXIS2_PLACEMENT_3D('',#1306,#1053,#1054);
#852=AXIS2_PLACEMENT_3D('',#1307,#1055,#1056);
#853=AXIS2_PLACEMENT_3D('',#1308,#1057,#1058);
#854=AXIS2_PLACEMENT_3D('',#1309,#1059,#1060);
#855=AXIS2_PLACEMENT_3D('',#1310,#1061,#1062);
#856=AXIS2_PLACEMENT_3D('',#1311,#1063,#1064);
#857=AXIS2_PLACEMENT_3D('',#1312,#1065,#1066);
#858=AXIS2_PLACEMENT_3D('',#1313,#1067,#1068);
#859=AXIS2_PLACEMENT_3D('',#1314,#1069,#1070);
#860=AXIS2_PLACEMENT_3D('',#1315,#1071,#1072);
#861=AXIS2_PLACEMENT_3D('',#1316,#1073,#1074);
#862=AXIS2_PLACEMENT_3D('',#1317,#1075,#1076);
#863=AXIS2_PLACEMENT_3D('',#1318,#1077,#1078);
#864=AXIS2_PLACEMENT_3D('',#1319,#1079,#1080);
#865=AXIS2_PLACEMENT_3D('',#1320,#1081,#1082);
#866=AXIS2_PLACEMENT_3D('',#1321,#1083,#1084);
#867=AXIS2_PLACEMENT_3D('',#1322,#1085,#1086);
#868=AXIS2_PLACEMENT_3D('',#1323,#1087,#1088);
#869=AXIS2_PLACEMENT_3D('',#1324,#1089,#1090);
#870=AXIS2_PLACEMENT_3D('',#1325,#1091,#1092);
#871=AXIS2_PLACEMENT_3D('',#1326,#1093,#1094);
#872=AXIS2_PLACEMENT_3D('',#1327,#1095,#1096);
#873=AXIS2_PLACEMENT_3D('',#1328,#1097,#1098);
#874=AXIS2_PLACEMENT_3D('',#1329,#1099,#1100);
#875=AXIS2_PLACEMENT_3D('',#1330,#1101,#1102);
#876=AXIS2_PLACEMENT_3D('',#1331,#1103,#1104);
#877=AXIS2_PLACEMENT_3D('',#1332,#1105,#1106);
#878=AXIS2_PLACEMENT_3D('',#1333,#1107,#1108);
#879=AXIS2_PLACEMENT_3D('',#1334,#1109,#1110);
#880=AXIS2_PLACEMENT_3D('',#1335,#1111,#1112);
#881=DIRECTION('',(0.,0.,1.));
#882=DIRECTION('',(1.,0.,0.));
#883=DIRECTION('',(0.,1.,0.));
#884=DIRECTION('',(0.,0.,1.));
#885=DIRECTION('',(1.,0.,0.));
#886=DIRECTION('',(0.,0.,-1.));
#887=DIRECTION('',(1.,0.,0.));
#888=DIRECTION('',(0.,0.,-1.));
#889=DIRECTION('',(1.,0.,0.));
#890=DIRECTION('',(0.,0.,-1.));
#891=DIRECTION('',(0.,-1.,0.));
#892=DIRECTION('',(0.,0.,-1.));
#893=DIRECTION('',(0.,-1.,0.));
#894=DIRECTION('',(0.,0.,-1.));
#895=DIRECTION('',(0.,1.,0.));
#896=DIRECTION('',(0.,0.,1.));
#897=DIRECTION('',(1.,0.,0.));
#898=DIRECTION('',(0.,0.,-1.));
#899=DIRECTION('',(1.,0.,0.));
#900=DIRECTION('',(0.,0.,-1.));
#901=DIRECTION('',(-0.707106781186548,0.707106781186547,0.));
#902=DIRECTION('',(-0.707106781186547,-0.707106781186548,0.));
#903=DIRECTION('',(0.707106781186547,0.707106781186548,0.));
#904=DIRECTION('',(0.,0.,-1.));
#905=DIRECTION('',(0.707106781186547,0.707106781186548,0.));
#906=DIRECTION('',(0.,0.,-1.));
#907=DIRECTION('',(7.28701694331586E-16,1.,0.));
#908=DIRECTION('',(-1.,7.28701694331586E-16,0.));
#909=DIRECTION('',(1.,-7.28701694331586E-16,0.));
#910=DIRECTION('',(0.,0.,-1.));
#911=DIRECTION('',(1.,-7.28701694331586E-16,0.));
#912=DIRECTION('',(0.,0.,-1.));
#913=DIRECTION('',(-0.707106781186548,0.707106781186548,0.));
#914=DIRECTION('',(-0.707106781186548,-0.707106781186548,0.));
#915=DIRECTION('',(0.707106781186548,0.707106781186548,0.));
#916=DIRECTION('',(0.,0.,-1.));
#917=DIRECTION('',(0.707106781186548,0.707106781186548,0.));
#918=DIRECTION('',(0.,0.,-1.));
#919=DIRECTION('',(0.,-1.,0.));
#920=DIRECTION('',(0.,0.,-1.));
#921=DIRECTION('',(-1.,0.,0.));
#922=DIRECTION('',(0.,0.,-1.));
#923=DIRECTION('',(-1.,0.,0.));
#924=DIRECTION('',(0.,0.,-1.));
#925=DIRECTION('',(-0.707106781186548,0.707106781186547,0.));
#926=DIRECTION('',(-0.707106781186547,-0.707106781186548,0.));
#927=DIRECTION('',(0.707106781186547,0.707106781186548,0.));
#928=DIRECTION('',(0.,0.,-1.));
#929=DIRECTION('',(0.707106781186547,0.707106781186548,0.));
#930=DIRECTION('',(0.,1.,0.));
#931=DIRECTION('',(0.,0.,1.));
#932=DIRECTION('',(1.,0.,0.));
#933=DIRECTION('',(0.,0.,-1.));
#934=DIRECTION('',(1.,0.,0.));
#935=DIRECTION('',(0.,0.,-1.));
#936=DIRECTION('',(1.,0.,0.));
#937=DIRECTION('',(0.,0.,-1.));
#938=DIRECTION('',(0.,-1.,0.));
#939=DIRECTION('',(0.,0.,-1.));
#940=DIRECTION('',(0.,-1.,0.));
#941=DIRECTION('',(0.,0.,-1.));
#942=DIRECTION('',(0.,1.,0.));
#943=DIRECTION('',(0.,0.,1.));
#944=DIRECTION('',(1.,0.,0.));
#945=DIRECTION('',(0.,0.,-1.));
#946=DIRECTION('',(1.,0.,0.));
#947=DIRECTION('',(-0.707106781186548,0.707106781186547,0.));
#948=DIRECTION('',(-0.707106781186547,-0.707106781186548,0.));
#949=DIRECTION('',(0.707106781186547,0.707106781186548,0.));
#950=DIRECTION('',(0.,0.,-1.));
#951=DIRECTION('',(0.707106781186547,0.707106781186548,0.));
#952=DIRECTION('',(0.,0.,-1.));
#953=DIRECTION('',(-1.,0.,0.));
#954=DIRECTION('',(0.,0.,1.));
#955=DIRECTION('',(0.,1.,0.));
#956=DIRECTION('',(0.,0.,-1.));
#957=DIRECTION('',(0.,1.,0.));
#958=DIRECTION('',(0.,0.,-1.));
#959=DIRECTION('',(0.707106781186548,-0.707106781186547,0.));
#960=DIRECTION('',(0.707106781186547,0.707106781186548,0.));
#961=DIRECTION('',(-0.707106781186547,-0.707106781186548,0.));
#962=DIRECTION('',(0.,0.,-1.));
#963=DIRECTION('',(-0.707106781186547,-0.707106781186548,0.));
#964=DIRECTION('',(0.,0.,-1.));
#965=DIRECTION('',(0.,1.,0.));
#966=DIRECTION('',(0.,0.,1.));
#967=DIRECTION('',(1.,0.,0.));
#968=DIRECTION('',(0.,0.,-1.));
#969=DIRECTION('',(1.,0.,0.));
#970=DIRECTION('',(0.,0.,-1.));
#971=DIRECTION('',(0.,0.,-1.));
#972=DIRECTION('',(-1.,0.,0.));
#973=DIRECTION('',(0.,0.,1.));
#974=DIRECTION('',(1.,0.,0.));
#975=DIRECTION('',(0.,0.,1.));
#976=DIRECTION('',(1.,0.,0.));
#977=DIRECTION('',(0.,0.,-1.));
#978=DIRECTION('',(-1.,0.,0.));
#979=DIRECTION('',(0.,0.,1.));
#980=DIRECTION('',(1.,0.,0.));
#981=DIRECTION('',(0.,0.,1.));
#982=DIRECTION('',(1.,0.,0.));
#983=DIRECTION('',(0.,0.,-1.));
#984=DIRECTION('',(-1.,0.,0.));
#985=DIRECTION('',(0.,0.,1.));
#986=DIRECTION('',(1.,0.,0.));
#987=DIRECTION('',(0.,0.,1.));
#988=DIRECTION('',(1.,0.,0.));
#989=DIRECTION('',(0.,0.,-1.));
#990=DIRECTION('',(-1.,0.,0.));
#991=DIRECTION('',(0.,0.,1.));
#992=DIRECTION('',(1.,0.,0.));
#993=DIRECTION('',(0.,0.,1.));
#994=DIRECTION('',(1.,0.,0.));
#995=DIRECTION('',(0.,0.,-1.));
#996=DIRECTION('',(-1.,0.,0.));
#997=DIRECTION('',(0.,0.,1.));
#998=DIRECTION('',(1.,0.,0.));
#999=DIRECTION('',(0.,0.,1.));
#1000=DIRECTION('',(1.,0.,0.));
#1001=DIRECTION('',(0.,0.,-1.));
#1002=DIRECTION('',(-1.,0.,0.));
#1003=DIRECTION('',(0.,0.,1.));
#1004=DIRECTION('',(1.,0.,0.));
#1005=DIRECTION('',(0.,0.,1.));
#1006=DIRECTION('',(1.,0.,0.));
#1007=DIRECTION('',(0.,0.,-1.));
#1008=DIRECTION('',(-1.,0.,0.));
#1009=DIRECTION('',(0.,0.,1.));
#1010=DIRECTION('',(1.,0.,0.));
#1011=DIRECTION('',(0.,0.,1.));
#1012=DIRECTION('',(1.,0.,0.));
#1013=DIRECTION('',(-0.707106781186548,0.707106781186547,0.));
#1014=DIRECTION('',(-0.707106781186547,-0.707106781186548,0.));
#1015=DIRECTION('',(0.707106781186548,0.707106781186548,0.));
#1016=DIRECTION('',(0.,0.,-1.));
#1017=DIRECTION('',(0.707106781186548,0.707106781186548,0.));
#1018=DIRECTION('',(0.,0.,-1.));
#1019=DIRECTION('',(0.,0.,-1.));
#1020=DIRECTION('',(-1.,0.,0.));
#1021=DIRECTION('',(0.,0.,1.));
#1022=DIRECTION('',(1.,0.,0.));
#1023=DIRECTION('',(0.,0.,1.));
#1024=DIRECTION('',(1.,0.,0.));
#1025=DIRECTION('',(0.,0.,1.));
#1026=DIRECTION('',(1.,0.,0.));
#1027=DIRECTION('',(0.,0.,1.));
#1028=DIRECTION('',(1.,0.,0.));
#1029=DIRECTION('',(0.,0.,1.));
#1030=DIRECTION('',(1.,0.,0.));
#1031=DIRECTION('',(0.,0.,1.));
#1032=DIRECTION('',(1.,0.,0.));
#1033=DIRECTION('',(0.,0.,1.));
#1034=DIRECTION('',(1.,0.,0.));
#1035=DIRECTION('',(0.,0.,1.));
#1036=DIRECTION('',(1.,0.,0.));
#1037=DIRECTION('',(0.,0.,1.));
#1038=DIRECTION('',(1.,0.,0.));
#1039=DIRECTION('',(0.,0.,1.));
#1040=DIRECTION('',(1.,0.,0.));
#1041=DIRECTION('',(0.,0.,1.));
#1042=DIRECTION('',(1.,0.,0.));
#1043=DIRECTION('',(0.,0.,1.));
#1044=DIRECTION('',(1.,0.,0.));
#1045=DIRECTION('',(0.,0.,1.));
#1046=DIRECTION('',(1.,0.,0.));
#1047=DIRECTION('',(0.,0.,1.));
#1048=DIRECTION('',(1.,0.,0.));
#1049=DIRECTION('',(0.,0.,1.));
#1050=DIRECTION('',(1.,0.,0.));
#1051=DIRECTION('',(0.,0.,1.));
#1052=DIRECTION('',(1.,0.,0.));
#1053=DIRECTION('',(0.,0.,1.));
#1054=DIRECTION('',(1.,0.,0.));
#1055=DIRECTION('',(0.,0.,1.));
#1056=DIRECTION('',(1.,0.,0.));
#1057=DIRECTION('',(0.,0.,1.));
#1058=DIRECTION('',(1.,0.,0.));
#1059=DIRECTION('',(0.,0.,1.));
#1060=DIRECTION('',(1.,0.,0.));
#1061=DIRECTION('',(0.,0.,1.));
#1062=DIRECTION('',(1.,0.,0.));
#1063=DIRECTION('',(0.,0.,1.));
#1064=DIRECTION('',(1.,0.,0.));
#1065=DIRECTION('',(0.,0.,1.));
#1066=DIRECTION('',(1.,0.,0.));
#1067=DIRECTION('',(0.,0.,1.));
#1068=DIRECTION('',(1.,0.,0.));
#1069=DIRECTION('',(0.,0.,1.));
#1070=DIRECTION('',(1.,0.,0.));
#1071=DIRECTION('',(0.,0.,1.));
#1072=DIRECTION('',(1.,0.,0.));
#1073=DIRECTION('',(0.,0.,1.));
#1074=DIRECTION('',(1.,0.,0.));
#1075=DIRECTION('',(0.,0.,1.));
#1076=DIRECTION('',(1.,0.,0.));
#1077=DIRECTION('',(0.,0.,1.));
#1078=DIRECTION('',(1.,0.,0.));
#1079=DIRECTION('',(0.,0.,1.));
#1080=DIRECTION('',(1.,0.,0.));
#1081=DIRECTION('',(0.,0.,1.));
#1082=DIRECTION('',(1.,0.,0.));
#1083=DIRECTION('',(0.,0.,1.));
#1084=DIRECTION('',(1.,0.,0.));
#1085=DIRECTION('',(0.,0.,-1.));
#1086=DIRECTION('',(-1.,0.,0.));
#1087=DIRECTION('',(0.,0.,-1.));
#1088=DIRECTION('',(-1.,0.,0.));
#1089=DIRECTION('',(0.,0.,-1.));
#1090=DIRECTION('',(-1.,0.,0.));
#1091=DIRECTION('',(0.,0.,-1.));
#1092=DIRECTION('',(-1.,0.,0.));
#1093=DIRECTION('',(0.,0.,-1.));
#1094=DIRECTION('',(-1.,0.,0.));
#1095=DIRECTION('',(0.,0.,1.));
#1096=DIRECTION('',(1.,0.,0.));
#1097=DIRECTION('',(0.,0.,1.));
#1098=DIRECTION('',(1.,0.,0.));
#1099=DIRECTION('',(0.,0.,-1.));
#1100=DIRECTION('',(-1.,0.,0.));
#1101=DIRECTION('',(0.,0.,-1.));
#1102=DIRECTION('',(-1.,0.,0.));
#1103=DIRECTION('',(0.,0.,1.));
#1104=DIRECTION('',(1.,0.,0.));
#1105=DIRECTION('',(0.,0.,-1.));
#1106=DIRECTION('',(-1.,0.,0.));
#1107=DIRECTION('',(0.,0.,1.));
#1108=DIRECTION('',(1.,0.,0.));
#1109=DIRECTION('',(0.,0.,1.));
#1110=DIRECTION('',(1.,0.,0.));
#1111=DIRECTION('',(0.,0.,-1.));
#1112=DIRECTION('',(-1.,0.,0.));
#1113=CARTESIAN_POINT('',(0.,0.,0.));
#1114=CARTESIAN_POINT('',(0.0394338002391159,0.019326694123447,0.01));
#1115=CARTESIAN_POINT('',(0.0394338002391159,0.019326694123447,0.01));
#1116=CARTESIAN_POINT('',(0.033781814040605,0.019326694123447,0.01));
#1117=CARTESIAN_POINT('',(0.0465,0.019326694123447,0.01));
#1118=CARTESIAN_POINT('',(0.033781814040605,0.019326694123447,0.008));
#1119=CARTESIAN_POINT('',(0.033781814040605,0.019326694123447,0.008));
#1120=CARTESIAN_POINT('',(0.0394338002391159,0.019326694123447,0.008));
#1121=CARTESIAN_POINT('',(0.0465,0.019326694123447,0.008));
#1122=CARTESIAN_POINT('',(0.0465,0.019326694123447,0.01));
#1123=CARTESIAN_POINT('',(0.0475,0.0201982240183847,0.01));
#1124=CARTESIAN_POINT('',(0.0475,0.0201982240183847,0.01));
#1125=CARTESIAN_POINT('',(0.0475,0.0365,0.01));
#1126=CARTESIAN_POINT('',(0.0475,0.0203266941234469,0.01));
#1127=CARTESIAN_POINT('',(0.0475,0.0203266941234469,0.008));
#1128=CARTESIAN_POINT('',(0.0475,0.0203266941234469,0.008));
#1129=CARTESIAN_POINT('',(0.0475,0.0201982240183847,0.008));
#1130=CARTESIAN_POINT('',(0.0475,0.0365,0.008));
#1131=CARTESIAN_POINT('',(0.0475,0.0365,0.01));
#1132=CARTESIAN_POINT('',(0.0206891340203695,0.0375,0.01));
#1133=CARTESIAN_POINT('',(0.0206891340203695,0.0375,0.01));
#1134=CARTESIAN_POINT('',(0.0196209087278582,0.0375,0.01));
#1135=CARTESIAN_POINT('',(0.0465,0.0375,0.01));
#1136=CARTESIAN_POINT('',(0.0465,0.0375,0.01));
#1137=CARTESIAN_POINT('',(0.0465,0.0375,0.008));
#1138=CARTESIAN_POINT('',(0.0206891340203695,0.0375,0.008));
#1139=CARTESIAN_POINT('',(0.0196209087278582,0.0375,0.008));
#1140=CARTESIAN_POINT('',(0.0196209087278582,0.0375,0.01));
#1141=CARTESIAN_POINT('',(0.0115362369697541,0.029829541804269,0.01));
#1142=CARTESIAN_POINT('',(0.0115362369697541,0.029829541804269,0.01));
#1143=CARTESIAN_POINT('',(0.00615867199283651,0.0244519768273514,0.01));
#1144=CARTESIAN_POINT('',(0.0189138019466716,0.0372071067811865,0.01));
#1145=CARTESIAN_POINT('',(0.0189138019466717,0.0372071067811865,0.01));
#1146=CARTESIAN_POINT('',(0.0189138019466716,0.0372071067811865,0.008));
#1147=CARTESIAN_POINT('',(0.0115362369697541,0.029829541804269,0.008));
#1148=CARTESIAN_POINT('',(0.00615867199283651,0.0244519768273514,0.008));
#1149=CARTESIAN_POINT('',(0.00615867199283651,0.0244519768273514,0.01));
#1150=CARTESIAN_POINT('',(0.00110464403405786,0.024159083608538,0.01));
#1151=CARTESIAN_POINT('',(0.00110464403405786,0.024159083608538,0.01));
#1152=CARTESIAN_POINT('',(-0.00324227714353425,0.024159083608538,0.01));
#1153=CARTESIAN_POINT('',(0.00545156521164996,0.0241590836085379,0.01));
#1154=CARTESIAN_POINT('',(0.00545156521164996,0.0241590836085379,0.008));
#1155=CARTESIAN_POINT('',(0.00545156521164996,0.0241590836085379,0.008));
#1156=CARTESIAN_POINT('',(0.00110464403405786,0.024159083608538,0.008));
#1157=CARTESIAN_POINT('',(-0.00324227714353425,0.024159083608538,0.008));
#1158=CARTESIAN_POINT('',(-0.00324227714353425,0.024159083608538,0.01));
#1159=CARTESIAN_POINT('',(-0.0195994931273162,0.00821608118712903,0.01));
#1160=CARTESIAN_POINT('',(-0.0195994931273162,0.00821608118712903,0.01));
#1161=CARTESIAN_POINT('',(-0.0338353887675386,-0.00601981445309332,0.01));
#1162=CARTESIAN_POINT('',(-0.00394938392472079,0.0238661903897244,0.01));
#1163=CARTESIAN_POINT('',(-0.00394938392472079,0.0238661903897244,0.01));
#1164=CARTESIAN_POINT('',(-0.00394938392472079,0.0238661903897244,0.008));
#1165=CARTESIAN_POINT('',(-0.0195994931273162,0.00821608118712903,0.008));
#1166=CARTESIAN_POINT('',(-0.0338353887675386,-0.00601981445309332,0.008));
#1167=CARTESIAN_POINT('',(-0.0338353887675386,-0.00601981445309332,0.01));
#1168=CARTESIAN_POINT('',(-0.0305092961061746,-0.00772692123427986,0.01));
#1169=CARTESIAN_POINT('',(-0.0305092961061746,-0.00772692123427986,0.01));
#1170=CARTESIAN_POINT('',(-0.0254760966636241,-0.00772692123427986,0.01));
#1171=CARTESIAN_POINT('',(-0.0331282819863521,-0.00772692123427986,0.01));
#1172=CARTESIAN_POINT('',(-0.0331282819863521,-0.00772692123427986,0.01));
#1173=CARTESIAN_POINT('',(-0.0331282819863521,-0.00772692123427986,0.008));
#1174=CARTESIAN_POINT('',(-0.0305092961061746,-0.00772692123427986,0.008));
#1175=CARTESIAN_POINT('',(-0.0254760966636241,-0.00772692123427986,0.008));
#1176=CARTESIAN_POINT('',(-0.0254760966636241,-0.00772692123427986,0.01));
#1177=CARTESIAN_POINT('',(-0.0298291344661265,-0.0120799590367824,0.01));
#1178=CARTESIAN_POINT('',(-0.0298291344661265,-0.0120799590367824,0.008));
#1179=CARTESIAN_POINT('',(-0.0338892790498156,-0.0161401036204714,0.008));
#1180=CARTESIAN_POINT('',(-0.0338892790498156,-0.0161401036204714,0.01));
#1181=CARTESIAN_POINT('',(-0.0338892790498156,-0.0161401036204714,0.01));
#1182=CARTESIAN_POINT('',(-0.0298291344661265,-0.0120799590367824,0.01));
#1183=CARTESIAN_POINT('',(-0.0398410861343146,-0.0164329968392849,0.01));
#1184=CARTESIAN_POINT('',(-0.0398410861343146,-0.0164329968392849,0.008));
#1185=CARTESIAN_POINT('',(-0.0465,-0.0164329968392849,0.008));
#1186=CARTESIAN_POINT('',(-0.0345963858310021,-0.0164329968392849,0.008));
#1187=CARTESIAN_POINT('',(-0.0465,-0.0164329968392849,0.01));
#1188=CARTESIAN_POINT('',(-0.0465,-0.0164329968392849,0.01));
#1189=CARTESIAN_POINT('',(-0.0398410861343146,-0.0164329968392849,0.01));
#1190=CARTESIAN_POINT('',(-0.0345963858310021,-0.0164329968392849,0.01));
#1191=CARTESIAN_POINT('',(-0.0345963858310021,-0.0164329968392849,0.008));
#1192=CARTESIAN_POINT('',(-0.0475,-0.019,0.01));
#1193=CARTESIAN_POINT('',(-0.0475,-0.019,0.01));
#1194=CARTESIAN_POINT('',(-0.0475,-0.0174329968392849,0.01));
#1195=CARTESIAN_POINT('',(-0.0475,-0.0375,0.01));
#1196=CARTESIAN_POINT('',(-0.0475,-0.0174329968392849,0.008));
#1197=CARTESIAN_POINT('',(-0.0475,-0.0174329968392849,0.008));
#1198=CARTESIAN_POINT('',(-0.0475,-0.019,0.008));
#1199=CARTESIAN_POINT('',(-0.0475,-0.0375,0.008));
#1200=CARTESIAN_POINT('',(-0.0475,-0.0375,0.01));
#1201=CARTESIAN_POINT('',(-0.0251397950642668,-0.0375,0.01));
#1202=CARTESIAN_POINT('',(-0.0251397950642668,-0.0375,0.008));
#1203=CARTESIAN_POINT('',(-0.0238733072075881,-0.0375,0.008));
#1204=CARTESIAN_POINT('',(-0.0238733072075881,-0.0375,0.01));
#1205=CARTESIAN_POINT('',(-0.0238733072075881,-0.0375,0.01));
#1206=CARTESIAN_POINT('',(-0.0251397950642668,-0.0375,0.01));
#1207=CARTESIAN_POINT('',(-0.0016,-0.015640906354785,0.01));
#1208=CARTESIAN_POINT('',(-0.0016,-0.015640906354785,0.01));
#1209=CARTESIAN_POINT('',(-0.0231662004264016,-0.0372071067811865,0.01));
#1210=CARTESIAN_POINT('',(-0.000892893218813461,-0.0149337995735984,0.01));
#1211=CARTESIAN_POINT('',(-0.0231662004264016,-0.0372071067811865,0.01));
#1212=CARTESIAN_POINT('',(-0.0231662004264016,-0.0372071067811865,0.008));
#1213=CARTESIAN_POINT('',(-0.0016,-0.015640906354785,0.008));
#1214=CARTESIAN_POINT('',(-0.000892893218813461,-0.0149337995735984,0.008));
#1215=CARTESIAN_POINT('',(-0.000892893218813461,-0.0149337995735984,0.01));
#1216=CARTESIAN_POINT('',(-0.000600000000000009,-0.0129602049357332,0.01));
#1217=CARTESIAN_POINT('',(-0.000600000000000009,-0.0129602049357332,0.01));
#1218=CARTESIAN_POINT('',(-0.000600000000000009,-0.0142266927924119,0.01));
#1219=CARTESIAN_POINT('',(-0.000600000000000009,-0.00886528995430846,0.01));
#1220=CARTESIAN_POINT('',(-0.000600000000000009,-0.0142266927924119,0.01));
#1221=CARTESIAN_POINT('',(-0.000600000000000009,-0.0142266927924119,0.008));
#1222=CARTESIAN_POINT('',(-0.000600000000000009,-0.0129602049357332,0.008));
#1223=CARTESIAN_POINT('',(-0.000600000000000009,-0.00886528995430846,0.008));
#1224=CARTESIAN_POINT('',(-0.000600000000000009,-0.00886528995430846,0.01));
#1225=CARTESIAN_POINT('',(0.008925,0.00107392360806465,0.01));
#1226=CARTESIAN_POINT('',(0.008925,0.00107392360806465,0.01));
#1227=CARTESIAN_POINT('',(0.0181571067811866,0.0103060303892512,0.01));
#1228=CARTESIAN_POINT('',(-0.000307106781186558,-0.00815818317312191,0.01));
#1229=CARTESIAN_POINT('',(-0.000307106781186558,-0.00815818317312191,0.01));
#1230=CARTESIAN_POINT('',(-0.000307106781186558,-0.00815818317312191,0.008));
#1231=CARTESIAN_POINT('',(0.008925,0.00107392360806465,0.008));
#1232=CARTESIAN_POINT('',(0.0181571067811866,0.0103060303892512,0.008));
#1233=CARTESIAN_POINT('',(0.0181571067811866,0.0103060303892512,0.01));
#1234=CARTESIAN_POINT('',(0.0229591285437979,0.0105989236080646,0.01));
#1235=CARTESIAN_POINT('',(0.0229591285437979,0.0105989236080646,0.01));
#1236=CARTESIAN_POINT('',(0.0188642135623731,0.0105989236080646,0.01));
#1237=CARTESIAN_POINT('',(0.0242256164004765,0.0105989236080646,0.01));
#1238=CARTESIAN_POINT('',(0.0188642135623731,0.0105989236080646,0.01));
#1239=CARTESIAN_POINT('',(0.0188642135623731,0.0105989236080646,0.008));
#1240=CARTESIAN_POINT('',(0.0229591285437979,0.0105989236080646,0.008));
#1241=CARTESIAN_POINT('',(0.0242256164004765,0.0105989236080646,0.008));
#1242=CARTESIAN_POINT('',(0.0242256164004765,0.0105989236080646,0.01));
#1243=CARTESIAN_POINT('',(-0.0026,-0.0132795035166815,0.01));
#1244=CARTESIAN_POINT('',(-0.0026,-0.0132795035166815,0.01));
#1245=CARTESIAN_POINT('',(-0.0016,-0.0132795035166815,0.01));
#1246=CARTESIAN_POINT('',(-0.0026,-0.0132795035166815,0.008));
#1247=CARTESIAN_POINT('',(-0.0016,-0.0132795035166815,0.008));
#1248=CARTESIAN_POINT('',(0.0232784271247462,0.0125989236080647,0.01));
#1249=CARTESIAN_POINT('',(0.0232784271247462,0.0125989236080647,0.01));
#1250=CARTESIAN_POINT('',(0.0242784271247462,0.0125989236080647,0.01));
#1251=CARTESIAN_POINT('',(0.0232784271247462,0.0125989236080647,0.008));
#1252=CARTESIAN_POINT('',(0.0242784271247462,0.0125989236080647,0.008));
#1253=CARTESIAN_POINT('',(0.0455,0.0210697539133224,0.01));
#1254=CARTESIAN_POINT('',(0.0455,0.0210697539133224,0.01));
#1255=CARTESIAN_POINT('',(0.0465,0.0210697539133224,0.01));
#1256=CARTESIAN_POINT('',(0.0455,0.0210697539133224,0.008));
#1257=CARTESIAN_POINT('',(0.0465,0.0210697539133224,0.008));
#1258=CARTESIAN_POINT('',(0.0201715728752538,0.0355,0.01));
#1259=CARTESIAN_POINT('',(0.0201715728752538,0.0355,0.01));
#1260=CARTESIAN_POINT('',(0.0211715728752538,0.0355,0.01));
#1261=CARTESIAN_POINT('',(0.0201715728752538,0.0355,0.008));
#1262=CARTESIAN_POINT('',(0.0211715728752538,0.0355,0.008));
#1263=CARTESIAN_POINT('',(0.00600491036536125,0.0213333374901074,0.01));
#1264=CARTESIAN_POINT('',(0.00600491036536125,0.0213333374901074,0.01));
#1265=CARTESIAN_POINT('',(0.00700491036536125,0.0213333374901074,0.01));
#1266=CARTESIAN_POINT('',(0.00600491036536125,0.0213333374901074,0.008));
#1267=CARTESIAN_POINT('',(0.00700491036536125,0.0213333374901074,0.008));
#1268=CARTESIAN_POINT('',(-0.0214779656994976,-0.00614953857475143,0.01));
#1269=CARTESIAN_POINT('',(-0.0214779656994976,-0.00614953857475143,0.01));
#1270=CARTESIAN_POINT('',(-0.0204779656994976,-0.00614953857475143,0.01));
#1271=CARTESIAN_POINT('',(-0.0214779656994976,-0.00614953857475143,0.008));
#1272=CARTESIAN_POINT('',(-0.0204779656994976,-0.00614953857475143,0.008));
#1273=CARTESIAN_POINT('',(-0.0455,-0.018,0.01));
#1274=CARTESIAN_POINT('',(-0.0455,-0.018,0.01));
#1275=CARTESIAN_POINT('',(-0.0445,-0.018,0.01));
#1276=CARTESIAN_POINT('',(-0.0455,-0.018,0.008));
#1277=CARTESIAN_POINT('',(-0.0445,-0.018,0.008));
#1278=CARTESIAN_POINT('',(0.0300037152205407,0.0159628088657558,0.01));
#1279=CARTESIAN_POINT('',(0.0300037152205407,0.0159628088657558,0.01));
#1280=CARTESIAN_POINT('',(0.0249327231816631,0.0108918168268781,0.01));
#1281=CARTESIAN_POINT('',(0.0330747072594184,0.0190338009046335,0.01));
#1282=CARTESIAN_POINT('',(0.0249327231816631,0.0108918168268781,0.01));
#1283=CARTESIAN_POINT('',(0.0249327231816631,0.0108918168268781,0.008));
#1284=CARTESIAN_POINT('',(0.0300037152205407,0.0159628088657558,0.008));
#1285=CARTESIAN_POINT('',(0.0330747072594184,0.0190338009046335,0.008));
#1286=CARTESIAN_POINT('',(0.0330747072594184,0.0190338009046335,0.01));
#1287=CARTESIAN_POINT('',(-0.0248204964833184,-0.0355,0.01));
#1288=CARTESIAN_POINT('',(-0.0248204964833184,-0.0355,0.01));
#1289=CARTESIAN_POINT('',(-0.0238204964833184,-0.0355,0.01));
#1290=CARTESIAN_POINT('',(-0.0248204964833184,-0.0355,0.008));
#1291=CARTESIAN_POINT('',(-0.0238204964833184,-0.0355,0.008));
#1292=CARTESIAN_POINT('',(0.,2.08166817117217E-17,0.01));
#1293=CARTESIAN_POINT('',(-0.0238733072075881,-0.0365,0.01));
#1294=CARTESIAN_POINT('',(-0.0016,-0.0142266927924119,0.01));
#1295=CARTESIAN_POINT('',(0.000399999999999991,-0.00886528995430846,0.01));
#1296=CARTESIAN_POINT('',(0.0188642135623731,0.00959892360806465,0.01));
#1297=CARTESIAN_POINT('',(0.0242256164004765,0.0115989236080647,0.01));
#1298=CARTESIAN_POINT('',(0.033781814040605,0.018326694123447,0.01));
#1299=CARTESIAN_POINT('',(0.0465,0.0203266941234469,0.01));
#1300=CARTESIAN_POINT('',(0.0465,0.0365,0.01));
#1301=CARTESIAN_POINT('',(0.0196209087278582,0.0365,0.01));
#1302=CARTESIAN_POINT('',(0.00545156521164996,0.0251590836085379,0.01));
#1303=CARTESIAN_POINT('',(-0.00324227714353425,0.0231590836085379,0.01));
#1304=CARTESIAN_POINT('',(-0.0331282819863521,-0.00672692123427986,0.01));
#1305=CARTESIAN_POINT('',(-0.0345963858310021,-0.0154329968392849,0.01));
#1306=CARTESIAN_POINT('',(-0.0465,-0.0174329968392849,0.01));
#1307=CARTESIAN_POINT('',(0.,2.08166817117217E-17,0.008));
#1308=CARTESIAN_POINT('',(-0.0238733072075881,-0.0365,0.008));
#1309=CARTESIAN_POINT('',(-0.0465,-0.0174329968392849,0.008));
#1310=CARTESIAN_POINT('',(-0.0345963858310021,-0.0154329968392849,0.008));
#1311=CARTESIAN_POINT('',(-0.0331282819863521,-0.00672692123427986,0.008));
#1312=CARTESIAN_POINT('',(-0.00324227714353425,0.0231590836085379,0.008));
#1313=CARTESIAN_POINT('',(0.00545156521164996,0.0251590836085379,0.008));
#1314=CARTESIAN_POINT('',(0.0196209087278582,0.0365,0.008));
#1315=CARTESIAN_POINT('',(0.0465,0.0365,0.008));
#1316=CARTESIAN_POINT('',(0.0465,0.0203266941234469,0.008));
#1317=CARTESIAN_POINT('',(0.033781814040605,0.018326694123447,0.008));
#1318=CARTESIAN_POINT('',(0.0242256164004765,0.0115989236080647,0.008));
#1319=CARTESIAN_POINT('',(0.0188642135623731,0.00959892360806465,0.008));
#1320=CARTESIAN_POINT('',(0.000399999999999991,-0.00886528995430846,0.008));
#1321=CARTESIAN_POINT('',(-0.0016,-0.0142266927924119,0.008));
#1322=CARTESIAN_POINT('',(-0.0238733072075881,-0.0365,0.01));
#1323=CARTESIAN_POINT('',(-0.0016,-0.0142266927924119,0.01));
#1324=CARTESIAN_POINT('',(0.000399999999999991,-0.00886528995430846,0.01));
#1325=CARTESIAN_POINT('',(0.0188642135623731,0.00959892360806465,0.01));
#1326=CARTESIAN_POINT('',(0.0242256164004765,0.0115989236080647,0.01));
#1327=CARTESIAN_POINT('',(0.033781814040605,0.018326694123447,0.01));
#1328=CARTESIAN_POINT('',(0.0465,0.0203266941234469,0.01));
#1329=CARTESIAN_POINT('',(0.0465,0.0365,0.01));
#1330=CARTESIAN_POINT('',(0.0196209087278582,0.0365,0.01));
#1331=CARTESIAN_POINT('',(0.00545156521164996,0.0251590836085379,0.01));
#1332=CARTESIAN_POINT('',(-0.00324227714353425,0.0231590836085379,0.01));
#1333=CARTESIAN_POINT('',(-0.0465,-0.0174329968392849,0.01));
#1334=CARTESIAN_POINT('',(-0.0345963858310021,-0.0154329968392849,0.01));
#1335=CARTESIAN_POINT('',(-0.0331282819863521,-0.00672692123427986,0.01));
#1336=MECHANICAL_DESIGN_GEOMETRIC_PRESENTATION_REPRESENTATION('',(#783),
#1337);
#1337=(
GEOMETRIC_REPRESENTATION_CONTEXT(3)
GLOBAL_UNCERTAINTY_ASSIGNED_CONTEXT((#1338))
GLOBAL_UNIT_ASSIGNED_CONTEXT((#1341,#1340,#1339))
REPRESENTATION_CONTEXT('Part 3','TOP_LEVEL_ASSEMBLY_PART')
);
#1338=UNCERTAINTY_MEASURE_WITH_UNIT(LENGTH_MEASURE(1.E-8),#1341,
'DISTANCE_ACCURACY_VALUE','Maximum Tolerance applied to model');
#1339=(
NAMED_UNIT(*)
SI_UNIT($,.STERADIAN.)
SOLID_ANGLE_UNIT()
);
#1340=(
NAMED_UNIT(*)
PLANE_ANGLE_UNIT()
SI_UNIT($,.RADIAN.)
);
#1341=(
LENGTH_UNIT()
NAMED_UNIT(*)
SI_UNIT($,.METRE.)
);
#1342=PRODUCT_DEFINITION_SHAPE('','',#1343);
#1343=PRODUCT_DEFINITION('','',#1345,#1344);
#1344=PRODUCT_DEFINITION_CONTEXT('',#1351,'design');
#1345=PRODUCT_DEFINITION_FORMATION_WITH_SPECIFIED_SOURCE('','',#1347,
 .NOT_KNOWN.);
#1346=PRODUCT_RELATED_PRODUCT_CATEGORY('','',(#1347));
#1347=PRODUCT('Part 3','Part 3','Part 3',(#1349));
#1348=PRODUCT_CATEGORY('','');
#1349=PRODUCT_CONTEXT('',#1351,'mechanical');
#1350=APPLICATION_PROTOCOL_DEFINITION('international standard',
'ap242_managed_model_based_3d_engineering',2011,#1351);
#1351=APPLICATION_CONTEXT('managed model based 3d engineering');
ENDSEC;
END-ISO-10303-21;
