M48
; DRILL file {KiCad 9.0.2-9.0.2-0~ubuntu24.04.1} date 2025-07-05T22:32:30-0700
; FORMAT={-:-/ absolute / metric / decimal}
; #@! TF.CreationDate,2025-07-05T22:32:30-07:00
; #@! TF.GenerationSoftware,Kicad,Pcbnew,9.0.2-9.0.2-0~ubuntu24.04.1
; #@! TF.FileFunction,Plated,1,2,PTH
FMAT,2
METRIC
; #@! TA.AperFunction,Plated,PTH,ViaDrill
T1C0.300
; #@! TA.AperFunction,Plated,PTH,ComponentDrill
T2C0.889
; #@! TA.AperFunction,Plated,PTH,ComponentDrill
T3C1.000
; #@! TA.AperFunction,Plated,PTH,ComponentDrill
T4C1.500
%
G90
G05
T1
X81.653Y-92.63
X85.153Y-92.63
X85.4Y-73.6
X93.75Y-82.475
X93.8Y-80.7
X102.6Y-113.6
X104.728Y-110.283
X109.875Y-122.35
X122.875Y-90.301
X126.178Y-107.088
X126.178Y-108.838
X131.178Y-99.604
X132.3Y-109.3
X133.2Y-88.6
X138.55Y-90.275
X142.05Y-88.525
X151.6Y-102.7
X151.6Y-121.9
X153.4Y-118.5
X155.015Y-73.842
T2
X132.78Y-68.148
X132.78Y-70.688
X132.78Y-73.228
X132.78Y-75.769
X132.78Y-78.308
X132.78Y-80.849
X132.78Y-83.388
X148.02Y-68.148
X148.02Y-70.688
X148.02Y-73.228
X148.02Y-75.769
X148.02Y-78.308
X148.02Y-80.849
X148.02Y-83.388
T3
X76.5Y-79.6
X76.5Y-84.6
X91.0Y-79.6
X91.0Y-82.1
X91.0Y-84.6
T4
X117.45Y-117.86
X123.8Y-115.32
X136.65Y-117.86
X136.67Y-98.66
X143.0Y-115.32
X143.02Y-96.12
T4
G00X84.15Y-76.5
M15
G01X82.85Y-76.5
M16
G05
G00X84.15Y-87.7
M15
G01X82.85Y-87.7
M16
G05
M30
