%TF.GenerationSoftware,KiCad,Pcbnew,9.0.2-9.0.2-0~ubuntu24.04.1*%
%TF.CreationDate,2025-07-05T22:33:03-07:00*%
%TF.ProjectId,hackpad-v2,6861636b-7061-4642-9d76-322e6b696361,rev?*%
%TF.SameCoordinates,Original*%
%TF.FileFunction,Soldermask,Top*%
%TF.FilePolarity,Negative*%
%FSLAX46Y46*%
G04 Gerber Fmt 4.6, Leading zero omitted, Abs format (unit mm)*
G04 Created by KiCad (PCBNEW 9.0.2-9.0.2-0~ubuntu24.04.1) date 2025-07-05 22:33:03*
%MOMM*%
%LPD*%
G01*
G04 APERTURE LIST*
G04 Aperture macros list*
%AMRoundRect*
0 Rectangle with rounded corners*
0 $1 Rounding radius*
0 $2 $3 $4 $5 $6 $7 $8 $9 X,Y pos of 4 corners*
0 Add a 4 corners polygon primitive as box body*
4,1,4,$2,$3,$4,$5,$6,$7,$8,$9,$2,$3,0*
0 Add four circle primitives for the rounded corners*
1,1,$1+$1,$2,$3*
1,1,$1+$1,$4,$5*
1,1,$1+$1,$6,$7*
1,1,$1+$1,$8,$9*
0 Add four rect primitives between the rounded corners*
20,1,$1+$1,$2,$3,$4,$5,0*
20,1,$1+$1,$4,$5,$6,$7,0*
20,1,$1+$1,$6,$7,$8,$9,0*
20,1,$1+$1,$8,$9,$2,$3,0*%
G04 Aperture macros list end*
%ADD10R,1.600000X0.850000*%
%ADD11C,1.700000*%
%ADD12C,4.000000*%
%ADD13C,2.200000*%
%ADD14R,0.850000X1.600000*%
%ADD15R,2.000000X2.000000*%
%ADD16C,2.000000*%
%ADD17R,3.200000X2.000000*%
%ADD18RoundRect,0.152400X1.063600X0.609600X-1.063600X0.609600X-1.063600X-0.609600X1.063600X-0.609600X0*%
%ADD19C,1.524000*%
%ADD20RoundRect,0.152400X-1.063600X-0.609600X1.063600X-0.609600X1.063600X0.609600X-1.063600X0.609600X0*%
G04 APERTURE END LIST*
D10*
%TO.C,D5*%
X126178170Y-107088167D03*
X126178170Y-108838167D03*
X129678170Y-108838167D03*
X129678170Y-107088167D03*
%TD*%
%TO.C,D7*%
X101227827Y-108533011D03*
X101227827Y-110283011D03*
X104727827Y-110283011D03*
X104727827Y-108533011D03*
%TD*%
%TO.C,D12*%
X138550000Y-88525000D03*
X138550000Y-90275000D03*
X142050000Y-90275000D03*
X142050000Y-88525000D03*
%TD*%
D11*
%TO.C,SW2*%
X116180000Y-120400000D03*
D12*
X121260000Y-120400000D03*
D11*
X126340000Y-120400000D03*
D13*
X123800000Y-115320000D03*
X117450000Y-117860000D03*
%TD*%
D14*
%TO.C,D9*%
X108125000Y-122350000D03*
X109875000Y-122350000D03*
X109875000Y-118850000D03*
X108125000Y-118850000D03*
%TD*%
D10*
%TO.C,D1*%
X81950000Y-71825000D03*
X81950000Y-73575000D03*
X85450000Y-73575000D03*
X85450000Y-71825000D03*
%TD*%
%TO.C,D10*%
X129168952Y-131797735D03*
X129168952Y-133547735D03*
X132668952Y-133547735D03*
X132668952Y-131797735D03*
%TD*%
D15*
%TO.C,SW1*%
X91000000Y-84600000D03*
D16*
X91000000Y-79600000D03*
X91000000Y-82100000D03*
D17*
X83500000Y-87700000D03*
X83500000Y-76500000D03*
D16*
X76500000Y-79600000D03*
X76500000Y-84600000D03*
%TD*%
D10*
%TO.C,D11*%
X119375265Y-88550706D03*
X119375265Y-90300706D03*
X122875265Y-90300706D03*
X122875265Y-88550706D03*
%TD*%
D14*
%TO.C,D6*%
X151625000Y-121950000D03*
X153375000Y-121950000D03*
X153375000Y-118450000D03*
X151625000Y-118450000D03*
%TD*%
D10*
%TO.C,D2*%
X70200000Y-81300000D03*
X70200000Y-83050000D03*
X73700000Y-83050000D03*
X73700000Y-81300000D03*
%TD*%
D11*
%TO.C,SW3*%
X135400000Y-101200000D03*
D12*
X140480000Y-101200000D03*
D11*
X145560000Y-101200000D03*
D13*
X143020000Y-96120000D03*
X136670000Y-98660000D03*
%TD*%
D11*
%TO.C,SW4*%
X135380000Y-120400000D03*
D12*
X140460000Y-120400000D03*
D11*
X145540000Y-120400000D03*
D13*
X143000000Y-115320000D03*
X136650000Y-117860000D03*
%TD*%
D10*
%TO.C,D4*%
X81653432Y-90880052D03*
X81653432Y-92630052D03*
X85153432Y-92630052D03*
X85153432Y-90880052D03*
%TD*%
%TO.C,D14*%
X151514744Y-72091666D03*
X151514744Y-73841666D03*
X155014744Y-73841666D03*
X155014744Y-72091666D03*
%TD*%
D14*
%TO.C,D13*%
X151600000Y-102700000D03*
X153350000Y-102700000D03*
X153350000Y-99200000D03*
X151600000Y-99200000D03*
%TD*%
D18*
%TO.C,U1*%
X131945000Y-68148500D03*
D19*
X132780000Y-68148500D03*
D18*
X131945000Y-70688500D03*
D19*
X132780000Y-70688500D03*
D18*
X131945000Y-73228500D03*
D19*
X132780000Y-73228500D03*
D18*
X131945000Y-75768500D03*
D19*
X132780000Y-75768500D03*
D18*
X131945000Y-78308500D03*
D19*
X132780000Y-78308500D03*
D18*
X131945000Y-80848500D03*
D19*
X132780000Y-80848500D03*
D18*
X131945000Y-83388500D03*
D19*
X132780000Y-83388500D03*
X148020000Y-83388500D03*
D20*
X148855000Y-83388500D03*
D19*
X148020000Y-80848500D03*
D20*
X148855000Y-80848500D03*
D19*
X148020000Y-78308500D03*
D20*
X148855000Y-78308500D03*
D19*
X148020000Y-75768500D03*
D20*
X148855000Y-75768500D03*
D19*
X148020000Y-73228500D03*
D20*
X148855000Y-73228500D03*
D19*
X148020000Y-70688500D03*
D20*
X148855000Y-70688500D03*
D19*
X148020000Y-68148500D03*
D20*
X148855000Y-68148500D03*
%TD*%
D10*
%TO.C,D3*%
X93750000Y-80725000D03*
X93750000Y-82475000D03*
X97250000Y-82475000D03*
X97250000Y-80725000D03*
%TD*%
%TO.C,D8*%
X76991642Y-129329861D03*
X76991642Y-131079861D03*
X80491642Y-131079861D03*
X80491642Y-129329861D03*
%TD*%
M02*
