%TF.GenerationSoftware,KiCad,Pcbnew,9.0.2-9.0.2-0~ubuntu24.04.1*%
%TF.CreationDate,2025-07-05T22:33:02-07:00*%
%TF.ProjectId,hackpad-v2,6861636b-7061-4642-9d76-322e6b696361,rev?*%
%TF.SameCoordinates,Original*%
%TF.FileFunction,Copper,L2,Bot*%
%TF.FilePolarity,Positive*%
%FSLAX46Y46*%
G04 Gerber Fmt 4.6, Leading zero omitted, Abs format (unit mm)*
G04 Created by KiCad (PCBNEW 9.0.2-9.0.2-0~ubuntu24.04.1) date 2025-07-05 22:33:02*
%MOMM*%
%LPD*%
G01*
G04 APERTURE LIST*
%TA.AperFunction,ComponentPad*%
%ADD10C,2.200000*%
%TD*%
%TA.AperFunction,ComponentPad*%
%ADD11R,2.000000X2.000000*%
%TD*%
%TA.AperFunction,ComponentPad*%
%ADD12C,2.000000*%
%TD*%
%TA.AperFunction,ComponentPad*%
%ADD13R,3.200000X2.000000*%
%TD*%
%TA.AperFunction,ComponentPad*%
%ADD14C,1.524000*%
%TD*%
%TA.AperFunction,ViaPad*%
%ADD15C,0.600000*%
%TD*%
%TA.AperFunction,Conductor*%
%ADD16C,0.200000*%
%TD*%
G04 APERTURE END LIST*
D10*
%TO.P,SW2,1,1*%
%TO.N,GND*%
X123800000Y-115320000D03*
%TO.P,SW2,2,2*%
%TO.N,Net-(U1-GPIO28{slash}ADC2{slash}A2)*%
X117450000Y-117860000D03*
%TD*%
D11*
%TO.P,SW1,A,A*%
%TO.N,ENC_A*%
X91000000Y-84600000D03*
D12*
%TO.P,SW1,B,B*%
%TO.N,ENC_B*%
X91000000Y-79600000D03*
%TO.P,SW1,C,C*%
%TO.N,GND*%
X91000000Y-82100000D03*
D13*
%TO.P,SW1,MP*%
%TO.N,N/C*%
X83500000Y-87700000D03*
X83500000Y-76500000D03*
D12*
%TO.P,SW1,S1*%
X76500000Y-79600000D03*
%TO.P,SW1,S2*%
X76500000Y-84600000D03*
%TD*%
D10*
%TO.P,SW3,1,1*%
%TO.N,GND*%
X143020000Y-96120000D03*
%TO.P,SW3,2,2*%
%TO.N,Net-(U1-GPIO29{slash}ADC3{slash}A3)*%
X136670000Y-98660000D03*
%TD*%
%TO.P,SW4,1,1*%
%TO.N,GND*%
X143000000Y-115320000D03*
%TO.P,SW4,2,2*%
%TO.N,Net-(U1-GPIO6{slash}SDA)*%
X136650000Y-117860000D03*
%TD*%
D14*
%TO.P,U1,1,GPIO26/ADC0/A0*%
%TO.N,ENC_A*%
X132780000Y-68148500D03*
%TO.P,U1,2,GPIO27/ADC1/A1*%
%TO.N,ENC_B*%
X132780000Y-70688500D03*
%TO.P,U1,3,GPIO28/ADC2/A2*%
%TO.N,Net-(U1-GPIO28{slash}ADC2{slash}A2)*%
X132780000Y-73228500D03*
%TO.P,U1,4,GPIO29/ADC3/A3*%
%TO.N,Net-(U1-GPIO29{slash}ADC3{slash}A3)*%
X132780000Y-75768500D03*
%TO.P,U1,5,GPIO6/SDA*%
%TO.N,Net-(U1-GPIO6{slash}SDA)*%
X132780000Y-78308500D03*
%TO.P,U1,6,GPIO7/SCL*%
%TO.N,LED*%
X132780000Y-80848500D03*
%TO.P,U1,7,GPIO0/TX*%
%TO.N,unconnected-(U1-GPIO0{slash}TX-Pad7)*%
X132780000Y-83388500D03*
%TO.P,U1,8,GPIO1/RX*%
%TO.N,unconnected-(U1-GPIO1{slash}RX-Pad8)_1*%
X148020000Y-83388500D03*
%TO.P,U1,9,GPIO2/SCK*%
%TO.N,unconnected-(U1-GPIO2{slash}SCK-Pad9)_1*%
X148020000Y-80848500D03*
%TO.P,U1,10,GPIO4/MISO*%
%TO.N,unconnected-(U1-GPIO4{slash}MISO-Pad10)*%
X148020000Y-78308500D03*
%TO.P,U1,11,GPIO3/MOSI*%
%TO.N,unconnected-(U1-GPIO3{slash}MOSI-Pad11)*%
X148020000Y-75768500D03*
%TO.P,U1,12,3V3*%
%TO.N,unconnected-(U1-3V3-Pad12)*%
X148020000Y-73228500D03*
%TO.P,U1,13,GND*%
%TO.N,GND*%
X148020000Y-70688500D03*
%TO.P,U1,14,VBUS*%
%TO.N,+5V*%
X148020000Y-68148500D03*
%TD*%
D15*
%TO.N,GND*%
X109875000Y-122350000D03*
X102600000Y-113600000D03*
X126178170Y-108838167D03*
X93750000Y-82475000D03*
X81653432Y-92630052D03*
X132300000Y-109300000D03*
X138550000Y-90275000D03*
%TO.N,+5V*%
X133200000Y-88600000D03*
X142050000Y-88525000D03*
%TO.N,LED*%
X85400000Y-73600000D03*
%TO.N,Net-(D3-DOUT)*%
X93800000Y-80700000D03*
X85153432Y-92630052D03*
%TO.N,Net-(D5-DOUT)*%
X153400000Y-118500000D03*
X126178170Y-107088167D03*
%TO.N,Net-(D6-DOUT)*%
X104727827Y-110283011D03*
X151600000Y-121900000D03*
%TO.N,Net-(D10-DOUT)*%
X122875265Y-90300706D03*
X131178170Y-99603876D03*
%TO.N,Net-(D13-DOUT)*%
X155014744Y-73841666D03*
X151600000Y-102700000D03*
%TD*%
D16*
%TO.N,GND*%
X102600000Y-113600000D02*
X109875000Y-120875000D01*
X89700000Y-84583484D02*
X89700000Y-83400000D01*
X91000000Y-82100000D02*
X93375000Y-82100000D01*
X129488167Y-106488167D02*
X125929641Y-106488167D01*
X147580105Y-79370500D02*
X148459895Y-79370500D01*
X132300000Y-109300000D02*
X129488167Y-106488167D01*
X109875000Y-120875000D02*
X109875000Y-122350000D01*
X125578170Y-108238167D02*
X126178170Y-108838167D01*
X148459895Y-79370500D02*
X149400000Y-78430395D01*
X138550000Y-90275000D02*
X138550000Y-88400605D01*
X149400000Y-72068500D02*
X148020000Y-70688500D01*
X149400000Y-78430395D02*
X149400000Y-72068500D01*
X123800000Y-111216337D02*
X126178170Y-108838167D01*
X125929641Y-106488167D02*
X125578170Y-106839638D01*
X138550000Y-88400605D02*
X147580105Y-79370500D01*
X93375000Y-82100000D02*
X93750000Y-82475000D01*
X123800000Y-115320000D02*
X123800000Y-111216337D01*
X81653432Y-92630052D02*
X89700000Y-84583484D01*
X89700000Y-83400000D02*
X91000000Y-82100000D01*
X125578170Y-106839638D02*
X125578170Y-108238167D01*
%TO.N,ENC_A*%
X116328500Y-84600000D02*
X132780000Y-68148500D01*
X91000000Y-84600000D02*
X116328500Y-84600000D01*
%TO.N,ENC_B*%
X91000000Y-79600000D02*
X92700000Y-81300000D01*
X133219895Y-67086500D02*
X134100000Y-67966605D01*
X134100000Y-69368500D02*
X132780000Y-70688500D01*
X118126605Y-81300000D02*
X132340105Y-67086500D01*
X134100000Y-67966605D02*
X134100000Y-69368500D01*
X92700000Y-81300000D02*
X118126605Y-81300000D01*
X132340105Y-67086500D02*
X133219895Y-67086500D01*
%TO.N,Net-(U1-GPIO28{slash}ADC2{slash}A2)*%
X129471500Y-73228500D02*
X115600000Y-87100000D01*
X117450000Y-88950000D02*
X117450000Y-117860000D01*
X132780000Y-73228500D02*
X129471500Y-73228500D01*
X115600000Y-87100000D02*
X117450000Y-88950000D01*
%TO.N,Net-(U1-GPIO29{slash}ADC3{slash}A3)*%
X132780000Y-75768500D02*
X129268500Y-75768500D01*
X136670000Y-93670000D02*
X136670000Y-98660000D01*
X129268500Y-75768500D02*
X129200000Y-75700000D01*
X129200000Y-75700000D02*
X124000000Y-80900000D01*
X124000000Y-80900000D02*
X123900000Y-80900000D01*
X123900000Y-80900000D02*
X136670000Y-93670000D01*
%TO.N,Net-(U1-GPIO6{slash}SDA)*%
X131000000Y-87434314D02*
X138100000Y-94534314D01*
X132780000Y-78308500D02*
X131000000Y-80088500D01*
X131000000Y-80088500D02*
X131000000Y-87434314D01*
X138100000Y-116410000D02*
X136650000Y-117860000D01*
X138100000Y-94534314D02*
X138100000Y-116410000D01*
%TO.N,+5V*%
X135475000Y-90875000D02*
X133200000Y-88600000D01*
X142050000Y-88525000D02*
X139700000Y-90875000D01*
X139700000Y-90875000D02*
X135475000Y-90875000D01*
%TO.N,LED*%
X134500000Y-67800919D02*
X134500000Y-79128500D01*
X85400000Y-73600000D02*
X92313500Y-66686500D01*
X92313500Y-66686500D02*
X133385581Y-66686500D01*
X134500000Y-79128500D02*
X132780000Y-80848500D01*
X133385581Y-66686500D02*
X134500000Y-67800919D01*
%TO.N,Net-(D3-DOUT)*%
X81053432Y-92878581D02*
X81404903Y-93230052D01*
X84553432Y-93230052D02*
X85153432Y-92630052D01*
X89700000Y-78300000D02*
X81053432Y-86946568D01*
X81053432Y-86946568D02*
X81053432Y-92878581D01*
X93800000Y-80700000D02*
X93800000Y-80561522D01*
X91538478Y-78300000D02*
X89700000Y-78300000D01*
X81404903Y-93230052D02*
X84553432Y-93230052D01*
X93800000Y-80561522D02*
X91538478Y-78300000D01*
%TO.N,Net-(D5-DOUT)*%
X136070101Y-119260000D02*
X128600000Y-111789899D01*
X153400000Y-118500000D02*
X152180101Y-117280101D01*
X152180101Y-117280101D02*
X139209798Y-117280101D01*
X139209798Y-117280101D02*
X137229899Y-119260000D01*
X137229899Y-119260000D02*
X136070101Y-119260000D01*
X128600000Y-111789899D02*
X128600000Y-109509997D01*
X128600000Y-109509997D02*
X126178170Y-107088167D01*
%TO.N,Net-(D6-DOUT)*%
X147750000Y-118050000D02*
X139427056Y-118050000D01*
X107893112Y-110283011D02*
X104727827Y-110283011D01*
X125219999Y-116720000D02*
X120569899Y-116720000D01*
X116870101Y-119260000D02*
X107893112Y-110283011D01*
X120569899Y-116720000D02*
X118029899Y-119260000D01*
X130099999Y-121600000D02*
X125219999Y-116720000D01*
X139427056Y-118050000D02*
X135877056Y-121600000D01*
X118029899Y-119260000D02*
X116870101Y-119260000D01*
X151600000Y-121900000D02*
X147750000Y-118050000D01*
X135877056Y-121600000D02*
X130099999Y-121600000D01*
%TO.N,Net-(D10-DOUT)*%
X131178170Y-99603876D02*
X131178170Y-98603611D01*
X131178170Y-98603611D02*
X122875265Y-90300706D01*
%TO.N,Net-(D13-DOUT)*%
X151600000Y-102700000D02*
X151600000Y-77256410D01*
X151600000Y-77256410D02*
X155014744Y-73841666D01*
%TD*%
M02*
