%TF.GenerationSoftware,KiCad,Pcbnew,9.0.2-9.0.2-0~ubuntu24.04.1*%
%TF.CreationDate,2025-07-05T22:33:03-07:00*%
%TF.ProjectId,hackpad-v2,6861636b-7061-4642-9d76-322e6b696361,rev?*%
%TF.SameCoordinates,Original*%
%TF.FileFunction,Legend,Bot*%
%TF.FilePolarity,Positive*%
%FSLAX46Y46*%
G04 Gerber Fmt 4.6, Leading zero omitted, Abs format (unit mm)*
G04 Created by KiCad (PCBNEW 9.0.2-9.0.2-0~ubuntu24.04.1) date 2025-07-05 22:33:03*
%MOMM*%
%LPD*%
G01*
G04 APERTURE LIST*
%ADD10C,0.300000*%
%ADD11C,0.000000*%
G04 APERTURE END LIST*
D10*
X113621427Y-100749757D02*
X113764285Y-100678328D01*
X113764285Y-100678328D02*
X113978570Y-100678328D01*
X113978570Y-100678328D02*
X114192856Y-100749757D01*
X114192856Y-100749757D02*
X114335713Y-100892614D01*
X114335713Y-100892614D02*
X114407142Y-101035471D01*
X114407142Y-101035471D02*
X114478570Y-101321185D01*
X114478570Y-101321185D02*
X114478570Y-101535471D01*
X114478570Y-101535471D02*
X114407142Y-101821185D01*
X114407142Y-101821185D02*
X114335713Y-101964042D01*
X114335713Y-101964042D02*
X114192856Y-102106900D01*
X114192856Y-102106900D02*
X113978570Y-102178328D01*
X113978570Y-102178328D02*
X113835713Y-102178328D01*
X113835713Y-102178328D02*
X113621427Y-102106900D01*
X113621427Y-102106900D02*
X113549999Y-102035471D01*
X113549999Y-102035471D02*
X113549999Y-101535471D01*
X113549999Y-101535471D02*
X113835713Y-101535471D01*
X112692856Y-100678328D02*
X112692856Y-101035471D01*
X113049999Y-100892614D02*
X112692856Y-101035471D01*
X112692856Y-101035471D02*
X112335713Y-100892614D01*
X112907142Y-101321185D02*
X112692856Y-101035471D01*
X112692856Y-101035471D02*
X112478570Y-101321185D01*
X111549999Y-100678328D02*
X111549999Y-101035471D01*
X111907142Y-100892614D02*
X111549999Y-101035471D01*
X111549999Y-101035471D02*
X111192856Y-100892614D01*
X111764285Y-101321185D02*
X111549999Y-101035471D01*
X111549999Y-101035471D02*
X111335713Y-101321185D01*
X110407142Y-100678328D02*
X110407142Y-101035471D01*
X110764285Y-100892614D02*
X110407142Y-101035471D01*
X110407142Y-101035471D02*
X110049999Y-100892614D01*
X110621428Y-101321185D02*
X110407142Y-101035471D01*
X110407142Y-101035471D02*
X110192856Y-101321185D01*
D11*
%TO.C,G\u002A\u002A\u002A*%
G36*
X97009015Y-90112750D02*
G01*
X96818003Y-90360035D01*
X96619527Y-90481866D01*
X96372984Y-90488116D01*
X96096282Y-90331684D01*
X95950421Y-90167477D01*
X95877425Y-89950721D01*
X96059288Y-89950721D01*
X96178596Y-90112062D01*
X96315769Y-90208322D01*
X96545132Y-90238604D01*
X96740095Y-90122562D01*
X96810975Y-89984362D01*
X96780799Y-89767856D01*
X96596235Y-89573090D01*
X96492077Y-89512204D01*
X96369190Y-89508068D01*
X96222705Y-89628506D01*
X96078056Y-89802533D01*
X96059288Y-89950721D01*
X95877425Y-89950721D01*
X95859812Y-89898421D01*
X95895578Y-89629887D01*
X96060040Y-89420209D01*
X96311090Y-89304399D01*
X96585903Y-89303387D01*
X96818652Y-89415398D01*
X96983788Y-89608749D01*
X97055760Y-89851761D01*
X97032010Y-89984362D01*
X97009015Y-90112750D01*
G37*
G36*
X153533834Y-113127251D02*
G01*
X153330806Y-113387025D01*
X153164740Y-113488669D01*
X152887418Y-113526674D01*
X152633953Y-113431065D01*
X152449074Y-113223493D01*
X152377509Y-112925606D01*
X152387379Y-112876638D01*
X152595183Y-112876638D01*
X152641176Y-113101384D01*
X152701609Y-113181730D01*
X152889862Y-113270852D01*
X153101024Y-113247547D01*
X153273150Y-113127303D01*
X153344291Y-112925606D01*
X153328915Y-112826308D01*
X153204945Y-112659131D01*
X153007701Y-112580334D01*
X152799129Y-112605404D01*
X152641176Y-112749827D01*
X152595183Y-112876638D01*
X152387379Y-112876638D01*
X152432409Y-112653229D01*
X152603589Y-112436161D01*
X152850089Y-112333293D01*
X153129809Y-112360718D01*
X153400648Y-112534527D01*
X153443557Y-112581181D01*
X153572213Y-112848923D01*
X153561639Y-112925606D01*
X153533834Y-113127251D01*
G37*
G36*
X74144891Y-119191294D02*
G01*
X74006741Y-119448727D01*
X73850894Y-119556548D01*
X73581137Y-119595271D01*
X73302119Y-119515426D01*
X73075161Y-119325148D01*
X72992065Y-119201711D01*
X72959553Y-119081294D01*
X73210591Y-119081294D01*
X73327385Y-119291300D01*
X73451782Y-119388751D01*
X73642655Y-119409699D01*
X73842743Y-119259932D01*
X73880065Y-119213206D01*
X73949446Y-118992102D01*
X73868239Y-118793581D01*
X73653132Y-118669597D01*
X73567919Y-118656843D01*
X73357350Y-118713506D01*
X73229410Y-118871843D01*
X73210591Y-119081294D01*
X72959553Y-119081294D01*
X72947251Y-119035732D01*
X73006454Y-118831186D01*
X73138551Y-118627135D01*
X73326006Y-118476390D01*
X73585099Y-118423906D01*
X73838439Y-118500031D01*
X74034007Y-118678761D01*
X74145069Y-118921910D01*
X74145023Y-118992102D01*
X74144891Y-119191294D01*
G37*
G36*
X124930062Y-137111341D02*
G01*
X124773898Y-137390916D01*
X124613646Y-137541417D01*
X124334451Y-137622492D01*
X124283888Y-137620619D01*
X124003745Y-137528972D01*
X123814467Y-137332557D01*
X123732589Y-137077324D01*
X123754575Y-136937174D01*
X123964252Y-136937174D01*
X123967293Y-137162080D01*
X124030752Y-137258972D01*
X124223377Y-137368579D01*
X124450632Y-137380969D01*
X124540777Y-137335751D01*
X124647585Y-137167469D01*
X124665788Y-136953097D01*
X124579387Y-136768710D01*
X124478794Y-136697377D01*
X124270790Y-136672183D01*
X124082346Y-136762995D01*
X123964252Y-136937174D01*
X123754575Y-136937174D01*
X123774648Y-136809221D01*
X123957181Y-136574199D01*
X123957383Y-136574041D01*
X124236929Y-136417987D01*
X124487792Y-136428797D01*
X124740327Y-136607770D01*
X124740502Y-136607945D01*
X124919363Y-136860469D01*
X124923313Y-136953097D01*
X124930062Y-137111341D01*
G37*
G36*
X157787302Y-92419663D02*
G01*
X157635545Y-92683436D01*
X157443981Y-92824728D01*
X157236048Y-92886852D01*
X157080327Y-92850880D01*
X156851463Y-92701616D01*
X156670036Y-92489254D01*
X156596194Y-92271627D01*
X156607690Y-92225049D01*
X156867849Y-92225049D01*
X156913120Y-92425433D01*
X157024327Y-92530837D01*
X157220167Y-92602208D01*
X157411360Y-92596174D01*
X157526481Y-92503628D01*
X157550513Y-92387456D01*
X157547954Y-92168157D01*
X157539944Y-92123800D01*
X157459047Y-91997455D01*
X157264942Y-91964014D01*
X157180288Y-91970066D01*
X156967246Y-92059699D01*
X156867849Y-92225049D01*
X156607690Y-92225049D01*
X156633484Y-92120539D01*
X156790611Y-91899918D01*
X157016398Y-91726589D01*
X157251368Y-91656402D01*
X157496531Y-91712000D01*
X157700527Y-91887782D01*
X157803207Y-92139057D01*
X157789128Y-92387456D01*
X157787302Y-92419663D01*
G37*
G36*
X82646147Y-122691724D02*
G01*
X82485980Y-122896055D01*
X82319906Y-122983205D01*
X82110035Y-123032872D01*
X82095675Y-123032729D01*
X81802109Y-122951367D01*
X81608552Y-122737813D01*
X81538754Y-122417647D01*
X81538957Y-122398292D01*
X81545914Y-122369798D01*
X81727093Y-122369798D01*
X81767792Y-122571454D01*
X81789477Y-122601435D01*
X81976054Y-122722704D01*
X82206943Y-122749105D01*
X82396292Y-122667515D01*
X82415843Y-122646612D01*
X82502663Y-122444686D01*
X82452693Y-122249797D01*
X82294820Y-122111992D01*
X82057931Y-122081316D01*
X82036949Y-122084907D01*
X81827411Y-122189711D01*
X81727093Y-122369798D01*
X81545914Y-122369798D01*
X81616393Y-122081149D01*
X81819943Y-121875578D01*
X82129590Y-121802422D01*
X82233870Y-121814523D01*
X82461593Y-121940658D01*
X82617309Y-122162952D01*
X82684375Y-122430332D01*
X82682276Y-122444686D01*
X82646147Y-122691724D01*
G37*
G36*
X113911970Y-66316751D02*
G01*
X113857156Y-66433032D01*
X113723192Y-66629931D01*
X113654812Y-66689784D01*
X113412279Y-66772924D01*
X113134415Y-66756024D01*
X112900173Y-66638282D01*
X112853225Y-66583086D01*
X112761721Y-66348590D01*
X112758428Y-66301465D01*
X112947437Y-66301465D01*
X113071352Y-66465622D01*
X113287210Y-66538397D01*
X113516862Y-66466961D01*
X113554212Y-66438389D01*
X113688466Y-66241632D01*
X113678890Y-66039087D01*
X113542483Y-65880835D01*
X113296241Y-65816955D01*
X113257406Y-65820037D01*
X113072324Y-65918157D01*
X112952007Y-66102239D01*
X112947437Y-66301465D01*
X112758428Y-66301465D01*
X112742519Y-66073821D01*
X112806709Y-65852085D01*
X112968355Y-65706312D01*
X113234792Y-65598178D01*
X113493093Y-65591032D01*
X113625978Y-65658068D01*
X113801559Y-65852469D01*
X113910598Y-66095780D01*
X113911504Y-66241632D01*
X113911970Y-66316751D01*
G37*
G36*
X148644625Y-69279557D02*
G01*
X148563175Y-69529397D01*
X148346415Y-69727025D01*
X148310057Y-69746644D01*
X148110579Y-69836896D01*
X147962358Y-69839348D01*
X147779516Y-69758815D01*
X147609672Y-69649228D01*
X147489485Y-69470560D01*
X147464621Y-69257251D01*
X147643955Y-69257251D01*
X147769600Y-69458082D01*
X147983623Y-69583731D01*
X148194311Y-69554659D01*
X148352291Y-69372745D01*
X148390461Y-69277708D01*
X148392475Y-69123342D01*
X148268211Y-68963405D01*
X148140265Y-68849349D01*
X148024977Y-68831401D01*
X147856904Y-68925212D01*
X147691176Y-69071341D01*
X147643955Y-69257251D01*
X147464621Y-69257251D01*
X147457055Y-69192342D01*
X147458323Y-69144936D01*
X147549049Y-68859977D01*
X147763890Y-68685487D01*
X148075996Y-68645203D01*
X148189295Y-68665574D01*
X148446466Y-68802764D01*
X148601982Y-69022385D01*
X148618722Y-69123342D01*
X148644625Y-69279557D01*
G37*
G36*
X109828614Y-68195564D02*
G01*
X109782277Y-68665814D01*
X109608834Y-69104851D01*
X109317602Y-69474699D01*
X108917897Y-69737382D01*
X108815637Y-69776567D01*
X108349425Y-69856670D01*
X107861399Y-69812532D01*
X107428922Y-69648757D01*
X107410757Y-69637930D01*
X107042095Y-69318808D01*
X106793920Y-68903298D01*
X106680426Y-68447394D01*
X106891312Y-68447394D01*
X107014669Y-68880635D01*
X107277326Y-69246711D01*
X107665657Y-69511485D01*
X107941728Y-69612312D01*
X108394696Y-69655215D01*
X108811267Y-69526493D01*
X109196099Y-69225275D01*
X109344875Y-69045706D01*
X109552780Y-68620674D01*
X109600074Y-68175083D01*
X109486505Y-67739023D01*
X109211823Y-67342582D01*
X109195233Y-67325722D01*
X108808688Y-67047146D01*
X108384011Y-66920112D01*
X107954960Y-66937831D01*
X107555290Y-67093514D01*
X107218756Y-67380373D01*
X106979115Y-67791618D01*
X106920881Y-67981125D01*
X106891312Y-68447394D01*
X106680426Y-68447394D01*
X106676190Y-68430379D01*
X106698862Y-67939030D01*
X106871893Y-67468228D01*
X106999068Y-67276685D01*
X107349821Y-66951180D01*
X107772244Y-66756484D01*
X108232917Y-66694441D01*
X108698420Y-66766895D01*
X109135333Y-66975690D01*
X109510238Y-67322669D01*
X109738532Y-67732076D01*
X109824633Y-68175083D01*
X109828614Y-68195564D01*
G37*
G36*
X132514533Y-134878945D02*
G01*
X132489335Y-135211443D01*
X132339866Y-135659839D01*
X132044902Y-136027290D01*
X131591695Y-136333891D01*
X131538655Y-136359759D01*
X131128646Y-136460347D01*
X130671622Y-136437635D01*
X130225887Y-136300822D01*
X129849747Y-136059105D01*
X129791503Y-136003394D01*
X129515607Y-135611097D01*
X129377637Y-135159762D01*
X129375001Y-134855544D01*
X129599539Y-134855544D01*
X129654067Y-135251091D01*
X129865323Y-135677940D01*
X130225189Y-136018214D01*
X130357493Y-136090170D01*
X130732294Y-136194135D01*
X131142712Y-136210427D01*
X131503806Y-136131520D01*
X131801025Y-135954060D01*
X132087805Y-135627451D01*
X132257387Y-135227207D01*
X132301162Y-134792536D01*
X132210523Y-134362646D01*
X131976863Y-133976744D01*
X131769352Y-133781719D01*
X131379421Y-133573309D01*
X130964549Y-133504575D01*
X130555693Y-133564074D01*
X130183809Y-133740364D01*
X129879851Y-134022000D01*
X129674776Y-134397541D01*
X129599539Y-134855544D01*
X129375001Y-134855544D01*
X129373541Y-134686962D01*
X129499269Y-134230273D01*
X129750769Y-133827266D01*
X130123990Y-133515515D01*
X130563840Y-133330014D01*
X131048913Y-133276243D01*
X131505514Y-133367496D01*
X131907010Y-133588583D01*
X132226767Y-133924314D01*
X132438153Y-134359498D01*
X132501827Y-134792536D01*
X132514533Y-134878945D01*
G37*
G36*
X78613879Y-121466222D02*
G01*
X78480784Y-121927977D01*
X78207089Y-122335831D01*
X77800861Y-122656559D01*
X77355511Y-122828268D01*
X76888201Y-122857155D01*
X76444903Y-122750534D01*
X76050731Y-122527726D01*
X75730796Y-122208057D01*
X75510211Y-121810848D01*
X75414087Y-121355425D01*
X75422774Y-121275087D01*
X75694118Y-121275087D01*
X75696542Y-121387418D01*
X75775039Y-121829358D01*
X75976714Y-122166722D01*
X76318530Y-122430911D01*
X76646212Y-122569508D01*
X77106030Y-122626315D01*
X77545327Y-122535537D01*
X77921672Y-122300623D01*
X78050947Y-122166530D01*
X78284218Y-121787414D01*
X78377907Y-121387223D01*
X78347964Y-120990514D01*
X78210339Y-120621841D01*
X77980984Y-120305760D01*
X77675848Y-120066827D01*
X77310882Y-119929597D01*
X76902036Y-119918626D01*
X76465260Y-120058469D01*
X76175386Y-120226672D01*
X75890997Y-120494959D01*
X75739083Y-120831007D01*
X75694118Y-121275087D01*
X75422774Y-121275087D01*
X75467537Y-120861109D01*
X75523147Y-120688257D01*
X75775653Y-120245167D01*
X76143303Y-119927453D01*
X76610223Y-119745894D01*
X77160540Y-119711272D01*
X77251591Y-119719253D01*
X77697010Y-119819598D01*
X78046170Y-120034056D01*
X78350628Y-120392125D01*
X78426004Y-120513907D01*
X78598308Y-120983790D01*
X78611329Y-121387223D01*
X78613879Y-121466222D01*
G37*
G36*
X158089861Y-112943214D02*
G01*
X158088324Y-113016612D01*
X157985960Y-113529217D01*
X157730846Y-113963275D01*
X157333594Y-114299753D01*
X157039211Y-114426566D01*
X156611886Y-114503912D01*
X156181672Y-114490972D01*
X155822798Y-114383625D01*
X155622969Y-114261695D01*
X155247487Y-113896271D01*
X155009484Y-113438606D01*
X154954946Y-113096672D01*
X155165085Y-113096672D01*
X155285181Y-113514065D01*
X155540580Y-113877109D01*
X155924143Y-114149820D01*
X156110847Y-114234304D01*
X156385841Y-114312734D01*
X156652256Y-114299942D01*
X156991695Y-114199742D01*
X157090872Y-114160298D01*
X157467422Y-113908974D01*
X157727815Y-113562317D01*
X157864592Y-113156380D01*
X157870291Y-112727217D01*
X157737451Y-112310884D01*
X157458611Y-111943433D01*
X157199923Y-111747431D01*
X156769406Y-111580851D01*
X156324656Y-111576408D01*
X155894320Y-111732569D01*
X155507048Y-112047804D01*
X155359364Y-112242784D01*
X155187432Y-112660917D01*
X155165085Y-113096672D01*
X154954946Y-113096672D01*
X154926298Y-112917061D01*
X154978694Y-112504196D01*
X155167591Y-112071558D01*
X155466498Y-111727091D01*
X155846319Y-111483347D01*
X156277955Y-111352879D01*
X156732311Y-111348240D01*
X157180290Y-111481984D01*
X157592794Y-111766664D01*
X157873823Y-112092771D01*
X158040414Y-112473459D01*
X158067125Y-112727217D01*
X158089861Y-112943214D01*
G37*
G36*
X133421683Y-71848692D02*
G01*
X133238427Y-72284526D01*
X132919663Y-72660920D01*
X132471342Y-72947853D01*
X132129498Y-73069266D01*
X131727719Y-73094658D01*
X131304432Y-72975736D01*
X131073973Y-72862868D01*
X130679582Y-72545412D01*
X130395526Y-72101038D01*
X130353854Y-72007727D01*
X130254489Y-71705205D01*
X130249676Y-71549916D01*
X130507310Y-71549916D01*
X130603021Y-71984189D01*
X130836538Y-72368045D01*
X131196549Y-72661958D01*
X131334835Y-72729871D01*
X131786617Y-72836990D01*
X132238731Y-72792992D01*
X132649876Y-72606580D01*
X132978748Y-72286457D01*
X133019651Y-72222459D01*
X133148605Y-71861589D01*
X133184564Y-71437758D01*
X133127574Y-71021581D01*
X132977682Y-70683673D01*
X132973234Y-70677476D01*
X132638867Y-70357561D01*
X132211839Y-70174847D01*
X131724526Y-70143295D01*
X131325089Y-70232835D01*
X130963580Y-70460060D01*
X130674807Y-70838610D01*
X130560713Y-71104751D01*
X130507310Y-71549916D01*
X130249676Y-71549916D01*
X130245729Y-71422572D01*
X130321169Y-71071069D01*
X130491827Y-70687399D01*
X130816276Y-70301830D01*
X131236502Y-70025064D01*
X131597226Y-69904790D01*
X132089597Y-69885186D01*
X132555973Y-70037420D01*
X132984624Y-70359250D01*
X133098868Y-70484771D01*
X133357856Y-70918792D01*
X133463477Y-71383439D01*
X133458597Y-71437758D01*
X133421683Y-71848692D01*
G37*
G36*
X97353782Y-101187351D02*
G01*
X97430133Y-101263755D01*
X97874686Y-101713797D01*
X98270204Y-102122839D01*
X98601416Y-102474445D01*
X98853052Y-102752174D01*
X99009840Y-102939591D01*
X99056511Y-103020255D01*
X99054871Y-103021698D01*
X98972405Y-102973522D01*
X98784396Y-102816438D01*
X98507169Y-102565530D01*
X98157052Y-102235882D01*
X97750373Y-101842578D01*
X97303458Y-101400702D01*
X95600756Y-99699679D01*
X94744413Y-100556022D01*
X93888070Y-101412365D01*
X95445423Y-102969718D01*
X97002775Y-104527070D01*
X97312633Y-104226744D01*
X97415058Y-104122308D01*
X97563958Y-103945051D01*
X97622491Y-103835019D01*
X97573670Y-103759406D01*
X97418104Y-103577621D01*
X97175091Y-103313573D01*
X96864499Y-102988800D01*
X96506196Y-102624842D01*
X96176987Y-102289010D01*
X95872385Y-101965579D01*
X95638146Y-101702643D01*
X95492731Y-101520979D01*
X95454601Y-101441363D01*
X95459453Y-101439648D01*
X95556115Y-101497217D01*
X95752832Y-101659855D01*
X96029861Y-101909833D01*
X96367460Y-102229425D01*
X96745886Y-102600899D01*
X97972471Y-103825136D01*
X97514843Y-104288520D01*
X97480253Y-104323408D01*
X97258146Y-104540602D01*
X97089819Y-104693863D01*
X97009401Y-104751903D01*
X97009234Y-104751894D01*
X96935569Y-104690802D01*
X96754857Y-104521289D01*
X96483683Y-104259495D01*
X96138632Y-103921558D01*
X95736288Y-103523619D01*
X95293236Y-103081818D01*
X93624885Y-101411732D01*
X94612794Y-100423823D01*
X95600702Y-99435915D01*
X97353782Y-101187351D01*
G37*
G36*
X89273010Y-98907267D02*
G01*
X88529832Y-99654326D01*
X87670972Y-99654326D01*
X87484838Y-99652676D01*
X87128476Y-99637183D01*
X86895546Y-99607548D01*
X86812111Y-99566436D01*
X86822778Y-99550554D01*
X86961005Y-99512575D01*
X87236927Y-99487560D01*
X87622538Y-99478547D01*
X88432965Y-99478547D01*
X88940877Y-98975935D01*
X89013037Y-98903832D01*
X89235121Y-98671979D01*
X89390372Y-98494338D01*
X89448789Y-98404655D01*
X89441632Y-98398561D01*
X89312322Y-98378636D01*
X89040527Y-98361440D01*
X88652103Y-98347949D01*
X88172906Y-98339140D01*
X87628792Y-98335987D01*
X85808795Y-98335987D01*
X85475505Y-98661436D01*
X85350552Y-98790240D01*
X85200682Y-98970162D01*
X85142214Y-99079478D01*
X85153322Y-99099229D01*
X85262650Y-99227930D01*
X85478170Y-99461090D01*
X85786806Y-99785165D01*
X86175483Y-100186611D01*
X86631125Y-100651882D01*
X87140657Y-101167435D01*
X87691003Y-101719724D01*
X87931271Y-101960180D01*
X88465417Y-102496948D01*
X88953199Y-102990139D01*
X89381564Y-103426365D01*
X89737459Y-103792238D01*
X90007831Y-104074371D01*
X90179626Y-104259374D01*
X90239792Y-104333861D01*
X90239750Y-104336256D01*
X90174407Y-104400346D01*
X90145094Y-104379268D01*
X90004329Y-104251833D01*
X89760372Y-104020067D01*
X89426314Y-103696744D01*
X89015250Y-103294636D01*
X88540272Y-102826517D01*
X88014473Y-102305161D01*
X87450945Y-101743341D01*
X84792867Y-99086335D01*
X85250179Y-98623271D01*
X85707490Y-98160208D01*
X87861839Y-98160208D01*
X90016188Y-98160208D01*
X89273010Y-98907267D01*
G37*
G36*
X90722869Y-98951526D02*
G01*
X88878450Y-100797515D01*
X91974971Y-103894037D01*
X95071493Y-106990558D01*
X95687822Y-106378951D01*
X95855961Y-106208642D01*
X96086800Y-105961277D01*
X96245275Y-105773534D01*
X96304152Y-105676452D01*
X96248592Y-105600829D01*
X96081643Y-105414702D01*
X95817163Y-105133335D01*
X95469108Y-104771243D01*
X95051433Y-104342938D01*
X94578094Y-103862934D01*
X94063045Y-103345744D01*
X91821938Y-101105930D01*
X93601049Y-99325230D01*
X95380160Y-97544530D01*
X99423995Y-101587663D01*
X103467829Y-105630796D01*
X107247521Y-105630796D01*
X111027213Y-105630796D01*
X112822458Y-103833948D01*
X112935847Y-103720720D01*
X113389115Y-103273459D01*
X113800259Y-102876095D01*
X114153058Y-102543722D01*
X114431295Y-102291432D01*
X114618751Y-102134317D01*
X114699207Y-102087471D01*
X114697971Y-102101910D01*
X114613632Y-102218179D01*
X114424180Y-102436232D01*
X114144050Y-102740563D01*
X113787675Y-103115664D01*
X113369489Y-103546030D01*
X112903925Y-104016154D01*
X111027139Y-105894464D01*
X107246771Y-105894464D01*
X103466404Y-105894464D01*
X99468166Y-101895502D01*
X99250870Y-101678297D01*
X98566196Y-100995660D01*
X97920355Y-100354338D01*
X97323989Y-99764744D01*
X96787741Y-99237289D01*
X96322253Y-98782385D01*
X95938169Y-98410447D01*
X95646130Y-98131885D01*
X95456780Y-97957112D01*
X95380761Y-97896540D01*
X95377064Y-97897243D01*
X95279268Y-97969336D01*
X95082297Y-98145399D01*
X94806677Y-98404894D01*
X94472931Y-98727282D01*
X94101583Y-99092026D01*
X93713159Y-99478589D01*
X93328182Y-99866432D01*
X92967176Y-100235017D01*
X92650666Y-100563809D01*
X92399177Y-100832267D01*
X92233232Y-101019856D01*
X92173356Y-101106036D01*
X92228887Y-101180908D01*
X92395790Y-101366301D01*
X92660210Y-101647000D01*
X93008193Y-102008512D01*
X93425786Y-102436347D01*
X93899036Y-102916013D01*
X94413988Y-103433020D01*
X96654619Y-105672359D01*
X95887966Y-106442581D01*
X95865636Y-106464994D01*
X95571741Y-106756228D01*
X95325162Y-106993911D01*
X95151183Y-107154088D01*
X95075083Y-107212803D01*
X95064866Y-107205672D01*
X94956112Y-107105634D01*
X94739063Y-106896647D01*
X94425494Y-106590324D01*
X94027181Y-106198274D01*
X93555899Y-105732109D01*
X93023424Y-105203441D01*
X92441531Y-104623882D01*
X91821996Y-104005042D01*
X88615138Y-100797280D01*
X90306358Y-99104390D01*
X90329256Y-99081464D01*
X90772186Y-98635575D01*
X91170553Y-98230141D01*
X91508316Y-97881833D01*
X91769434Y-97607326D01*
X91937869Y-97423293D01*
X91997578Y-97346408D01*
X91992781Y-97342946D01*
X91869539Y-97328761D01*
X91593851Y-97315768D01*
X91184615Y-97304328D01*
X90660728Y-97294801D01*
X90041087Y-97287550D01*
X89344589Y-97282934D01*
X88590133Y-97281315D01*
X85182687Y-97281315D01*
X84350606Y-98116871D01*
X83518524Y-98952427D01*
X86285383Y-101720331D01*
X89052241Y-104488236D01*
X83361934Y-104488236D01*
X83130958Y-104488196D01*
X81867221Y-104486385D01*
X80765707Y-104481894D01*
X79828351Y-104474753D01*
X79057087Y-104464993D01*
X78453849Y-104452642D01*
X78020570Y-104437730D01*
X77759185Y-104420289D01*
X77671626Y-104400346D01*
X77753846Y-104380538D01*
X78009722Y-104362679D01*
X78437255Y-104347475D01*
X79034359Y-104334959D01*
X79798951Y-104325165D01*
X80728947Y-104318128D01*
X81822264Y-104313880D01*
X83076817Y-104312457D01*
X83186019Y-104312444D01*
X84137477Y-104311185D01*
X85033192Y-104308001D01*
X85858158Y-104303075D01*
X86597372Y-104296587D01*
X87235829Y-104288720D01*
X87758525Y-104279654D01*
X88150457Y-104269571D01*
X88396619Y-104258653D01*
X88482007Y-104247081D01*
X88465128Y-104222768D01*
X88344672Y-104088820D01*
X88119246Y-103851043D01*
X87801731Y-103522644D01*
X87405005Y-103116830D01*
X86941948Y-102646808D01*
X86425441Y-102125785D01*
X85868362Y-101566969D01*
X83254716Y-98952234D01*
X84174923Y-98028886D01*
X85095129Y-97105537D01*
X88831209Y-97105537D01*
X92567288Y-97105537D01*
X90722869Y-98951526D01*
G37*
G36*
X159739427Y-119197658D02*
G01*
X159716263Y-128481007D01*
X156912181Y-131286102D01*
X156335837Y-131861781D01*
X155756639Y-132437368D01*
X155280590Y-132905879D01*
X154896827Y-133277264D01*
X154594487Y-133561472D01*
X154362707Y-133768452D01*
X154190626Y-133908153D01*
X154067380Y-133990524D01*
X153982107Y-134025515D01*
X153923945Y-134023073D01*
X153811607Y-133957341D01*
X153732635Y-133833185D01*
X153763706Y-133782285D01*
X153905198Y-133614528D01*
X154149687Y-133345510D01*
X154484675Y-132988386D01*
X154897660Y-132556314D01*
X155376142Y-132062451D01*
X155907620Y-131519954D01*
X156479595Y-130941980D01*
X159233711Y-128172541D01*
X159211319Y-119208762D01*
X159188927Y-110244983D01*
X152025026Y-110222502D01*
X144861124Y-110200020D01*
X143852757Y-111211256D01*
X142844390Y-112222492D01*
X135325119Y-112222492D01*
X127805849Y-112222492D01*
X127373010Y-111783045D01*
X126940172Y-111343599D01*
X122805557Y-111343599D01*
X118670942Y-111343599D01*
X115859409Y-114156162D01*
X113047876Y-116968725D01*
X117815461Y-121736912D01*
X117940296Y-121861808D01*
X118693562Y-122617423D01*
X119407974Y-123337380D01*
X120073997Y-124011873D01*
X120682095Y-124631096D01*
X121222732Y-125185243D01*
X121686373Y-125664508D01*
X122063481Y-126059085D01*
X122344520Y-126359169D01*
X122519955Y-126554953D01*
X122580250Y-126636632D01*
X122559555Y-126701944D01*
X122518524Y-126831432D01*
X122379068Y-127002533D01*
X122221504Y-127075779D01*
X122181956Y-127049516D01*
X122026738Y-126913134D01*
X121767088Y-126670533D01*
X121414479Y-126333170D01*
X120980383Y-125912502D01*
X120476270Y-125419986D01*
X119913615Y-124867077D01*
X119303887Y-124265234D01*
X118658559Y-123625912D01*
X117989104Y-122960568D01*
X117306993Y-122280659D01*
X116623698Y-121597642D01*
X115950690Y-120922973D01*
X115299443Y-120268109D01*
X114681428Y-119644507D01*
X114108116Y-119063624D01*
X113590980Y-118536915D01*
X113141492Y-118075838D01*
X112771123Y-117691850D01*
X112491346Y-117396407D01*
X112313633Y-117200966D01*
X112249455Y-117116984D01*
X112250782Y-117110431D01*
X112258761Y-117099574D01*
X112475595Y-117099574D01*
X117331272Y-121955843D01*
X117535502Y-122160039D01*
X118293188Y-122916565D01*
X119012835Y-123633513D01*
X119684882Y-124301447D01*
X120299765Y-124910934D01*
X120847923Y-125452538D01*
X121319794Y-125916825D01*
X121705816Y-126294361D01*
X121996426Y-126575710D01*
X122182062Y-126751438D01*
X122253163Y-126812111D01*
X122277407Y-126804420D01*
X122319377Y-126701944D01*
X122318156Y-126698217D01*
X122240728Y-126603338D01*
X122049575Y-126395646D01*
X121754257Y-126084920D01*
X121364334Y-125680939D01*
X120889362Y-125193484D01*
X120338902Y-124632333D01*
X119722513Y-124007267D01*
X119049753Y-123328064D01*
X118330181Y-122604504D01*
X117573356Y-121846367D01*
X117467485Y-121740477D01*
X116715010Y-120985921D01*
X116001124Y-120266739D01*
X115335397Y-119592768D01*
X114727394Y-118973842D01*
X114186683Y-118419797D01*
X113722829Y-117940468D01*
X113345401Y-117545692D01*
X113063965Y-117245304D01*
X112888087Y-117049139D01*
X112827336Y-116967033D01*
X112875180Y-116894973D01*
X113036331Y-116708447D01*
X113299249Y-116422701D01*
X113651604Y-116050614D01*
X114081066Y-115605071D01*
X114575304Y-115098953D01*
X115121990Y-114545142D01*
X115708793Y-113956520D01*
X116244663Y-113420741D01*
X116790901Y-112872797D01*
X117284544Y-112375731D01*
X117713589Y-111941726D01*
X118066031Y-111582963D01*
X118329866Y-111311621D01*
X118461607Y-111173007D01*
X126977509Y-111173007D01*
X126981635Y-111201213D01*
X127050618Y-111220900D01*
X127052936Y-111219764D01*
X127151412Y-111261211D01*
X127330328Y-111401284D01*
X127552677Y-111611214D01*
X127981627Y-112046713D01*
X135325119Y-112046713D01*
X142668611Y-112046713D01*
X143676967Y-111035489D01*
X144685322Y-110024265D01*
X152025014Y-110046735D01*
X159364706Y-110069204D01*
X159385698Y-119209689D01*
X159406690Y-128350173D01*
X156661654Y-131096713D01*
X156242619Y-131516493D01*
X155702821Y-132058872D01*
X155213818Y-132552068D01*
X154787890Y-132983594D01*
X154437320Y-133340964D01*
X154174388Y-133611688D01*
X154011375Y-133783281D01*
X153960562Y-133843253D01*
X153998426Y-133811990D01*
X154148846Y-133670215D01*
X154401425Y-133425457D01*
X154743414Y-133090265D01*
X155162066Y-132677192D01*
X155644633Y-132198788D01*
X156178368Y-131667607D01*
X156750523Y-131096198D01*
X159496540Y-128349143D01*
X159496540Y-119143257D01*
X159496540Y-109937371D01*
X152096328Y-109937371D01*
X144696117Y-109937371D01*
X143672786Y-110948097D01*
X142649455Y-111958824D01*
X135335556Y-111958824D01*
X128021658Y-111958824D01*
X127557008Y-111519378D01*
X127473260Y-111440616D01*
X127225903Y-111218305D01*
X127074366Y-111107694D01*
X126998338Y-111096641D01*
X126977509Y-111173007D01*
X118461607Y-111173007D01*
X118493088Y-111139884D01*
X118543693Y-111079931D01*
X118542544Y-111080324D01*
X118463665Y-111149961D01*
X118273827Y-111331149D01*
X117985204Y-111611904D01*
X117609968Y-111980242D01*
X117160294Y-112424180D01*
X116648353Y-112931734D01*
X116086319Y-113490919D01*
X115486365Y-114089753D01*
X112475595Y-117099574D01*
X112258761Y-117099574D01*
X112328755Y-117004328D01*
X112517844Y-116789231D01*
X112806246Y-116477482D01*
X113182158Y-116081423D01*
X113633779Y-115613396D01*
X114149305Y-115085743D01*
X114716934Y-114510807D01*
X115324864Y-113900930D01*
X118418852Y-110811465D01*
X122826717Y-110835837D01*
X127234582Y-110860208D01*
X127658372Y-111277682D01*
X128082162Y-111695156D01*
X135325549Y-111695156D01*
X142568935Y-111695156D01*
X143592266Y-110684429D01*
X144615597Y-109673703D01*
X152089252Y-109673703D01*
X153428533Y-109674083D01*
X154613897Y-109675343D01*
X155643950Y-109677648D01*
X156528966Y-109681159D01*
X157279219Y-109686041D01*
X157904985Y-109692456D01*
X158416537Y-109700567D01*
X158824151Y-109710539D01*
X159138100Y-109722533D01*
X159368660Y-109736714D01*
X159526105Y-109753244D01*
X159620710Y-109772287D01*
X159662748Y-109794006D01*
X159665987Y-109799543D01*
X159682630Y-109889084D01*
X159697184Y-110083151D01*
X159709701Y-110388220D01*
X159720235Y-110810769D01*
X159728837Y-111357275D01*
X159735562Y-112034214D01*
X159740461Y-112848063D01*
X159743588Y-113805299D01*
X159744995Y-114912400D01*
X159744736Y-116175842D01*
X159742862Y-117602103D01*
X159739544Y-119143257D01*
X159739427Y-119197658D01*
G37*
G36*
X162177163Y-102247059D02*
G01*
X162177163Y-142148789D01*
X153228342Y-142171179D01*
X144279521Y-142193568D01*
X143772299Y-141709760D01*
X143265076Y-141225952D01*
X134481093Y-141225952D01*
X125697110Y-141225952D01*
X125219723Y-141709343D01*
X124742337Y-142192734D01*
X112662024Y-142192734D01*
X100581711Y-142192734D01*
X100032546Y-142720070D01*
X99483380Y-143247405D01*
X87691003Y-143247405D01*
X75898626Y-143247405D01*
X75350084Y-142720667D01*
X74801541Y-142193930D01*
X68612189Y-142171360D01*
X62422837Y-142148789D01*
X62398871Y-101148443D01*
X62398743Y-100927752D01*
X62397298Y-98253978D01*
X62396077Y-95624391D01*
X62395076Y-93044474D01*
X62394293Y-90519710D01*
X62393724Y-88055582D01*
X62393367Y-85657573D01*
X62393217Y-83331165D01*
X62393273Y-81081842D01*
X62393530Y-78915088D01*
X62393986Y-76836384D01*
X62394637Y-74851214D01*
X62395481Y-72965060D01*
X62396514Y-71183406D01*
X62397733Y-69511735D01*
X62399134Y-67955530D01*
X62400716Y-66520273D01*
X62402474Y-65211449D01*
X62404405Y-64034538D01*
X62406507Y-62995026D01*
X62408776Y-62098393D01*
X62411209Y-61350125D01*
X62413803Y-60755703D01*
X62416555Y-60320611D01*
X62419355Y-60060208D01*
X62598616Y-60060208D01*
X62598616Y-101016609D01*
X62598616Y-141973011D01*
X68798389Y-141995567D01*
X74998162Y-142018124D01*
X75474971Y-142500931D01*
X75951781Y-142983737D01*
X87688001Y-142981966D01*
X99424221Y-142980195D01*
X99921856Y-142498575D01*
X100419490Y-142016955D01*
X112482557Y-142016955D01*
X124545625Y-142016955D01*
X125094790Y-141489620D01*
X125643955Y-140962284D01*
X134442707Y-140962284D01*
X143241458Y-140962284D01*
X143808304Y-141489620D01*
X144375151Y-142016955D01*
X146903585Y-142016955D01*
X149432019Y-142016955D01*
X147016263Y-139600000D01*
X144600507Y-137183045D01*
X139674804Y-137183045D01*
X134749101Y-137183045D01*
X134316263Y-137622492D01*
X133883424Y-138061938D01*
X130986816Y-138061938D01*
X128090207Y-138061938D01*
X126892773Y-136875433D01*
X125695338Y-135688928D01*
X124337728Y-135688928D01*
X122980117Y-135688928D01*
X121204677Y-137462783D01*
X121118946Y-137548317D01*
X120662779Y-137999311D01*
X120245783Y-138404899D01*
X119884831Y-138749150D01*
X119596794Y-139016134D01*
X119398542Y-139189923D01*
X119306949Y-139254586D01*
X119300014Y-139255547D01*
X119216239Y-139247918D01*
X119202073Y-139188332D01*
X119265791Y-139066932D01*
X119415671Y-138873862D01*
X119659988Y-138599264D01*
X120007019Y-138233280D01*
X120465041Y-137766054D01*
X121042331Y-137187727D01*
X122900002Y-135337371D01*
X124346724Y-135337371D01*
X125793446Y-135337371D01*
X126977509Y-136523876D01*
X128161572Y-137710381D01*
X130928286Y-137710381D01*
X133695000Y-137710381D01*
X134118848Y-137292907D01*
X134542695Y-136875433D01*
X139680304Y-136875433D01*
X144817913Y-136875433D01*
X147390400Y-139446811D01*
X149962886Y-142018188D01*
X155982135Y-141995599D01*
X162001384Y-141973011D01*
X162023453Y-102295495D01*
X162024385Y-100494566D01*
X162025486Y-97892130D01*
X162026275Y-95337809D01*
X162026761Y-92837156D01*
X162026948Y-90395719D01*
X162026845Y-88019050D01*
X162026456Y-85712699D01*
X162025788Y-83482217D01*
X162024848Y-81333154D01*
X162023642Y-79271061D01*
X162022176Y-77301488D01*
X162020457Y-75429986D01*
X162018491Y-73662106D01*
X162016285Y-72003397D01*
X162013844Y-70459411D01*
X162011175Y-69035697D01*
X162008284Y-67737808D01*
X162005179Y-66571292D01*
X162001864Y-65541702D01*
X161998348Y-64654586D01*
X161994635Y-63915496D01*
X161990732Y-63329983D01*
X161986645Y-62903596D01*
X161982382Y-62641887D01*
X161977948Y-62550405D01*
X161939721Y-62539259D01*
X161748549Y-62520354D01*
X161421562Y-62503449D01*
X160984349Y-62489476D01*
X160462502Y-62479367D01*
X159881610Y-62474054D01*
X157852846Y-62465277D01*
X157381328Y-61987829D01*
X156909811Y-61510381D01*
X145390311Y-61510381D01*
X133870812Y-61510381D01*
X133398124Y-61989015D01*
X133350281Y-62037165D01*
X133125787Y-62254871D01*
X132955729Y-62406610D01*
X132873790Y-62461998D01*
X132780930Y-62461330D01*
X132523739Y-62460874D01*
X132113697Y-62460625D01*
X131562275Y-62460578D01*
X130880945Y-62460726D01*
X130081177Y-62461064D01*
X129174442Y-62461586D01*
X128172212Y-62462287D01*
X127085956Y-62463159D01*
X125927146Y-62464199D01*
X124707253Y-62465399D01*
X123437748Y-62466755D01*
X114053352Y-62477163D01*
X113486505Y-63004499D01*
X112919659Y-63531834D01*
X105483191Y-63531834D01*
X98046723Y-63531834D01*
X97497558Y-63004499D01*
X97453029Y-62961892D01*
X97179161Y-62712707D01*
X96977335Y-62565353D01*
X96806666Y-62495086D01*
X96626272Y-62477163D01*
X96573529Y-62478041D01*
X96381725Y-62499982D01*
X96304152Y-62542189D01*
X96343407Y-62595975D01*
X96491636Y-62760711D01*
X96734450Y-63017725D01*
X97055136Y-63349588D01*
X97436980Y-63738869D01*
X97863271Y-64168140D01*
X99422390Y-65729066D01*
X104423170Y-65729066D01*
X109423950Y-65729066D01*
X110630104Y-66915571D01*
X111836257Y-68102076D01*
X113314857Y-68102076D01*
X114793458Y-68102076D01*
X116296443Y-66607959D01*
X116589043Y-66319088D01*
X116989294Y-65930789D01*
X117339544Y-65599018D01*
X117621377Y-65340873D01*
X117816373Y-65173448D01*
X117906116Y-65113841D01*
X117942276Y-65116376D01*
X117996318Y-65152275D01*
X117978945Y-65239700D01*
X117880778Y-65390197D01*
X117692435Y-65615312D01*
X117404540Y-65926591D01*
X117007710Y-66335579D01*
X116492568Y-66853821D01*
X114972334Y-68372193D01*
X113298461Y-68362100D01*
X111624588Y-68352007D01*
X110491417Y-67216315D01*
X109358246Y-66080623D01*
X104352068Y-66080623D01*
X99345891Y-66080623D01*
X97536699Y-64278893D01*
X95727507Y-62477163D01*
X83147240Y-62477163D01*
X81841490Y-62476876D01*
X80407879Y-62475884D01*
X79030281Y-62474223D01*
X77718676Y-62471936D01*
X76483044Y-62469064D01*
X75333366Y-62465649D01*
X74279623Y-62461734D01*
X73331795Y-62457359D01*
X72499862Y-62452567D01*
X71793806Y-62447400D01*
X71223606Y-62441900D01*
X70799243Y-62436107D01*
X70530697Y-62430065D01*
X70427949Y-62423815D01*
X70413266Y-62417092D01*
X70360258Y-62359257D01*
X70324413Y-62235264D01*
X70302637Y-62017722D01*
X70291839Y-61679244D01*
X70288927Y-61192442D01*
X70288927Y-60014416D01*
X66443772Y-60037312D01*
X62598616Y-60060208D01*
X62419355Y-60060208D01*
X62419461Y-60050331D01*
X62422518Y-59950346D01*
X62470131Y-59752596D01*
X66458015Y-59752596D01*
X66775019Y-59752640D01*
X67671386Y-59753525D01*
X68411575Y-59755934D01*
X69010492Y-59760380D01*
X69483039Y-59767377D01*
X69844123Y-59777436D01*
X70108647Y-59791070D01*
X70291517Y-59808793D01*
X70407637Y-59831117D01*
X70471913Y-59858554D01*
X70499247Y-59891618D01*
X70501776Y-59899477D01*
X70521605Y-60055033D01*
X70537753Y-60343505D01*
X70548617Y-60726597D01*
X70552595Y-61166012D01*
X70552595Y-62301384D01*
X83186678Y-62306007D01*
X84451835Y-62306482D01*
X85906568Y-62307062D01*
X87311756Y-62307655D01*
X88656879Y-62308258D01*
X89931419Y-62308862D01*
X91124855Y-62309464D01*
X92226668Y-62310056D01*
X93226339Y-62310634D01*
X94113348Y-62311190D01*
X94877176Y-62311720D01*
X95507303Y-62312217D01*
X95993211Y-62312675D01*
X96324378Y-62313089D01*
X96490286Y-62313453D01*
X97159812Y-62316276D01*
X97629845Y-62792221D01*
X98099878Y-63268166D01*
X105521577Y-63268166D01*
X112943277Y-63268166D01*
X113450062Y-62784775D01*
X113956847Y-62301384D01*
X123338087Y-62301384D01*
X132719327Y-62301384D01*
X133268492Y-61774049D01*
X133817658Y-61246713D01*
X145390311Y-61246713D01*
X156962965Y-61246713D01*
X157510402Y-61772389D01*
X158057839Y-62298065D01*
X160117501Y-62321697D01*
X162177163Y-62345329D01*
X162177163Y-90395719D01*
X162177163Y-102247059D01*
G37*
G36*
X93927627Y-65537811D02*
G01*
X93843253Y-65642333D01*
X93783332Y-65651702D01*
X93552651Y-65663987D01*
X93155534Y-65675326D01*
X92597420Y-65685675D01*
X91883748Y-65694993D01*
X91019958Y-65703235D01*
X90011489Y-65710360D01*
X88863781Y-65716324D01*
X87582272Y-65721085D01*
X86172403Y-65724600D01*
X84639612Y-65726826D01*
X82989339Y-65727720D01*
X72267260Y-65729066D01*
X68817194Y-69178303D01*
X65367128Y-72627540D01*
X65367128Y-84119479D01*
X65367166Y-84526083D01*
X65367873Y-85918960D01*
X65369436Y-87259542D01*
X65371800Y-88537537D01*
X65374911Y-89742656D01*
X65378715Y-90864610D01*
X65383157Y-91893106D01*
X65388183Y-92817856D01*
X65393740Y-93628569D01*
X65399773Y-94314954D01*
X65406227Y-94866722D01*
X65413050Y-95273582D01*
X65420187Y-95525245D01*
X65427583Y-95611419D01*
X65432493Y-95610072D01*
X65530777Y-95535491D01*
X65724237Y-95363506D01*
X65987361Y-95117389D01*
X66294637Y-94820416D01*
X67101236Y-94029412D01*
X73330019Y-94029412D01*
X79558802Y-94029412D01*
X80681864Y-92908824D01*
X81799728Y-91793423D01*
X98325605Y-91793423D01*
X98326461Y-91805709D01*
X98377337Y-91825064D01*
X98465832Y-91730711D01*
X98487217Y-91681595D01*
X98427074Y-91691954D01*
X98388031Y-91719084D01*
X98325605Y-91793423D01*
X81799728Y-91793423D01*
X81804926Y-91788236D01*
X89955404Y-91761550D01*
X98105882Y-91734864D01*
X98247694Y-91529755D01*
X98501384Y-91529755D01*
X98502240Y-91542041D01*
X98553115Y-91561397D01*
X98641611Y-91467044D01*
X98662995Y-91417927D01*
X98602853Y-91428286D01*
X98563810Y-91455417D01*
X98501384Y-91529755D01*
X98247694Y-91529755D01*
X98403196Y-91304845D01*
X98709138Y-91304845D01*
X98718152Y-91301696D01*
X98807582Y-91213256D01*
X98940830Y-91041177D01*
X98973700Y-90994020D01*
X99068595Y-90839744D01*
X99084634Y-90777509D01*
X99075620Y-90780657D01*
X98986189Y-90869098D01*
X98852941Y-91041177D01*
X98820072Y-91088333D01*
X98725176Y-91242610D01*
X98709138Y-91304845D01*
X98403196Y-91304845D01*
X98855359Y-90650862D01*
X99116609Y-90650862D01*
X99117464Y-90663149D01*
X99168340Y-90682504D01*
X99256836Y-90588151D01*
X99278220Y-90539034D01*
X99218078Y-90549393D01*
X99179035Y-90576524D01*
X99116609Y-90650862D01*
X98855359Y-90650862D01*
X99010861Y-90425952D01*
X99324363Y-90425952D01*
X99333377Y-90422803D01*
X99422807Y-90334363D01*
X99556055Y-90162284D01*
X99588925Y-90115128D01*
X99683820Y-89960851D01*
X99699859Y-89898616D01*
X99690845Y-89901765D01*
X99601414Y-89990205D01*
X99468166Y-90162284D01*
X99435297Y-90209441D01*
X99340401Y-90363717D01*
X99324363Y-90425952D01*
X99010861Y-90425952D01*
X99463024Y-89771969D01*
X99731834Y-89771969D01*
X99732689Y-89784256D01*
X99783565Y-89803611D01*
X99872060Y-89709258D01*
X99893445Y-89660142D01*
X99833303Y-89670500D01*
X99794260Y-89697631D01*
X99731834Y-89771969D01*
X99463024Y-89771969D01*
X99645324Y-89508301D01*
X99907612Y-89508301D01*
X99908468Y-89520588D01*
X99959344Y-89539943D01*
X100047839Y-89445590D01*
X100069224Y-89396474D01*
X100009081Y-89406833D01*
X99970038Y-89433963D01*
X99907612Y-89508301D01*
X99645324Y-89508301D01*
X99800826Y-89283391D01*
X100115366Y-89283391D01*
X100124380Y-89280243D01*
X100213811Y-89191802D01*
X100347059Y-89019724D01*
X100379928Y-88972567D01*
X100474824Y-88818291D01*
X100490862Y-88756056D01*
X100481848Y-88759204D01*
X100392418Y-88847645D01*
X100259170Y-89019724D01*
X100226300Y-89066880D01*
X100131405Y-89221157D01*
X100115366Y-89283391D01*
X99800826Y-89283391D01*
X100252988Y-88629409D01*
X100522837Y-88629409D01*
X100523693Y-88641695D01*
X100574569Y-88661051D01*
X100663064Y-88566698D01*
X100684448Y-88517581D01*
X100624306Y-88527940D01*
X100585263Y-88555071D01*
X100522837Y-88629409D01*
X100252988Y-88629409D01*
X100435287Y-88365741D01*
X100698616Y-88365741D01*
X100699471Y-88378028D01*
X100750347Y-88397383D01*
X100838842Y-88303030D01*
X100860227Y-88253913D01*
X100800085Y-88264272D01*
X100761042Y-88291403D01*
X100698616Y-88365741D01*
X100435287Y-88365741D01*
X100551070Y-88198279D01*
X100583927Y-88150760D01*
X100590801Y-88140831D01*
X100906370Y-88140831D01*
X100915384Y-88137682D01*
X101004814Y-88049242D01*
X101138062Y-87877163D01*
X101170932Y-87830007D01*
X101265827Y-87675730D01*
X101281866Y-87613495D01*
X101272852Y-87616644D01*
X101183421Y-87705084D01*
X101050173Y-87877163D01*
X101017304Y-87924319D01*
X100922408Y-88078596D01*
X100906370Y-88140831D01*
X100590801Y-88140831D01*
X101043551Y-87486848D01*
X101313841Y-87486848D01*
X101314696Y-87499135D01*
X101365572Y-87518490D01*
X101454067Y-87424137D01*
X101475452Y-87375020D01*
X101415310Y-87385379D01*
X101376267Y-87412510D01*
X101313841Y-87486848D01*
X101043551Y-87486848D01*
X101139790Y-87347834D01*
X101199513Y-87261938D01*
X101521594Y-87261938D01*
X101530609Y-87258790D01*
X101620039Y-87170349D01*
X101753287Y-86998270D01*
X101786157Y-86951114D01*
X101881052Y-86796837D01*
X101897091Y-86734602D01*
X101888076Y-86737751D01*
X101798646Y-86826191D01*
X101665398Y-86998270D01*
X101632528Y-87045427D01*
X101537633Y-87199703D01*
X101521594Y-87261938D01*
X101199513Y-87261938D01*
X101605930Y-86677412D01*
X101654626Y-86607955D01*
X101929066Y-86607955D01*
X101929921Y-86620242D01*
X101980797Y-86639597D01*
X102069292Y-86545244D01*
X102090677Y-86496128D01*
X102030535Y-86506487D01*
X101991492Y-86533617D01*
X101929066Y-86607955D01*
X101654626Y-86607955D01*
X101839484Y-86344288D01*
X102104844Y-86344288D01*
X102105700Y-86356574D01*
X102156576Y-86375929D01*
X102245071Y-86281576D01*
X102266455Y-86232460D01*
X102206313Y-86242819D01*
X102167270Y-86269949D01*
X102104844Y-86344288D01*
X101839484Y-86344288D01*
X101991415Y-86127585D01*
X101997255Y-86119378D01*
X102312598Y-86119378D01*
X102321612Y-86116229D01*
X102411043Y-86027789D01*
X102544291Y-85855710D01*
X102577160Y-85808553D01*
X102672056Y-85654277D01*
X102688094Y-85592042D01*
X102679080Y-85595190D01*
X102589649Y-85683631D01*
X102456401Y-85855710D01*
X102423532Y-85902866D01*
X102328636Y-86057143D01*
X102312598Y-86119378D01*
X101997255Y-86119378D01*
X102305316Y-85686448D01*
X102466687Y-85465395D01*
X102720069Y-85465395D01*
X102720925Y-85477682D01*
X102771801Y-85497037D01*
X102860296Y-85402684D01*
X102881680Y-85353567D01*
X102821538Y-85363926D01*
X102782495Y-85391057D01*
X102720069Y-85465395D01*
X102466687Y-85465395D01*
X102556700Y-85342092D01*
X102663773Y-85201727D01*
X102895848Y-85201727D01*
X102896703Y-85214014D01*
X102947579Y-85233369D01*
X103036074Y-85139016D01*
X103057459Y-85089899D01*
X102997317Y-85100258D01*
X102958274Y-85127389D01*
X102895848Y-85201727D01*
X102663773Y-85201727D01*
X102754637Y-85082612D01*
X102877921Y-84932872D01*
X103071626Y-84932872D01*
X103115571Y-84976817D01*
X103159516Y-84932872D01*
X103115571Y-84888928D01*
X103071626Y-84932872D01*
X102877921Y-84932872D01*
X102908196Y-84896100D01*
X103026445Y-84770650D01*
X103118453Y-84694353D01*
X103193290Y-84655305D01*
X103260025Y-84641597D01*
X103353610Y-84637437D01*
X103480896Y-84669054D01*
X103495460Y-84779137D01*
X103494774Y-84782250D01*
X103431454Y-84907404D01*
X103415796Y-84932872D01*
X103319257Y-85089899D01*
X103278975Y-85155421D01*
X103150340Y-85353567D01*
X103049086Y-85509535D01*
X102994096Y-85592042D01*
X102753534Y-85952983D01*
X102564262Y-86232460D01*
X102404070Y-86468998D01*
X102385489Y-86496128D01*
X102222162Y-86734602D01*
X102012440Y-87040818D01*
X101781537Y-87375020D01*
X101616773Y-87613495D01*
X101590393Y-87651676D01*
X101171185Y-88253913D01*
X101149679Y-88284808D01*
X100986524Y-88517581D01*
X100819373Y-88756056D01*
X100702044Y-88923449D01*
X100368185Y-89396474D01*
X100259238Y-89550834D01*
X100181505Y-89660142D01*
X100011918Y-89898616D01*
X99833009Y-90150200D01*
X99554026Y-90539034D01*
X99435105Y-90704780D01*
X99382320Y-90777509D01*
X99077275Y-91197810D01*
X98914856Y-91417927D01*
X98771267Y-91612526D01*
X98718880Y-91681595D01*
X98528830Y-91932162D01*
X98451281Y-92028585D01*
X98361712Y-92139953D01*
X98281661Y-92219136D01*
X98279992Y-92219539D01*
X98158870Y-92226879D01*
X97875357Y-92233915D01*
X97442154Y-92240568D01*
X96871964Y-92246758D01*
X96177488Y-92252405D01*
X95371430Y-92257430D01*
X94466492Y-92261753D01*
X93475375Y-92265294D01*
X92410781Y-92267973D01*
X91285414Y-92269710D01*
X90111975Y-92270427D01*
X82118068Y-92271627D01*
X80964203Y-93414187D01*
X79810337Y-94556748D01*
X77311132Y-94556748D01*
X74811927Y-94556748D01*
X73936332Y-95435640D01*
X73060737Y-96314533D01*
X76790366Y-96314533D01*
X80519994Y-96314533D01*
X81673859Y-95171973D01*
X82827725Y-94029412D01*
X89671682Y-94029412D01*
X96515639Y-94029412D01*
X98631422Y-96138755D01*
X100747204Y-98248097D01*
X103733118Y-98245163D01*
X106719031Y-98242229D01*
X106836934Y-98072319D01*
X107146508Y-98072319D01*
X107155522Y-98069170D01*
X107244953Y-97980730D01*
X107378201Y-97808651D01*
X107411070Y-97761494D01*
X107505966Y-97607218D01*
X107522004Y-97544983D01*
X107512990Y-97548131D01*
X107423559Y-97636572D01*
X107290311Y-97808651D01*
X107257442Y-97855807D01*
X107162546Y-98010084D01*
X107146508Y-98072319D01*
X106836934Y-98072319D01*
X107290741Y-97418336D01*
X107553979Y-97418336D01*
X107554835Y-97430623D01*
X107605711Y-97449978D01*
X107694206Y-97355625D01*
X107715590Y-97306508D01*
X107655448Y-97316867D01*
X107616405Y-97343998D01*
X107553979Y-97418336D01*
X107290741Y-97418336D01*
X107473704Y-97154668D01*
X107729758Y-97154668D01*
X107730613Y-97166955D01*
X107781489Y-97186310D01*
X107869984Y-97091957D01*
X107891369Y-97042840D01*
X107831227Y-97053199D01*
X107792184Y-97080330D01*
X107729758Y-97154668D01*
X107473704Y-97154668D01*
X107629772Y-96929758D01*
X107937511Y-96929758D01*
X107946526Y-96926610D01*
X108035956Y-96838169D01*
X108169204Y-96666090D01*
X108202074Y-96618934D01*
X108296969Y-96464657D01*
X108313008Y-96402422D01*
X108303993Y-96405571D01*
X108214563Y-96494011D01*
X108081315Y-96666090D01*
X108048445Y-96713247D01*
X107953550Y-96867523D01*
X107937511Y-96929758D01*
X107629772Y-96929758D01*
X108083579Y-96275776D01*
X108344983Y-96275776D01*
X108345838Y-96288062D01*
X108396714Y-96307417D01*
X108485209Y-96213064D01*
X108506594Y-96163948D01*
X108446452Y-96174307D01*
X108407409Y-96201437D01*
X108344983Y-96275776D01*
X108083579Y-96275776D01*
X108239648Y-96050865D01*
X108552736Y-96050865D01*
X108561750Y-96047717D01*
X108651181Y-95959276D01*
X108784429Y-95787198D01*
X108817298Y-95740041D01*
X108912194Y-95585765D01*
X108928232Y-95523530D01*
X108919218Y-95526678D01*
X108829788Y-95615119D01*
X108696540Y-95787198D01*
X108663670Y-95834354D01*
X108568775Y-95988631D01*
X108552736Y-96050865D01*
X108239648Y-96050865D01*
X108693455Y-95396883D01*
X108960208Y-95396883D01*
X108961063Y-95409170D01*
X109011939Y-95428525D01*
X109100434Y-95334172D01*
X109121819Y-95285055D01*
X109061676Y-95295414D01*
X109022634Y-95322545D01*
X108960208Y-95396883D01*
X108693455Y-95396883D01*
X108876418Y-95133215D01*
X109135986Y-95133215D01*
X109136842Y-95145502D01*
X109187718Y-95164857D01*
X109276213Y-95070504D01*
X109297597Y-95021387D01*
X109237455Y-95031746D01*
X109198412Y-95058877D01*
X109135986Y-95133215D01*
X108876418Y-95133215D01*
X109032486Y-94908305D01*
X109343740Y-94908305D01*
X109352754Y-94905156D01*
X109442184Y-94816716D01*
X109575432Y-94644637D01*
X109608302Y-94597481D01*
X109703197Y-94443204D01*
X109719236Y-94380969D01*
X109710222Y-94384118D01*
X109620791Y-94472558D01*
X109487543Y-94644637D01*
X109454674Y-94691793D01*
X109359778Y-94846070D01*
X109343740Y-94908305D01*
X109032486Y-94908305D01*
X109486293Y-94254322D01*
X109751211Y-94254322D01*
X109752067Y-94266609D01*
X109802942Y-94285964D01*
X109891438Y-94191611D01*
X109912822Y-94142494D01*
X109852680Y-94152853D01*
X109813637Y-94179984D01*
X109751211Y-94254322D01*
X109486293Y-94254322D01*
X109669256Y-93990654D01*
X109926990Y-93990654D01*
X109927845Y-94002941D01*
X109978721Y-94022296D01*
X110067216Y-93927943D01*
X110088601Y-93878827D01*
X110028458Y-93889186D01*
X109989416Y-93916316D01*
X109926990Y-93990654D01*
X109669256Y-93990654D01*
X109825324Y-93765744D01*
X110134743Y-93765744D01*
X110143757Y-93762596D01*
X110233188Y-93674155D01*
X110366436Y-93502076D01*
X110399305Y-93454920D01*
X110494201Y-93300643D01*
X110510239Y-93238409D01*
X110501225Y-93241557D01*
X110411795Y-93329998D01*
X110278547Y-93502076D01*
X110245677Y-93549233D01*
X110150782Y-93703509D01*
X110134743Y-93765744D01*
X109825324Y-93765744D01*
X110279131Y-93111762D01*
X110542214Y-93111762D01*
X110543070Y-93124048D01*
X110593946Y-93143404D01*
X110682441Y-93049050D01*
X110703826Y-92999934D01*
X110643683Y-93010293D01*
X110604640Y-93037424D01*
X110542214Y-93111762D01*
X110279131Y-93111762D01*
X110435199Y-92886852D01*
X110749968Y-92886852D01*
X110758982Y-92883703D01*
X110848413Y-92795263D01*
X110981661Y-92623184D01*
X111014530Y-92576027D01*
X111109426Y-92421751D01*
X111125464Y-92359516D01*
X111116450Y-92362664D01*
X111027020Y-92451105D01*
X110893772Y-92623184D01*
X110860902Y-92670340D01*
X110766007Y-92824617D01*
X110749968Y-92886852D01*
X110435199Y-92886852D01*
X110889006Y-92232869D01*
X111157439Y-92232869D01*
X111158295Y-92245156D01*
X111209171Y-92264511D01*
X111297666Y-92170158D01*
X111319051Y-92121041D01*
X111258908Y-92131400D01*
X111219865Y-92158531D01*
X111157439Y-92232869D01*
X110889006Y-92232869D01*
X111071969Y-91969201D01*
X111333218Y-91969201D01*
X111334073Y-91981488D01*
X111384949Y-92000843D01*
X111473445Y-91906490D01*
X111494829Y-91857373D01*
X111434687Y-91867732D01*
X111395644Y-91894863D01*
X111333218Y-91969201D01*
X111071969Y-91969201D01*
X111228037Y-91744291D01*
X111540972Y-91744291D01*
X111549986Y-91741143D01*
X111639416Y-91652702D01*
X111772664Y-91480623D01*
X111805534Y-91433467D01*
X111900429Y-91279190D01*
X111916468Y-91216955D01*
X111907454Y-91220104D01*
X111818023Y-91308544D01*
X111684775Y-91480623D01*
X111651906Y-91527780D01*
X111557010Y-91682056D01*
X111540972Y-91744291D01*
X111228037Y-91744291D01*
X111681844Y-91090308D01*
X111948443Y-91090308D01*
X111949298Y-91102595D01*
X112000174Y-91121950D01*
X112088669Y-91027597D01*
X112110054Y-90978481D01*
X112049912Y-90988839D01*
X112010869Y-91015970D01*
X111948443Y-91090308D01*
X111681844Y-91090308D01*
X111864806Y-90826641D01*
X112124221Y-90826641D01*
X112125077Y-90838927D01*
X112175953Y-90858282D01*
X112264448Y-90763929D01*
X112285833Y-90714813D01*
X112225690Y-90725172D01*
X112186647Y-90752302D01*
X112124221Y-90826641D01*
X111864806Y-90826641D01*
X112020875Y-90601730D01*
X112331975Y-90601730D01*
X112340989Y-90598582D01*
X112430420Y-90510142D01*
X112563668Y-90338063D01*
X112596537Y-90290906D01*
X112691433Y-90136630D01*
X112707471Y-90074395D01*
X112698457Y-90077543D01*
X112609027Y-90165984D01*
X112475779Y-90338063D01*
X112442909Y-90385219D01*
X112348014Y-90539496D01*
X112331975Y-90601730D01*
X112020875Y-90601730D01*
X112474681Y-89947748D01*
X112739446Y-89947748D01*
X112740302Y-89960035D01*
X112791178Y-89979390D01*
X112879673Y-89885037D01*
X112901057Y-89835920D01*
X112840915Y-89846279D01*
X112801872Y-89873410D01*
X112739446Y-89947748D01*
X112474681Y-89947748D01*
X112630749Y-89722838D01*
X112947200Y-89722838D01*
X112956214Y-89719689D01*
X113045645Y-89631249D01*
X113178893Y-89459170D01*
X113211762Y-89412013D01*
X113306658Y-89257737D01*
X113322696Y-89195502D01*
X113313682Y-89198651D01*
X113224251Y-89287091D01*
X113091003Y-89459170D01*
X113058134Y-89506326D01*
X112963238Y-89660603D01*
X112947200Y-89722838D01*
X112630749Y-89722838D01*
X113084556Y-89068855D01*
X113354671Y-89068855D01*
X113355527Y-89081142D01*
X113406403Y-89100497D01*
X113494898Y-89006144D01*
X113516282Y-88957027D01*
X113456140Y-88967386D01*
X113417097Y-88994517D01*
X113354671Y-89068855D01*
X113084556Y-89068855D01*
X113267519Y-88805187D01*
X113530450Y-88805187D01*
X113531305Y-88817474D01*
X113582181Y-88836829D01*
X113670676Y-88742476D01*
X113692061Y-88693360D01*
X113631919Y-88703718D01*
X113592876Y-88730849D01*
X113530450Y-88805187D01*
X113267519Y-88805187D01*
X113423587Y-88580277D01*
X113738203Y-88580277D01*
X113747218Y-88577129D01*
X113836648Y-88488688D01*
X113969896Y-88316609D01*
X114002766Y-88269453D01*
X114097661Y-88115176D01*
X114113700Y-88052942D01*
X114104685Y-88056090D01*
X114015255Y-88144530D01*
X113882007Y-88316609D01*
X113849137Y-88363766D01*
X113754242Y-88518042D01*
X113738203Y-88580277D01*
X113423587Y-88580277D01*
X113877393Y-87926295D01*
X114145675Y-87926295D01*
X114146530Y-87938581D01*
X114197406Y-87957936D01*
X114285901Y-87863583D01*
X114307286Y-87814467D01*
X114247144Y-87824826D01*
X114208101Y-87851956D01*
X114145675Y-87926295D01*
X113877393Y-87926295D01*
X114060356Y-87662627D01*
X114321453Y-87662627D01*
X114322309Y-87674913D01*
X114373185Y-87694269D01*
X114461680Y-87599916D01*
X114483064Y-87550799D01*
X114422922Y-87561158D01*
X114383879Y-87588289D01*
X114321453Y-87662627D01*
X114060356Y-87662627D01*
X114216424Y-87437717D01*
X114529207Y-87437717D01*
X114538221Y-87434568D01*
X114627652Y-87346128D01*
X114760900Y-87174049D01*
X114793769Y-87126892D01*
X114888665Y-86972616D01*
X114904703Y-86910381D01*
X114895689Y-86913529D01*
X114806258Y-87001970D01*
X114673010Y-87174049D01*
X114640141Y-87221205D01*
X114545245Y-87375482D01*
X114529207Y-87437717D01*
X114216424Y-87437717D01*
X114670231Y-86783734D01*
X114936678Y-86783734D01*
X114937534Y-86796021D01*
X114988410Y-86815376D01*
X115076905Y-86721023D01*
X115098289Y-86671906D01*
X115038147Y-86682265D01*
X114999104Y-86709396D01*
X114936678Y-86783734D01*
X114670231Y-86783734D01*
X114826299Y-86558824D01*
X115144432Y-86558824D01*
X115153446Y-86555675D01*
X115242876Y-86467235D01*
X115376125Y-86295156D01*
X115408994Y-86248000D01*
X115503889Y-86093723D01*
X115519928Y-86031488D01*
X115510914Y-86034637D01*
X115421483Y-86123077D01*
X115288235Y-86295156D01*
X115255366Y-86342313D01*
X115160470Y-86496589D01*
X115144432Y-86558824D01*
X114826299Y-86558824D01*
X115280106Y-85904841D01*
X115551903Y-85904841D01*
X115552759Y-85917128D01*
X115603635Y-85936483D01*
X115692130Y-85842130D01*
X115713514Y-85793013D01*
X115653372Y-85803372D01*
X115614329Y-85830503D01*
X115551903Y-85904841D01*
X115280106Y-85904841D01*
X115463069Y-85641173D01*
X115727682Y-85641173D01*
X115728537Y-85653460D01*
X115779413Y-85672815D01*
X115867908Y-85578462D01*
X115889293Y-85529346D01*
X115829151Y-85539705D01*
X115790108Y-85566835D01*
X115727682Y-85641173D01*
X115463069Y-85641173D01*
X115619137Y-85416263D01*
X115935435Y-85416263D01*
X115944449Y-85413115D01*
X116033880Y-85324674D01*
X116167128Y-85152596D01*
X116199997Y-85105439D01*
X116294893Y-84951163D01*
X116310931Y-84888928D01*
X116301917Y-84892076D01*
X116212487Y-84980517D01*
X116079239Y-85152596D01*
X116046369Y-85199752D01*
X115951474Y-85354028D01*
X115935435Y-85416263D01*
X115619137Y-85416263D01*
X116072943Y-84762281D01*
X116342907Y-84762281D01*
X116343762Y-84774567D01*
X116394638Y-84793923D01*
X116483133Y-84699569D01*
X116504518Y-84650453D01*
X116444375Y-84660812D01*
X116405332Y-84687943D01*
X116342907Y-84762281D01*
X116072943Y-84762281D01*
X116255906Y-84498613D01*
X116518685Y-84498613D01*
X116519541Y-84510900D01*
X116570417Y-84530255D01*
X116658912Y-84435902D01*
X116680296Y-84386785D01*
X116620154Y-84397144D01*
X116581111Y-84424275D01*
X116518685Y-84498613D01*
X116255906Y-84498613D01*
X116411974Y-84273703D01*
X116726439Y-84273703D01*
X116735453Y-84270554D01*
X116824883Y-84182114D01*
X116958131Y-84010035D01*
X116991001Y-83962878D01*
X117085896Y-83808602D01*
X117101935Y-83746367D01*
X117092921Y-83749516D01*
X117003490Y-83837956D01*
X116870242Y-84010035D01*
X116837373Y-84057191D01*
X116742477Y-84211468D01*
X116726439Y-84273703D01*
X116411974Y-84273703D01*
X116865781Y-83619720D01*
X117133910Y-83619720D01*
X117134766Y-83632007D01*
X117185641Y-83651362D01*
X117274137Y-83557009D01*
X117295521Y-83507892D01*
X117235379Y-83518251D01*
X117196336Y-83545382D01*
X117133910Y-83619720D01*
X116865781Y-83619720D01*
X117021849Y-83394810D01*
X117341664Y-83394810D01*
X117350678Y-83391662D01*
X117440108Y-83303221D01*
X117573356Y-83131142D01*
X117606226Y-83083986D01*
X117701121Y-82929709D01*
X117717160Y-82867474D01*
X117708146Y-82870623D01*
X117618715Y-82959063D01*
X117485467Y-83131142D01*
X117452598Y-83178299D01*
X117357702Y-83332575D01*
X117341664Y-83394810D01*
X117021849Y-83394810D01*
X117394788Y-82857366D01*
X117475689Y-82740827D01*
X117749135Y-82740827D01*
X117749990Y-82753114D01*
X117800866Y-82772469D01*
X117889361Y-82678116D01*
X117910746Y-82629000D01*
X117850604Y-82639359D01*
X117811561Y-82666489D01*
X117749135Y-82740827D01*
X117475689Y-82740827D01*
X117658725Y-82477160D01*
X117924913Y-82477160D01*
X117925769Y-82489446D01*
X117976645Y-82508801D01*
X118065140Y-82414448D01*
X118086525Y-82365332D01*
X118026382Y-82375691D01*
X117987339Y-82402821D01*
X117924913Y-82477160D01*
X117658725Y-82477160D01*
X117814857Y-82252249D01*
X118132667Y-82252249D01*
X118141681Y-82249101D01*
X118231112Y-82160661D01*
X118364360Y-81988582D01*
X118397229Y-81941425D01*
X118492125Y-81787149D01*
X118508163Y-81724914D01*
X118499149Y-81728062D01*
X118409719Y-81816503D01*
X118276471Y-81988582D01*
X118243601Y-82035738D01*
X118148706Y-82190015D01*
X118132667Y-82252249D01*
X117814857Y-82252249D01*
X118268846Y-81598267D01*
X118540138Y-81598267D01*
X118540994Y-81610554D01*
X118591870Y-81629909D01*
X118680365Y-81535556D01*
X118701749Y-81486439D01*
X118641607Y-81496798D01*
X118602564Y-81523929D01*
X118540138Y-81598267D01*
X118268846Y-81598267D01*
X118366719Y-81457279D01*
X118451954Y-81334599D01*
X118715917Y-81334599D01*
X118716772Y-81346886D01*
X118767648Y-81366241D01*
X118856144Y-81271888D01*
X118877528Y-81222771D01*
X118817386Y-81233130D01*
X118778343Y-81260261D01*
X118715917Y-81334599D01*
X118451954Y-81334599D01*
X118608215Y-81109689D01*
X118923671Y-81109689D01*
X118932685Y-81106540D01*
X119022115Y-81018100D01*
X119155363Y-80846021D01*
X119188233Y-80798865D01*
X119283128Y-80644588D01*
X119299167Y-80582353D01*
X119290153Y-80585502D01*
X119200722Y-80673942D01*
X119067474Y-80846021D01*
X119034605Y-80893178D01*
X118939709Y-81047454D01*
X118923671Y-81109689D01*
X118608215Y-81109689D01*
X119062585Y-80455706D01*
X119331142Y-80455706D01*
X119331997Y-80467993D01*
X119382873Y-80487348D01*
X119471368Y-80392995D01*
X119492753Y-80343879D01*
X119432611Y-80354237D01*
X119393568Y-80381368D01*
X119331142Y-80455706D01*
X119062585Y-80455706D01*
X119218847Y-80230796D01*
X119538896Y-80230796D01*
X119547910Y-80227648D01*
X119637340Y-80139207D01*
X119770588Y-79967128D01*
X119803458Y-79919972D01*
X119898353Y-79765695D01*
X119914392Y-79703461D01*
X119905377Y-79706609D01*
X119815947Y-79795049D01*
X119682699Y-79967128D01*
X119649829Y-80014285D01*
X119554934Y-80168561D01*
X119538896Y-80230796D01*
X119218847Y-80230796D01*
X119371039Y-80011743D01*
X119673480Y-79576814D01*
X119946367Y-79576814D01*
X119947222Y-79589100D01*
X119998098Y-79608455D01*
X120086593Y-79514102D01*
X120107978Y-79464986D01*
X120047836Y-79475345D01*
X120008793Y-79502475D01*
X119946367Y-79576814D01*
X119673480Y-79576814D01*
X119856830Y-79313146D01*
X120122145Y-79313146D01*
X120123001Y-79325432D01*
X120173877Y-79344788D01*
X120262372Y-79250435D01*
X120283756Y-79201318D01*
X120223614Y-79211677D01*
X120184571Y-79238808D01*
X120122145Y-79313146D01*
X119856830Y-79313146D01*
X120013228Y-79088236D01*
X120329899Y-79088236D01*
X120338913Y-79085087D01*
X120428344Y-78996647D01*
X120561592Y-78824568D01*
X120594461Y-78777411D01*
X120689357Y-78623135D01*
X120705395Y-78560900D01*
X120696381Y-78564048D01*
X120606950Y-78652489D01*
X120473702Y-78824568D01*
X120440833Y-78871724D01*
X120345937Y-79026001D01*
X120329899Y-79088236D01*
X120013228Y-79088236D01*
X120345380Y-78610580D01*
X120468105Y-78434253D01*
X120737370Y-78434253D01*
X120738226Y-78446540D01*
X120789102Y-78465895D01*
X120877597Y-78371542D01*
X120898981Y-78322425D01*
X120838839Y-78332784D01*
X120799796Y-78359915D01*
X120737370Y-78434253D01*
X120468105Y-78434253D01*
X120651619Y-78170585D01*
X120913149Y-78170585D01*
X120914004Y-78182872D01*
X120964880Y-78202227D01*
X121053375Y-78107874D01*
X121074760Y-78058757D01*
X121014618Y-78069116D01*
X120975575Y-78096247D01*
X120913149Y-78170585D01*
X120651619Y-78170585D01*
X120808158Y-77945675D01*
X121120902Y-77945675D01*
X121129917Y-77942527D01*
X121219347Y-77854086D01*
X121352595Y-77682007D01*
X121385465Y-77634851D01*
X121480360Y-77480574D01*
X121496399Y-77418339D01*
X121487384Y-77421488D01*
X121397954Y-77509928D01*
X121264706Y-77682007D01*
X121231836Y-77729164D01*
X121136941Y-77883440D01*
X121120902Y-77945675D01*
X120808158Y-77945675D01*
X121263334Y-77291692D01*
X121528374Y-77291692D01*
X121529229Y-77303979D01*
X121580105Y-77323334D01*
X121668600Y-77228981D01*
X121689985Y-77179865D01*
X121629843Y-77190224D01*
X121590800Y-77217354D01*
X121528374Y-77291692D01*
X121263334Y-77291692D01*
X121285069Y-77260464D01*
X121420001Y-77066782D01*
X121736127Y-77066782D01*
X121745141Y-77063634D01*
X121834572Y-76975193D01*
X121967820Y-76803115D01*
X122000689Y-76755958D01*
X122095585Y-76601682D01*
X122111623Y-76539447D01*
X122102609Y-76542595D01*
X122013179Y-76631036D01*
X121879931Y-76803115D01*
X121847061Y-76850271D01*
X121752166Y-77004548D01*
X121736127Y-77066782D01*
X121420001Y-77066782D01*
X121875607Y-76412800D01*
X122143599Y-76412800D01*
X122144454Y-76425086D01*
X122195330Y-76444442D01*
X122283825Y-76350089D01*
X122305210Y-76300972D01*
X122245067Y-76311331D01*
X122206025Y-76338462D01*
X122143599Y-76412800D01*
X121875607Y-76412800D01*
X122059295Y-76149132D01*
X122319377Y-76149132D01*
X122320233Y-76161419D01*
X122371109Y-76180774D01*
X122459604Y-76086421D01*
X122480988Y-76037304D01*
X122420846Y-76047663D01*
X122381803Y-76074794D01*
X122319377Y-76149132D01*
X122059295Y-76149132D01*
X122185433Y-75968073D01*
X122216013Y-75924222D01*
X122527131Y-75924222D01*
X122536145Y-75921073D01*
X122625575Y-75832633D01*
X122758823Y-75660554D01*
X122791693Y-75613398D01*
X122886588Y-75459121D01*
X122902627Y-75396886D01*
X122893613Y-75400035D01*
X122804182Y-75488475D01*
X122670934Y-75660554D01*
X122638065Y-75707710D01*
X122543169Y-75861987D01*
X122527131Y-75924222D01*
X122216013Y-75924222D01*
X122672081Y-75270239D01*
X122934602Y-75270239D01*
X122935458Y-75282526D01*
X122986333Y-75301881D01*
X123074829Y-75207528D01*
X123096213Y-75158411D01*
X123036071Y-75168770D01*
X122997028Y-75195901D01*
X122934602Y-75270239D01*
X122672081Y-75270239D01*
X122855956Y-75006571D01*
X123110381Y-75006571D01*
X123111236Y-75018858D01*
X123162112Y-75038213D01*
X123250607Y-74943860D01*
X123271992Y-74894744D01*
X123211849Y-74905102D01*
X123172807Y-74932233D01*
X123110381Y-75006571D01*
X122855956Y-75006571D01*
X123012801Y-74781661D01*
X123318134Y-74781661D01*
X123327148Y-74778513D01*
X123416579Y-74690072D01*
X123549827Y-74517993D01*
X123582696Y-74470837D01*
X123677592Y-74316560D01*
X123693630Y-74254326D01*
X123684616Y-74257474D01*
X123595186Y-74345915D01*
X123461938Y-74517993D01*
X123429068Y-74565150D01*
X123334173Y-74719426D01*
X123318134Y-74781661D01*
X123012801Y-74781661D01*
X123041798Y-74740081D01*
X123469342Y-74127679D01*
X123725605Y-74127679D01*
X123726461Y-74139965D01*
X123777337Y-74159321D01*
X123865832Y-74064967D01*
X123887217Y-74015851D01*
X123827074Y-74026210D01*
X123788031Y-74053340D01*
X123725605Y-74127679D01*
X123469342Y-74127679D01*
X123626362Y-73902769D01*
X123933359Y-73902769D01*
X123942373Y-73899620D01*
X124031804Y-73811180D01*
X124165052Y-73639101D01*
X124197921Y-73591944D01*
X124292817Y-73437668D01*
X124308855Y-73375433D01*
X124299841Y-73378581D01*
X124210411Y-73467022D01*
X124077163Y-73639101D01*
X124044293Y-73686257D01*
X123949398Y-73840534D01*
X123933359Y-73902769D01*
X123626362Y-73902769D01*
X123849492Y-73583164D01*
X124083226Y-73248786D01*
X124340830Y-73248786D01*
X124341686Y-73261073D01*
X124392562Y-73280428D01*
X124481057Y-73186075D01*
X124502442Y-73136958D01*
X124442299Y-73147317D01*
X124403256Y-73174448D01*
X124340830Y-73248786D01*
X124083226Y-73248786D01*
X124267533Y-72985118D01*
X124516609Y-72985118D01*
X124517464Y-72997405D01*
X124568340Y-73016760D01*
X124656836Y-72922407D01*
X124678220Y-72873290D01*
X124618078Y-72883649D01*
X124579035Y-72910780D01*
X124516609Y-72985118D01*
X124267533Y-72985118D01*
X124424748Y-72760208D01*
X124724363Y-72760208D01*
X124733377Y-72757060D01*
X124822807Y-72668619D01*
X124956055Y-72496540D01*
X124988925Y-72449384D01*
X125083820Y-72295107D01*
X125099859Y-72232872D01*
X125090845Y-72236021D01*
X125001414Y-72324461D01*
X124868166Y-72496540D01*
X124835297Y-72543697D01*
X124740401Y-72697973D01*
X124724363Y-72760208D01*
X124424748Y-72760208D01*
X124603841Y-72503999D01*
X124882288Y-72106225D01*
X125131834Y-72106225D01*
X125132689Y-72118512D01*
X125183565Y-72137867D01*
X125272060Y-72043514D01*
X125293445Y-71994398D01*
X125233303Y-72004756D01*
X125194260Y-72031887D01*
X125131834Y-72106225D01*
X124882288Y-72106225D01*
X125066858Y-71842558D01*
X125307612Y-71842558D01*
X125308468Y-71854844D01*
X125359344Y-71874199D01*
X125447839Y-71779846D01*
X125469224Y-71730730D01*
X125409081Y-71741089D01*
X125370038Y-71768219D01*
X125307612Y-71842558D01*
X125066858Y-71842558D01*
X125224299Y-71617647D01*
X125515366Y-71617647D01*
X125524380Y-71614499D01*
X125613811Y-71526058D01*
X125747059Y-71353980D01*
X125779928Y-71306823D01*
X125874824Y-71152547D01*
X125890862Y-71090312D01*
X125881848Y-71093460D01*
X125792418Y-71181901D01*
X125659170Y-71353980D01*
X125626300Y-71401136D01*
X125531405Y-71555413D01*
X125515366Y-71617647D01*
X125224299Y-71617647D01*
X125300171Y-71509260D01*
X125682747Y-70963665D01*
X125922837Y-70963665D01*
X125923693Y-70975952D01*
X125974569Y-70995307D01*
X126063064Y-70900954D01*
X126084448Y-70851837D01*
X126024306Y-70862196D01*
X125985263Y-70889327D01*
X125922837Y-70963665D01*
X125682747Y-70963665D01*
X125840456Y-70738755D01*
X126130591Y-70738755D01*
X126139605Y-70735606D01*
X126229036Y-70647166D01*
X126362284Y-70475087D01*
X126395153Y-70427930D01*
X126490049Y-70273654D01*
X126506087Y-70211419D01*
X126497073Y-70214567D01*
X126407642Y-70303008D01*
X126274394Y-70475087D01*
X126241525Y-70522243D01*
X126146630Y-70676520D01*
X126130591Y-70738755D01*
X125840456Y-70738755D01*
X125933810Y-70605623D01*
X126299810Y-70084772D01*
X126538062Y-70084772D01*
X126538918Y-70097059D01*
X126589794Y-70116414D01*
X126678289Y-70022061D01*
X126699673Y-69972944D01*
X126639531Y-69983303D01*
X126600488Y-70010434D01*
X126538062Y-70084772D01*
X126299810Y-70084772D01*
X126485088Y-69821104D01*
X126713841Y-69821104D01*
X126714696Y-69833391D01*
X126765572Y-69852746D01*
X126854067Y-69758393D01*
X126875452Y-69709276D01*
X126815310Y-69719635D01*
X126776267Y-69746766D01*
X126713841Y-69821104D01*
X126485088Y-69821104D01*
X126500084Y-69799764D01*
X126643527Y-69596194D01*
X126921594Y-69596194D01*
X126930609Y-69593046D01*
X127020039Y-69504605D01*
X127153287Y-69332526D01*
X127186157Y-69285370D01*
X127281052Y-69131093D01*
X127297091Y-69068858D01*
X127288076Y-69072007D01*
X127198646Y-69160447D01*
X127065398Y-69332526D01*
X127032528Y-69379683D01*
X126937633Y-69533959D01*
X126921594Y-69596194D01*
X126643527Y-69596194D01*
X126994320Y-69098359D01*
X127104769Y-68942212D01*
X127329066Y-68942212D01*
X127329921Y-68954498D01*
X127380797Y-68973853D01*
X127469292Y-68879500D01*
X127490677Y-68830384D01*
X127430535Y-68840743D01*
X127391492Y-68867873D01*
X127329066Y-68942212D01*
X127104769Y-68942212D01*
X127291271Y-68678544D01*
X127504844Y-68678544D01*
X127505700Y-68690830D01*
X127556576Y-68710186D01*
X127645071Y-68615832D01*
X127666455Y-68566716D01*
X127606313Y-68577075D01*
X127567270Y-68604206D01*
X127504844Y-68678544D01*
X127291271Y-68678544D01*
X127411845Y-68508083D01*
X127450583Y-68453634D01*
X127712598Y-68453634D01*
X127721612Y-68450485D01*
X127811043Y-68362045D01*
X127944291Y-68189966D01*
X127977160Y-68142809D01*
X128072056Y-67988533D01*
X128088094Y-67926298D01*
X128079080Y-67929446D01*
X127989649Y-68017887D01*
X127856401Y-68189966D01*
X127823532Y-68237122D01*
X127728636Y-68391399D01*
X127712598Y-68453634D01*
X127450583Y-68453634D01*
X127747985Y-68035612D01*
X127998067Y-67687623D01*
X128157417Y-67470789D01*
X128221363Y-67391788D01*
X128236389Y-67387791D01*
X128397788Y-67374681D01*
X128721576Y-67362490D01*
X129197398Y-67351326D01*
X129814898Y-67341299D01*
X130563721Y-67332516D01*
X131433512Y-67325086D01*
X132413915Y-67319118D01*
X133494576Y-67314721D01*
X134665139Y-67312003D01*
X135915249Y-67311073D01*
X143458317Y-67311073D01*
X145302422Y-69156748D01*
X147146527Y-71002422D01*
X150615764Y-71002422D01*
X154085000Y-71002422D01*
X155587986Y-69508305D01*
X157090971Y-68014187D01*
X158320122Y-68014187D01*
X158782620Y-68018420D01*
X159233662Y-68036849D01*
X159522011Y-68070408D01*
X159654740Y-68119654D01*
X159667723Y-68198004D01*
X159672293Y-68277855D01*
X159681711Y-68442409D01*
X159694669Y-68840599D01*
X159706595Y-69380805D01*
X159717490Y-70051256D01*
X159727353Y-70840182D01*
X159736186Y-71735814D01*
X159743987Y-72726382D01*
X159750758Y-73800114D01*
X159756497Y-74945242D01*
X159761205Y-76149995D01*
X159764882Y-77402604D01*
X159767528Y-78691297D01*
X159769142Y-80004306D01*
X159769726Y-81329859D01*
X159769278Y-82656188D01*
X159767799Y-83971522D01*
X159765289Y-85264090D01*
X159761748Y-86522124D01*
X159757176Y-87733853D01*
X159751573Y-88887506D01*
X159744938Y-89971314D01*
X159737272Y-90973507D01*
X159728575Y-91882315D01*
X159718848Y-92685967D01*
X159708088Y-93372694D01*
X159696298Y-93930726D01*
X159683477Y-94348292D01*
X159669624Y-94613623D01*
X159654740Y-94714948D01*
X159646447Y-94721322D01*
X159547471Y-94749887D01*
X159344134Y-94773018D01*
X159024537Y-94791092D01*
X158576782Y-94804490D01*
X157988972Y-94813590D01*
X157249207Y-94818772D01*
X156345591Y-94820416D01*
X153141908Y-94820416D01*
X151762284Y-93458132D01*
X150382660Y-92095848D01*
X137432553Y-92095848D01*
X124482447Y-92095848D01*
X122704861Y-93865747D01*
X122432971Y-94135704D01*
X121922743Y-94635751D01*
X121517184Y-95020474D01*
X121205001Y-95298136D01*
X120974900Y-95476998D01*
X120815591Y-95565325D01*
X120715779Y-95571379D01*
X120664173Y-95503423D01*
X120649481Y-95369720D01*
X120650575Y-95362826D01*
X120726937Y-95245019D01*
X120913492Y-95022295D01*
X121196057Y-94710014D01*
X121560447Y-94323539D01*
X121992477Y-93878231D01*
X122477963Y-93389453D01*
X123996971Y-91876709D01*
X124268173Y-91876709D01*
X124272623Y-91877730D01*
X124397697Y-91882803D01*
X124686968Y-91887704D01*
X125130767Y-91892400D01*
X125719423Y-91896860D01*
X126443268Y-91901050D01*
X127292632Y-91904937D01*
X128257846Y-91908489D01*
X129329240Y-91911673D01*
X130497145Y-91914457D01*
X131751892Y-91916808D01*
X133083812Y-91918693D01*
X134483234Y-91920079D01*
X135940490Y-91920935D01*
X137445911Y-91921226D01*
X150579120Y-91921215D01*
X151894689Y-93238981D01*
X153210259Y-94556748D01*
X156353399Y-94556748D01*
X159496540Y-94556748D01*
X159496540Y-81417301D01*
X159496540Y-68277855D01*
X158291237Y-68277855D01*
X157085934Y-68277855D01*
X155580007Y-69774897D01*
X154074080Y-71271938D01*
X150545858Y-71247042D01*
X147017636Y-71222146D01*
X145148553Y-69354499D01*
X143279470Y-67486852D01*
X135808800Y-67486852D01*
X128338131Y-67486852D01*
X128222244Y-67672416D01*
X128154173Y-67787261D01*
X128170082Y-67808150D01*
X128308547Y-67716361D01*
X128315690Y-67711609D01*
X128368860Y-67686868D01*
X128452338Y-67665266D01*
X128577315Y-67646592D01*
X128754980Y-67630639D01*
X128996523Y-67617197D01*
X129313135Y-67606057D01*
X129716005Y-67597011D01*
X130216323Y-67589848D01*
X130825279Y-67584361D01*
X131554064Y-67580341D01*
X132413867Y-67577577D01*
X133415878Y-67575862D01*
X134571287Y-67574986D01*
X135891284Y-67574741D01*
X143271830Y-67574741D01*
X145168587Y-69464360D01*
X147065344Y-71353980D01*
X150579316Y-71353980D01*
X154093289Y-71353980D01*
X155586437Y-69857939D01*
X157079585Y-68361899D01*
X158222145Y-68385794D01*
X159364706Y-68409689D01*
X159364706Y-81417301D01*
X159364706Y-94424914D01*
X156296138Y-94448042D01*
X153227570Y-94471169D01*
X151898127Y-93151675D01*
X150568685Y-91832180D01*
X137396165Y-91832180D01*
X137046345Y-91832196D01*
X135550795Y-91832619D01*
X134106638Y-91833596D01*
X132723441Y-91835095D01*
X131410773Y-91837082D01*
X130178202Y-91839526D01*
X129035297Y-91842394D01*
X127991624Y-91845654D01*
X127056753Y-91849272D01*
X126240251Y-91853218D01*
X125551688Y-91857457D01*
X125000630Y-91861959D01*
X124596646Y-91866689D01*
X124349304Y-91871617D01*
X124268173Y-91876709D01*
X123996971Y-91876709D01*
X124306444Y-91568512D01*
X137432441Y-91568512D01*
X150558438Y-91568512D01*
X151939277Y-92931996D01*
X153320117Y-94295480D01*
X156254522Y-94272307D01*
X159188927Y-94249135D01*
X159211193Y-81395329D01*
X159233458Y-68541523D01*
X158247585Y-68541523D01*
X157261713Y-68541523D01*
X155758727Y-70035640D01*
X154255741Y-71529758D01*
X150618702Y-71529758D01*
X146981662Y-71529758D01*
X145128187Y-69683580D01*
X143274711Y-67837403D01*
X135860635Y-67859878D01*
X128446559Y-67882353D01*
X128416037Y-67926298D01*
X127971234Y-68566716D01*
X127788103Y-68830384D01*
X127622470Y-69068858D01*
X127177667Y-69709276D01*
X126994536Y-69972944D01*
X126828903Y-70211419D01*
X126384100Y-70851837D01*
X126218467Y-71090312D01*
X125773663Y-71730730D01*
X125590532Y-71994398D01*
X125424899Y-72232872D01*
X124980096Y-72873290D01*
X124796965Y-73136958D01*
X124631332Y-73375433D01*
X124186528Y-74015851D01*
X124020895Y-74254326D01*
X123576091Y-74894744D01*
X123392961Y-75158411D01*
X123227328Y-75396886D01*
X122782524Y-76037304D01*
X122599393Y-76300972D01*
X122433760Y-76539447D01*
X121988956Y-77179865D01*
X121823323Y-77418339D01*
X121378520Y-78058757D01*
X121195389Y-78322425D01*
X121029756Y-78560900D01*
X120584952Y-79201318D01*
X120401821Y-79464986D01*
X120236188Y-79703461D01*
X119791384Y-80343879D01*
X119625752Y-80582353D01*
X119180948Y-81222771D01*
X118997817Y-81486439D01*
X118832184Y-81724914D01*
X118526966Y-82164360D01*
X118387382Y-82365332D01*
X118296914Y-82495586D01*
X118204255Y-82629000D01*
X118038630Y-82867474D01*
X117593846Y-83507892D01*
X117428220Y-83746367D01*
X117301786Y-83928411D01*
X116983454Y-84386785D01*
X116800342Y-84650453D01*
X116634726Y-84888928D01*
X116329265Y-85328769D01*
X116189977Y-85529346D01*
X116006876Y-85793013D01*
X115841270Y-86031488D01*
X115396538Y-86671906D01*
X115384528Y-86689201D01*
X115230942Y-86910381D01*
X114786238Y-87550799D01*
X114603148Y-87814467D01*
X114472755Y-88002246D01*
X114437554Y-88052942D01*
X113992880Y-88693360D01*
X113809803Y-88957027D01*
X113644217Y-89195502D01*
X113599124Y-89260445D01*
X113199571Y-89835920D01*
X113033997Y-90074395D01*
X112768813Y-90456338D01*
X112589367Y-90714813D01*
X112406316Y-90978481D01*
X112240755Y-91216955D01*
X111987000Y-91582465D01*
X111796162Y-91857373D01*
X111613126Y-92121041D01*
X111447579Y-92359516D01*
X111258865Y-92631365D01*
X111003034Y-92999934D01*
X110837504Y-93238409D01*
X110589585Y-93595579D01*
X110393001Y-93878827D01*
X110210007Y-94142494D01*
X110044497Y-94380969D01*
X109984339Y-94467647D01*
X109600083Y-95021387D01*
X109448305Y-95240109D01*
X109417122Y-95285055D01*
X109251671Y-95523530D01*
X108986662Y-95905506D01*
X108807411Y-96163948D01*
X108642010Y-96402422D01*
X108604588Y-96456376D01*
X108307262Y-96885261D01*
X108198117Y-97042840D01*
X108099861Y-97184699D01*
X108015702Y-97306508D01*
X107987565Y-97347232D01*
X107851510Y-97544983D01*
X107367758Y-98248097D01*
X114114519Y-98248097D01*
X120861280Y-98248097D01*
X123064710Y-96050865D01*
X125268140Y-93853634D01*
X137300532Y-93853634D01*
X149332925Y-93853634D01*
X150704856Y-95215917D01*
X152076788Y-96578201D01*
X155779475Y-96578201D01*
X156189677Y-96578527D01*
X156959614Y-96580961D01*
X157668056Y-96585549D01*
X158295955Y-96592027D01*
X158824265Y-96600130D01*
X159233938Y-96609595D01*
X159505927Y-96620156D01*
X159621185Y-96631549D01*
X159649844Y-96646332D01*
X159714239Y-96753980D01*
X159733937Y-96786909D01*
X159760208Y-97070995D01*
X159760208Y-97457094D01*
X160111765Y-97457094D01*
X160190569Y-97459335D01*
X160385351Y-97489947D01*
X160463322Y-97544983D01*
X160454357Y-97564684D01*
X160331911Y-97613380D01*
X160111765Y-97632872D01*
X159760208Y-97632872D01*
X159760208Y-98160208D01*
X159760208Y-98687544D01*
X160111765Y-98687544D01*
X160212835Y-98689936D01*
X160405270Y-98727709D01*
X160463322Y-98819378D01*
X160456941Y-98857279D01*
X160356213Y-98929442D01*
X160111765Y-98951211D01*
X159760208Y-98951211D01*
X159760208Y-99610381D01*
X159760208Y-100269551D01*
X160111765Y-100269551D01*
X160212835Y-100271943D01*
X160405270Y-100309716D01*
X160463322Y-100401384D01*
X160456941Y-100439286D01*
X160356213Y-100511449D01*
X160111765Y-100533218D01*
X159760208Y-100533218D01*
X159760208Y-101104499D01*
X159760208Y-101675779D01*
X160111765Y-101675779D01*
X160212835Y-101678172D01*
X160405270Y-101715945D01*
X160463322Y-101807613D01*
X160456941Y-101845514D01*
X160356213Y-101917677D01*
X160111765Y-101939447D01*
X159760208Y-101939447D01*
X159760208Y-102730450D01*
X159760208Y-103521454D01*
X160111765Y-103521454D01*
X160190569Y-103523695D01*
X160385351Y-103554306D01*
X160463322Y-103609343D01*
X160454357Y-103629044D01*
X160331911Y-103677739D01*
X160111765Y-103697232D01*
X159760208Y-103697232D01*
X159760208Y-104664014D01*
X159760208Y-105630796D01*
X160111765Y-105630796D01*
X160212835Y-105633189D01*
X160405270Y-105670962D01*
X160463322Y-105762630D01*
X160456941Y-105800531D01*
X160356213Y-105872695D01*
X160111765Y-105894464D01*
X159760208Y-105894464D01*
X159760208Y-106641523D01*
X159760208Y-107388582D01*
X160111765Y-107388582D01*
X160212835Y-107390974D01*
X160405270Y-107428747D01*
X160463322Y-107520416D01*
X160462274Y-107536744D01*
X160379421Y-107624829D01*
X160149431Y-107652249D01*
X160125474Y-107652621D01*
X159877966Y-107694326D01*
X159876083Y-107695296D01*
X159703707Y-107784083D01*
X159699233Y-107788132D01*
X159654200Y-107810609D01*
X159570146Y-107830340D01*
X159436550Y-107847498D01*
X159242894Y-107862256D01*
X158978658Y-107874788D01*
X158633322Y-107885266D01*
X158196365Y-107893863D01*
X157657269Y-107900752D01*
X157005514Y-107906107D01*
X156230579Y-107910100D01*
X155321946Y-107912905D01*
X154269094Y-107914694D01*
X153061504Y-107915640D01*
X151688655Y-107915917D01*
X143805437Y-107915917D01*
X142797578Y-108926644D01*
X141789718Y-109937371D01*
X139542973Y-109937371D01*
X137296227Y-109937371D01*
X136952941Y-110288928D01*
X136609655Y-110640485D01*
X134887543Y-110640485D01*
X133165432Y-110640485D01*
X132822145Y-110288928D01*
X132478859Y-109937371D01*
X132833203Y-109937371D01*
X133085813Y-110201038D01*
X133338423Y-110464706D01*
X134887543Y-110464706D01*
X136436664Y-110464706D01*
X136689273Y-110201038D01*
X136941883Y-109937371D01*
X134887543Y-109937371D01*
X132833203Y-109937371D01*
X132478859Y-109937371D01*
X130625745Y-109937371D01*
X128772631Y-109937371D01*
X128339792Y-109497924D01*
X127906954Y-109058478D01*
X123026482Y-109058478D01*
X118146010Y-109058478D01*
X117370332Y-109833629D01*
X116102519Y-111100581D01*
X114059028Y-113142685D01*
X113331484Y-112418920D01*
X112603941Y-111695156D01*
X112964672Y-111695156D01*
X113486505Y-112222492D01*
X113577204Y-112313428D01*
X113806519Y-112536390D01*
X113976574Y-112691598D01*
X114055819Y-112749827D01*
X114067035Y-112742687D01*
X114176733Y-112643464D01*
X114388755Y-112439487D01*
X114687506Y-112146136D01*
X115057393Y-111778790D01*
X115482819Y-111352829D01*
X115948190Y-110883630D01*
X115994269Y-110837010D01*
X116418672Y-110406541D01*
X116723368Y-110095255D01*
X116907590Y-109904001D01*
X116970572Y-109833629D01*
X116911546Y-109884987D01*
X116729746Y-110058926D01*
X116424403Y-110356294D01*
X115055727Y-111695156D01*
X114010200Y-111695156D01*
X112964672Y-111695156D01*
X112603941Y-111695156D01*
X111023770Y-111698042D01*
X109443599Y-111700928D01*
X108989851Y-112335574D01*
X108801338Y-112599242D01*
X108630360Y-112838384D01*
X108361475Y-113214467D01*
X108190497Y-113453609D01*
X107921612Y-113829692D01*
X107750634Y-114068834D01*
X107481749Y-114444917D01*
X107310771Y-114684059D01*
X107059898Y-115034948D01*
X106620035Y-115650173D01*
X106180172Y-116265398D01*
X105740309Y-116880623D01*
X105300446Y-117495848D01*
X104860106Y-118111741D01*
X104591221Y-118487823D01*
X104420243Y-118726966D01*
X104346021Y-118830778D01*
X104151318Y-119103048D01*
X103980305Y-119342190D01*
X103944753Y-119391906D01*
X103711231Y-119718273D01*
X103540120Y-119957415D01*
X103271025Y-120333498D01*
X103241008Y-120375449D01*
X103082245Y-120597166D01*
X102848549Y-120923530D01*
X102567255Y-121316366D01*
X102407885Y-121538755D01*
X101966997Y-122153980D01*
X101930711Y-122204615D01*
X101525759Y-122769204D01*
X101338592Y-123030154D01*
X101083753Y-123385097D01*
X100813736Y-123761180D01*
X100798114Y-123782939D01*
X100641849Y-124000322D01*
X100371504Y-124376404D01*
X100316493Y-124452931D01*
X100199410Y-124615547D01*
X99928633Y-124991629D01*
X99900945Y-125030085D01*
X99756120Y-125230772D01*
X99558686Y-125504360D01*
X99484442Y-125606854D01*
X99334729Y-125813535D01*
X99296933Y-125865713D01*
X99122901Y-126104104D01*
X99043807Y-126209488D01*
X98839171Y-126458349D01*
X95713154Y-126481424D01*
X92587136Y-126504499D01*
X92555199Y-126549111D01*
X92285970Y-126925193D01*
X92097216Y-127188861D01*
X91863579Y-127515225D01*
X91423153Y-128130450D01*
X90982727Y-128745675D01*
X90542301Y-129360900D01*
X90101396Y-129976793D01*
X89832167Y-130352875D01*
X89660970Y-130592017D01*
X89391741Y-130968100D01*
X89220544Y-131207242D01*
X89150316Y-131305343D01*
X88951073Y-131583325D01*
X88842570Y-131734708D01*
X88779445Y-131822467D01*
X88508930Y-132198550D01*
X88336916Y-132437692D01*
X88273055Y-132526474D01*
X88065392Y-132813775D01*
X87892538Y-133052917D01*
X87737288Y-133267705D01*
X87638385Y-133403807D01*
X87243789Y-133946816D01*
X87190981Y-134019031D01*
X86801078Y-134552220D01*
X86740605Y-134634256D01*
X86417678Y-135072333D01*
X86102107Y-135495567D01*
X85862886Y-135810339D01*
X85708536Y-136005061D01*
X85647578Y-136068149D01*
X85626473Y-136060892D01*
X85581661Y-136123187D01*
X85576118Y-136129007D01*
X85466815Y-136147948D01*
X85214536Y-136164440D01*
X84815181Y-136178542D01*
X84264652Y-136190313D01*
X83558849Y-136199812D01*
X82693675Y-136207098D01*
X81665030Y-136212229D01*
X80468815Y-136215265D01*
X79100932Y-136216263D01*
X72620203Y-136216263D01*
X68729997Y-132326058D01*
X64839792Y-128435853D01*
X64839792Y-119379968D01*
X64840065Y-118188874D01*
X64841293Y-116776181D01*
X64843594Y-115525538D01*
X64847055Y-114429158D01*
X64851768Y-113479253D01*
X64857821Y-112668035D01*
X64865304Y-111987717D01*
X64874308Y-111430512D01*
X64884920Y-110988632D01*
X64897232Y-110654290D01*
X64911333Y-110419698D01*
X64916137Y-110376817D01*
X65103460Y-110376817D01*
X65103460Y-119363121D01*
X65103460Y-128349424D01*
X68904292Y-132151010D01*
X72705125Y-135952596D01*
X79121420Y-135950719D01*
X85537716Y-135948842D01*
X85793177Y-135577190D01*
X86048638Y-135205537D01*
X85737379Y-135535121D01*
X85426120Y-135864706D01*
X79068381Y-135864706D01*
X72710642Y-135864706D01*
X68950582Y-132108405D01*
X65190523Y-128352103D01*
X65212908Y-119430377D01*
X65235294Y-110508651D01*
X68480239Y-110485580D01*
X71725183Y-110462510D01*
X73185575Y-111913781D01*
X74645967Y-113365052D01*
X79785497Y-113365052D01*
X84925028Y-113365052D01*
X86066320Y-112200519D01*
X87207612Y-111035987D01*
X86065052Y-112155186D01*
X84922491Y-113274385D01*
X79778564Y-113274366D01*
X74634636Y-113274347D01*
X73187867Y-111825582D01*
X71741098Y-110376817D01*
X68422279Y-110376817D01*
X65103460Y-110376817D01*
X64916137Y-110376817D01*
X64927312Y-110277069D01*
X64945259Y-110218616D01*
X64967328Y-110205482D01*
X65087256Y-110178863D01*
X65312751Y-110157310D01*
X65655512Y-110140469D01*
X66127236Y-110127986D01*
X66739621Y-110119507D01*
X67504365Y-110114680D01*
X68433165Y-110113149D01*
X71815603Y-110113149D01*
X73318589Y-111607267D01*
X74821574Y-113101384D01*
X79783006Y-113101384D01*
X84744438Y-113101384D01*
X85945809Y-111902313D01*
X86346047Y-111508047D01*
X86724601Y-111150825D01*
X87001949Y-110911447D01*
X87186648Y-110782605D01*
X87287258Y-110756994D01*
X87357031Y-110804263D01*
X87427336Y-110963959D01*
X87425139Y-110975237D01*
X87386248Y-111035987D01*
X87343757Y-111102361D01*
X87158819Y-111326888D01*
X86889214Y-111627624D01*
X86553832Y-111983375D01*
X86171562Y-112372946D01*
X84915788Y-113628720D01*
X79785586Y-113628720D01*
X74655384Y-113628720D01*
X73144178Y-112133464D01*
X71632972Y-110638208D01*
X68522022Y-110661318D01*
X65411073Y-110684429D01*
X65388671Y-119428604D01*
X65366269Y-128172778D01*
X69123582Y-131930853D01*
X72880894Y-135688928D01*
X79092058Y-135688928D01*
X85303222Y-135688928D01*
X85561490Y-135359343D01*
X85562972Y-135357446D01*
X85662557Y-135223797D01*
X85707929Y-135161592D01*
X86053082Y-135161592D01*
X86062097Y-135158444D01*
X86151527Y-135070003D01*
X86284775Y-134897924D01*
X86317645Y-134850768D01*
X86412540Y-134696491D01*
X86428578Y-134634256D01*
X86419564Y-134637405D01*
X86330134Y-134725845D01*
X86196886Y-134897924D01*
X86164016Y-134945081D01*
X86069121Y-135099357D01*
X86053082Y-135161592D01*
X85707929Y-135161592D01*
X85854272Y-134960955D01*
X86128420Y-134582394D01*
X86154412Y-134546367D01*
X86492529Y-134546367D01*
X86501543Y-134543219D01*
X86590973Y-134454778D01*
X86724221Y-134282699D01*
X86757091Y-134235543D01*
X86851986Y-134081266D01*
X86868025Y-134019031D01*
X86859011Y-134022180D01*
X86769580Y-134110620D01*
X86636332Y-134282699D01*
X86603463Y-134329856D01*
X86508567Y-134484132D01*
X86492529Y-134546367D01*
X86154412Y-134546367D01*
X86475305Y-134101583D01*
X86597970Y-133931142D01*
X86931975Y-133931142D01*
X86940989Y-133927994D01*
X87030420Y-133839553D01*
X87163668Y-133667474D01*
X87196537Y-133620318D01*
X87291433Y-133466041D01*
X87307471Y-133403807D01*
X87298457Y-133406955D01*
X87209027Y-133495395D01*
X87075779Y-133667474D01*
X87042909Y-133714631D01*
X86948014Y-133868907D01*
X86931975Y-133931142D01*
X86597970Y-133931142D01*
X86885232Y-133531995D01*
X87064294Y-133282734D01*
X87339446Y-133282734D01*
X87340889Y-133298156D01*
X87398152Y-133298751D01*
X87526436Y-133162111D01*
X87575532Y-133098430D01*
X87597357Y-133052917D01*
X87493253Y-133128928D01*
X87399508Y-133209370D01*
X87339446Y-133282734D01*
X87064294Y-133282734D01*
X87320847Y-132925603D01*
X87603114Y-132925603D01*
X87603970Y-132937889D01*
X87654846Y-132957244D01*
X87743341Y-132862891D01*
X87764725Y-132813775D01*
X87704583Y-132824134D01*
X87665540Y-132851264D01*
X87603114Y-132925603D01*
X87320847Y-132925603D01*
X87348507Y-132887100D01*
X87506016Y-132667509D01*
X87778893Y-132667509D01*
X87780336Y-132682931D01*
X87837598Y-132683526D01*
X87965882Y-132546886D01*
X88014979Y-132483205D01*
X88036803Y-132437692D01*
X87932699Y-132513703D01*
X87838954Y-132594145D01*
X87778893Y-132667509D01*
X87506016Y-132667509D01*
X87762180Y-132310378D01*
X88042561Y-132310378D01*
X88043416Y-132322664D01*
X88094292Y-132342019D01*
X88182787Y-132247666D01*
X88204172Y-132198550D01*
X88144029Y-132208909D01*
X88104986Y-132236039D01*
X88042561Y-132310378D01*
X87762180Y-132310378D01*
X87855432Y-132180371D01*
X87947182Y-132052284D01*
X88218339Y-132052284D01*
X88219782Y-132067707D01*
X88277045Y-132068301D01*
X88405328Y-131931661D01*
X88454425Y-131867980D01*
X88476250Y-131822467D01*
X88372145Y-131898478D01*
X88278400Y-131978920D01*
X88218339Y-132052284D01*
X87947182Y-132052284D01*
X88202999Y-131695153D01*
X88482007Y-131695153D01*
X88482862Y-131707439D01*
X88533738Y-131726795D01*
X88622233Y-131632441D01*
X88643618Y-131583325D01*
X88583476Y-131593684D01*
X88544433Y-131620815D01*
X88482007Y-131695153D01*
X88202999Y-131695153D01*
X88387874Y-131437059D01*
X88657785Y-131437059D01*
X88659228Y-131452482D01*
X88716491Y-131453076D01*
X88844775Y-131316436D01*
X88893872Y-131252755D01*
X88915696Y-131207242D01*
X88811592Y-131283253D01*
X88717847Y-131363695D01*
X88657785Y-131437059D01*
X88387874Y-131437059D01*
X88396312Y-131425279D01*
X88643370Y-131079928D01*
X88921453Y-131079928D01*
X88922309Y-131092214D01*
X88973185Y-131111570D01*
X89061680Y-131017217D01*
X89083064Y-130968100D01*
X89022922Y-130978459D01*
X88983879Y-131005590D01*
X88921453Y-131079928D01*
X88643370Y-131079928D01*
X88828005Y-130821835D01*
X89097232Y-130821835D01*
X89098675Y-130837257D01*
X89155937Y-130837851D01*
X89284221Y-130701211D01*
X89333318Y-130637530D01*
X89355142Y-130592017D01*
X89251038Y-130668028D01*
X89157293Y-130748470D01*
X89097232Y-130821835D01*
X88828005Y-130821835D01*
X88961453Y-130635294D01*
X89004368Y-130575270D01*
X89083497Y-130464703D01*
X89360900Y-130464703D01*
X89361755Y-130476990D01*
X89412631Y-130496345D01*
X89501126Y-130401992D01*
X89522511Y-130352875D01*
X89462369Y-130363234D01*
X89423326Y-130390365D01*
X89360900Y-130464703D01*
X89083497Y-130464703D01*
X89268205Y-130206610D01*
X89536678Y-130206610D01*
X89538121Y-130222032D01*
X89595384Y-130222626D01*
X89723667Y-130085987D01*
X89772764Y-130022306D01*
X89794589Y-129976793D01*
X89690484Y-130052803D01*
X89596739Y-130133245D01*
X89536678Y-130206610D01*
X89268205Y-130206610D01*
X89496055Y-129888236D01*
X89832321Y-129888236D01*
X89841335Y-129885087D01*
X89930766Y-129796647D01*
X90064014Y-129624568D01*
X90096883Y-129577411D01*
X90191779Y-129423135D01*
X90207817Y-129360900D01*
X90198803Y-129364048D01*
X90109373Y-129452489D01*
X89976125Y-129624568D01*
X89943255Y-129671724D01*
X89848360Y-129826001D01*
X89832321Y-129888236D01*
X89496055Y-129888236D01*
X89562881Y-129794860D01*
X89937040Y-129273011D01*
X90271767Y-129273011D01*
X90280782Y-129269862D01*
X90370212Y-129181422D01*
X90503460Y-129009343D01*
X90536330Y-128962186D01*
X90631225Y-128807910D01*
X90647264Y-128745675D01*
X90638249Y-128748824D01*
X90548819Y-128837264D01*
X90415571Y-129009343D01*
X90382701Y-129056499D01*
X90287806Y-129210776D01*
X90271767Y-129273011D01*
X89937040Y-129273011D01*
X90092766Y-129055816D01*
X90378711Y-128657786D01*
X90711214Y-128657786D01*
X90720228Y-128654637D01*
X90809658Y-128566197D01*
X90942907Y-128394118D01*
X90975776Y-128346962D01*
X91070671Y-128192685D01*
X91086710Y-128130450D01*
X91077696Y-128133599D01*
X90988265Y-128222039D01*
X90855017Y-128394118D01*
X90822148Y-128441274D01*
X90727252Y-128595551D01*
X90711214Y-128657786D01*
X90378711Y-128657786D01*
X90584842Y-128370855D01*
X90821219Y-128042561D01*
X91150660Y-128042561D01*
X91159674Y-128039412D01*
X91249105Y-127950972D01*
X91382353Y-127778893D01*
X91415222Y-127731737D01*
X91510118Y-127577460D01*
X91526156Y-127515225D01*
X91517142Y-127518374D01*
X91427712Y-127606814D01*
X91294464Y-127778893D01*
X91261594Y-127826050D01*
X91166699Y-127980326D01*
X91150660Y-128042561D01*
X90821219Y-128042561D01*
X91029928Y-127752694D01*
X91356289Y-127300689D01*
X91646021Y-127300689D01*
X91646876Y-127312976D01*
X91697752Y-127332331D01*
X91786247Y-127237978D01*
X91807632Y-127188861D01*
X91747490Y-127199220D01*
X91708447Y-127226351D01*
X91646021Y-127300689D01*
X91356289Y-127300689D01*
X91418844Y-127214051D01*
X91547158Y-127037021D01*
X91821799Y-127037021D01*
X91822655Y-127049308D01*
X91873531Y-127068663D01*
X91962026Y-126974310D01*
X91983410Y-126925193D01*
X91923268Y-126935552D01*
X91884225Y-126962683D01*
X91821799Y-127037021D01*
X91547158Y-127037021D01*
X91734227Y-126778928D01*
X91997578Y-126778928D01*
X91999021Y-126794350D01*
X92056283Y-126794945D01*
X92184567Y-126658305D01*
X92233664Y-126594624D01*
X92255488Y-126549111D01*
X92151384Y-126625122D01*
X92057639Y-126705563D01*
X91997578Y-126778928D01*
X91734227Y-126778928D01*
X91742407Y-126767642D01*
X91985815Y-126433896D01*
X92275181Y-126433896D01*
X92311448Y-126438899D01*
X92475795Y-126325925D01*
X92491823Y-126315183D01*
X92576033Y-126281852D01*
X92716265Y-126255192D01*
X92929627Y-126234517D01*
X93233224Y-126219140D01*
X93644164Y-126208374D01*
X94179553Y-126201534D01*
X94856497Y-126197934D01*
X95692104Y-126196886D01*
X95787730Y-126196885D01*
X96581384Y-126196582D01*
X97219420Y-126194982D01*
X97720036Y-126190999D01*
X98101430Y-126183547D01*
X98381801Y-126171542D01*
X98579346Y-126153897D01*
X98712264Y-126129527D01*
X98798753Y-126097346D01*
X98857011Y-126056269D01*
X98905236Y-126005210D01*
X99072664Y-125813535D01*
X98855358Y-125961266D01*
X98785906Y-125999170D01*
X98683067Y-126031660D01*
X98532134Y-126057137D01*
X98314866Y-126076427D01*
X98013022Y-126090356D01*
X97608364Y-126099751D01*
X97082652Y-126105439D01*
X96417645Y-126108245D01*
X95595104Y-126108997D01*
X94931623Y-126109211D01*
X94246791Y-126110620D01*
X93705034Y-126114226D01*
X93288189Y-126121028D01*
X92978091Y-126132022D01*
X92756577Y-126148205D01*
X92605483Y-126170575D01*
X92506644Y-126200129D01*
X92441898Y-126237863D01*
X92393080Y-126284775D01*
X92368860Y-126311845D01*
X92275181Y-126433896D01*
X91985815Y-126433896D01*
X91991438Y-126426186D01*
X92156755Y-126202398D01*
X92229176Y-126108997D01*
X92251629Y-126090874D01*
X92331999Y-126058024D01*
X92471834Y-126030720D01*
X92687749Y-126008068D01*
X92996361Y-125989171D01*
X93414286Y-125973133D01*
X93958139Y-125959058D01*
X94644537Y-125946052D01*
X95490096Y-125933218D01*
X98624987Y-125889274D01*
X98747239Y-125718682D01*
X99028720Y-125718682D01*
X99029575Y-125730969D01*
X99080451Y-125750324D01*
X99168946Y-125655971D01*
X99190331Y-125606854D01*
X99130189Y-125617213D01*
X99091146Y-125644344D01*
X99028720Y-125718682D01*
X98747239Y-125718682D01*
X98932197Y-125460589D01*
X99204498Y-125460589D01*
X99205941Y-125476011D01*
X99263204Y-125476605D01*
X99391488Y-125339966D01*
X99440584Y-125276285D01*
X99462409Y-125230772D01*
X99358304Y-125306783D01*
X99264560Y-125387224D01*
X99204498Y-125460589D01*
X98932197Y-125460589D01*
X99188130Y-125103457D01*
X99468166Y-125103457D01*
X99469022Y-125115744D01*
X99519897Y-125135099D01*
X99608393Y-125040746D01*
X99629777Y-124991629D01*
X99569635Y-125001988D01*
X99530592Y-125029119D01*
X99468166Y-125103457D01*
X99188130Y-125103457D01*
X99373088Y-124845364D01*
X99643945Y-124845364D01*
X99645388Y-124860786D01*
X99702650Y-124861380D01*
X99830934Y-124724741D01*
X99880031Y-124661060D01*
X99901855Y-124615547D01*
X99797751Y-124691558D01*
X99704006Y-124771999D01*
X99643945Y-124845364D01*
X99373088Y-124845364D01*
X99629021Y-124488232D01*
X99907612Y-124488232D01*
X99908468Y-124500519D01*
X99959344Y-124519874D01*
X100047839Y-124425521D01*
X100069224Y-124376404D01*
X100009081Y-124386763D01*
X99970038Y-124413894D01*
X99907612Y-124488232D01*
X99629021Y-124488232D01*
X99813979Y-124230139D01*
X100083391Y-124230139D01*
X100084834Y-124245561D01*
X100142096Y-124246156D01*
X100270380Y-124109516D01*
X100319477Y-124045835D01*
X100341302Y-124000322D01*
X100237197Y-124076333D01*
X100143452Y-124156775D01*
X100083391Y-124230139D01*
X99813979Y-124230139D01*
X100069912Y-123873007D01*
X100347059Y-123873007D01*
X100347914Y-123885294D01*
X100398790Y-123904649D01*
X100487285Y-123810296D01*
X100508670Y-123761180D01*
X100448528Y-123771538D01*
X100409485Y-123798669D01*
X100347059Y-123873007D01*
X100069912Y-123873007D01*
X100254870Y-123614914D01*
X100522837Y-123614914D01*
X100524280Y-123630336D01*
X100581543Y-123630931D01*
X100709827Y-123494291D01*
X100758923Y-123430610D01*
X100780748Y-123385097D01*
X100676644Y-123461108D01*
X100582899Y-123541550D01*
X100522837Y-123614914D01*
X100254870Y-123614914D01*
X100483028Y-123296540D01*
X100818480Y-123296540D01*
X100827494Y-123293392D01*
X100916925Y-123204951D01*
X101050173Y-123032872D01*
X101083042Y-122985716D01*
X101177938Y-122831439D01*
X101193976Y-122769204D01*
X101184962Y-122772353D01*
X101095532Y-122860793D01*
X100962284Y-123032872D01*
X100929414Y-123080029D01*
X100834519Y-123234305D01*
X100818480Y-123296540D01*
X100483028Y-123296540D01*
X100923920Y-122681315D01*
X101257927Y-122681315D01*
X101266941Y-122678167D01*
X101356371Y-122589726D01*
X101489619Y-122417647D01*
X101522489Y-122370491D01*
X101617384Y-122216214D01*
X101633423Y-122153980D01*
X101624409Y-122157128D01*
X101534978Y-122245568D01*
X101401730Y-122417647D01*
X101368861Y-122464804D01*
X101273965Y-122619080D01*
X101257927Y-122681315D01*
X100923920Y-122681315D01*
X101364812Y-122066090D01*
X101697373Y-122066090D01*
X101706387Y-122062942D01*
X101795818Y-121974501D01*
X101929066Y-121802422D01*
X101961935Y-121755266D01*
X102056831Y-121600989D01*
X102072869Y-121538755D01*
X102063855Y-121541903D01*
X101974424Y-121630344D01*
X101841176Y-121802422D01*
X101808307Y-121849579D01*
X101713412Y-122003855D01*
X101697373Y-122066090D01*
X101364812Y-122066090D01*
X101805703Y-121450865D01*
X102136819Y-121450865D01*
X102145834Y-121447717D01*
X102235264Y-121359276D01*
X102368512Y-121187198D01*
X102401382Y-121140041D01*
X102496277Y-120985765D01*
X102512315Y-120923530D01*
X102503301Y-120926678D01*
X102413871Y-121015119D01*
X102280623Y-121187198D01*
X102247753Y-121234354D01*
X102152858Y-121388631D01*
X102136819Y-121450865D01*
X101805703Y-121450865D01*
X102337354Y-120708994D01*
X102632180Y-120708994D01*
X102633035Y-120721280D01*
X102683911Y-120740635D01*
X102772406Y-120646282D01*
X102793791Y-120597166D01*
X102733649Y-120607525D01*
X102694606Y-120634655D01*
X102632180Y-120708994D01*
X102337354Y-120708994D01*
X102526308Y-120445326D01*
X102807958Y-120445326D01*
X102808814Y-120457612D01*
X102859690Y-120476968D01*
X102948185Y-120382614D01*
X102969570Y-120333498D01*
X102909427Y-120343857D01*
X102870384Y-120370988D01*
X102807958Y-120445326D01*
X102526308Y-120445326D01*
X102711266Y-120187233D01*
X102983737Y-120187233D01*
X102985180Y-120202655D01*
X103042442Y-120203249D01*
X103170726Y-120066609D01*
X103219823Y-120002928D01*
X103241648Y-119957415D01*
X103137543Y-120033426D01*
X103043798Y-120113868D01*
X102983737Y-120187233D01*
X102711266Y-120187233D01*
X102967199Y-119830101D01*
X103247405Y-119830101D01*
X103248260Y-119842388D01*
X103299136Y-119861743D01*
X103387631Y-119767390D01*
X103409016Y-119718273D01*
X103348874Y-119728632D01*
X103309831Y-119755763D01*
X103247405Y-119830101D01*
X102967199Y-119830101D01*
X103152157Y-119572008D01*
X103423183Y-119572008D01*
X103424626Y-119587430D01*
X103481889Y-119588024D01*
X103610173Y-119451384D01*
X103659269Y-119387703D01*
X103681094Y-119342190D01*
X103576990Y-119418201D01*
X103483245Y-119498643D01*
X103423183Y-119572008D01*
X103152157Y-119572008D01*
X103408090Y-119214876D01*
X103686851Y-119214876D01*
X103687707Y-119227163D01*
X103738583Y-119246518D01*
X103827078Y-119152165D01*
X103848462Y-119103048D01*
X103788320Y-119113407D01*
X103749277Y-119140538D01*
X103686851Y-119214876D01*
X103408090Y-119214876D01*
X103593049Y-118956783D01*
X103862630Y-118956783D01*
X103864073Y-118972205D01*
X103921335Y-118972799D01*
X104049619Y-118836160D01*
X104098716Y-118772479D01*
X104120540Y-118726966D01*
X104016436Y-118802976D01*
X103922691Y-118883418D01*
X103862630Y-118956783D01*
X103593049Y-118956783D01*
X103695238Y-118814187D01*
X103848982Y-118599651D01*
X104126298Y-118599651D01*
X104127153Y-118611938D01*
X104178029Y-118631293D01*
X104266524Y-118536940D01*
X104287909Y-118487823D01*
X104227766Y-118498182D01*
X104188723Y-118525313D01*
X104126298Y-118599651D01*
X103848982Y-118599651D01*
X104033940Y-118341558D01*
X104302076Y-118341558D01*
X104303519Y-118356980D01*
X104360782Y-118357574D01*
X104489065Y-118220935D01*
X104538162Y-118157254D01*
X104559987Y-118111741D01*
X104455882Y-118187752D01*
X104362137Y-118268193D01*
X104302076Y-118341558D01*
X104033940Y-118341558D01*
X104262098Y-118023184D01*
X104597719Y-118023184D01*
X104606733Y-118020035D01*
X104696164Y-117931595D01*
X104829412Y-117759516D01*
X104862281Y-117712359D01*
X104957177Y-117558083D01*
X104973215Y-117495848D01*
X104964201Y-117498997D01*
X104874770Y-117587437D01*
X104741522Y-117759516D01*
X104708653Y-117806672D01*
X104613758Y-117960949D01*
X104597719Y-118023184D01*
X104262098Y-118023184D01*
X104702989Y-117407959D01*
X105037165Y-117407959D01*
X105046180Y-117404810D01*
X105135610Y-117316370D01*
X105268858Y-117144291D01*
X105301728Y-117097135D01*
X105396623Y-116942858D01*
X105412662Y-116880623D01*
X105403647Y-116883772D01*
X105314217Y-116972212D01*
X105180969Y-117144291D01*
X105148099Y-117191447D01*
X105053204Y-117345724D01*
X105037165Y-117407959D01*
X104702989Y-117407959D01*
X105143881Y-116792734D01*
X105476612Y-116792734D01*
X105485626Y-116789585D01*
X105575056Y-116701145D01*
X105708304Y-116529066D01*
X105741174Y-116481910D01*
X105836069Y-116327633D01*
X105852108Y-116265398D01*
X105843094Y-116268547D01*
X105753663Y-116356987D01*
X105620415Y-116529066D01*
X105587546Y-116576223D01*
X105492650Y-116730499D01*
X105476612Y-116792734D01*
X105143881Y-116792734D01*
X105584772Y-116177509D01*
X105916058Y-116177509D01*
X105925072Y-116174361D01*
X106014503Y-116085920D01*
X106147751Y-115913841D01*
X106180620Y-115866685D01*
X106275516Y-115712408D01*
X106291554Y-115650173D01*
X106282540Y-115653322D01*
X106193110Y-115741762D01*
X106059862Y-115913841D01*
X106026992Y-115960998D01*
X105932097Y-116115274D01*
X105916058Y-116177509D01*
X105584772Y-116177509D01*
X106025664Y-115562284D01*
X106355505Y-115562284D01*
X106364519Y-115559136D01*
X106453949Y-115470695D01*
X106587197Y-115298616D01*
X106620067Y-115251460D01*
X106714962Y-115097183D01*
X106731001Y-115034948D01*
X106721986Y-115038097D01*
X106632556Y-115126537D01*
X106499308Y-115298616D01*
X106466438Y-115345773D01*
X106371543Y-115500049D01*
X106355505Y-115562284D01*
X106025664Y-115562284D01*
X106490336Y-114913876D01*
X106762976Y-114913876D01*
X106764419Y-114929298D01*
X106821681Y-114929893D01*
X106949965Y-114793253D01*
X106999062Y-114729572D01*
X107020886Y-114684059D01*
X106916782Y-114760070D01*
X106823037Y-114840512D01*
X106762976Y-114913876D01*
X106490336Y-114913876D01*
X106746269Y-114556744D01*
X107026644Y-114556744D01*
X107027499Y-114569031D01*
X107078375Y-114588386D01*
X107166870Y-114494033D01*
X107188255Y-114444917D01*
X107128112Y-114455275D01*
X107089069Y-114482406D01*
X107026644Y-114556744D01*
X106746269Y-114556744D01*
X106931227Y-114298651D01*
X107202422Y-114298651D01*
X107203865Y-114314073D01*
X107261128Y-114314668D01*
X107389411Y-114178028D01*
X107438508Y-114114347D01*
X107460333Y-114068834D01*
X107356228Y-114144845D01*
X107262483Y-114225287D01*
X107202422Y-114298651D01*
X106931227Y-114298651D01*
X107187160Y-113941519D01*
X107466090Y-113941519D01*
X107466945Y-113953806D01*
X107517821Y-113973161D01*
X107606317Y-113878808D01*
X107627701Y-113829692D01*
X107567559Y-113840051D01*
X107528516Y-113867181D01*
X107466090Y-113941519D01*
X107187160Y-113941519D01*
X107372118Y-113683426D01*
X107641868Y-113683426D01*
X107643311Y-113698848D01*
X107700574Y-113699443D01*
X107828858Y-113562803D01*
X107877955Y-113499122D01*
X107899779Y-113453609D01*
X107795675Y-113529620D01*
X107701930Y-113610062D01*
X107641868Y-113683426D01*
X107372118Y-113683426D01*
X107628051Y-113326295D01*
X107905536Y-113326295D01*
X107906392Y-113338581D01*
X107957268Y-113357936D01*
X108045763Y-113263583D01*
X108067147Y-113214467D01*
X108007005Y-113224826D01*
X107967962Y-113251956D01*
X107905536Y-113326295D01*
X107628051Y-113326295D01*
X107813010Y-113068201D01*
X108081315Y-113068201D01*
X108082758Y-113083624D01*
X108140020Y-113084218D01*
X108268304Y-112947578D01*
X108317401Y-112883897D01*
X108339225Y-112838384D01*
X108235121Y-112914395D01*
X108141376Y-112994837D01*
X108081315Y-113068201D01*
X107813010Y-113068201D01*
X108068942Y-112711070D01*
X108344983Y-112711070D01*
X108345838Y-112723356D01*
X108396714Y-112742712D01*
X108485209Y-112648358D01*
X108506594Y-112599242D01*
X108446452Y-112609601D01*
X108407409Y-112636731D01*
X108344983Y-112711070D01*
X108068942Y-112711070D01*
X108257896Y-112447402D01*
X108520761Y-112447402D01*
X108521617Y-112459689D01*
X108572493Y-112479044D01*
X108660988Y-112384691D01*
X108682372Y-112335574D01*
X108622230Y-112345933D01*
X108583187Y-112373064D01*
X108520761Y-112447402D01*
X108257896Y-112447402D01*
X108765489Y-111739101D01*
X107400160Y-111714833D01*
X106986410Y-111708733D01*
X106568205Y-111708295D01*
X106275986Y-111718743D01*
X106081384Y-111742368D01*
X105956034Y-111781462D01*
X105871567Y-111838316D01*
X105789871Y-111907329D01*
X105680854Y-111937397D01*
X105547578Y-111840612D01*
X105517775Y-111816504D01*
X105355455Y-111744767D01*
X105094397Y-111706478D01*
X104696680Y-111695156D01*
X104006509Y-111695156D01*
X102590907Y-110288928D01*
X101175306Y-108882699D01*
X99897610Y-108882699D01*
X99656688Y-108882835D01*
X99225686Y-108885740D01*
X98925628Y-108895988D01*
X98725447Y-108918182D01*
X98594076Y-108956919D01*
X98572702Y-108970589D01*
X98500448Y-109016799D01*
X98413495Y-109102422D01*
X98207076Y-109322146D01*
X95644983Y-109322146D01*
X93082890Y-109322146D01*
X92876471Y-109102422D01*
X92759712Y-108994970D01*
X92709694Y-108970589D01*
X93052249Y-108970589D01*
X93085092Y-108988234D01*
X93276810Y-109012983D01*
X93634620Y-109032584D01*
X94152561Y-109046835D01*
X94824669Y-109055533D01*
X95644983Y-109058478D01*
X96165524Y-109057365D01*
X96895614Y-109050866D01*
X97473840Y-109038736D01*
X97894241Y-109021179D01*
X98150854Y-108998396D01*
X98237716Y-108970589D01*
X98204874Y-108952943D01*
X98013155Y-108928194D01*
X97655345Y-108908593D01*
X97137405Y-108894343D01*
X96465296Y-108885644D01*
X95644983Y-108882699D01*
X95124442Y-108883813D01*
X94394352Y-108890312D01*
X93816125Y-108902441D01*
X93395724Y-108919998D01*
X93139112Y-108942781D01*
X93052249Y-108970589D01*
X92709694Y-108970589D01*
X92611938Y-108922938D01*
X92396455Y-108890344D01*
X92059385Y-108882699D01*
X91776099Y-108886325D01*
X91587602Y-108903575D01*
X91522180Y-108941408D01*
X91551638Y-109006709D01*
X91611896Y-109131773D01*
X91557029Y-109193881D01*
X91424936Y-109175638D01*
X91260320Y-109067686D01*
X91223582Y-109034725D01*
X91152756Y-108986193D01*
X91056582Y-108949257D01*
X90913568Y-108922338D01*
X90702226Y-108903856D01*
X90401066Y-108892230D01*
X89988598Y-108885882D01*
X89443331Y-108883232D01*
X88743777Y-108882699D01*
X86424143Y-108882699D01*
X85183115Y-110113149D01*
X83942088Y-111343599D01*
X82371701Y-111343599D01*
X80801314Y-111343599D01*
X80709577Y-111431488D01*
X80554809Y-111579765D01*
X80308304Y-111815932D01*
X80061800Y-111579765D01*
X79907032Y-111431488D01*
X80176471Y-111431488D01*
X80194485Y-111455747D01*
X80308304Y-111519378D01*
X80331817Y-111515951D01*
X80440138Y-111431488D01*
X80433062Y-111376632D01*
X80308304Y-111343599D01*
X80204074Y-111362947D01*
X80176471Y-111431488D01*
X79907032Y-111431488D01*
X79815295Y-111343599D01*
X77672510Y-111343599D01*
X75529726Y-111343599D01*
X74026740Y-109849481D01*
X72523754Y-108355364D01*
X71826363Y-108355364D01*
X71128973Y-108355364D01*
X70621061Y-108857976D01*
X70113149Y-109360588D01*
X69605237Y-108857976D01*
X69097325Y-108355364D01*
X69463442Y-108355364D01*
X69761592Y-108662976D01*
X69864299Y-108765761D01*
X70026090Y-108912816D01*
X70113149Y-108970589D01*
X70148213Y-108952823D01*
X70281262Y-108841893D01*
X70464706Y-108662976D01*
X70762856Y-108355364D01*
X70113149Y-108355364D01*
X69463442Y-108355364D01*
X69097325Y-108355364D01*
X67078420Y-108354018D01*
X66761382Y-108352949D01*
X66205649Y-108346713D01*
X65720233Y-108335702D01*
X65331496Y-108320797D01*
X65065803Y-108302880D01*
X64949521Y-108282832D01*
X64940633Y-108273268D01*
X64916403Y-108195047D01*
X64895888Y-108033705D01*
X64878798Y-107777660D01*
X64864842Y-107415331D01*
X64853727Y-106935136D01*
X64845164Y-106325495D01*
X64844496Y-106246021D01*
X65103460Y-106246021D01*
X65103460Y-107212803D01*
X65103460Y-108179585D01*
X66949135Y-108179585D01*
X67132558Y-108179267D01*
X67662500Y-108174551D01*
X68119371Y-108164887D01*
X68477498Y-108151171D01*
X68711202Y-108134300D01*
X68794810Y-108115169D01*
X68784745Y-108095456D01*
X68681404Y-107970158D01*
X68484033Y-107754723D01*
X68214710Y-107472888D01*
X67895515Y-107148387D01*
X66996220Y-106246021D01*
X66049840Y-106246021D01*
X65103460Y-106246021D01*
X64844496Y-106246021D01*
X64838859Y-105574825D01*
X64834524Y-104671545D01*
X64831878Y-103609343D01*
X65103460Y-103609343D01*
X65103460Y-104795848D01*
X65103460Y-105982353D01*
X66093533Y-105982353D01*
X67083607Y-105982353D01*
X68179585Y-107080969D01*
X69211302Y-108115169D01*
X69275563Y-108179585D01*
X70114832Y-108179585D01*
X70954101Y-108179585D01*
X71015067Y-108117852D01*
X71431488Y-108117852D01*
X71432986Y-108122090D01*
X71533414Y-108151217D01*
X71760197Y-108171789D01*
X72069684Y-108179585D01*
X72707880Y-108179585D01*
X74156055Y-109629758D01*
X75604230Y-111079931D01*
X77581601Y-111079931D01*
X79558972Y-111079931D01*
X78287662Y-109806349D01*
X77016352Y-108532767D01*
X77538989Y-108004619D01*
X78061626Y-107476471D01*
X75027465Y-107476471D01*
X71993305Y-107476471D01*
X71712397Y-107766295D01*
X71629357Y-107854741D01*
X71487562Y-108023101D01*
X71431488Y-108117852D01*
X71015067Y-108117852D01*
X71431488Y-107696194D01*
X71908874Y-107212803D01*
X75249469Y-107212803D01*
X78590064Y-107212803D01*
X77934764Y-107872506D01*
X77279464Y-108532210D01*
X78551052Y-109806070D01*
X79822640Y-111079931D01*
X80309707Y-111079931D01*
X80329510Y-111079926D01*
X80561137Y-111074018D01*
X80732542Y-111040343D01*
X80889537Y-110954455D01*
X81077933Y-110791909D01*
X81343542Y-110528258D01*
X81452549Y-110416589D01*
X81676694Y-110174636D01*
X81832143Y-109988935D01*
X81890311Y-109892713D01*
X81889318Y-109887502D01*
X81816336Y-109783125D01*
X81644496Y-109585255D01*
X81397452Y-109320155D01*
X81098863Y-109014087D01*
X80309760Y-108221689D01*
X80659862Y-108221689D01*
X80660660Y-108226690D01*
X80732540Y-108333029D01*
X80904085Y-108532119D01*
X81151421Y-108797382D01*
X81450679Y-109102237D01*
X82241496Y-109889390D01*
X81650787Y-110484661D01*
X81060078Y-111079931D01*
X82465170Y-111079931D01*
X83870262Y-111079931D01*
X85054325Y-109893426D01*
X86238388Y-108706921D01*
X88502758Y-108706921D01*
X89052886Y-108704858D01*
X89608197Y-108698124D01*
X90080457Y-108687393D01*
X90446487Y-108673369D01*
X90683104Y-108656755D01*
X90767128Y-108638253D01*
X90761981Y-108623403D01*
X90672580Y-108504910D01*
X90494991Y-108308185D01*
X90259216Y-108066972D01*
X89751304Y-107564360D01*
X87997067Y-107564360D01*
X86242829Y-107564360D01*
X84878129Y-108927061D01*
X83513428Y-110289762D01*
X82742352Y-109515097D01*
X82715688Y-109488307D01*
X82404718Y-109173851D01*
X82201232Y-108957390D01*
X82089648Y-108814260D01*
X82054388Y-108719797D01*
X82079871Y-108649339D01*
X82150517Y-108578220D01*
X82270114Y-108444428D01*
X82329758Y-108316466D01*
X82329661Y-108314271D01*
X82266592Y-108202980D01*
X82109249Y-108013039D01*
X81890499Y-107784268D01*
X81451240Y-107351615D01*
X81055551Y-107739955D01*
X80871060Y-107931862D01*
X80718457Y-108115424D01*
X80659862Y-108221689D01*
X80309760Y-108221689D01*
X80307415Y-108219334D01*
X80879232Y-107652600D01*
X81451048Y-107085865D01*
X82064574Y-107694689D01*
X82678099Y-108303513D01*
X82503928Y-108488909D01*
X82384718Y-108638909D01*
X82329758Y-108759069D01*
X82329767Y-108759656D01*
X82390974Y-108860889D01*
X82547696Y-109043131D01*
X82764383Y-109271181D01*
X83005482Y-109509833D01*
X83235441Y-109723885D01*
X83418706Y-109878132D01*
X83519727Y-109937371D01*
X83535153Y-109930669D01*
X83656741Y-109833754D01*
X83875727Y-109635847D01*
X84172652Y-109355233D01*
X84528060Y-109010199D01*
X84922491Y-108619031D01*
X86238633Y-107300692D01*
X88043523Y-107300692D01*
X89848414Y-107300692D01*
X90547405Y-108003807D01*
X91178130Y-108638253D01*
X91246395Y-108706921D01*
X91797765Y-108706921D01*
X92060311Y-108698742D01*
X92269103Y-108674408D01*
X92349135Y-108639570D01*
X92326095Y-108602163D01*
X92200074Y-108455504D01*
X91982801Y-108222070D01*
X91695402Y-107924367D01*
X91359005Y-107584899D01*
X90368876Y-106597578D01*
X87998463Y-106597578D01*
X85628050Y-106597578D01*
X84509271Y-107713874D01*
X84173443Y-108043086D01*
X83850026Y-108347702D01*
X83587111Y-108581963D01*
X83405474Y-108727405D01*
X83325889Y-108765566D01*
X83345032Y-108712881D01*
X83467113Y-108552271D01*
X83681318Y-108307127D01*
X83968681Y-107998958D01*
X84310238Y-107649270D01*
X85359190Y-106597578D01*
X83161833Y-106597578D01*
X80964476Y-106597578D01*
X80000811Y-107564241D01*
X79037145Y-108530904D01*
X79848503Y-109345650D01*
X80163201Y-109668372D01*
X80453214Y-109989070D01*
X80617967Y-110209264D01*
X80662630Y-110336124D01*
X80592374Y-110376817D01*
X80568596Y-110364142D01*
X80437704Y-110255125D01*
X80217873Y-110052478D01*
X79932544Y-109778114D01*
X79605155Y-109453944D01*
X78685422Y-108531071D01*
X79649171Y-107564324D01*
X80612919Y-106597578D01*
X76046120Y-106597578D01*
X71479321Y-106597578D01*
X70795648Y-107277242D01*
X70111974Y-107956906D01*
X68487344Y-106334057D01*
X66862714Y-104711207D01*
X67408749Y-104160275D01*
X67954784Y-103609343D01*
X66529122Y-103609343D01*
X65103460Y-103609343D01*
X64831878Y-103609343D01*
X64831865Y-103604074D01*
X64830234Y-102718954D01*
X64829537Y-102378893D01*
X65103460Y-102378893D01*
X65103460Y-102906229D01*
X65103460Y-103433564D01*
X66793129Y-103433564D01*
X68482798Y-103433564D01*
X67848333Y-104072292D01*
X67213868Y-104711020D01*
X68662905Y-106158062D01*
X70111943Y-107605103D01*
X70751810Y-106969507D01*
X71391677Y-106333910D01*
X80877764Y-106333910D01*
X90363850Y-106333910D01*
X91561285Y-107520416D01*
X92690748Y-108639570D01*
X92758719Y-108706921D01*
X95641890Y-108706921D01*
X98525062Y-108706921D01*
X98594682Y-108638647D01*
X98940830Y-108638647D01*
X98945472Y-108644744D01*
X99064049Y-108669108D01*
X99318605Y-108688853D01*
X99676833Y-108702089D01*
X100106427Y-108706921D01*
X101272023Y-108706921D01*
X102632180Y-110069204D01*
X103992337Y-111431488D01*
X104563307Y-111431488D01*
X105134276Y-111431488D01*
X104083171Y-110377637D01*
X103032066Y-109323786D01*
X103510262Y-108839575D01*
X103988459Y-108355364D01*
X102587782Y-108355364D01*
X101187104Y-108355364D01*
X100678993Y-107852555D01*
X100170883Y-107349746D01*
X99555856Y-107960059D01*
X99387328Y-108129918D01*
X99157339Y-108371899D01*
X98999474Y-108551442D01*
X98940830Y-108638647D01*
X98594682Y-108638647D01*
X99349709Y-107898218D01*
X100174356Y-107089515D01*
X100680730Y-107590606D01*
X101187104Y-108091696D01*
X102896197Y-108091696D01*
X104605289Y-108091696D01*
X103970637Y-108730612D01*
X103335986Y-109369528D01*
X104369659Y-110400508D01*
X104763188Y-110789195D01*
X105121537Y-111120498D01*
X105406052Y-111334705D01*
X105630847Y-111431488D01*
X105642720Y-111436600D01*
X105837660Y-111431488D01*
X106284299Y-111431488D01*
X107658874Y-111431488D01*
X108198385Y-111434150D01*
X108610622Y-111446875D01*
X108883010Y-111476279D01*
X109033930Y-111528972D01*
X109081762Y-111611567D01*
X109044889Y-111730675D01*
X108941691Y-111892907D01*
X108922834Y-111920241D01*
X108830560Y-112072493D01*
X108816404Y-112134602D01*
X108829778Y-112128442D01*
X108923569Y-112029781D01*
X109059850Y-111848962D01*
X109094978Y-111799640D01*
X109244187Y-111608802D01*
X109351475Y-111498751D01*
X109412927Y-111483663D01*
X109629931Y-111463803D01*
X109969705Y-111447813D01*
X110400751Y-111437041D01*
X110891572Y-111432834D01*
X112339545Y-111431488D01*
X111704946Y-110792625D01*
X111070347Y-110153762D01*
X112201386Y-109025234D01*
X112371861Y-108856183D01*
X112799058Y-108445273D01*
X113112147Y-108166595D01*
X113311772Y-108019601D01*
X113398576Y-108003741D01*
X113401877Y-108013905D01*
X113345109Y-108139243D01*
X113162538Y-108372424D01*
X112859787Y-108706794D01*
X112442476Y-109135697D01*
X111420226Y-110160618D01*
X112059931Y-110796053D01*
X112699635Y-111431488D01*
X113222547Y-111431488D01*
X113745459Y-111431488D01*
X113134382Y-110815693D01*
X112523305Y-110199897D01*
X113686047Y-109034756D01*
X113688676Y-109032121D01*
X114054440Y-108660974D01*
X114372787Y-108329213D01*
X114624263Y-108057829D01*
X114789415Y-107867812D01*
X114848789Y-107780154D01*
X114819050Y-107718602D01*
X114689244Y-107556667D01*
X114490180Y-107341432D01*
X114259053Y-107109796D01*
X114033061Y-106898657D01*
X113849400Y-106744915D01*
X113745267Y-106685467D01*
X113698311Y-106708746D01*
X113542627Y-106832499D01*
X113315240Y-107038893D01*
X113047059Y-107300692D01*
X112933076Y-107413081D01*
X112639159Y-107678012D01*
X112404078Y-107852835D01*
X112255661Y-107915917D01*
X112237370Y-107917788D01*
X112070997Y-107999723D01*
X111831071Y-108183720D01*
X111552941Y-108443253D01*
X111031108Y-108970589D01*
X110499451Y-108970589D01*
X109967794Y-108970589D01*
X109048097Y-109893426D01*
X108128400Y-110816263D01*
X109307806Y-110816263D01*
X110487212Y-110816263D01*
X110234047Y-110552016D01*
X110209229Y-110525632D01*
X110062886Y-110323754D01*
X110067642Y-110201008D01*
X110136677Y-110192414D01*
X110315835Y-110302415D01*
X110586700Y-110553145D01*
X111018998Y-110992042D01*
X109309780Y-110992042D01*
X107600562Y-110992042D01*
X108696540Y-109893426D01*
X109792518Y-108794810D01*
X110324476Y-108794810D01*
X110474994Y-108794034D01*
X110709134Y-108777264D01*
X110882261Y-108717070D01*
X111055325Y-108585690D01*
X111289273Y-108355364D01*
X111722112Y-107915917D01*
X110492766Y-107915917D01*
X109263421Y-107915917D01*
X108612979Y-108570729D01*
X108402534Y-108775733D01*
X108156045Y-108996436D01*
X107972572Y-109137586D01*
X107881124Y-109175224D01*
X107881911Y-109138082D01*
X107972394Y-108997445D01*
X108152551Y-108781952D01*
X108399575Y-108520413D01*
X108999438Y-107915917D01*
X108564184Y-107915917D01*
X108408771Y-107918386D01*
X108251614Y-107939860D01*
X108106376Y-108001486D01*
X107939093Y-108124388D01*
X107715803Y-108329694D01*
X107402545Y-108638530D01*
X106676160Y-109361142D01*
X107090265Y-109781569D01*
X107504370Y-110201996D01*
X106894334Y-110816742D01*
X106284299Y-111431488D01*
X105837660Y-111431488D01*
X105857528Y-111430967D01*
X106076464Y-111322591D01*
X106325515Y-111116254D01*
X106630667Y-110816742D01*
X107240702Y-110201996D01*
X106806612Y-109761279D01*
X106372522Y-109320562D01*
X107203210Y-108486406D01*
X108033898Y-107652249D01*
X110235066Y-107652249D01*
X112436233Y-107652249D01*
X113091184Y-106992898D01*
X113746135Y-106333546D01*
X114473643Y-107057274D01*
X115200297Y-107780154D01*
X115201150Y-107781003D01*
X113993238Y-108991231D01*
X112785326Y-110201459D01*
X113421560Y-110837692D01*
X114057794Y-111473926D01*
X115991354Y-109541865D01*
X116216848Y-109315949D01*
X116676097Y-108851952D01*
X117085569Y-108433034D01*
X117430225Y-108074903D01*
X117695026Y-107793266D01*
X117864935Y-107603830D01*
X117924913Y-107522302D01*
X117924253Y-107518738D01*
X117853037Y-107420617D01*
X117677685Y-107221703D01*
X117417278Y-106942493D01*
X117090894Y-106603488D01*
X116717613Y-106225186D01*
X115510313Y-105015571D01*
X116477017Y-105015571D01*
X117443720Y-105015571D01*
X118759862Y-106333910D01*
X120076003Y-107652249D01*
X125481488Y-107652249D01*
X130886973Y-107652249D01*
X129098136Y-105861815D01*
X128808214Y-105570401D01*
X128273752Y-105024287D01*
X127868144Y-104595443D01*
X127590676Y-104283080D01*
X127440632Y-104086407D01*
X127417296Y-104004634D01*
X127475315Y-104021779D01*
X127656649Y-104155407D01*
X127953409Y-104414745D01*
X128363402Y-104797781D01*
X128884433Y-105302504D01*
X129514308Y-105926902D01*
X131503323Y-107915917D01*
X125789699Y-107915917D01*
X120076074Y-107915917D01*
X118715917Y-106553634D01*
X117355760Y-105191350D01*
X116717499Y-105191350D01*
X116673618Y-105191508D01*
X116372505Y-105202091D01*
X116159830Y-105225982D01*
X116079239Y-105258586D01*
X116124087Y-105322304D01*
X116275752Y-105492880D01*
X116515335Y-105747173D01*
X116822811Y-106063980D01*
X117178156Y-106422100D01*
X118277073Y-107518379D01*
X116321968Y-109474934D01*
X116016618Y-109780617D01*
X115535961Y-110263187D01*
X115163245Y-110641191D01*
X114887723Y-110927384D01*
X114698645Y-111134520D01*
X114585264Y-111275351D01*
X114536832Y-111362633D01*
X114542600Y-111409118D01*
X114591819Y-111427562D01*
X114673743Y-111430716D01*
X114689509Y-111430534D01*
X114801759Y-111417096D01*
X114921439Y-111371290D01*
X115067790Y-111277564D01*
X115260055Y-111120363D01*
X115517477Y-110884134D01*
X115859298Y-110553323D01*
X116304760Y-110112377D01*
X116661271Y-109760303D01*
X117058031Y-109378945D01*
X117360792Y-109104384D01*
X117584449Y-108923953D01*
X117743897Y-108824985D01*
X117854033Y-108794810D01*
X127957340Y-108794810D01*
X128464125Y-109278201D01*
X128970910Y-109761592D01*
X130629857Y-109761592D01*
X132288805Y-109761592D01*
X131811419Y-109278201D01*
X131334032Y-108794810D01*
X129645686Y-108794810D01*
X127957340Y-108794810D01*
X117854033Y-108794810D01*
X118020638Y-108765108D01*
X118188581Y-108662976D01*
X118220962Y-108640316D01*
X118293012Y-108618288D01*
X118414154Y-108599370D01*
X118595903Y-108583334D01*
X118849778Y-108569953D01*
X119187295Y-108558998D01*
X119619970Y-108550242D01*
X120159322Y-108543457D01*
X120816867Y-108538417D01*
X121604121Y-108534893D01*
X122532602Y-108532657D01*
X123613827Y-108531483D01*
X124859312Y-108531142D01*
X131420631Y-108531142D01*
X132031142Y-109146367D01*
X132641652Y-109761592D01*
X134886407Y-109761592D01*
X137131162Y-109761592D01*
X137483025Y-109761592D01*
X139548482Y-109761592D01*
X141613940Y-109761592D01*
X142619987Y-108752683D01*
X143626033Y-107743774D01*
X151532888Y-107741058D01*
X151549257Y-107741053D01*
X152712024Y-107740173D01*
X153823971Y-107738421D01*
X154872603Y-107735870D01*
X155845423Y-107732590D01*
X156729936Y-107728655D01*
X157513645Y-107724136D01*
X158184056Y-107719104D01*
X158728672Y-107713633D01*
X159134996Y-107707793D01*
X159390534Y-107701656D01*
X159482790Y-107695296D01*
X159472340Y-107693125D01*
X159327994Y-107687557D01*
X159023035Y-107682223D01*
X158568448Y-107677171D01*
X157975218Y-107672449D01*
X157254329Y-107668103D01*
X156416765Y-107664183D01*
X155473512Y-107660735D01*
X154435553Y-107657807D01*
X153313873Y-107655447D01*
X152119457Y-107653702D01*
X150863289Y-107652621D01*
X149556354Y-107652249D01*
X139586872Y-107652249D01*
X138534948Y-108706921D01*
X137483025Y-109761592D01*
X137131162Y-109761592D01*
X138315225Y-108575087D01*
X139499288Y-107388582D01*
X149497914Y-107388582D01*
X159496540Y-107388582D01*
X159496540Y-106641523D01*
X159496540Y-105894464D01*
X149146579Y-105894464D01*
X138796618Y-105894464D01*
X137348443Y-107344637D01*
X135900268Y-108794810D01*
X134932921Y-108794810D01*
X133965573Y-108794810D01*
X130691399Y-105521509D01*
X127417224Y-102248207D01*
X126736773Y-102928659D01*
X126056322Y-103609110D01*
X127592617Y-105147289D01*
X129128912Y-106685467D01*
X124910301Y-106685467D01*
X120691691Y-106685467D01*
X119023529Y-105015571D01*
X117355368Y-103345675D01*
X116561927Y-103345675D01*
X115768486Y-103345675D01*
X114848553Y-104268749D01*
X113928621Y-105191822D01*
X115223781Y-106489145D01*
X116518940Y-107786467D01*
X115423203Y-108879573D01*
X115108542Y-109188121D01*
X114786490Y-109491560D01*
X114524190Y-109725129D01*
X114342660Y-109870196D01*
X114262917Y-109908131D01*
X114272473Y-109870441D01*
X114378248Y-109724211D01*
X114578212Y-109491604D01*
X114852876Y-109194906D01*
X115182748Y-108856402D01*
X115390157Y-108646431D01*
X115698322Y-108326278D01*
X115944654Y-108059989D01*
X116107981Y-107870685D01*
X116167128Y-107781487D01*
X116166952Y-107779793D01*
X116101324Y-107687070D01*
X115930582Y-107493014D01*
X115674035Y-107218324D01*
X115350992Y-106883696D01*
X114980762Y-106509828D01*
X113794396Y-105325904D01*
X112848012Y-106269353D01*
X111901628Y-107212803D01*
X109531322Y-107212803D01*
X107161016Y-107212803D01*
X106083624Y-108287608D01*
X105006233Y-109362413D01*
X105551557Y-109912628D01*
X105843240Y-110226349D01*
X105996876Y-110440156D01*
X106009161Y-110550563D01*
X105994635Y-110559132D01*
X105864160Y-110512608D01*
X105628399Y-110326250D01*
X105287853Y-110000438D01*
X104654265Y-109362593D01*
X105664676Y-108355049D01*
X105894957Y-108123644D01*
X106204899Y-107805852D01*
X106452174Y-107544510D01*
X106615873Y-107361863D01*
X106675086Y-107280154D01*
X106607067Y-107263791D01*
X106385006Y-107247274D01*
X106031159Y-107233227D01*
X105568708Y-107222340D01*
X105020833Y-107215302D01*
X104410717Y-107212803D01*
X102146347Y-107212803D01*
X100962066Y-106026080D01*
X99777785Y-104839356D01*
X98018211Y-106597360D01*
X96258637Y-108355364D01*
X94984029Y-108355364D01*
X93709421Y-108355364D01*
X92261246Y-106905191D01*
X90813071Y-105455018D01*
X83210918Y-105455018D01*
X75608765Y-105455018D01*
X76748789Y-104312457D01*
X77888813Y-103169897D01*
X81647348Y-103169897D01*
X82127954Y-103169322D01*
X82889650Y-103165941D01*
X83583527Y-103159819D01*
X84191593Y-103151292D01*
X84695855Y-103140696D01*
X85078319Y-103128366D01*
X85320993Y-103114637D01*
X85405882Y-103099844D01*
X85380879Y-103048879D01*
X85259974Y-102899518D01*
X85072592Y-102704342D01*
X84739301Y-102378893D01*
X80391519Y-102378893D01*
X76043736Y-102378893D01*
X74551557Y-103873011D01*
X73059379Y-105367128D01*
X72220922Y-105367128D01*
X71382465Y-105367128D01*
X70816025Y-104795608D01*
X70249584Y-104224087D01*
X70948336Y-103521213D01*
X71647087Y-102818339D01*
X72613869Y-102818339D01*
X73580651Y-102818339D01*
X72886044Y-103517044D01*
X72634130Y-103761820D01*
X72384696Y-103984830D01*
X72200808Y-104127198D01*
X72110333Y-104165624D01*
X72103789Y-104153361D01*
X72155078Y-104043830D01*
X72302348Y-103854675D01*
X72521362Y-103618177D01*
X72583962Y-103554403D01*
X72802611Y-103322517D01*
X72955779Y-103145497D01*
X73013495Y-103057486D01*
X73011919Y-103053032D01*
X72910985Y-103023182D01*
X72683791Y-103002104D01*
X72373940Y-102994118D01*
X71734386Y-102994118D01*
X71124199Y-103609017D01*
X70514011Y-104223916D01*
X70991720Y-104707633D01*
X71469428Y-105191350D01*
X72220552Y-105191350D01*
X72971677Y-105191350D01*
X74310925Y-103850008D01*
X74465319Y-103694940D01*
X74843740Y-103310972D01*
X75169483Y-102974922D01*
X75424501Y-102705739D01*
X75590747Y-102522375D01*
X75650173Y-102443779D01*
X75582113Y-102428011D01*
X75360011Y-102412100D01*
X75006128Y-102398568D01*
X74543643Y-102388080D01*
X73995738Y-102381301D01*
X73385591Y-102378893D01*
X71121008Y-102378893D01*
X70113300Y-103389468D01*
X69105592Y-104400043D01*
X69926312Y-105224190D01*
X70000574Y-105299307D01*
X70284672Y-105598081D01*
X70503825Y-105847007D01*
X70637607Y-106021925D01*
X70665590Y-106098671D01*
X70647767Y-106097852D01*
X70523426Y-106018291D01*
X70309942Y-105840507D01*
X70031685Y-105585582D01*
X69713025Y-105274600D01*
X68841902Y-104400196D01*
X69785138Y-103454026D01*
X69957877Y-103279659D01*
X70262642Y-102966104D01*
X70507014Y-102706811D01*
X70669442Y-102524870D01*
X70728374Y-102443375D01*
X70700198Y-102434266D01*
X70524474Y-102419333D01*
X70205688Y-102406047D01*
X69764638Y-102394882D01*
X69222127Y-102386317D01*
X68598953Y-102380829D01*
X67915917Y-102378893D01*
X65103460Y-102378893D01*
X64829537Y-102378893D01*
X64828256Y-101753227D01*
X64827353Y-101236333D01*
X65103460Y-101236333D01*
X65103460Y-101719724D01*
X65103460Y-102203115D01*
X74971570Y-102203115D01*
X84839680Y-102203115D01*
X85405882Y-102774395D01*
X85972085Y-103345675D01*
X82018107Y-103345675D01*
X78064130Y-103345675D01*
X77100346Y-104312457D01*
X76136562Y-105279239D01*
X83562737Y-105279239D01*
X90988912Y-105279239D01*
X92393080Y-106685467D01*
X93797248Y-108091696D01*
X94984016Y-108091696D01*
X96170785Y-108091696D01*
X97974234Y-106289781D01*
X99777683Y-104487865D01*
X101049988Y-105762445D01*
X102322294Y-107037025D01*
X107070201Y-107037025D01*
X111818107Y-107037025D01*
X113750173Y-105103461D01*
X115682239Y-103169897D01*
X116562748Y-103169897D01*
X117443257Y-103169897D01*
X119111419Y-104839793D01*
X120779580Y-106509689D01*
X124687847Y-106509689D01*
X128596114Y-106509689D01*
X128207958Y-106114187D01*
X127819803Y-105718685D01*
X126235078Y-105718685D01*
X124650354Y-105718685D01*
X125144978Y-105224061D01*
X125419559Y-104969801D01*
X125627721Y-104820423D01*
X125745240Y-104794724D01*
X125772453Y-104837163D01*
X125714491Y-104974624D01*
X125517464Y-105201459D01*
X125184049Y-105542907D01*
X126408865Y-105542907D01*
X127633680Y-105542907D01*
X126669429Y-104575656D01*
X125705178Y-103608406D01*
X126561131Y-102752453D01*
X127417085Y-101896499D01*
X130735268Y-105213821D01*
X134053451Y-108531142D01*
X134932915Y-108531142D01*
X135812379Y-108531142D01*
X137260554Y-107080969D01*
X138708729Y-105630796D01*
X149102634Y-105630796D01*
X159496540Y-105630796D01*
X159496540Y-104664014D01*
X159496540Y-103697232D01*
X152659476Y-103697232D01*
X145822412Y-103697232D01*
X145434256Y-104092734D01*
X145046100Y-104488236D01*
X141615613Y-104488236D01*
X138185127Y-104488236D01*
X136579997Y-106091606D01*
X134974868Y-107694977D01*
X130557906Y-103278665D01*
X126140945Y-98862353D01*
X125768363Y-99234935D01*
X125395781Y-99607517D01*
X126230628Y-100445508D01*
X127065474Y-101283499D01*
X126206549Y-102139202D01*
X125347623Y-102994904D01*
X124755938Y-102398651D01*
X124164253Y-101802397D01*
X124639459Y-101333094D01*
X124895653Y-101099266D01*
X125102135Y-100953615D01*
X125219567Y-100928624D01*
X125240607Y-100987075D01*
X125150821Y-101147166D01*
X124920397Y-101403698D01*
X124516324Y-101813940D01*
X124936476Y-102227774D01*
X125356628Y-102641608D01*
X126035232Y-101959000D01*
X126713837Y-101276392D01*
X125965982Y-100532423D01*
X125218127Y-99788453D01*
X123835630Y-101170950D01*
X122453132Y-102553448D01*
X123373890Y-103477350D01*
X124294648Y-104401252D01*
X123570706Y-105125195D01*
X122846764Y-105849137D01*
X120825505Y-103829311D01*
X118804246Y-101809486D01*
X119189869Y-101423863D01*
X119356036Y-101269563D01*
X119559078Y-101125356D01*
X119681005Y-101103452D01*
X119708440Y-101140584D01*
X119660195Y-101271858D01*
X119472384Y-101490365D01*
X119158251Y-101812067D01*
X121002435Y-103654683D01*
X122846619Y-105497299D01*
X123394748Y-104949169D01*
X123942878Y-104401039D01*
X123022410Y-103477428D01*
X122101942Y-102553816D01*
X124121454Y-100532872D01*
X126140965Y-98511927D01*
X126668188Y-99039150D01*
X127195411Y-99566373D01*
X128668292Y-98095404D01*
X130141173Y-96624434D01*
X131239705Y-97720330D01*
X132338238Y-98816225D01*
X131616574Y-99541657D01*
X131445812Y-99710539D01*
X131125301Y-100004857D01*
X130912295Y-100161214D01*
X130807150Y-100179330D01*
X130798607Y-100164968D01*
X130844223Y-100034025D01*
X131029133Y-99796793D01*
X131353046Y-99453656D01*
X131986702Y-98815743D01*
X131063500Y-97895683D01*
X130140299Y-96975624D01*
X128756892Y-98359030D01*
X127373486Y-99742437D01*
X131174052Y-103543002D01*
X134974617Y-107343568D01*
X136492031Y-105828012D01*
X138009445Y-104312457D01*
X141479438Y-104312457D01*
X144949432Y-104312457D01*
X145808087Y-103454438D01*
X146137370Y-103454438D01*
X146138832Y-103455845D01*
X146246194Y-103466482D01*
X146514093Y-103476575D01*
X146929032Y-103485987D01*
X147477514Y-103494584D01*
X148146041Y-103502230D01*
X148921117Y-103508790D01*
X149789243Y-103514127D01*
X150736923Y-103518107D01*
X151750660Y-103520594D01*
X152816955Y-103521454D01*
X159496540Y-103521454D01*
X159496540Y-102730450D01*
X159496540Y-101939447D01*
X154769952Y-101939447D01*
X150043365Y-101939447D01*
X149477163Y-101368166D01*
X149348826Y-101240947D01*
X149105824Y-101013150D01*
X148919234Y-100855678D01*
X148821596Y-100796886D01*
X148820805Y-100796931D01*
X148732538Y-100859325D01*
X148545193Y-101024825D01*
X148281417Y-101271009D01*
X147963858Y-101575454D01*
X147615162Y-101915739D01*
X147257978Y-102269441D01*
X146914952Y-102614138D01*
X146608730Y-102927408D01*
X146361962Y-103186830D01*
X146197293Y-103369980D01*
X146137370Y-103454438D01*
X145808087Y-103454438D01*
X146885253Y-102378070D01*
X148821074Y-100443683D01*
X149432401Y-101059731D01*
X150043729Y-101675779D01*
X154770134Y-101675779D01*
X159496540Y-101675779D01*
X159496540Y-101104499D01*
X159496540Y-100533218D01*
X155166494Y-100533218D01*
X150836449Y-100533218D01*
X149872664Y-99566436D01*
X149681905Y-99376839D01*
X149363889Y-99069033D01*
X149098436Y-98822584D01*
X148908957Y-98658966D01*
X148818858Y-98599654D01*
X148818191Y-98599707D01*
X148734209Y-98663269D01*
X148541288Y-98837486D01*
X148253782Y-99108540D01*
X147886044Y-99462613D01*
X147452429Y-99885888D01*
X146967290Y-100364548D01*
X146444983Y-100884775D01*
X144161129Y-103169897D01*
X140733878Y-103169897D01*
X137306626Y-103169897D01*
X136008732Y-104465627D01*
X134710838Y-105761357D01*
X131921937Y-102972457D01*
X129133036Y-100183556D01*
X129828585Y-99483904D01*
X130081404Y-99238289D01*
X130330968Y-99015268D01*
X130514970Y-98872937D01*
X130605555Y-98834572D01*
X130597765Y-98884529D01*
X130492522Y-99037092D01*
X130299815Y-99262894D01*
X130041914Y-99534290D01*
X129396852Y-100183686D01*
X132053849Y-102840684D01*
X134710847Y-105497681D01*
X136008736Y-104201955D01*
X137306626Y-102906229D01*
X140732645Y-102906229D01*
X144158663Y-102906229D01*
X146489345Y-100576745D01*
X148820027Y-98247262D01*
X149828303Y-99258406D01*
X150836579Y-100269551D01*
X155166559Y-100269551D01*
X159496540Y-100269551D01*
X159496540Y-99610381D01*
X159496540Y-98951211D01*
X155166494Y-98951211D01*
X150836449Y-98951211D01*
X149872664Y-97984429D01*
X149681916Y-97794847D01*
X149363871Y-97487036D01*
X149098372Y-97240582D01*
X148908834Y-97076960D01*
X148818668Y-97017647D01*
X148813220Y-97019243D01*
X148711808Y-97097718D01*
X148506119Y-97282936D01*
X148212740Y-97559107D01*
X147848257Y-97910440D01*
X147429254Y-98321145D01*
X146972318Y-98775433D01*
X145216181Y-100533218D01*
X144290579Y-100533218D01*
X143364977Y-100533218D01*
X142621799Y-101280277D01*
X141878621Y-102027336D01*
X139417216Y-102027336D01*
X136955812Y-102027336D01*
X136012484Y-102967739D01*
X135835536Y-103141882D01*
X135523980Y-103436747D01*
X135266417Y-103665258D01*
X135085712Y-103807538D01*
X135004729Y-103843714D01*
X135011438Y-103811021D01*
X135111105Y-103670194D01*
X135305746Y-103442260D01*
X135575668Y-103149806D01*
X135901178Y-102815422D01*
X136862054Y-101851557D01*
X139326652Y-101851557D01*
X141791250Y-101851557D01*
X142446021Y-101192388D01*
X143100791Y-100533218D01*
X139808242Y-100533218D01*
X136515694Y-100533218D01*
X135262321Y-101784355D01*
X134008948Y-103035492D01*
X132997789Y-102027202D01*
X131986631Y-101018912D01*
X133590002Y-99413781D01*
X135193374Y-97808651D01*
X139766447Y-97808651D01*
X144339521Y-97808651D01*
X145062667Y-97081729D01*
X145333387Y-96804910D01*
X145568296Y-96555082D01*
X145727324Y-96374697D01*
X145785813Y-96290725D01*
X145717866Y-96272076D01*
X145500147Y-96253914D01*
X145159684Y-96239526D01*
X144724372Y-96230055D01*
X144222105Y-96226644D01*
X142658398Y-96226644D01*
X142270242Y-96622146D01*
X141882087Y-97017647D01*
X138057595Y-97017647D01*
X134233103Y-97017647D01*
X133681430Y-97564416D01*
X133129758Y-98111185D01*
X132559409Y-97545907D01*
X132541287Y-97527900D01*
X132245322Y-97213879D01*
X132090286Y-97001993D01*
X132076719Y-96892970D01*
X132159833Y-96889428D01*
X132353648Y-97014425D01*
X132647194Y-97282132D01*
X133130012Y-97758952D01*
X133637797Y-97256466D01*
X134145582Y-96753980D01*
X137971745Y-96753980D01*
X141797909Y-96753980D01*
X142050519Y-96490312D01*
X142303129Y-96226644D01*
X134617869Y-96226644D01*
X126932609Y-96226644D01*
X123901863Y-99258345D01*
X120871117Y-102290046D01*
X121876512Y-103298302D01*
X122107437Y-103533426D01*
X122406075Y-103849858D01*
X122636740Y-104109709D01*
X122780126Y-104290946D01*
X122816928Y-104371538D01*
X122758704Y-104348659D01*
X122593435Y-104221143D01*
X122344352Y-104002032D01*
X122032699Y-103710142D01*
X121679717Y-103364287D01*
X120607485Y-102292056D01*
X121551320Y-101345285D01*
X121724589Y-101170381D01*
X122029395Y-100856779D01*
X122273788Y-100597465D01*
X122436223Y-100415522D01*
X122495156Y-100334032D01*
X122485026Y-100328356D01*
X122345581Y-100312600D01*
X122059287Y-100298518D01*
X121647702Y-100286641D01*
X121132384Y-100277500D01*
X120534890Y-100271626D01*
X119876777Y-100269551D01*
X117258398Y-100269551D01*
X116870242Y-100665052D01*
X116482087Y-101060554D01*
X111402808Y-101060554D01*
X110499200Y-101059740D01*
X109405053Y-101056021D01*
X108472980Y-101049331D01*
X107705259Y-101039706D01*
X107104174Y-101027188D01*
X106672003Y-101011815D01*
X106411028Y-100993628D01*
X106323529Y-100972665D01*
X106362725Y-100958227D01*
X106566463Y-100938987D01*
X106942054Y-100922594D01*
X107487161Y-100909089D01*
X108199446Y-100898514D01*
X109076569Y-100890909D01*
X110116192Y-100886316D01*
X111315977Y-100884775D01*
X116308425Y-100884775D01*
X116606574Y-100577163D01*
X116904724Y-100269551D01*
X110032120Y-100269551D01*
X109730692Y-100269612D01*
X108661804Y-100270841D01*
X107648938Y-100273553D01*
X106705398Y-100277624D01*
X105844492Y-100282929D01*
X105079526Y-100289345D01*
X104423806Y-100296746D01*
X103890639Y-100305010D01*
X103493330Y-100314011D01*
X103245187Y-100323625D01*
X103159516Y-100333729D01*
X103159805Y-100335788D01*
X103226058Y-100426651D01*
X103391913Y-100613115D01*
X103633442Y-100869138D01*
X103926714Y-101168677D01*
X104693913Y-101939447D01*
X109264851Y-101939447D01*
X113835789Y-101939447D01*
X112563668Y-103213841D01*
X111291547Y-104488236D01*
X107335740Y-104488236D01*
X103379933Y-104488236D01*
X99292250Y-100401247D01*
X95204567Y-96314258D01*
X92876608Y-98643461D01*
X90548649Y-100972665D01*
X92865113Y-103290367D01*
X93003920Y-103429408D01*
X93667553Y-104099638D01*
X94203053Y-104650776D01*
X94610907Y-105083346D01*
X94891599Y-105397873D01*
X95045617Y-105594883D01*
X95073446Y-105674899D01*
X95060976Y-105676127D01*
X94937033Y-105600980D01*
X94695153Y-105399282D01*
X94336973Y-105072554D01*
X93864127Y-104622317D01*
X93278253Y-104050092D01*
X92580987Y-103357401D01*
X90196660Y-100973074D01*
X92568654Y-98599859D01*
X94940648Y-96226644D01*
X89534931Y-96226644D01*
X84129214Y-96226644D01*
X82857093Y-97501038D01*
X81584973Y-98775433D01*
X78241686Y-98775433D01*
X74898400Y-98775433D01*
X74307504Y-99370891D01*
X74157580Y-99524064D01*
X73930805Y-99765219D01*
X73774710Y-99944041D01*
X73716609Y-100030061D01*
X73733443Y-100035493D01*
X73890947Y-100047335D01*
X74200894Y-100058320D01*
X74647087Y-100068226D01*
X75213328Y-100076829D01*
X75883420Y-100083908D01*
X76641166Y-100089240D01*
X77470369Y-100092602D01*
X78354830Y-100093772D01*
X82993051Y-100093772D01*
X83692041Y-100796886D01*
X84391032Y-101500000D01*
X76747790Y-101500000D01*
X69104549Y-101500000D01*
X70464706Y-100137717D01*
X71824863Y-98775433D01*
X71033745Y-98775433D01*
X70242628Y-98775433D01*
X69014533Y-100005883D01*
X67786438Y-101236333D01*
X66444949Y-101236333D01*
X65103460Y-101236333D01*
X64827353Y-101236333D01*
X64826835Y-100939770D01*
X64826475Y-100265485D01*
X64827048Y-100005883D01*
X65103460Y-100005883D01*
X65103460Y-100489274D01*
X65103460Y-100972665D01*
X66401146Y-100972665D01*
X67698831Y-100972665D01*
X68794810Y-99874049D01*
X69890788Y-98775433D01*
X69098746Y-98775433D01*
X68306704Y-98775433D01*
X67696194Y-99390658D01*
X67085683Y-100005883D01*
X66094572Y-100005883D01*
X65103460Y-100005883D01*
X64827048Y-100005883D01*
X64827685Y-99717275D01*
X64830969Y-99282045D01*
X64832144Y-99214879D01*
X65103460Y-99214879D01*
X65103460Y-99478547D01*
X65103460Y-99742215D01*
X66050809Y-99742215D01*
X66998157Y-99742215D01*
X67564360Y-99170935D01*
X68130562Y-98599654D01*
X70241380Y-98599654D01*
X72352198Y-98599654D01*
X70992041Y-99961938D01*
X69631885Y-101324222D01*
X76747101Y-101324222D01*
X83862318Y-101324222D01*
X83340484Y-100796886D01*
X82818651Y-100269551D01*
X77983726Y-100269551D01*
X73148800Y-100269551D01*
X73980277Y-99434602D01*
X74811753Y-98599654D01*
X78110474Y-98599654D01*
X81409194Y-98599654D01*
X82681315Y-97325260D01*
X83953436Y-96050865D01*
X89623781Y-96050865D01*
X95294127Y-96050865D01*
X99424221Y-100181661D01*
X103554316Y-104312457D01*
X107379224Y-104312457D01*
X111204132Y-104312457D01*
X112256055Y-103257786D01*
X113307979Y-102203115D01*
X109001404Y-102203115D01*
X104694830Y-102203115D01*
X103642907Y-101148443D01*
X102590983Y-100093772D01*
X112697592Y-100093772D01*
X122804201Y-100093772D01*
X124824221Y-98072319D01*
X126844242Y-96050865D01*
X136599234Y-96050865D01*
X146354226Y-96050865D01*
X145346367Y-97061592D01*
X144338507Y-98072319D01*
X139765833Y-98072319D01*
X135193158Y-98072319D01*
X133765956Y-99501489D01*
X133537013Y-99731897D01*
X133152372Y-100124584D01*
X132822702Y-100468308D01*
X132565525Y-100744429D01*
X132398368Y-100934311D01*
X132338754Y-101019315D01*
X132342044Y-101030465D01*
X132426919Y-101146640D01*
X132609319Y-101353935D01*
X132866071Y-101626816D01*
X133174003Y-101939746D01*
X134009251Y-102771521D01*
X135262473Y-101520536D01*
X136515694Y-100269551D01*
X140864347Y-100269551D01*
X145212999Y-100269551D01*
X147016597Y-98467487D01*
X148820195Y-96665423D01*
X149828387Y-97676483D01*
X150836579Y-98687544D01*
X155166559Y-98687544D01*
X159496540Y-98687544D01*
X159496540Y-98160208D01*
X159496540Y-97632872D01*
X155386448Y-97632872D01*
X151276356Y-97632872D01*
X150136332Y-96490312D01*
X149784376Y-96141881D01*
X149454510Y-95823990D01*
X149184098Y-95572542D01*
X148994340Y-95407231D01*
X148906434Y-95347751D01*
X148870417Y-95370372D01*
X148720946Y-95499296D01*
X148472540Y-95729512D01*
X148140548Y-96046316D01*
X147740318Y-96435003D01*
X147287199Y-96880867D01*
X146796540Y-97369204D01*
X144776520Y-99390658D01*
X140338715Y-99390658D01*
X135900910Y-99390658D01*
X134869870Y-100419012D01*
X134614118Y-100670120D01*
X134296197Y-100970118D01*
X134035753Y-101201653D01*
X133854532Y-101345596D01*
X133774279Y-101382815D01*
X133793436Y-101330143D01*
X133915532Y-101169549D01*
X134129750Y-100924417D01*
X134417121Y-100616256D01*
X134758681Y-100266572D01*
X135807633Y-99214879D01*
X140248148Y-99214879D01*
X144688662Y-99214879D01*
X146664706Y-97237371D01*
X148640749Y-95259862D01*
X137259120Y-95259862D01*
X125877490Y-95259862D01*
X123813495Y-97325260D01*
X121749499Y-99390658D01*
X111136168Y-99390658D01*
X110095065Y-99390971D01*
X108782106Y-99392282D01*
X107527141Y-99394556D01*
X106340877Y-99397726D01*
X105234022Y-99401726D01*
X104217284Y-99406491D01*
X103301371Y-99411956D01*
X102496990Y-99418054D01*
X101814849Y-99424720D01*
X101265655Y-99431888D01*
X100860117Y-99439493D01*
X100608942Y-99447469D01*
X100522837Y-99455750D01*
X100522989Y-99456777D01*
X100588442Y-99539344D01*
X100761826Y-99728234D01*
X101027102Y-100006772D01*
X101368227Y-100358285D01*
X101769160Y-100766098D01*
X102213861Y-101213536D01*
X103904884Y-102906229D01*
X107750885Y-102906229D01*
X108601672Y-102906708D01*
X109387587Y-102908659D01*
X110025817Y-102912592D01*
X110531107Y-102919012D01*
X110918203Y-102928424D01*
X111201851Y-102941334D01*
X111396798Y-102958247D01*
X111517788Y-102979669D01*
X111579569Y-103006106D01*
X111596886Y-103038063D01*
X111582918Y-103067209D01*
X111526030Y-103094153D01*
X111411341Y-103116034D01*
X111224105Y-103133358D01*
X110949574Y-103146629D01*
X110573002Y-103156353D01*
X110079642Y-103163037D01*
X109454747Y-103167185D01*
X108683570Y-103169303D01*
X107751364Y-103169897D01*
X103905842Y-103169897D01*
X99951557Y-99214879D01*
X95997272Y-95259862D01*
X89667741Y-95259862D01*
X83338211Y-95259862D01*
X82066090Y-96534256D01*
X80793969Y-97808651D01*
X77495954Y-97808651D01*
X74197940Y-97808651D01*
X72814714Y-99193906D01*
X72622246Y-99387288D01*
X72240920Y-99774427D01*
X71913426Y-100112290D01*
X71657519Y-100382262D01*
X71490955Y-100565730D01*
X71431488Y-100644079D01*
X71431977Y-100644960D01*
X71529882Y-100656454D01*
X71787374Y-100667279D01*
X72189387Y-100677252D01*
X72720855Y-100686192D01*
X73366714Y-100693915D01*
X74111896Y-100700240D01*
X74941338Y-100704983D01*
X75839972Y-100707963D01*
X76792734Y-100708997D01*
X77968431Y-100710259D01*
X79066230Y-100714364D01*
X80000922Y-100721284D01*
X80770399Y-100730983D01*
X81372552Y-100743427D01*
X81805272Y-100758582D01*
X82066451Y-100776414D01*
X82153979Y-100796886D01*
X82152278Y-100799821D01*
X82040420Y-100819483D01*
X81755029Y-100836623D01*
X81298061Y-100851209D01*
X80671473Y-100863212D01*
X79877220Y-100872600D01*
X78917259Y-100879344D01*
X77793545Y-100883412D01*
X76508035Y-100884775D01*
X70862091Y-100884775D01*
X72398270Y-99346713D01*
X73934448Y-97808651D01*
X70813259Y-97808651D01*
X67692070Y-97808651D01*
X66993080Y-98511765D01*
X66294089Y-99214879D01*
X65698775Y-99214879D01*
X65103460Y-99214879D01*
X64832144Y-99214879D01*
X64836837Y-98946696D01*
X64845793Y-98698133D01*
X64846553Y-98687544D01*
X65103460Y-98687544D01*
X65103460Y-98951211D01*
X65654830Y-98951211D01*
X66206200Y-98951211D01*
X66905190Y-98248097D01*
X67604181Y-97544983D01*
X74155130Y-97544983D01*
X80706080Y-97544983D01*
X81978201Y-96270589D01*
X83250321Y-94996194D01*
X89624117Y-94996194D01*
X95997913Y-94996194D01*
X98105882Y-97105537D01*
X100213851Y-99214879D01*
X110937716Y-99214879D01*
X121661581Y-99214879D01*
X123769550Y-97105537D01*
X125877519Y-94996194D01*
X137392878Y-94996194D01*
X148908237Y-94996194D01*
X150136332Y-96226644D01*
X151364427Y-97457094D01*
X155430483Y-97457094D01*
X159496540Y-97457094D01*
X159496540Y-97105537D01*
X159496540Y-96753980D01*
X155739273Y-96743572D01*
X155267610Y-96742307D01*
X154501868Y-96740441D01*
X153801992Y-96738967D01*
X153186300Y-96737909D01*
X152673112Y-96737294D01*
X152280745Y-96737146D01*
X152027519Y-96737490D01*
X151931752Y-96738351D01*
X151920085Y-96732245D01*
X151809397Y-96637297D01*
X151600206Y-96441485D01*
X151311408Y-96162965D01*
X150961897Y-95819892D01*
X150570567Y-95430420D01*
X149259637Y-94117301D01*
X137260980Y-94117301D01*
X125262322Y-94117301D01*
X123110381Y-96270589D01*
X120958439Y-98423876D01*
X114036486Y-98423876D01*
X113405914Y-98423842D01*
X112218986Y-98423468D01*
X111190994Y-98422471D01*
X110310562Y-98420601D01*
X109566317Y-98417603D01*
X108946883Y-98413226D01*
X108440888Y-98407217D01*
X108036955Y-98399323D01*
X107723711Y-98389292D01*
X107489781Y-98376870D01*
X107323791Y-98361806D01*
X107214366Y-98343847D01*
X107150131Y-98322739D01*
X107119714Y-98298231D01*
X107111738Y-98270070D01*
X107109432Y-98207524D01*
X107083145Y-98164184D01*
X106995299Y-98265814D01*
X106982615Y-98280698D01*
X106930833Y-98317458D01*
X106841925Y-98347009D01*
X106698561Y-98370176D01*
X106483409Y-98387781D01*
X106179136Y-98400647D01*
X105768413Y-98409597D01*
X105233906Y-98415456D01*
X104558285Y-98419045D01*
X103724219Y-98421189D01*
X100566782Y-98427015D01*
X98502085Y-96360047D01*
X96437389Y-94293080D01*
X89673230Y-94293080D01*
X82909072Y-94293080D01*
X81755206Y-95435640D01*
X80601341Y-96578201D01*
X76684987Y-96578201D01*
X76311134Y-96578100D01*
X75418347Y-96576688D01*
X74681987Y-96573270D01*
X74087943Y-96567416D01*
X73622103Y-96558692D01*
X73270358Y-96546669D01*
X73018596Y-96530913D01*
X72852706Y-96510993D01*
X72758577Y-96486478D01*
X72722099Y-96456934D01*
X72723072Y-96432224D01*
X72809451Y-96287166D01*
X73010614Y-96043307D01*
X73314637Y-95714444D01*
X73709595Y-95314374D01*
X73862214Y-95163372D01*
X74197720Y-94827383D01*
X74424281Y-94590191D01*
X74554943Y-94434981D01*
X74602754Y-94344936D01*
X74580761Y-94303241D01*
X74502013Y-94293080D01*
X79687110Y-94293080D01*
X79746955Y-94248000D01*
X79913381Y-94096260D01*
X80164231Y-93856769D01*
X80478615Y-93549509D01*
X80835640Y-93194464D01*
X81931618Y-92095848D01*
X90018750Y-92094502D01*
X90174134Y-92094465D01*
X91346776Y-92093407D01*
X92468368Y-92091062D01*
X93526435Y-92087529D01*
X94508505Y-92082910D01*
X95402106Y-92077305D01*
X96194766Y-92070814D01*
X96874010Y-92063538D01*
X97427367Y-92055576D01*
X97842364Y-92047030D01*
X98106528Y-92038000D01*
X98207386Y-92028585D01*
X98206244Y-92026444D01*
X98096886Y-92017561D01*
X97826477Y-92009560D01*
X97407010Y-92002502D01*
X96850476Y-91996448D01*
X96168868Y-91991460D01*
X95374177Y-91987598D01*
X94478398Y-91984925D01*
X93493521Y-91983500D01*
X92431539Y-91983386D01*
X91304444Y-91984644D01*
X90124229Y-91987334D01*
X81939568Y-92010654D01*
X80787064Y-93151867D01*
X80785510Y-93153405D01*
X80425381Y-93512687D01*
X80117043Y-93825421D01*
X79878929Y-94072481D01*
X79729473Y-94234743D01*
X79687110Y-94293080D01*
X74502013Y-94293080D01*
X74448452Y-94294252D01*
X74310817Y-94333218D01*
X74300709Y-94447218D01*
X74302120Y-94471518D01*
X74238128Y-94610385D01*
X74061021Y-94837453D01*
X73763732Y-95161119D01*
X73339194Y-95589778D01*
X72337371Y-96578201D01*
X69757928Y-96578201D01*
X67178485Y-96578201D01*
X66241996Y-97501038D01*
X66082548Y-97656735D01*
X65763057Y-97959739D01*
X65493917Y-98203095D01*
X65299576Y-98365056D01*
X65204484Y-98423876D01*
X65203155Y-98423898D01*
X65132699Y-98502476D01*
X65103460Y-98687544D01*
X64846553Y-98687544D01*
X64858345Y-98523259D01*
X64874999Y-98408976D01*
X64896263Y-98342188D01*
X64922642Y-98309798D01*
X64954644Y-98298710D01*
X64992776Y-98295826D01*
X65037543Y-98288050D01*
X65090238Y-98260924D01*
X65272726Y-98125255D01*
X65538144Y-97899623D01*
X65859688Y-97607261D01*
X66210553Y-97271401D01*
X67185812Y-96314533D01*
X69727773Y-96314533D01*
X72269734Y-96314533D01*
X73146978Y-95425313D01*
X74024221Y-94536094D01*
X70597320Y-94590854D01*
X67170418Y-94645613D01*
X66094534Y-95718914D01*
X65909193Y-95902491D01*
X65505018Y-96289690D01*
X65209827Y-96549442D01*
X65019096Y-96685562D01*
X64928299Y-96701863D01*
X64926849Y-96699672D01*
X64912627Y-96589278D01*
X64900016Y-96318138D01*
X64889008Y-95884887D01*
X64879596Y-95288159D01*
X64871773Y-94526587D01*
X64865529Y-93598805D01*
X64860859Y-92503447D01*
X64857755Y-91239148D01*
X64856209Y-89804541D01*
X64856213Y-88198261D01*
X64857760Y-86418940D01*
X64860842Y-84465214D01*
X64883482Y-72454041D01*
X65102829Y-72454041D01*
X65125117Y-84428723D01*
X65147405Y-96403406D01*
X66136558Y-95414160D01*
X67125712Y-94424914D01*
X70574967Y-94378955D01*
X74024221Y-94332996D01*
X70598040Y-94313038D01*
X67171859Y-94293080D01*
X66278917Y-95182983D01*
X66182712Y-95278064D01*
X65853016Y-95590786D01*
X65579860Y-95829414D01*
X65384617Y-95976036D01*
X65288662Y-96012745D01*
X65283093Y-96002245D01*
X65268526Y-95897309D01*
X65255362Y-95677052D01*
X65243560Y-95336436D01*
X65233080Y-94870423D01*
X65223879Y-94273975D01*
X65215916Y-93542054D01*
X65209149Y-92669622D01*
X65203537Y-91651642D01*
X65199039Y-90483075D01*
X65195613Y-89158883D01*
X65193216Y-87674029D01*
X65191809Y-86023474D01*
X65191349Y-84202182D01*
X65191349Y-72451761D01*
X68641003Y-69003583D01*
X72090657Y-65555404D01*
X82850455Y-65553661D01*
X84010001Y-65553222D01*
X85329577Y-65552094D01*
X86590983Y-65550347D01*
X87783526Y-65548027D01*
X88896517Y-65545177D01*
X89919262Y-65541841D01*
X90841070Y-65538066D01*
X91651249Y-65533895D01*
X92339109Y-65529372D01*
X92893956Y-65524542D01*
X93305100Y-65519450D01*
X93561849Y-65514141D01*
X93653511Y-65508658D01*
X93590408Y-65503808D01*
X93362630Y-65498529D01*
X92979002Y-65493486D01*
X92450078Y-65488723D01*
X91786415Y-65484280D01*
X90998571Y-65480201D01*
X90097100Y-65476529D01*
X89092561Y-65473304D01*
X87995509Y-65470571D01*
X86816500Y-65468372D01*
X85566092Y-65466748D01*
X84254840Y-65465743D01*
X82893302Y-65465398D01*
X72089833Y-65465398D01*
X68596331Y-68959719D01*
X65102829Y-72454041D01*
X64883482Y-72454041D01*
X64883737Y-72318916D01*
X68445843Y-68759977D01*
X72007949Y-65201038D01*
X82894052Y-65223356D01*
X83315706Y-65224226D01*
X84883683Y-65227592D01*
X86287351Y-65230928D01*
X87535875Y-65234385D01*
X88638418Y-65238111D01*
X89604143Y-65242255D01*
X90442215Y-65246966D01*
X91161796Y-65252394D01*
X91772051Y-65258686D01*
X92282142Y-65265993D01*
X92701234Y-65274463D01*
X93038491Y-65284245D01*
X93303075Y-65295489D01*
X93504150Y-65308343D01*
X93650880Y-65322956D01*
X93752429Y-65339478D01*
X93817959Y-65358057D01*
X93856636Y-65378842D01*
X93877621Y-65401983D01*
X93916894Y-65508658D01*
X93927627Y-65537811D01*
G37*
%TD*%
M02*
